<?xml version="1.0" standalone="no"?>
<!DOCTYPE svg PUBLIC "-//W3C//DTD SVG 1.1//EN" "http://www.w3.org/Graphics/SVG/1.1/DTD/svg11.dtd" >
<svg>
<metadata>
Created by FontForge 20110222 at Mon Nov 23 04:42:50 2015
 By www-data
(c) Copyright 2001 by Tom Truong. All Rights Reserved
</metadata>
<defs>
<font id="UVNNhatKy" horiz-adv-x="995" >
  <font-face 
    font-family="UVN Nhat Ky"
    font-weight="400"
    font-stretch="normal"
    units-per-em="2048"
    panose-1="2 14 5 3 3 5 5 2 4 4"
    ascent="1638"
    descent="-410"
    x-height="963"
    cap-height="1335"
    bbox="-342 -483 2214 2152"
    underline-thickness="72"
    underline-position="-144"
    unicode-range="U+0020-F002"
  />
<missing-glyph horiz-adv-x="1024" 
d="M128 0v2152h768v-2152h-768zM256 128h512v1896h-512v-1896z" />
    <glyph glyph-name=".notdef" horiz-adv-x="1024" 
d="M128 0v2152h768v-2152h-768zM256 128h512v1896h-512v-1896z" />
    <glyph glyph-name=".null" horiz-adv-x="0" 
 />
    <glyph glyph-name="nonmarkingreturn" horiz-adv-x="526" 
 />
    <glyph glyph-name="space" unicode=" " horiz-adv-x="526" 
 />
    <glyph glyph-name="exclam" unicode="!" horiz-adv-x="578" 
d="M289 166q40 0 67 -27t27 -67q0 -39 -27.5 -68t-66.5 -29q-38 0 -66 29.5t-28 67.5q0 40 27 67t67 27zM211 1331h158l-45 -952h-68z" />
    <glyph glyph-name="quotedbl" unicode="&#x22;" horiz-adv-x="672" 
d="M514 868h-31l-61 455q-4 30 -4 43q0 96 82 96q80 0 80 -98q0 -4 -5 -41zM188 868h-30l-62 455q-4 29 -4 41q0 98 80 98q82 0 82 -96q0 -14 -4 -43z" />
    <glyph glyph-name="numbersign" unicode="#" horiz-adv-x="1575" 
d="M700 872l-104 -294h295l104 294h-295zM793 1454h114l-172 -483h295l172 483h113l-172 -483h315l-35 -99h-315l-102 -294h340l-37 -99h-340l-170 -479h-113l170 479h-293l-172 -479h-112l170 479h-332l37 99h329l105 294h-359l35 99h359z" />
    <glyph glyph-name="dollar" unicode="$" horiz-adv-x="1053" 
d="M485 1532h97v-201q140 -2 295 -55q0 -136 14 -283h-29q-29 258 -276 258q-142 0 -236 -58q-112 -70 -112 -204q0 -88 64 -139q56 -46 284 -101q219 -53 290 -120q78 -76 78 -213q0 -166 -105 -276q-100 -105 -267 -130v-209h-97v201q-194 4 -338 94q0 163 -11 326h30
q33 -344 319 -344q148 0 245 79q106 86 106 230q0 101 -57 154q-55 50 -259 96q-187 42 -268 98q-119 82 -119 244q0 148 105 240q93 82 247 104v209z" />
    <glyph glyph-name="percent" unicode="%" horiz-adv-x="1470" 
d="M1098 553q-101 0 -161 -62.5t-60 -164.5q0 -108 58 -187q65 -88 169 -88q101 0 161 64t60 166q0 105 -60 185q-65 87 -167 87zM1100 629q144 0 241 -90q99 -93 99 -236q0 -144 -97.5 -236t-242.5 -92q-144 0 -241 92.5t-97 235.5t98 236q96 90 240 90zM367 1280
q-102 0 -162 -62.5t-60 -164.5q0 -108 59 -187q65 -88 169 -88q100 0 161 65q58 64 58 165q0 104 -59 184q-65 88 -166 88zM1122 1356l68 -43l-842 -1338l-67 43zM369 1356q144 0 241 -92.5t97 -235.5t-97 -234.5t-241 -91.5q-145 0 -240 90q-98 92 -98 236q0 143 98 237
q96 91 240 91z" />
    <glyph glyph-name="ampersand" unicode="&#x26;" horiz-adv-x="1309" 
d="M891 1292q0 -116 26 -258h-34q-83 242 -287 242q-112 0 -183 -65q-75 -67 -75 -177q0 -102 61.5 -174.5t161.5 -91.5q35 -5 69 -10q50 -10 50 -33q0 -20 -80 -29q-364 -41 -364 -313q0 -141 101 -234.5t243 -93.5q174 0 277 113q99 110 99 285h-77q-94 0 -136 -15
q-65 -22 -98 -90h-29q55 199 215 199h232q93 0 137 15q65 23 98 91h29q-55 -200 -215 -200h-37q-12 -218 -138 -346q-130 -132 -347 -132q-200 0 -335 101q-149 111 -149 305q0 270 328 354q-225 92 -225 289q0 159 131 251q116 81 281 81q144 0 270 -64z" />
    <glyph glyph-name="quotesingle" unicode="'" horiz-adv-x="346" 
d="M188 868h-30l-62 455q-4 29 -4 41q0 98 80 98t80 -96q0 -27 -2 -42z" />
    <glyph glyph-name="parenleft" unicode="(" horiz-adv-x="551" 
d="M442 1358l19 -25q-182 -159 -182 -792q0 -634 182 -793l-19 -24q-176 120 -246 367q-49 175 -49 450t49 450q70 246 246 367z" />
    <glyph glyph-name="parenright" unicode=")" horiz-adv-x="551" 
d="M109 1358q294 -204 294 -817q0 -276 -49 -450q-69 -247 -245 -367l-19 24q182 159 182 793q0 633 -182 792z" />
    <glyph glyph-name="asterisk" unicode="*" horiz-adv-x="1024" 
d="M455 1331h112l-26 -260l209 152l55 -95l-236 -106l236 -107l-55 -96l-209 152l24 -260h-108l24 260l-211 -152l-53 96l236 107l-236 106l51 95l213 -152z" />
    <glyph glyph-name="plus" unicode="+" horiz-adv-x="1706" 
d="M805 1221h98v-562h549v-98h-549v-561h-98v561h-551v98h551v562z" />
    <glyph glyph-name="comma" unicode="," horiz-adv-x="526" 
d="M199 176h157q-33 -285 -190 -403l-25 24q68 108 68 248q0 59 -10 131z" />
    <glyph glyph-name="hyphen" unicode="-" horiz-adv-x="702" 
d="M600 651h35q-42 -128 -57 -205h-369q-56 0 -109 -98h-34q35 108 57 205h369q56 0 108 98z" />
    <glyph glyph-name="hyphen" unicode="&#x2010;" horiz-adv-x="702" 
d="M600 651h35q-42 -128 -57 -205h-369q-56 0 -109 -98h-34q35 108 57 205h369q56 0 108 98z" />
    <glyph glyph-name="period" unicode="." horiz-adv-x="526" 
d="M279 154q36 0 61 -26t25 -62q0 -35 -25.5 -63t-60.5 -28t-59.5 28t-24.5 63q0 36 24 62t60 26z" />
    <glyph glyph-name="slash" unicode="/" horiz-adv-x="569" 
d="M508 1356h84l-533 -1544h-84z" />
    <glyph glyph-name="zero" unicode="0" horiz-adv-x="1053" 
d="M524 1276q-169 0 -243 -236q-50 -157 -50 -374q0 -216 50 -373q75 -236 243 -236q170 0 245 235q50 156 50 374q0 217 -50 375q-75 235 -245 235zM526 1356q236 0 347 -242q83 -180 83 -448t-83 -449q-111 -242 -347 -242q-235 0 -347 243q-85 183 -85 448q0 266 84 448
q113 242 348 242z" />
    <glyph glyph-name="one" unicode="1" horiz-adv-x="1053" 
d="M351 -6l-1 33q75 15 96 49q17 27 17 110v975q0 51 -44 70q-20 8 -89 16v31q128 38 272 100q-6 -148 -6 -307v-885q0 -82 18 -110q21 -35 97 -49l-1 -33q-80 14 -180 14q-99 0 -179 -14z" />
    <glyph glyph-name="two" unicode="2" horiz-adv-x="1053" 
d="M293 123h612l-28 -123h-727l14 119q584 453 584 844q0 125 -58 210q-66 97 -186 97q-191 0 -281 -258h-45q27 107 49 282q137 60 248 60q175 0 290 -103q120 -107 120 -280q0 -227 -205 -478q-130 -159 -387 -370z" />
    <glyph glyph-name="three" unicode="3" horiz-adv-x="1053" 
d="M482 694q156 -3 260 -64q128 -76 128 -220q0 -182 -197.5 -308.5t-502.5 -126.5h-6l-17 66q250 9 408 118t158 261q0 219 -381 219q-8 0 -24.5 -1t-24.5 -1l12 76q160 15 269 99q124 95 124 247q0 101 -63 160t-164 59q-188 0 -277 -272l-49 2q27 133 47 288
q140 60 269 60q151 0 263 -75q128 -86 128 -230q0 -243 -360 -357z" />
    <glyph glyph-name="four" unicode="4" horiz-adv-x="1053" 
d="M649 1126q-282 -374 -448 -700h448v700zM702 1356h74v-930h182v-84h-182v-342h-127v342h-563v84q233 439 616 930z" />
    <glyph glyph-name="five" unicode="5" horiz-adv-x="1053" 
d="M207 1331h651l-20 -108h-543l-14 -336q107 39 215 39q163 0 270 -94q111 -98 111 -259q0 -244 -223 -412q-184 -138 -451 -186l-13 70q215 45 364 163q181 143 181 339q0 130 -88 208q-84 76 -215 76q-117 0 -242 -69z" />
    <glyph glyph-name="six" unicode="6" horiz-adv-x="1053" 
d="M553 815q-147 0 -237 -117q-83 -107 -83 -258q0 -159 79 -266q88 -119 241 -119q150 0 233 116q74 103 74 259q0 155 -74 262q-84 123 -233 123zM774 1380l35 -53q-361 -236 -510 -553q122 115 289 115q171 0 290 -128t119 -300q0 -200 -127 -341q-131 -145 -329 -145
q-205 0 -330 150q-117 141 -117 350q0 293 208 545q179 216 472 360z" />
    <glyph glyph-name="seven" unicode="7" horiz-adv-x="1053" 
d="M971 1331q-179 -329 -277 -590h143v-75h-170q-120 -342 -139 -666h-159q43 343 171 666h-332v75h363q100 234 248 463h-420q-104 0 -148 -43q-36 -36 -63 -143h-43q33 170 41 313h785z" />
    <glyph glyph-name="eight" unicode="8" horiz-adv-x="1053" 
d="M510 705q-268 -108 -268 -343q0 -135 80 -224q84 -93 217 -93q123 0 205.5 82t82.5 205q0 117 -108 223q-67 65 -209 150zM643 764q320 -174 320 -416q0 -167 -140 -274q-129 -99 -301 -99q-173 0 -289 104q-120 108 -120 279q0 274 319 392q-233 137 -233 315
q0 135 105 216q96 75 235 75q143 0 242 -75q108 -83 108 -222q0 -194 -246 -295zM571 807q189 92 189 268q0 92 -66 153.5t-159 61.5q-85 0 -145 -54.5t-60 -139.5q0 -94 80 -174q48 -48 161 -115z" />
    <glyph glyph-name="nine" unicode="9" horiz-adv-x="1053" 
d="M336 -31l-33 60q366 176 500 616q-127 -174 -316 -174q-174 0 -286 129q-107 123 -107 299q0 197 112 328q118 139 312 139q216 0 331 -162q101 -142 101 -366q0 -286 -177 -523q-164 -220 -437 -346zM520 1284q-138 0 -219 -112q-72 -101 -72 -244q0 -147 70 -251
q80 -120 221 -120q139 0 220 118q71 104 71 249q0 143 -72 245q-81 115 -219 115z" />
    <glyph glyph-name="colon" unicode=":" horiz-adv-x="526" 
d="M279 154q36 0 61 -26t25 -62q0 -35 -25.5 -63t-60.5 -28t-59.5 28t-24.5 63q0 36 24 62t60 26zM279 770q36 0 61 -26t25 -62q0 -34 -26 -62t-60 -28t-59 28t-25 62q0 37 24 62.5t60 25.5z" />
    <glyph glyph-name="semicolon" unicode=";" horiz-adv-x="526" 
d="M201 682q0 36 25 62t61 26t61 -26t25 -62q0 -34 -26 -62t-60 -28t-60 28t-26 62zM213 176h156q-35 -288 -189 -403l-26 24q67 110 67 248q0 73 -8 131z" />
    <glyph glyph-name="less" unicode="&#x3c;" horiz-adv-x="1706" 
d="M1442 1135v-109l-1022 -416l1022 -413v-109l-1178 481v82z" />
    <glyph glyph-name="equal" unicode="=" horiz-adv-x="1706" 
d="M254 473h1198v-98h-1198v98zM254 846h1198v-98h-1198v98z" />
    <glyph glyph-name="greater" unicode="&#x3e;" horiz-adv-x="1706" 
d="M264 1135l1178 -484v-82l-1178 -481v109l1022 413l-1022 416v109z" />
    <glyph glyph-name="question" unicode="?" horiz-adv-x="848" 
d="M383 166q40 0 67 -27t27 -67t-27 -68.5t-67 -28.5q-38 0 -66 29.5t-28 67.5q0 40 27 67t67 27zM403 369h-41q-1 123 -14 282h21q136 0 227.5 89t91.5 225q0 129 -75 216q-80 91 -207 91q-107 0 -186 -74q-72 -68 -99 -176h-35q18 102 25 258q139 76 284 76
q183 0 299.5 -110t116.5 -292q0 -165 -127 -280q-30 -27 -185 -101q-50 -24 -69.5 -62.5t-26.5 -141.5z" />
    <glyph glyph-name="at" unicode="@" horiz-adv-x="2019" 
d="M1192 340q-120 -215 -311 -215q-132 0 -206 105q-65 93 -65 231q0 189 145 363q152 182 337 182q176 0 221 -199l55 182h131l-170 -606q-18 -64 -18 -104q0 -111 100 -111q46 0 109 30q148 72 234 244q77 156 77 334q0 298 -207 470q-194 161 -498 161q-387 0 -631 -259
q-239 -254 -239 -642q0 -176 56 -304q91 -210 315 -328q204 -107 448 -107q338 0 617 208l30 -34q-297 -220 -653 -220q-189 0 -340 46q-267 81 -423 286q-159 208 -159 484q0 289 177 527q173 234 450 331q158 55 340 55q331 0 539 -174q221 -186 221 -510q0 -157 -58 -295
t-164 -234q-122 -112 -255 -112q-193 0 -205 215zM1094 969q-55 0 -101 -31q-96 -64 -177 -254q-77 -179 -77 -305q0 -85 35 -142q43 -67 123 -67q155 0 272 218q101 189 101 360q0 86 -44 149q-49 72 -132 72z" />
    <glyph glyph-name="A" unicode="A" horiz-adv-x="1237" 
d="M610 1188l-231 -588h459zM435 1337q66 -14 157 -14q70 0 110 8q21 -86 52 -166l385 -995q50 -130 137 -141v-35q-102 16 -170 16q-84 0 -176 -16v34q94 8 94 70q0 29 -20 78l-136 334h-522l-117 -307q-28 -73 -28 -107q0 -58 100 -68v-34q-88 16 -166 16q-74 0 -168 -16
v35q66 10 114 81q25 39 62 132l346 876q31 78 31 119q0 55 -86 62z" />
    <glyph glyph-name="B" unicode="B" horiz-adv-x="1151" 
d="M328 674v-588h184q179 0 291 56q147 74 147 235q0 176 -143 246q-104 51 -301 51h-178zM328 1247v-493h145q173 0 260 40q125 58 125 210q0 132 -85 187.5t-316 55.5h-129zM86 1331h412q229 0 341 -49q167 -74 167 -272q0 -231 -269 -287q363 -35 363 -334
q0 -211 -203 -312q-155 -77 -389 -77h-422v33q75 15 97 50q16 27 16 110v946q0 82 -17 110q-21 34 -96 49v33z" />
    <glyph glyph-name="C" unicode="C" horiz-adv-x="1233" 
d="M1124 1270q0 -207 10 -289h-34q-38 285 -367 285q-234 0 -379 -166q-139 -158 -139 -395q0 -260 157 -443q165 -192 421 -192q201 0 372 131l-8 -101q-169 -125 -379 -125q-304 0 -499 191.5t-195 495.5q0 286 183 487q188 207 472 207q219 0 385 -86z" />
    <glyph glyph-name="D" unicode="D" horiz-adv-x="1341" 
d="M328 1241v-1151h129q132 0 218 18q207 41 326 195q117 150 117 363q0 191 -95 337q-102 154 -279 206q-110 32 -300 32h-116zM86 1331h358q201 0 323 -28q228 -52 360 -228q128 -172 128 -409q0 -234 -128 -404q-129 -173 -354 -231q-121 -31 -320 -31h-367v33
q75 15 97 50q16 27 16 110v946q0 82 -17 110q-21 34 -96 49v33z" />
    <glyph glyph-name="E" unicode="E" horiz-adv-x="1147" 
d="M86 1331h938q5 -164 29 -274h-33q-25 123 -81 158q-43 26 -171 26h-440v-498h290q82 0 111 18q34 22 49 97h33q-14 -91 -14 -156q0 -61 14 -157h-33q-15 75 -50 97q-27 17 -110 17h-290v-569h438q182 0 232 43t77 182h33q-31 -139 -31 -315h-991v33q75 15 96 49
q17 28 17 111v946q0 83 -17 110q-21 34 -96 49v33z" />
    <glyph glyph-name="F" unicode="F" 
d="M86 1331h850q4 -158 29 -274h-33q-26 123 -81 158q-43 26 -171 26h-352v-524h233q83 0 110 16q35 21 50 96h33q-15 -97 -15 -155q0 -56 14 -158h-32q-16 76 -50 97q-27 18 -110 18h-233v-445q0 -83 16 -110q21 -34 96 -49v-33q-80 14 -178 14q-96 0 -176 -14v33
q75 15 96 49q17 27 17 110v953q0 83 -17 110q-21 34 -96 49v33z" />
    <glyph glyph-name="G" unicode="G" horiz-adv-x="1374" 
d="M1128 1274q0 -117 19 -307h-33q-43 297 -379 297q-237 0 -385 -166q-141 -160 -141 -400q0 -261 150.5 -436.5t365.5 -175.5q130 0 222 63q106 71 106 195v150q0 75 -143 98l-1 32q92 -14 191 -14q104 0 194 14v-32q-75 -15 -96 -49q-16 -28 -16 -111v-432h-55
q-16 56 -60 160q-164 -185 -401 -185q-245 0 -413.5 193t-168.5 475q0 318 199.5 516.5t517.5 198.5q192 0 327 -84z" />
    <glyph glyph-name="H" unicode="H" horiz-adv-x="1413" 
d="M973 1337q84 -14 176 -14q94 0 178 14v-32q-75 -16 -96 -50q-17 -27 -17 -110v-959q0 -82 17 -110q21 -33 96 -49v-33q-96 16 -178 16q-80 0 -176 -16v33q75 16 95 50q17 27 17 109v484h-757v-484q0 -83 16 -110q21 -34 96 -49v-33q-80 14 -178 14q-96 0 -176 -14v33
q75 15 96 49q17 27 17 110v957q0 83 -17 111q-21 34 -96 51v32q72 -14 176 -14q106 0 178 14v-32q-75 -17 -95 -51q-17 -28 -17 -111v-383h757v385q0 83 -17 110q-20 34 -95 50v32z" />
    <glyph glyph-name="I" unicode="I" horiz-adv-x="526" 
d="M86 1335q84 -14 176 -14q94 0 178 14v-32q-75 -16 -95 -50q-17 -27 -17 -110v-957q0 -83 16 -110q21 -34 96 -49v-33q-80 14 -178 14q-96 0 -176 -14v33q75 15 96 49q17 27 17 110v957q0 83 -17 110q-21 34 -96 50v32z" />
    <glyph glyph-name="J" unicode="J" horiz-adv-x="526" 
d="M86 1335q84 -14 178 -14t178 14v-32q-75 -16 -97 -50q-17 -27 -17 -110v-981q0 -161 -54 -252q-59 -98 -202 -158l-19 39q97 52 128 158q20 67 20 209v985q0 83 -18 111q-21 33 -97 49v32z" />
    <glyph glyph-name="K" unicode="K" horiz-adv-x="1151" 
d="M984 0q-272 346 -648 700l420 435q82 85 82 118q0 35 -99 52v32q96 -16 211 -16q111 0 193 16v-32q-95 -20 -203 -129l-448 -451q194 -178 424 -439q84 -96 135 -147q109 -107 157 -110q3 0 10 -2l1 -33q-134 11 -235 6zM86 -6v33q75 15 96 49q17 27 17 110v957
q0 83 -17 111q-21 34 -96 51v32q80 -16 176 -16q98 0 178 16v-32q-75 -17 -95 -51q-17 -28 -17 -111v-957q0 -83 16 -110q21 -34 96 -49v-33q-80 14 -178 14q-96 0 -176 -14z" />
    <glyph glyph-name="L" unicode="L" horiz-adv-x="1010" 
d="M86 1335q84 -14 176 -14q94 0 178 14v-32q-75 -16 -95 -50q-17 -27 -17 -110v-1053h334q216 0 268 52t76 220h34q-36 -250 -36 -362h-918v33q75 15 96 49q17 28 17 111v950q0 83 -17 110q-21 34 -96 50v32z" />
    <glyph glyph-name="M" unicode="M" horiz-adv-x="1630" 
d="M115 1337q84 -10 147 -10q48 0 90 4l494 -1138l426 1138q60 -6 98 -6q36 0 139 12v-32q-60 -10 -81 -34.5t-21 -84.5q0 -41 4 -105l47 -747q8 -128 23 -182q31 -115 110 -125v-33q-80 14 -184 14t-184 -14v33q112 21 112 114q0 58 -6 169l-45 835l-426 -1145h-70
l-481 1147l-37 -858q-4 -93 -4 -146q0 -91 113 -116v-33q-96 14 -160 14q-73 0 -159 -14l-1 33q87 10 114 140q8 39 15 201l29 662q2 46 2 55q0 146 -22.5 180t-81.5 40v32z" />
    <glyph glyph-name="N" unicode="N" horiz-adv-x="1380" 
d="M86 -6v33q75 15 96 49q17 27 17 110v957q0 83 -17 111q-21 34 -96 51v32q78 -14 147 -14q59 0 113 10l758 -1122v934q0 83 -17 110q-21 34 -96 50l1 32q84 -14 157 -14q77 0 159 14l1 -32q-76 -16 -97 -49q-18 -28 -18 -111v-1145h-90l-815 1202v-1016q0 -82 18 -110
q21 -35 96 -49v-33q-84 14 -159 14q-72 0 -158 -14z" />
    <glyph glyph-name="O" unicode="O" horiz-adv-x="1460" 
d="M707 1268q-226 0 -362 -156q-130 -148 -130 -377q0 -279 156.5 -471t380.5 -192q226 0 362 157q129 150 129 379q0 275 -158 467.5t-378 192.5zM86 698q0 286 178 471q181 189 465 189q291 0 473 -218q172 -204 172 -501q0 -284 -180 -473t-463 -189q-291 0 -473 219
q-172 205 -172 502z" />
    <glyph glyph-name="P" unicode="P" horiz-adv-x="1063" 
d="M86 -6v33q75 15 96 49q17 27 17 110v953q0 83 -17 110q-21 34 -96 49v33h459q224 0 358 -91q156 -107 156 -320q0 -181 -125 -289q-119 -103 -303 -103q-98 0 -179 30.5t-81 57.5q0 15 16 15q4 0 28 -6q83 -21 154 -21q147 0 246 80q105 87 105 231q0 171 -139 256
q-114 70 -296 70h-157v-1055q0 -83 16 -110q21 -34 96 -49v-33q-80 14 -178 14q-96 0 -176 -14z" />
    <glyph glyph-name="Q" unicode="Q" horiz-adv-x="1460" 
d="M1143 121q37 -58 131 -58q40 0 106 25l-32 -88q-54 -25 -125 -25q-113 0 -193 72q-146 -70 -299 -70q-291 0 -473 219q-172 205 -172 502q0 285 178.5 472.5t462.5 187.5q292 0 475 -218q172 -205 172 -503q0 -303 -231 -516zM707 1268q-226 0 -362 -156
q-130 -148 -130 -377q0 -279 156.5 -471t380.5 -192q226 0 362 157q129 150 129 379q0 275 -158 467.5t-378 192.5z" />
    <glyph glyph-name="R" unicode="R" horiz-adv-x="1139" 
d="M86 1331h543q171 0 278 -75q123 -86 123 -250q0 -169 -148 -268q-126 -83 -306 -91q164 -180 311 -367l101 -129q16 -22 50 -63q51 -54 135 -59v-33q-86 6 -135 6q-34 0 -96 -4q-232 321 -507 618q-62 67 -62 74q0 19 86 19q175 0 286 55q148 72 148 229q0 134 -98 191
t-357 57h-110v-1055q0 -83 16 -110q21 -34 96 -49v-33q-80 14 -178 14q-96 0 -176 -14v33q75 15 96 49q17 27 17 110v953q0 83 -17 110q-21 34 -96 49v33z" />
    <glyph glyph-name="S" unicode="S" horiz-adv-x="1100" 
d="M952 1300q0 -174 14 -292h-32q-35 266 -322 266q-154 0 -265 -57q-140 -71 -140 -211q0 -152 216 -212q200 -49 401 -98q216 -84 216 -293q0 -210 -175 -327q-151 -101 -371 -101q-217 0 -394 99q0 11 1 34.5t1 35.5q0 144 -14 267l35 1q39 -357 373 -357q163 0 277 77
q132 88 132 243q0 104 -64.5 158t-303.5 102q-210 42 -302 97q-149 88 -149 259q0 189 172 286q140 79 344 79q164 0 350 -56z" />
    <glyph glyph-name="T" unicode="T" horiz-adv-x="1024" 
d="M55 1331h914q0 -187 28 -373h-32q-23 191 -113 244q-66 39 -277 39v-1055q0 -82 18 -110q22 -35 97 -49v-33q-80 14 -178 14t-178 -14v33q75 15 97 49q18 28 18 110v1055h-74q-165 0 -230.5 -59.5t-85.5 -223.5h-32q28 186 28 373z" />
    <glyph glyph-name="U" unicode="U" horiz-adv-x="1290" 
d="M60 1335q84 -14 178 -14q93 0 177 14l1 -32q-76 -16 -97 -50q-18 -28 -18 -110v-621q0 -218 62 -322q80 -134 282 -134t281 135q61 103 61 321v623q0 83 -17 110q-21 34 -96 48v32q108 -14 179 -14q66 0 176 14v-32q-75 -14 -96 -48q-17 -27 -17 -110v-629
q0 -266 -101 -395q-113 -146 -370 -146t-370 146q-101 129 -101 395v627q0 83 -18 111q-21 33 -97 49z" />
    <glyph glyph-name="V" unicode="V" horiz-adv-x="1071" 
d="M-86 1337q84 -14 176 -14q100 0 174 14v-34q-92 -7 -92 -70q0 -20 20 -75l357 -990l344 960q29 81 29 107q0 58 -101 68l1 34q78 -14 167 -14q88 0 166 14v-34q-70 -15 -113 -81q-23 -35 -59 -132l-412 -1115h-82l-436 1186q-47 127 -139 142v34z" />
    <glyph glyph-name="W" unicode="W" horiz-adv-x="1518" 
d="M-80 1337q86 -14 176 -14q88 0 166 14v-34q-94 -9 -94 -80q0 -23 14 -66l314 -975l221 690l-94 289q-41 125 -136 142l1 34q84 -14 176 -14q89 0 167 14v-34q-94 -8 -94 -68q0 -26 17 -78l315 -971l289 942q20 65 20 101q0 60 -100 74v34q80 -14 168 -14q87 0 165 14
l1 -34q-71 -16 -113 -80q-25 -40 -55 -133l-357 -1115h-79l-246 777l-242 -777h-88l-381 1186q-40 126 -131 142v34z" />
    <glyph glyph-name="X" unicode="X" horiz-adv-x="1157" 
d="M13 1337q106 -14 214 -14q102 0 188 14l1 -32q-107 -10 -107 -50q0 -24 47 -94l230 -344l258 365q26 37 26 65q0 58 -102 58v32q136 -14 211 -14q90 0 172 14v-32q-102 -6 -197 -140l-307 -432l359 -534q112 -167 223 -171l-1 -32q-104 14 -220 14q-119 0 -221 -14v33
q112 2 112 61q0 40 -39 98l-295 435l-293 -418q-53 -76 -53 -115q0 -59 104 -61l1 -33q-123 14 -195 14q-66 0 -192 -14v33q106 13 231 190l342 486l-336 495q-71 105 -162 105z" />
    <glyph glyph-name="Y" unicode="Y" horiz-adv-x="977" 
d="M306 -6l-1 33q75 15 97 49q18 28 18 110v371l-344 621q-65 118 -158 127v32q74 -14 186 -14q105 0 189 14v-32q-98 -13 -98 -64q0 -31 32 -88l283 -502l254 475q37 69 37 111q0 55 -103 68l1 32q68 -14 175 -14q98 0 176 14l1 -32q-84 -11 -170 -164l-334 -594v-361
q0 -82 18 -110q21 -35 97 -49l-1 -33q-80 14 -178 14q-97 0 -177 -14z" />
    <glyph glyph-name="Z" unicode="Z" horiz-adv-x="1128" 
d="M185 1331h839l-782 -1241h450q157 0 227.5 62t92.5 217h35q-37 -183 -37 -369h-971l780 1241h-325q-155 0 -220 -41q-79 -50 -102 -194h-33q34 128 46 325z" />
    <glyph glyph-name="bracketleft" unicode="[" horiz-adv-x="530" 
d="M424 1358l2 -31q-59 -20 -79 -54q-17 -29 -17 -93v-1323q0 -64 17 -94q20 -36 79 -56l-2 -29l-217 48v1583z" />
    <glyph glyph-name="backslash" unicode="\" horiz-adv-x="569" 
d="M508 -188l-531 1544h84l531 -1544h-84z" />
    <glyph glyph-name="bracketright" unicode="]" horiz-adv-x="530" 
d="M106 1358l218 -49v-1583l-218 -48l-2 29q59 19 80 56q17 29 17 94v1323q0 64 -17 93q-21 36 -80 54z" />
    <glyph glyph-name="asciicircum" unicode="^" horiz-adv-x="2048" 
d="M940 1462h166l526 -565h-88l-522 451l-524 -451h-86z" />
    <glyph glyph-name="underscore" unicode="_" horiz-adv-x="1024" 
d="M0 -383h1024v-100h-1024v100z" />
    <glyph glyph-name="grave" unicode="`" horiz-adv-x="1024" 
d="M688 1098h-67l-330 205q-62 39 -62 81q0 30 21 51t51 21q41 0 98 -59z" />
    <glyph glyph-name="a" unicode="a" 
d="M915 29v-35q-52 16 -104 16q-32 0 -102 -10l10 195q-126 -209 -346 -209q-126 0 -213 76q-90 79 -90 204q0 56 21 106q42 101 162 140q53 18 222 37q234 27 234 117q0 245 -246 245q-98 0 -171 -49q-80 -53 -99 -145h-37q18 90 18 192q148 78 291 78q350 0 350 -338v-538
q0 -82 100 -82zM711 514q-58 -12 -188 -33q-335 -55 -335 -207q0 -87 65 -144q62 -56 150 -56q140 0 228 109q83 101 83 244q0 14 -1.5 43t-1.5 44z" />
    <glyph glyph-name="b" unicode="b" horiz-adv-x="1128" 
d="M596 893q-145 0 -232 -137q-75 -118 -75 -273q0 -166 79 -282q90 -133 248 -133q151 0 237 128q75 111 75 269q0 167 -81 288q-92 140 -251 140zM301 1507q-10 -102 -10 -252v-485q131 207 340 207q198 0 315 -159q105 -142 105 -347q0 -198 -117 -337
q-124 -148 -318 -148q-212 0 -342 176q-37 -65 -75 -162h-39q20 160 20 402v823q0 102 -19.5 126.5t-97.5 24.5v33q98 22 238 98z" />
    <glyph glyph-name="c" unicode="c" horiz-adv-x="958" 
d="M827 928l15 -221h-37q-44 198 -238 198q-159 0 -264 -126q-100 -119 -100 -281q0 -181 112 -301q115 -123 295 -123q165 0 267 92l-25 -115q-121 -76 -277 -76q-212 0 -353.5 144t-141.5 356q0 222 151 367q148 143 371 143q107 0 225 -57z" />
    <glyph glyph-name="d" unicode="d" horiz-adv-x="1110" 
d="M526 895q-153 0 -244 -127q-81 -113 -81 -272q0 -160 79 -283q91 -143 242 -143q152 0 241 134q77 116 77 275q0 161 -75 278q-87 138 -239 138zM956 1507q-10 -104 -10 -255v-1082q0 -69 16 -96q21 -37 87 -45v-33q-93 14 -129 14q-35 0 -101 -14q10 53 19 197
q-133 -207 -340 -207q-193 0 -312 153q-108 141 -108 340q0 203 111 345q121 153 319 153q201 0 326 -195v443q0 81 -9 104q-17 47 -82 47h-24v33q94 21 237 98z" />
    <glyph glyph-name="e" unicode="e" horiz-adv-x="1006" 
d="M932 522h-729v-49q0 -167 115.5 -286t281.5 -119q152 0 291 145l-12 -119q-142 -119 -312 -119q-212 0 -351 150q-136 146 -136 360q0 201 120 346q128 154 326 154q190 0 300 -121q106 -117 106 -309v-33zM813 594v4q0 125 -79 216q-82 95 -206 95q-133 0 -221 -93
q-83 -87 -100 -222h606z" />
    <glyph glyph-name="f" unicode="f" horiz-adv-x="588" 
d="M582 1450l12 -137l-23 -4q-45 77 -114 77q-140 0 -140 -215v-208h236v-82h-236v-711q0 -77 31 -106q28 -27 107 -35l-1 -33q-78 14 -165 14q-82 0 -184 -14l-1 33q66 8 88 45q17 28 17 96v711h-123v49q69 0 96 31t27 177t59 232q69 100 207 100q55 0 107 -20z" />
    <glyph glyph-name="g" unicode="g" horiz-adv-x="967" 
d="M489 911q-105 0 -172 -68t-67 -173q0 -116 76 -206q80 -95 194 -95q98 0 162 80q59 74 59 174q0 112 -69 197q-74 91 -183 91zM979 964l-27 -87q-46 -11 -84 -11q-63 0 -145 21q135 -77 135 -238q0 -154 -113 -256q-109 -100 -264 -100q-122 0 -217 72
q-102 -81 -102 -140q0 -58 67 -82t326 -24q219 0 304 -48.5t85 -162.5q0 -152 -156 -230q-121 -61 -290 -61q-135 0 -228 54q-112 66 -112 192q0 41 22 85l125 64q-35 -58 -35 -125q0 -97 78 -150q67 -46 168 -46q108 0 202 50q113 60 113 159q0 60 -50.5 87.5t-198.5 30.5
h-208q-122 3 -185.5 28.5t-99.5 69.5q-44 53 -44 128q0 7 4 46q102 51 174 113q-82 102 -82 232q0 155 107 254q104 96 260 96q57 0 170.5 -17.5t171.5 -17.5q67 0 129 14z" />
    <glyph glyph-name="h" unicode="h" horiz-adv-x="1100" 
d="M303 1507q-14 -112 -14 -247v-455q105 172 315 172q314 0 314 -399v-408q0 -68 16 -96q22 -37 88 -45v-33q-100 14 -131 14q-36 0 -100 -14q18 120 18 205v389q0 144 -42 213q-53 88 -187 88q-289 0 -289 -342v-379q0 -68 17 -96q22 -37 87 -45v-33q-102 14 -157 14
q-58 0 -160 -14v33q66 8 88 45q16 28 16 96v1055q0 80 -9 104q-17 47 -81 47h-26v33q98 22 237 98z" />
    <glyph glyph-name="i" unicode="i" horiz-adv-x="473" 
d="M141 1253q0 37 25.5 63.5t62.5 26.5q38 0 63 -26t25 -64q0 -37 -25.5 -63.5t-62.5 -26.5q-36 0 -62 27t-26 63zM78 -4v33q66 8 88 45q16 28 16 96v618q0 59 -20.5 75t-81.5 18v30q93 15 221 84q-10 -96 -10 -177v-657q0 -63 19 -91q23 -34 85 -41v-33q-102 14 -157 14
q-58 0 -160 -14z" />
    <glyph glyph-name="j" unicode="j" horiz-adv-x="473" 
d="M150 1253q0 38 25 64t63 26t63 -26t25 -64q0 -37 -25.5 -63.5t-62.5 -26.5q-36 0 -62 27t-26 63zM84 -378v28q70 13 93 79q13 39 13 130v929q0 59 -20.5 75t-81.5 18v30q94 16 219 84q-8 -78 -8 -190v-914q0 -274 -172 -274q-30 0 -43 5z" />
    <glyph glyph-name="k" unicode="k" horiz-adv-x="948" 
d="M737 -4q-164 256 -440 549q332 319 332 350t-94 35v32q74 -10 159 -10q92 0 160 10v-10q-231 -184 -432 -389l129 -135q71 -75 182 -229q122 -170 195 -170h12v-33q-32 4 -102 4q-67 0 -101 -4zM78 -4v33q66 8 88 45q16 28 16 96v1130q0 59 -20.5 75t-81.5 18v28
q85 13 221 86q-10 -96 -10 -177v-1169q0 -63 19 -91q23 -34 85 -41v-33q-102 14 -157 14q-58 0 -160 -14z" />
    <glyph glyph-name="l" unicode="l" horiz-adv-x="473" 
d="M78 -4v33q66 8 88 45q16 28 16 96v1130q0 59 -20.5 75t-81.5 18v28q85 13 221 86q-10 -96 -10 -177v-1169q0 -63 19 -91q23 -34 85 -41v-33q-102 14 -157 14q-58 0 -160 -14z" />
    <glyph glyph-name="m" unicode="m" horiz-adv-x="1612" 
d="M78 -4v33q66 8 88 45q16 28 16 96v618q0 59 -20.5 75t-81.5 18v30q93 15 221 84q-12 -183 -12 -190q93 172 286 172q210 0 269 -197q89 197 303 197q285 0 285 -367v-440q0 -68 16 -96q22 -37 88 -45v-33q-143 14 -129 14q-38 0 -102 -14q18 120 18 205v389
q0 138 -33 204q-47 97 -172 97q-258 0 -258 -342v-379q0 -69 16 -96q22 -37 87 -45l-1 -33q-104 14 -153 14q-39 0 -157 -14l-1 33q66 8 88 45q17 28 17 96v408q0 146 -31 213q-46 100 -174 100q-260 0 -260 -342v-379q0 -68 17 -96q22 -37 87 -45v-33q-102 14 -157 14
q-58 0 -160 -14z" />
    <glyph glyph-name="n" unicode="n" horiz-adv-x="1100" 
d="M301 995q-12 -183 -12 -190q105 172 315 172q177 0 252 -115q62 -95 62 -284v-408q0 -68 16 -96q22 -37 88 -45v-33q-100 14 -131 14q-36 0 -100 -14q18 120 18 205v388q0 144 -41 213q-54 89 -188 89q-289 0 -289 -342v-379q0 -68 17 -96q22 -37 87 -45v-33
q-102 14 -157 14q-60 0 -158 -14v33q64 9 86 46q16 28 16 95v618q0 60 -22 76q-14 11 -80 17v30q93 15 221 84z" />
    <glyph glyph-name="o" unicode="o" horiz-adv-x="1139" 
d="M563 903q-167 0 -265 -109q-95 -105 -95 -274q0 -179 93 -312q105 -149 277 -149q166 0 266 112q95 107 95 275q0 176 -95 309q-106 148 -276 148zM569 987q214 0 351 -145.5t137 -360.5q0 -216 -135 -360q-138 -146 -353 -146t-353 147q-136 143 -136 359t137 361
t352 145z" />
    <glyph glyph-name="p" unicode="p" horiz-adv-x="1128" 
d="M596 893q-125 0 -215 -115.5t-90 -294.5q0 -163 75 -279q88 -136 242 -136q145 0 236 120q84 109 84 258q0 176 -76 300q-91 147 -256 147zM303 995q-12 -139 -12 -225q131 207 340 207q198 0 315 -158q105 -143 105 -348q0 -196 -116 -336q-123 -149 -314 -149
q-201 0 -330 194v-368q0 -67 17 -96q22 -36 87 -46v-32h-5q-23 0 -74.5 7t-77.5 7q-34 0 -158 -14v32q64 10 86 47q16 28 16 95v976q0 60 -22 76q-14 11 -80 17v30q84 12 223 84z" />
    <glyph glyph-name="q" unicode="q" horiz-adv-x="1128" 
d="M854 819l76 144h37q-19 -137 -19 -400v-751q0 -51 8 -77q17 -52 97 -65v-32q-133 14 -160 14q-21 0 -85 -8q-59 -7 -73 -6v32q90 15 102 87q3 21 3 55v385q-127 -211 -342 -211q-193 0 -311 153q-109 139 -109 338q0 205 113 346q121 154 321 154q203 0 342 -158z
M840 479q0 167 -79 283q-90 133 -249 133q-151 0 -237 -128q-74 -111 -74 -269q0 -161 78 -286q91 -144 243 -144q153 0 241 134q77 117 77 277z" />
    <glyph glyph-name="r" unicode="r" horiz-adv-x="649" 
d="M78 -4v33q66 8 88 45q16 28 16 96v618q0 59 -23 77q-18 14 -81 16v30q100 16 223 84q-10 -102 -10 -225q115 207 282 207q28 0 56 -12l12 -140q-4 1 -36 18q-27 15 -62 15q-129 0 -197 -131q-55 -105 -55 -246v-311q0 -68 17 -96q22 -37 87 -45v-33q-102 14 -157 14
q-58 0 -160 -14z" />
    <glyph glyph-name="s" unicode="s" horiz-adv-x="883" 
d="M752 937q1 -68 13 -204h-32q-35 180 -256 180q-100 0 -179 -42q-97 -52 -97 -144q0 -100 156 -149l290 -82q156 -67 156 -213q0 -145 -132 -232q-116 -76 -268 -76q-167 0 -300 86q-4 116 -19 215h33q20 -109 98 -168q75 -57 188 -57q105 0 189 52q98 60 98 159
q0 109 -233 169q-180 46 -236 76q-125 67 -125 193q0 146 136 223q110 62 268 62q148 0 252 -48z" />
    <glyph glyph-name="t" unicode="t" horiz-adv-x="682" 
d="M285 1235h14v-272h295v-80h-295v-631q0 -89 25 -130q32 -54 118 -54q83 0 172 61v-96q-83 -58 -192 -58q-232 0 -232 261v647h-133v80h133l1 196q57 17 94 76z" />
    <glyph glyph-name="u" unicode="u" horiz-adv-x="1067" 
d="M764 -4q11 50 14 182q-106 -192 -315 -192q-313 0 -313 366v436q0 58 -23 76q-18 15 -80 17v28q85 13 219 86q-8 -38 -8 -116v-517q0 -290 227 -290q289 0 289 374v342q0 58 -21 76q-18 15 -79 17v28q86 14 219 86q-12 -68 -12 -179v-646q0 -68 16 -96q22 -37 88 -45v-33
q-54 14 -131 14q-52 0 -90 -14z" />
    <glyph glyph-name="v" unicode="v" horiz-adv-x="915" 
d="M2 967q62 -15 154 -15q95 0 157 15v-33q-96 -12 -96 -66q0 -21 13 -60l223 -675l239 676q13 37 13 63q0 50 -96 62l-1 32q72 -14 146 -14q89 0 145 15v-33q-72 -19 -131 -178l-283 -770h-88l-264 770q-28 81 -44 108q-32 56 -87 70v33z" />
    <glyph glyph-name="w" unicode="w" horiz-adv-x="1309" 
d="M-14 966q70 -14 149 -14q88 0 156 14v-32q-94 -12 -94 -66q0 -21 12 -59l213 -668l188 592q-47 181 -137 201v32q62 -14 152 -14q87 0 151 14v-32q-96 -12 -96 -66q0 -20 12 -59l203 -664l209 664q10 32 10 63q0 50 -94 62v32q72 -14 145 -14q88 0 146 15v-33
q-79 -18 -131 -178l-250 -770h-90l-187 618l-198 -618h-88l-248 770q-25 76 -44 109q-35 57 -89 69v32z" />
    <glyph glyph-name="x" unicode="x" horiz-adv-x="915" 
d="M36 966q74 -14 164 -14q85 0 174 14l-1 -32q-87 -4 -87 -45q0 -17 22 -53l146 -242l157 242q23 35 23 57q0 37 -88 41v32q62 -14 151 -14q84 0 150 14v-32q-76 -10 -137 -103l-205 -313l260 -387q62 -92 137 -103v-32q-72 14 -164 14q-97 0 -173 -14l-1 32q88 4 88 42
q0 20 -22 57l-180 299l-199 -299q-23 -35 -23 -53q0 -43 88 -45v-33q-60 14 -151 14q-82 0 -149 -14v33q77 9 137 102l239 369l-219 331q-62 94 -137 103v32z" />
    <glyph glyph-name="y" unicode="y" horiz-adv-x="915" 
d="M401 -14l-264 770q-28 81 -44 108q-32 56 -87 70v33q62 -15 154 -15q97 0 157 15v-33q-96 -12 -96 -66q0 -21 13 -60l223 -675l239 676q13 37 13 63q0 50 -96 62l-1 32q72 -14 146 -14q89 0 145 15v-33q-73 -19 -131 -178l-305 -834q-73 -199 -122.5 -253t-127.5 -54
q-56 0 -115 39q-2 91 -14 165l35 1q21 -86 92 -86q101 0 137 106z" />
    <glyph glyph-name="z" unicode="z" horiz-adv-x="872" 
d="M158 963h635l-574 -881h303q108 0 160 36q59 40 78 142h33q-19 -146 -28 -260h-720l576 881h-299q-134 0 -177 -152h-30q26 100 43 234z" />
    <glyph glyph-name="braceleft" unicode="{" horiz-adv-x="1024" 
d="M846 1516v-49q-147 -2 -201 -55.5t-54 -255.5v-48.5v-48.5q0 -228 -63 -310.5t-233 -113.5q170 -32 233 -114t63 -310v-48.5v-48.5q0 -201 53.5 -254t201.5 -55v-49h-10q-240 0 -318 100q-59 75 -59 283q0 26 1 86t1 94q0 158 -65 219q-59 57 -220 70v56q162 14 221 69
q64 61 64 219q0 34 -1 93v84q0 214 60 289q78 98 326 98z" />
    <glyph glyph-name="bar" unicode="|" horiz-adv-x="1024" 
d="M459 1565h108v-2048h-108v2048z" />
    <glyph glyph-name="braceright" unicode="}" horiz-adv-x="1024" 
d="M178 1516h10q241 0 320 -101q58 -76 58 -286v-85q-1 -59 -1 -92q0 -156 58 -214.5t225 -73.5v-56q-161 -13 -220 -69q-63 -62 -63 -220q0 -33 1 -91v-83q0 -216 -60 -291q-79 -98 -328 -98v49q149 2 203 55.5t54 254.5v49.5v50.5q0 226 62.5 307.5t231.5 112.5
q-169 31 -232 114q-62 80 -62 305v51v50q0 201 -54 255t-203 57v49z" />
    <glyph glyph-name="asciitilde" unicode="~" horiz-adv-x="1706" 
d="M1530 750v-113q-203 -143 -387 -143q-101 0 -289.5 68.5t-288.5 68.5q-158 0 -387 -160v113q211 145 387 145q101 0 291.5 -69.5t286.5 -69.5q162 0 387 160z" />
    <glyph glyph-name="exclamdown" unicode="&#xa1;" horiz-adv-x="578" 
d="M256 952h68l45 -952h-158zM289 1356q37 0 65.5 -28.5t28.5 -65.5q0 -39 -27.5 -68t-66.5 -29q-41 0 -67.5 28t-26.5 69q0 39 27.5 66.5t66.5 27.5z" />
    <glyph glyph-name="cent" unicode="&#xa2;" horiz-adv-x="1053" 
d="M571 1356h80v-186q122 -4 217 -56l13 -223h-37q-44 199 -236 199q-159 0 -265 -125q-101 -119 -101 -281q0 -181 113 -301q115 -123 294 -123q166 0 266 90l-22 -114q-117 -72 -241 -74l-1 -187h-80v187q-201 23 -325.5 159.5t-124.5 337.5q0 205 124 341
q122 133 326 165v191z" />
    <glyph glyph-name="sterling" unicode="&#xa3;" horiz-adv-x="1053" 
d="M877 1272q0 -167 12 -273h-33q-53 271 -233 271q-103 0 -165 -91q-55 -81 -55 -188q0 -70 41 -268h336v-82h-309q12 -74 12 -139q0 -90 -44 -203l-86 -190h325q179 0 225 237h33q-40 -205 -52 -346h-663q144 259 144 426q0 44 -33 215h-189v82h172q-18 112 -18 178
q0 179 84 307q98 148 268 148q124 0 228 -84z" />
    <glyph glyph-name="currency" unicode="&#xa4;" horiz-adv-x="1053" 
d="M29 479l22 76h143q-4 87 -4 107q0 19 4 106h-153l22 76h142q39 207 154 347q136 165 329 165q157 0 283 -86q0 -207 8 -289h-35q-27 295 -260 295q-154 0 -250 -145q-76 -115 -98 -287h567l-20 -76h-553q-2 -20 -2 -63q0 -82 6 -150h487l-24 -76h-451q28 -171 101 -279
q93 -139 245 -139q179 0 309 132l-6 -93q-127 -125 -313 -125q-202 0 -332 155q-112 135 -145 349h-176z" />
    <glyph glyph-name="yen" unicode="&#xa5;" horiz-adv-x="1053" 
d="M-16 1337q84 -14 182 -14t178 14v-32q-98 -13 -98 -64q0 -29 33 -88l282 -502l254 475q37 69 37 111q0 55 -102 68v32q72 -14 170 -14q105 0 177 14l1 -32q-85 -11 -172 -164l-146 -258h264v-76h-305l-131 -232h436v-75h-450v-314q0 -83 17 -110q21 -34 96 -49l-1 -33
q-80 14 -171 14q-92 0 -164 -14v33q75 15 96 49q16 27 16 110v314h-477v75h465l-125 232h-340v76h295l-160 295q-64 118 -157 127v32z" />
    <glyph glyph-name="brokenbar" unicode="&#xa6;" horiz-adv-x="1024" 
d="M459 408h108v-758h-108v758zM459 1432h108v-758h-108v758z" />
    <glyph glyph-name="section" unicode="&#xa7;" horiz-adv-x="1024" 
d="M492 774q-115 0 -190 -70t-75 -184q0 -128 91.5 -216.5t220.5 -88.5q114 0 185 77t71 191q0 117 -92.5 204t-210.5 87zM708 1325q10 -87 19 -143l-22 -2q-54 108 -156 108q-50 0 -85.5 -34.5t-35.5 -84.5q0 -125 203 -279q264 -201 264 -398q0 -151 -102 -251t-254 -100
q-5 0 -15.5 1t-15.5 1q207 -154 207 -303q0 -99 -73 -162q-69 -61 -169 -61q-109 0 -190 51q-3 47 -10 142l20 6q60 -123 184 -123q55 0 96 42.5t41 98.5q0 88 -189 242q-146 119 -197 183q-93 115 -93 247q0 144 92.5 242t235.5 98q23 0 83 -6q-218 167 -218 311
q0 97 74 154q67 51 167 51q73 0 139 -31z" />
    <glyph glyph-name="dieresis" unicode="&#xa8;" horiz-adv-x="1024" 
d="M688 1352q41 0 69.5 -30t28.5 -71q0 -42 -28 -71t-70 -29t-71 29t-29 71q0 40 30 70.5t70 30.5zM336 1352q40 0 70 -30.5t30 -70.5q0 -42 -29 -71t-71 -29t-70 29t-28 71q0 41 28.5 71t69.5 30z" />
    <glyph glyph-name="copyright" unicode="&#xa9;" horiz-adv-x="1683" 
d="M1120 1093l31 1v-310h-37q-65 275 -283 275q-253 0 -253 -375q0 -383 272 -383q173 0 285 174l32 -22q-114 -207 -342 -207q-168 0 -284 126q-113 122 -113 292q0 178 108 304q114 132 289 132q72 0 148 -34t82 -34q57 0 65 61zM844 1300q-255 0 -436 -183.5t-181 -438.5
q0 -253 181 -437t434 -184q254 0 435 183.5t181 437.5q0 256 -179.5 439t-434.5 183zM844 1376q288 0 491 -204.5t203 -493.5q0 -288 -204 -492t-492 -204t-492.5 204t-204.5 492q0 291 204 494.5t495 203.5z" />
    <glyph glyph-name="ordfeminine" unicode="&#xaa;" horiz-adv-x="748" 
d="M686 680v-25q-49 13 -78 13q-24 0 -76 -9l7 138q-95 -148 -258 -148q-93 0 -158 51q-70 55 -70 146q0 114 105 159q52 23 201 39q173 19 173 82q0 172 -184 172q-73 0 -127 -33q-61 -37 -76 -104l-28 1q14 56 14 134q112 54 217 54q264 0 264 -236v-377q0 -57 74 -57z
M532 1020q-115 -21 -231 -41q-160 -44 -160 -127q0 -63 51 -103q47 -38 111 -38q108 0 172 79q60 73 60 183q0 8 -1.5 23.5t-1.5 23.5z" />
    <glyph glyph-name="guillemotleft" unicode="&#xab;" horiz-adv-x="764" 
d="M494 905q24 0 24 -18q0 -14 -35 -38q-295 -199 -295 -368q0 -88 86 -186q52 -60 158 -142q86 -66 86 -77q0 -17 -22 -17q-34 0 -164 86q-163 108 -216 178t-53 158q0 101 74 186q48 54 160 130q159 108 197 108zM707 946q20 0 20 -20q0 -11 -66 -93q-84 -103 -124 -168
q-66 -109 -66 -184q0 -74 66 -183q42 -68 124 -169q66 -82 66 -90q0 -21 -20 -21q-26 0 -177 154q-110 112 -150 179.5t-40 129.5q0 100 121 236q203 229 246 229z" />
    <glyph glyph-name="logicalnot" unicode="&#xac;" horiz-adv-x="1706" 
d="M254 858h1198v-502h-96v402h-1102v100z" />
    <glyph glyph-name="registered" unicode="&#xae;" horiz-adv-x="1683" 
d="M723 717h68q247 0 247 176q0 82 -65 125q-56 37 -142 37q-108 0 -108 -74v-264zM469 1090h393q121 0 205 -39q111 -52 111 -160q0 -144 -289 -199q111 -37 159 -100q43 -56 65 -177q15 -85 58 -85q72 0 72 131h41v-12q0 -177 -156 -177q-45 0 -79 19q-57 31 -63 119
q-9 137 -11 143q-41 129 -215 129q-6 0 -18.5 -1t-18.5 -1v-246q0 -61 37 -84q28 -17 94 -19v-40h-385v40q67 3 94 19q37 23 37 84v514q0 61 -37 83q-27 16 -94 18v41zM844 1300q-255 0 -436 -183.5t-181 -438.5q0 -253 181 -437t434 -184q254 0 435 183.5t181 437.5
q0 255 -179.5 438.5t-434.5 183.5zM844 1376q287 0 490.5 -205t203.5 -493q0 -289 -205 -492.5t-495 -203.5q-286 0 -489.5 205t-203.5 491q0 291 204 494.5t495 203.5z" />
    <glyph glyph-name="degree" unicode="&#xb0;" horiz-adv-x="674" 
d="M338 1382q-87 0 -148 -60.5t-61 -147.5t60.5 -147t148.5 -60t147.5 59.5t59.5 147.5q0 87 -60 147.5t-147 60.5zM338 1452q116 0 196 -81t80 -197t-81 -197.5t-197 -81.5q-118 0 -197.5 80.5t-79.5 198.5q0 117 81 197.5t198 80.5z" />
    <glyph glyph-name="plusminus" unicode="&#xb1;" horiz-adv-x="1706" 
d="M254 150h1198v-99h-1198v99zM805 1169h98v-348h549v-98h-549v-348h-98v348h-551v98h551v348z" />
    <glyph glyph-name="twosuperior" unicode="&#xb2;" horiz-adv-x="694" 
d="M193 606h405l-20 -74h-480l11 72q385 276 385 506q0 79 -41 129q-44 55 -121 55q-125 0 -185 -155h-30q11 38 33 170q92 37 163 37q112 0 188 -59q83 -65 83 -173q0 -215 -391 -508z" />
    <glyph glyph-name="threesuperior" unicode="&#xb3;" horiz-adv-x="694" 
d="M318 948q99 -1 168 -36q89 -45 89 -134q0 -120 -158 -198q-123 -62 -304 -62h-4l-11 39q130 5 235 53q138 63 138 174q0 131 -285 131l9 46q101 9 173 56q87 57 87 150q0 63 -44 99q-41 32 -106 32q-125 0 -184 -161h-31q10 58 31 174q93 35 176 35q96 0 170 -42
q88 -51 88 -141q0 -146 -237 -215z" />
    <glyph glyph-name="acute" unicode="&#xb4;" horiz-adv-x="1024" 
d="M403 1098h-67l289 299q57 59 98 59q30 0 51 -21t21 -51q0 -42 -62 -81z" />
    <glyph glyph-name="paragraph" unicode="&#xb6;" horiz-adv-x="1024" 
d="M940 1479v-70h-127v-1409h-82v1409h-186v-1409h-84v782q-164 7 -266 94q-111 94 -111 254q0 166 116 261q108 88 277 88h463z" />
    <glyph glyph-name="cedilla" unicode="&#xb8;" horiz-adv-x="1024" 
d="M479 0h64v-112q48 6 69 6q78 0 126 -43.5t48 -120.5q0 -176 -219 -176q-102 0 -293 75l35 78q125 -72 223 -72q121 0 121 93q0 90 -110 90q-16 0 -64 -6v188z" />
    <glyph glyph-name="onesuperior" unicode="&#xb9;" horiz-adv-x="694" 
d="M231 528l1 21q47 8 61 28q12 17 12 68v584q0 32 -30 43q-12 4 -58 9v17q114 34 180 62q-4 -129 -4 -167v-555q0 -47 15 -64t61 -26v-20q-56 9 -119 9t-119 -9z" />
    <glyph glyph-name="ordmasculine" unicode="&#xba;" horiz-adv-x="854" 
d="M422 1292q-121 0 -195.5 -73.5t-74.5 -194.5q0 -129 73 -223q79 -101 205 -101q121 0 195.5 76t74.5 197q0 127 -74 219q-80 100 -204 100zM428 1350q156 0 260.5 -99t104.5 -254t-104.5 -254.5t-260.5 -99.5q-157 0 -263 99t-106 255t107 256q105 97 262 97z" />
    <glyph glyph-name="guillemotright" unicode="&#xbb;" horiz-adv-x="764" 
d="M246 889q0 16 22 16q36 0 164 -86q163 -109 214.5 -179t51.5 -159q0 -85 -47.5 -152.5t-183.5 -160.5q-159 -109 -199 -109q-22 0 -22 15q0 18 36 42q291 198 291 365q0 91 -85 188q-51 58 -157 141q-85 65 -85 79zM57 946q33 0 217 -198q81 -87 114 -147q34 -63 34 -120
t-32.5 -117t-113.5 -147q-186 -199 -219 -199q-20 0 -20 21q0 8 66 90q82 101 124 169q66 109 66 183q0 75 -66 184q-41 67 -124 169q-66 82 -66 92q0 20 20 20z" />
    <glyph glyph-name="onequarter" unicode="&#xbc;" horiz-adv-x="1669" 
d="M1415 631q-181 -213 -282 -393h282v393zM1448 760h47v-522h115v-45h-115v-193h-80v193h-356v45q151 251 389 522zM1282 1356l64 -45l-959 -1336l-65 48zM219 582v18q47 8 61 27q11 16 11 63v547q0 39 -84 47v16q108 33 172 58q-4 -60 -4 -182v-486q0 -47 12 -64t59 -26
v-18q-50 8 -112 8q-65 0 -115 -8z" />
    <glyph glyph-name="onehalf" unicode="&#xbd;" horiz-adv-x="1669" 
d="M1190 70h385l-16 -70h-459l8 66q369 254 369 473q0 74 -39 121q-43 51 -115 51q-121 0 -176 -144h-29q5 20 31 158q83 33 156 33q105 0 178 -54q80 -59 80 -161q0 -204 -373 -473zM1282 1356l64 -45l-959 -1336l-65 48zM219 582v18q47 8 61 27q11 16 11 63v547
q0 39 -84 47v16q108 33 172 58q-4 -60 -4 -182v-486q0 -47 12 -64t59 -26v-18q-50 8 -112 8q-65 0 -115 -8z" />
    <glyph glyph-name="threequarters" unicode="&#xbe;" horiz-adv-x="1669" 
d="M1415 631q-181 -213 -282 -393h282v393zM1448 760h47v-522h115v-45h-115v-193h-80v193h-356v45q151 251 389 522zM1282 1356l64 -45l-959 -1336l-65 48zM304 975q95 -2 160 -34q85 -42 85 -126q0 -117 -161 -191q-115 -53 -282 -53h-4l-10 37q124 5 224 49
q133 59 133 164q0 82 -103 108q-52 13 -168 13l8 43q98 10 165 53q83 53 83 142q0 58 -44 91q-39 29 -99 29q-120 0 -174 -151l-31 2q14 79 29 160q91 35 170 35q90 0 161 -40q84 -48 84 -132q0 -136 -226 -199z" />
    <glyph glyph-name="questiondown" unicode="&#xbf;" horiz-adv-x="848" 
d="M444 964l43 1q2 -95 13 -285h-13q-140 0 -232 -85q-95 -87 -95 -226q0 -127 74 -216q79 -94 204 -94q110 0 190 72q74 68 101 178h33q-21 -115 -25 -258q-139 -76 -284 -76q-182 0 -299 110.5t-117 291.5q0 159 89 247q57 58 230 138q42 19 61.5 61t26.5 141zM467 1356
q37 0 64.5 -28.5t27.5 -65.5q0 -40 -26 -68.5t-66 -28.5t-68 28.5t-28 68.5q0 39 28.5 66.5t67.5 27.5z" />
    <glyph glyph-name="Agrave" unicode="&#xc0;" horiz-adv-x="1237" 
d="M610 1188l-231 -588h459zM435 1337q66 -14 157 -14q70 0 110 8q21 -86 52 -166l385 -995q50 -130 137 -141v-35q-102 16 -170 16q-84 0 -176 -16v34q94 8 94 70q0 29 -20 78l-136 334h-522l-117 -307q-28 -73 -28 -107q0 -58 100 -68v-34q-88 16 -166 16q-74 0 -168 -16
v35q66 10 114 81q25 39 62 132l346 876q31 78 31 119q0 55 -86 62zM794 1469h-67l-330 205q-62 39 -62 81q0 30 21 51t51 21q41 0 98 -59z" />
    <glyph glyph-name="Aacute" unicode="&#xc1;" horiz-adv-x="1237" 
d="M610 1188l-231 -588h459zM435 1337q66 -14 157 -14q70 0 110 8q21 -86 52 -166l385 -995q50 -130 137 -141v-35q-102 16 -170 16q-84 0 -176 -16v34q94 8 94 70q0 29 -20 78l-136 334h-522l-117 -307q-28 -73 -28 -107q0 -58 100 -68v-34q-88 16 -166 16q-74 0 -168 -16
v35q66 10 114 81q25 39 62 132l346 876q31 78 31 119q0 55 -86 62zM509 1469h-67l289 299q57 59 98 59q30 0 51 -21t21 -51q0 -42 -62 -81z" />
    <glyph glyph-name="Acircumflex" unicode="&#xc2;" horiz-adv-x="1237" 
d="M610 1188l-231 -588h459zM435 1337q66 -14 157 -14q70 0 110 8q21 -86 52 -166l385 -995q50 -130 137 -141v-35q-102 16 -170 16q-84 0 -176 -16v34q94 8 94 70q0 29 -20 78l-136 334h-522l-117 -307q-28 -73 -28 -107q0 -58 100 -68v-34q-88 16 -166 16q-74 0 -168 -16
v35q66 10 114 81q25 39 62 132l346 876q31 78 31 119q0 55 -86 62zM559 1757h118l232 -348h-58l-233 209l-233 -209h-58z" />
    <glyph glyph-name="Atilde" unicode="&#xc3;" horiz-adv-x="1237" 
d="M610 1188l-231 -588h459zM435 1337q66 -14 157 -14q70 0 110 8q21 -86 52 -166l385 -995q50 -130 137 -141v-35q-102 16 -170 16q-84 0 -176 -16v34q94 8 94 70q0 29 -20 78l-136 334h-522l-117 -307q-28 -73 -28 -107q0 -58 100 -68v-34q-88 16 -166 16q-74 0 -168 -16
v35q66 10 114 81q25 39 62 132l346 876q31 78 31 119q0 55 -86 62zM851 1766h54q-39 -205 -195 -205q-41 0 -119.5 22.5t-119.5 22.5q-61 0 -89 -90h-51q38 211 197 211q40 0 115 -22.5t114 -22.5q68 0 94 84z" />
    <glyph glyph-name="Adieresis" unicode="&#xc4;" horiz-adv-x="1237" 
d="M610 1188l-231 -588h459zM435 1337q66 -14 157 -14q70 0 110 8q21 -86 52 -166l385 -995q50 -130 137 -141v-35q-102 16 -170 16q-84 0 -176 -16v34q94 8 94 70q0 29 -20 78l-136 334h-522l-117 -307q-28 -73 -28 -107q0 -58 100 -68v-34q-88 16 -166 16q-74 0 -168 -16
v35q66 10 114 81q25 39 62 132l346 876q31 78 31 119q0 55 -86 62zM794 1723q41 0 69.5 -30t28.5 -71q0 -42 -28 -71t-70 -29t-71 29t-29 71q0 40 30 70.5t70 30.5zM442 1723q40 0 70 -30.5t30 -70.5q0 -42 -29 -71t-71 -29t-70 29t-28 71q0 41 28.5 71t69.5 30z" />
    <glyph glyph-name="Aring" unicode="&#xc5;" horiz-adv-x="1237" 
d="M610 1188l-231 -588h459zM435 1337q66 -14 157 -14q70 0 110 8q21 -86 52 -166l385 -995q50 -130 137 -141v-35q-102 16 -170 16q-84 0 -176 -16v34q94 8 94 70q0 29 -20 78l-136 334h-522l-117 -307q-28 -73 -28 -107q0 -58 100 -68v-34q-88 16 -166 16q-74 0 -168 -16
v35q66 10 114 81q25 39 62 132l346 876q31 78 31 119q0 55 -86 62zM610 1794q-61 0 -105 -44t-44 -105q0 -63 43 -106.5t106 -43.5t106.5 43.5t43.5 106.5q0 62 -44 105.5t-106 43.5zM610 1884q100 0 170 -69.5t70 -169.5q0 -102 -69 -171t-171 -69q-101 0 -170 69.5
t-69 170.5t69 170t170 69z" />
    <glyph glyph-name="AE" unicode="&#xc6;" horiz-adv-x="1698" 
d="M750 1223l-318 -623h322v623h-4zM582 1331h991q4 -158 29 -274h-33q-26 123 -81 158q-43 26 -171 26h-440v-498h290q83 0 111 18q34 22 49 97h33q-14 -91 -14 -156q0 -61 14 -157h-33q-15 75 -49 97q-28 17 -111 17h-290v-569h438q165 0 217 34q63 41 92 191h33
q-31 -139 -31 -315h-987v33q75 15 97 49q18 28 18 111v317h-365l-160 -307q-32 -61 -32 -99q0 -65 104 -76v-34q-88 16 -166 16q-74 0 -168 -16v35q81 14 142 129l520 981q28 53 28 98q0 53 -75 57v37z" />
    <glyph glyph-name="Ccedilla" unicode="&#xc7;" horiz-adv-x="1233" 
d="M1124 1270q0 -207 10 -289h-34q-38 285 -367 285q-234 0 -379 -166q-139 -158 -139 -395q0 -260 157 -443q165 -192 421 -192q201 0 372 131l-8 -101q-169 -125 -379 -125q-304 0 -499 191.5t-195 495.5q0 286 183 487q188 207 472 207q219 0 385 -86zM704 0h64v-112
q48 6 69 6q78 0 126 -43.5t48 -120.5q0 -176 -219 -176q-102 0 -293 75l35 78q125 -72 223 -72q121 0 121 93q0 90 -110 90q-16 0 -64 -6v188z" />
    <glyph glyph-name="Egrave" unicode="&#xc8;" horiz-adv-x="1147" 
d="M86 1331h938q5 -164 29 -274h-33q-25 123 -81 158q-43 26 -171 26h-440v-498h290q82 0 111 18q34 22 49 97h33q-14 -91 -14 -156q0 -61 14 -157h-33q-15 75 -50 97q-27 17 -110 17h-290v-569h438q182 0 232 43t77 182h33q-31 -139 -31 -315h-991v33q75 15 96 49
q17 28 17 111v946q0 83 -17 110q-21 34 -96 49v33zM786 1469h-67l-330 205q-62 39 -62 81q0 30 21 51t51 21q41 0 98 -59z" />
    <glyph glyph-name="Eacute" unicode="&#xc9;" horiz-adv-x="1147" 
d="M86 1331h938q5 -164 29 -274h-33q-25 123 -81 158q-43 26 -171 26h-440v-498h290q82 0 111 18q34 22 49 97h33q-14 -91 -14 -156q0 -61 14 -157h-33q-15 75 -50 97q-27 17 -110 17h-290v-569h438q182 0 232 43t77 182h33q-31 -139 -31 -315h-991v33q75 15 96 49
q17 28 17 111v946q0 83 -17 110q-21 34 -96 49v33zM501 1469h-67l289 299q57 59 98 59q30 0 51 -21t21 -51q0 -42 -62 -81z" />
    <glyph glyph-name="Ecircumflex" unicode="&#xca;" horiz-adv-x="1147" 
d="M86 1331h938q5 -164 29 -274h-33q-25 123 -81 158q-43 26 -171 26h-440v-498h290q82 0 111 18q34 22 49 97h33q-14 -91 -14 -156q0 -61 14 -157h-33q-15 75 -50 97q-27 17 -110 17h-290v-569h438q182 0 232 43t77 182h33q-31 -139 -31 -315h-991v33q75 15 96 49
q17 28 17 111v946q0 83 -17 110q-21 34 -96 49v33zM549 1757h118l232 -348h-58l-233 209l-233 -209h-58z" />
    <glyph glyph-name="Edieresis" unicode="&#xcb;" horiz-adv-x="1147" 
d="M86 1331h938q5 -164 29 -274h-33q-25 123 -81 158q-43 26 -171 26h-440v-498h290q82 0 111 18q34 22 49 97h33q-14 -91 -14 -156q0 -61 14 -157h-33q-15 75 -50 97q-27 17 -110 17h-290v-569h438q182 0 232 43t77 182h33q-31 -139 -31 -315h-991v33q75 15 96 49
q17 28 17 111v946q0 83 -17 110q-21 34 -96 49v33zM786 1723q41 0 69.5 -30t28.5 -71q0 -42 -28 -71t-70 -29t-71 29t-29 71q0 40 30 70.5t70 30.5zM434 1723q40 0 70 -30.5t30 -70.5q0 -42 -29 -71t-71 -29t-70 29t-28 71q0 41 28.5 71t69.5 30z" />
    <glyph glyph-name="Igrave" unicode="&#xcc;" horiz-adv-x="526" 
d="M86 1335q84 -14 176 -14q94 0 178 14v-32q-75 -16 -95 -50q-17 -27 -17 -110v-957q0 -83 16 -110q21 -34 96 -49v-33q-80 14 -178 14q-96 0 -176 -14v33q75 15 96 49q17 27 17 110v957q0 83 -17 110q-21 34 -96 50v32zM440 1469h-67l-330 205q-62 39 -62 81q0 30 21 51
t51 21q41 0 98 -59z" />
    <glyph glyph-name="Iacute" unicode="&#xcd;" horiz-adv-x="526" 
d="M86 1335q84 -14 176 -14q94 0 178 14v-32q-75 -16 -95 -50q-17 -27 -17 -110v-957q0 -83 16 -110q21 -34 96 -49v-33q-80 14 -178 14q-96 0 -176 -14v33q75 15 96 49q17 27 17 110v957q0 83 -17 110q-21 34 -96 50v32zM155 1469h-67l289 299q57 59 98 59q30 0 51 -21
t21 -51q0 -42 -62 -81z" />
    <glyph glyph-name="Icircumflex" unicode="&#xce;" horiz-adv-x="526" 
d="M86 1335q84 -14 176 -14q94 0 178 14v-32q-75 -16 -95 -50q-17 -27 -17 -110v-957q0 -83 16 -110q21 -34 96 -49v-33q-80 14 -178 14q-96 0 -176 -14v33q75 15 96 49q17 27 17 110v957q0 83 -17 110q-21 34 -96 50v32zM205 1817h118l232 -348h-58l-233 209l-233 -209h-58
z" />
    <glyph glyph-name="Idieresis" unicode="&#xcf;" horiz-adv-x="526" 
d="M86 1335q84 -14 176 -14q94 0 178 14v-32q-75 -16 -95 -50q-17 -27 -17 -110v-957q0 -83 16 -110q21 -34 96 -49v-33q-80 14 -178 14q-96 0 -176 -14v33q75 15 96 49q17 27 17 110v957q0 83 -17 110q-21 34 -96 50v32zM440 1723q41 0 69.5 -30t28.5 -71q0 -42 -28 -71
t-70 -29t-71 29t-29 71q0 40 30 70.5t70 30.5zM88 1723q40 0 70 -30.5t30 -70.5q0 -42 -29 -71t-71 -29t-70 29t-28 71q0 41 28.5 71t69.5 30z" />
    <glyph glyph-name="Eth" unicode="&#xd0;" horiz-adv-x="1341" 
d="M328 90q90 -4 108 -4q307 0 483 133q199 150 199 447q0 193 -96 338q-101 153 -280 205q-114 32 -298 32h-116v-483h407v-84h-407v-584zM86 0v33q75 15 97 50q16 27 16 110v481h-199v84h199v381q0 82 -17 110q-21 34 -96 49v33h358q201 0 323 -28q228 -52 360 -228
q128 -172 128 -409q0 -234 -128 -404q-129 -173 -354 -231q-121 -31 -320 -31h-367z" />
    <glyph glyph-name="Ntilde" unicode="&#xd1;" horiz-adv-x="1380" 
d="M86 -6v33q75 15 96 49q17 27 17 110v957q0 83 -17 111q-21 34 -96 51v32q78 -14 147 -14q59 0 113 10l758 -1122v934q0 83 -17 110q-21 34 -96 50l1 32q84 -14 157 -14q77 0 159 14l1 -32q-76 -16 -97 -49q-18 -28 -18 -111v-1145h-90l-815 1202v-1016q0 -82 18 -110
q21 -35 96 -49v-33q-84 14 -159 14q-72 0 -158 -14zM923 1766h54q-39 -205 -195 -205q-41 0 -119.5 22.5t-119.5 22.5q-61 0 -89 -90h-51q38 211 197 211q40 0 115 -22.5t114 -22.5q68 0 94 84z" />
    <glyph glyph-name="Ograve" unicode="&#xd2;" horiz-adv-x="1460" 
d="M707 1268q-226 0 -362 -156q-130 -148 -130 -377q0 -279 156.5 -471t380.5 -192q226 0 362 157q129 150 129 379q0 275 -158 467.5t-378 192.5zM86 698q0 286 178 471q181 189 465 189q291 0 473 -218q172 -204 172 -501q0 -284 -180 -473t-463 -189q-291 0 -473 219
q-172 205 -172 502zM907 1469h-67l-330 205q-62 39 -62 81q0 30 21 51t51 21q41 0 98 -59z" />
    <glyph glyph-name="Oacute" unicode="&#xd3;" horiz-adv-x="1460" 
d="M707 1268q-226 0 -362 -156q-130 -148 -130 -377q0 -279 156.5 -471t380.5 -192q226 0 362 157q129 150 129 379q0 275 -158 467.5t-378 192.5zM86 698q0 286 178 471q181 189 465 189q291 0 473 -218q172 -204 172 -501q0 -284 -180 -473t-463 -189q-291 0 -473 219
q-172 205 -172 502zM622 1469h-67l289 299q57 59 98 59q30 0 51 -21t21 -51q0 -42 -62 -81z" />
    <glyph glyph-name="Ocircumflex" unicode="&#xd4;" horiz-adv-x="1460" 
d="M707 1268q-226 0 -362 -156q-130 -148 -130 -377q0 -279 156.5 -471t380.5 -192q226 0 362 157q129 150 129 379q0 275 -158 467.5t-378 192.5zM86 698q0 286 178 471q181 189 465 189q291 0 473 -218q172 -204 172 -501q0 -284 -180 -473t-463 -189q-291 0 -473 219
q-172 205 -172 502zM669 1757h118l232 -348h-58l-233 209l-233 -209h-58z" />
    <glyph glyph-name="Otilde" unicode="&#xd5;" horiz-adv-x="1460" 
d="M707 1268q-226 0 -362 -156q-130 -148 -130 -377q0 -279 156.5 -471t380.5 -192q226 0 362 157q129 150 129 379q0 275 -158 467.5t-378 192.5zM86 698q0 286 178 471q181 189 465 189q291 0 473 -218q172 -204 172 -501q0 -284 -180 -473t-463 -189q-291 0 -473 219
q-172 205 -172 502zM964 1766h54q-39 -205 -195 -205q-41 0 -119.5 22.5t-119.5 22.5q-61 0 -89 -90h-51q38 211 197 211q40 0 115 -22.5t114 -22.5q68 0 94 84z" />
    <glyph glyph-name="Odieresis" unicode="&#xd6;" horiz-adv-x="1460" 
d="M707 1268q-226 0 -362 -156q-130 -148 -130 -377q0 -279 156.5 -471t380.5 -192q226 0 362 157q129 150 129 379q0 275 -158 467.5t-378 192.5zM86 698q0 286 178 471q181 189 465 189q291 0 473 -218q172 -204 172 -501q0 -284 -180 -473t-463 -189q-291 0 -473 219
q-172 205 -172 502zM907 1723q41 0 69.5 -30t28.5 -71q0 -42 -28 -71t-70 -29t-71 29t-29 71q0 40 30 70.5t70 30.5zM555 1723q40 0 70 -30.5t30 -70.5q0 -42 -29 -71t-71 -29t-70 29t-28 71q0 41 28.5 71t69.5 30z" />
    <glyph glyph-name="multiply" unicode="&#xd7;" horiz-adv-x="1706" 
d="M375 1161l481 -481l481 481l70 -67l-481 -484l481 -481l-70 -68l-481 482l-481 -482l-70 68l481 481l-481 484z" />
    <glyph glyph-name="Oslash" unicode="&#xd8;" horiz-adv-x="1460" 
d="M1028 1139l-547 -983q130 -84 269 -84q227 0 363 157q130 149 130 379q0 314 -215 531zM975 1182q-133 88 -264 88q-227 0 -364 -155q-132 -148 -132 -378q0 -323 215 -536zM1100 1411h80l-90 -166q284 -223 284 -606q0 -284 -180 -473t-463 -189q-157 0 -303 78
l-70 -129h-79l90 166q-283 220 -283 606q0 286 178 471q181 189 465 189q161 0 301 -78z" />
    <glyph glyph-name="Ugrave" unicode="&#xd9;" horiz-adv-x="1290" 
d="M60 1335q84 -14 178 -14q93 0 177 14l1 -32q-76 -16 -97 -50q-18 -28 -18 -110v-621q0 -218 62 -322q80 -134 282 -134t281 135q61 103 61 321v623q0 83 -17 110q-21 34 -96 48v32q108 -14 179 -14q66 0 176 14v-32q-75 -14 -96 -48q-17 -27 -17 -110v-629
q0 -266 -101 -395q-113 -146 -370 -146t-370 146q-101 129 -101 395v627q0 83 -18 111q-21 33 -97 49zM821 1469h-67l-330 205q-62 39 -62 81q0 30 21 51t51 21q41 0 98 -59z" />
    <glyph glyph-name="Uacute" unicode="&#xda;" horiz-adv-x="1290" 
d="M60 1335q84 -14 178 -14q93 0 177 14l1 -32q-76 -16 -97 -50q-18 -28 -18 -110v-621q0 -218 62 -322q80 -134 282 -134t281 135q61 103 61 321v623q0 83 -17 110q-21 34 -96 48v32q108 -14 179 -14q66 0 176 14v-32q-75 -14 -96 -48q-17 -27 -17 -110v-629
q0 -266 -101 -395q-113 -146 -370 -146t-370 146q-101 129 -101 395v627q0 83 -18 111q-21 33 -97 49zM536 1469h-67l289 299q57 59 98 59q30 0 51 -21t21 -51q0 -42 -62 -81z" />
    <glyph glyph-name="Ucircumflex" unicode="&#xdb;" horiz-adv-x="1290" 
d="M60 1335q84 -14 178 -14q93 0 177 14l1 -32q-76 -16 -97 -50q-18 -28 -18 -110v-621q0 -218 62 -322q80 -134 282 -134t281 135q61 103 61 321v623q0 83 -17 110q-21 34 -96 48v32q108 -14 179 -14q66 0 176 14v-32q-75 -14 -96 -48q-17 -27 -17 -110v-629
q0 -266 -101 -395q-113 -146 -370 -146t-370 146q-101 129 -101 395v627q0 83 -18 111q-21 33 -97 49zM586 1817h118l232 -348h-58l-233 209l-233 -209h-58z" />
    <glyph glyph-name="Udieresis" unicode="&#xdc;" horiz-adv-x="1290" 
d="M60 1335q84 -14 178 -14q93 0 177 14l1 -32q-76 -16 -97 -50q-18 -28 -18 -110v-621q0 -218 62 -322q80 -134 282 -134t281 135q61 103 61 321v623q0 83 -17 110q-21 34 -96 48v32q108 -14 179 -14q66 0 176 14v-32q-75 -14 -96 -48q-17 -27 -17 -110v-629
q0 -266 -101 -395q-113 -146 -370 -146t-370 146q-101 129 -101 395v627q0 83 -18 111q-21 33 -97 49zM821 1723q41 0 69.5 -30t28.5 -71q0 -42 -28 -71t-70 -29t-71 29t-29 71q0 40 30 70.5t70 30.5zM469 1723q40 0 70 -30.5t30 -70.5q0 -42 -29 -71t-71 -29t-70 29t-28 71
q0 41 28.5 71t69.5 30z" />
    <glyph glyph-name="Yacute" unicode="&#xdd;" horiz-adv-x="977" 
d="M306 -6l-1 33q75 15 97 49q18 28 18 110v371l-344 621q-65 118 -158 127v32q74 -14 186 -14q105 0 189 14v-32q-98 -13 -98 -64q0 -31 32 -88l283 -502l254 475q37 69 37 111q0 55 -103 68l1 32q68 -14 175 -14q98 0 176 14l1 -32q-84 -11 -170 -164l-334 -594v-361
q0 -82 18 -110q21 -35 97 -49l-1 -33q-80 14 -178 14q-97 0 -177 -14zM380 1469h-67l289 299q57 59 98 59q30 0 51 -21t21 -51q0 -42 -62 -81z" />
    <glyph glyph-name="Thorn" unicode="&#xde;" horiz-adv-x="1071" 
d="M328 186q0 -83 16 -110q21 -34 96 -49v-33q-80 14 -178 14q-96 0 -176 -14v33q75 15 96 49q17 27 17 110v953q0 83 -17 110q-21 34 -96 49v33q84 -14 176 -14q94 0 178 14v-33q-75 -15 -96 -49q-16 -27 -16 -110v-54h217q224 0 358 -91q156 -107 156 -320
q0 -181 -125 -289q-119 -102 -303 -102q-98 0 -179 30t-81 58q0 14 16 14q4 0 28 -6q83 -21 154 -21q148 0 246 81q105 86 105 231q0 170 -139 255q-115 70 -296 70h-157v-809z" />
    <glyph glyph-name="germandbls" unicode="&#xdf;" horiz-adv-x="1118" 
d="M621 850q180 -31 285 -125q120 -108 120 -281q0 -186 -139 -322t-326 -136q-105 0 -190 57l-27 117q92 -84 219 -84q153 0 246.5 98t93.5 252q0 167 -102 262q-96 90 -266 105q-42 2 -85 4q-63 7 -63 32q0 26 66 37q10 1 30 4q123 20 197 85q84 74 84 192
q0 104 -70 171.5t-174 67.5q-155 0 -213 -136q-39 -90 -39 -267v-1137q0 -85 16 -206q-65 14 -100 14q-16 0 -70 -8q-50 -7 -59 -6v32q66 11 87 47q16 26 16 95v1155q0 133 13 198q27 135 129.5 219t240.5 84q142 0 241 -83q105 -88 105 -228q0 -227 -266 -309z" />
    <glyph glyph-name="agrave" unicode="&#xe0;" 
d="M915 29v-35q-52 16 -104 16q-32 0 -102 -10l10 195q-126 -209 -346 -209q-126 0 -213 76q-90 79 -90 204q0 56 21 106q42 101 162 140q53 18 222 37q234 27 234 117q0 245 -246 245q-98 0 -171 -49q-80 -53 -99 -145h-37q18 90 18 192q148 78 291 78q350 0 350 -338v-538
q0 -82 100 -82zM711 514q-58 -12 -188 -33q-335 -55 -335 -207q0 -87 65 -144q62 -56 150 -56q140 0 228 109q83 101 83 244q0 14 -1.5 43t-1.5 44zM649 1098h-67l-330 205q-62 39 -62 81q0 30 21 51t51 21q41 0 98 -59z" />
    <glyph glyph-name="aacute" unicode="&#xe1;" 
d="M915 29v-35q-52 16 -104 16q-32 0 -102 -10l10 195q-126 -209 -346 -209q-126 0 -213 76q-90 79 -90 204q0 56 21 106q42 101 162 140q53 18 222 37q234 27 234 117q0 245 -246 245q-98 0 -171 -49q-80 -53 -99 -145h-37q18 90 18 192q148 78 291 78q350 0 350 -338v-538
q0 -82 100 -82zM711 514q-58 -12 -188 -33q-335 -55 -335 -207q0 -87 65 -144q62 -56 150 -56q140 0 228 109q83 101 83 244q0 14 -1.5 43t-1.5 44zM364 1098h-67l289 299q57 59 98 59q30 0 51 -21t21 -51q0 -42 -62 -81z" />
    <glyph glyph-name="acircumflex" unicode="&#xe2;" 
d="M915 29v-35q-52 16 -104 16q-32 0 -102 -10l10 195q-126 -209 -346 -209q-126 0 -213 76q-90 79 -90 204q0 56 21 106q42 101 162 140q53 18 222 37q234 27 234 117q0 245 -246 245q-98 0 -171 -49q-80 -53 -99 -145h-37q18 90 18 192q148 78 291 78q350 0 350 -338v-538
q0 -82 100 -82zM711 514q-58 -12 -188 -33q-335 -55 -335 -207q0 -87 65 -144q62 -56 150 -56q140 0 228 109q83 101 83 244q0 14 -1.5 43t-1.5 44zM414 1446h118l232 -348h-58l-233 209l-233 -209h-58z" />
    <glyph glyph-name="atilde" unicode="&#xe3;" 
d="M915 29v-35q-52 16 -104 16q-32 0 -102 -10l10 195q-126 -209 -346 -209q-126 0 -213 76q-90 79 -90 204q0 56 21 106q42 101 162 140q53 18 222 37q234 27 234 117q0 245 -246 245q-98 0 -171 -49q-80 -53 -99 -145h-37q18 90 18 192q148 78 291 78q350 0 350 -338v-538
q0 -82 100 -82zM711 514q-58 -12 -188 -33q-335 -55 -335 -207q0 -87 65 -144q62 -56 150 -56q140 0 228 109q83 101 83 244q0 14 -1.5 43t-1.5 44zM706 1395h54q-39 -205 -195 -205q-41 0 -119.5 22.5t-119.5 22.5q-61 0 -89 -90h-51q38 211 197 211q40 0 115 -22.5
t114 -22.5q68 0 94 84z" />
    <glyph glyph-name="adieresis" unicode="&#xe4;" 
d="M915 29v-35q-52 16 -104 16q-32 0 -102 -10l10 195q-126 -209 -346 -209q-126 0 -213 76q-90 79 -90 204q0 56 21 106q42 101 162 140q53 18 222 37q234 27 234 117q0 245 -246 245q-98 0 -171 -49q-80 -53 -99 -145h-37q18 90 18 192q148 78 291 78q350 0 350 -338v-538
q0 -82 100 -82zM711 514q-58 -12 -188 -33q-335 -55 -335 -207q0 -87 65 -144q62 -56 150 -56q140 0 228 109q83 101 83 244q0 14 -1.5 43t-1.5 44zM649 1352q41 0 69.5 -30t28.5 -71q0 -42 -28 -71t-70 -29t-71 29t-29 71q0 40 30 70.5t70 30.5zM297 1352q40 0 70 -30.5
t30 -70.5q0 -42 -29 -71t-71 -29t-70 29t-28 71q0 41 28.5 71t69.5 30z" />
    <glyph glyph-name="aring" unicode="&#xe5;" 
d="M915 29v-35q-52 16 -104 16q-32 0 -102 -10l10 195q-129 -209 -346 -209q-126 0 -213 76q-90 79 -90 204q0 56 21 106q42 101 162 140q53 18 222 37q234 27 234 117q0 245 -246 245q-98 0 -171 -49q-80 -53 -99 -145h-37q18 90 18 192q148 78 291 78q350 0 350 -338v-538
q0 -82 100 -82zM711 514q-58 -12 -188 -33q-335 -55 -335 -207q0 -87 65 -144q62 -56 150 -56q140 0 228 109q83 101 83 244q0 14 -1.5 43t-1.5 44zM485 1444q-62 0 -105.5 -45t-43.5 -107q0 -63 43 -106t106 -43t107.5 43t44.5 106q0 62 -45 107t-107 45zM485 1534
q101 0 171.5 -70.5t70.5 -171.5q0 -102 -70 -170.5t-172 -68.5q-101 0 -170 69t-69 170q0 102 68.5 172t170.5 70z" />
    <glyph glyph-name="ae" unicode="&#xe6;" horiz-adv-x="1602" 
d="M803 594h608v4q0 125 -79 216q-82 95 -206 95q-133 0 -222 -93q-84 -87 -101 -222zM711 514q-58 -12 -188 -33q-335 -55 -335 -207q0 -87 65 -144q62 -56 150 -56q140 0 228 109q83 101 83 244q0 14 -1.5 43t-1.5 44zM752 238q-162 -252 -379 -252q-126 0 -213 76
q-90 79 -90 204q0 56 21 106q43 101 162 140q52 17 222 37q234 27 234 117q0 243 -246 243q-98 0 -171 -48q-80 -52 -99 -144h-37q18 90 18 196q148 72 285 72q250 0 323 -176q126 176 340 176q190 0 301 -121q107 -117 107 -309v-33h-729v-49q0 -166 114.5 -285.5
t280.5 -119.5q154 0 293 145l-12 -119q-142 -119 -312 -119q-287 0 -413 263z" />
    <glyph glyph-name="ccedilla" unicode="&#xe7;" horiz-adv-x="958" 
d="M827 928l15 -221h-37q-44 198 -238 198q-159 0 -264 -126q-100 -119 -100 -281q0 -181 112 -301q115 -123 295 -123q165 0 267 92l-25 -115q-121 -76 -277 -76q-212 0 -353.5 144t-141.5 356q0 222 151 367q148 143 371 143q107 0 225 -57zM499 0h64v-112q48 6 69 6
q78 0 126 -43.5t48 -120.5q0 -176 -219 -176q-102 0 -293 75l35 78q125 -72 223 -72q121 0 121 93q0 90 -110 90q-16 0 -64 -6v188z" />
    <glyph glyph-name="egrave" unicode="&#xe8;" horiz-adv-x="1006" 
d="M932 522h-729v-49q0 -167 115.5 -286t281.5 -119q152 0 291 145l-12 -119q-142 -119 -312 -119q-212 0 -351 150q-136 146 -136 360q0 201 120 346q128 154 326 154q190 0 300 -121q106 -117 106 -309v-33zM813 594v4q0 125 -79 216q-82 95 -206 95q-133 0 -221 -93
q-83 -87 -100 -222h606zM715 1098h-67l-330 205q-62 39 -62 81q0 30 21 51t51 21q41 0 98 -59z" />
    <glyph glyph-name="eacute" unicode="&#xe9;" horiz-adv-x="1006" 
d="M932 522h-729v-49q0 -167 115.5 -286t281.5 -119q152 0 291 145l-12 -119q-142 -119 -312 -119q-212 0 -351 150q-136 146 -136 360q0 201 120 346q128 154 326 154q190 0 300 -121q106 -117 106 -309v-33zM813 594v4q0 125 -79 216q-82 95 -206 95q-133 0 -221 -93
q-83 -87 -100 -222h606zM430 1098h-67l289 299q57 59 98 59q30 0 51 -21t21 -51q0 -42 -62 -81z" />
    <glyph glyph-name="ecircumflex" unicode="&#xea;" horiz-adv-x="1006" 
d="M932 522h-729v-49q0 -167 115.5 -286t281.5 -119q152 0 291 145l-12 -119q-142 -119 -312 -119q-212 0 -351 150q-136 146 -136 360q0 201 120 346q128 154 326 154q190 0 300 -121q106 -117 106 -309v-33zM813 594v4q0 125 -79 216q-82 95 -206 95q-133 0 -221 -93
q-83 -87 -100 -222h606zM480 1446h118l232 -348h-58l-233 209l-233 -209h-58z" />
    <glyph glyph-name="edieresis" unicode="&#xeb;" horiz-adv-x="1006" 
d="M932 522h-729v-49q0 -167 115.5 -286t281.5 -119q152 0 291 145l-12 -119q-142 -119 -312 -119q-212 0 -351 150q-136 146 -136 360q0 201 120 346q128 154 326 154q190 0 300 -121q106 -117 106 -309v-33zM813 594v4q0 125 -79 216q-82 95 -206 95q-133 0 -221 -93
q-83 -87 -100 -222h606zM715 1352q41 0 69.5 -30t28.5 -71q0 -42 -28 -71t-70 -29t-71 29t-29 71q0 40 30 70.5t70 30.5zM363 1352q40 0 70 -30.5t30 -70.5q0 -42 -29 -71t-71 -29t-70 29t-28 71q0 41 28.5 71t69.5 30z" />
    <glyph glyph-name="igrave" unicode="&#xec;" horiz-adv-x="473" 
d="M78 -4v33q66 8 88 45q16 28 16 96v618q0 59 -23 77q-18 14 -81 16v30q100 16 223 84q-10 -96 -10 -177v-657q0 -63 19 -91q23 -34 85 -41v-33q-102 14 -157 14q-58 0 -160 -14zM414 1098h-67l-330 205q-62 39 -62 81q0 30 21 51t51 21q41 0 98 -59z" />
    <glyph glyph-name="iacute" unicode="&#xed;" horiz-adv-x="473" 
d="M78 -4v33q66 8 88 45q16 28 16 96v618q0 59 -23 77q-18 14 -81 16v30q100 16 223 84q-10 -96 -10 -177v-657q0 -63 19 -91q23 -34 85 -41v-33q-102 14 -157 14q-58 0 -160 -14zM129 1098h-67l289 299q57 59 98 59q30 0 51 -21t21 -51q0 -42 -62 -81z" />
    <glyph glyph-name="icircumflex" unicode="&#xee;" horiz-adv-x="473" 
d="M78 -4v33q66 8 88 45q16 28 16 96v618q0 59 -23 77q-18 14 -81 16v30q100 16 223 84q-10 -96 -10 -177v-657q0 -63 19 -91q23 -34 85 -41v-33q-102 14 -157 14q-58 0 -160 -14zM179 1446h118l232 -348h-58l-233 209l-233 -209h-58z" />
    <glyph glyph-name="idieresis" unicode="&#xef;" horiz-adv-x="473" 
d="M78 -4v33q66 8 88 45q16 28 16 96v618q0 59 -23 77q-18 14 -81 16v30q100 16 223 84q-10 -96 -10 -177v-657q0 -63 19 -91q23 -34 85 -41v-33q-102 14 -157 14q-58 0 -160 -14zM414 1352q41 0 69.5 -30t28.5 -71q0 -42 -28 -71t-70 -29t-71 29t-29 71q0 40 30 70.5
t70 30.5zM62 1352q40 0 70 -30.5t30 -70.5q0 -42 -29 -71t-71 -29t-70 29t-28 71q0 41 28.5 71t69.5 30z" />
    <glyph glyph-name="eth" unicode="&#xf0;" horiz-adv-x="1139" 
d="M561 903q-166 0 -264 -110q-94 -105 -94 -273q0 -179 93 -312q105 -149 277 -149q165 0 265 112q96 108 96 275q0 186 -91 314q-103 143 -282 143zM838 889q-84 174 -197 297l-354 -123l-25 59l330 119q-109 113 -250 211l29 45q154 -76 319 -225l311 108l31 -63
l-284 -100q303 -363 303 -713q0 -230 -124 -375q-132 -154 -358 -154q-215 0 -353 147q-136 143 -136 359q0 215 137.5 360.5t351.5 145.5q140 0 269 -98z" />
    <glyph glyph-name="ntilde" unicode="&#xf1;" horiz-adv-x="1100" 
d="M301 995q-12 -183 -12 -190q105 172 315 172q177 0 252 -115q62 -95 62 -284v-408q0 -68 16 -96q22 -37 88 -45v-33q-100 14 -131 14q-36 0 -100 -14q18 120 18 205v388q0 144 -41 213q-54 89 -188 89q-289 0 -289 -342v-379q0 -68 17 -96q22 -37 87 -45v-33
q-102 14 -157 14q-60 0 -158 -14v33q64 9 86 46q16 28 16 95v618q0 60 -22 76q-14 11 -80 17v30q93 15 221 84zM794 1395h54q-39 -205 -195 -205q-41 0 -119.5 22.5t-119.5 22.5q-61 0 -89 -90h-51q38 211 197 211q40 0 115 -22.5t114 -22.5q68 0 94 84z" />
    <glyph glyph-name="ograve" unicode="&#xf2;" horiz-adv-x="1139" 
d="M563 903q-167 0 -265 -109q-95 -105 -95 -274q0 -179 93 -312q105 -149 277 -149q166 0 266 112q95 107 95 275q0 176 -95 309q-106 148 -276 148zM569 987q214 0 351 -145.5t137 -360.5q0 -216 -135 -360q-138 -146 -353 -146t-353 147q-136 143 -136 359t137 361
t352 145zM745 1098h-67l-330 205q-62 39 -62 81q0 30 21 51t51 21q41 0 98 -59z" />
    <glyph glyph-name="oacute" unicode="&#xf3;" horiz-adv-x="1139" 
d="M563 903q-167 0 -265 -109q-95 -105 -95 -274q0 -179 93 -312q105 -149 277 -149q166 0 266 112q95 107 95 275q0 176 -95 309q-106 148 -276 148zM569 987q214 0 351 -145.5t137 -360.5q0 -216 -135 -360q-138 -146 -353 -146t-353 147q-136 143 -136 359t137 361
t352 145zM460 1098h-67l289 299q57 59 98 59q30 0 51 -21t21 -51q0 -42 -62 -81z" />
    <glyph glyph-name="ocircumflex" unicode="&#xf4;" horiz-adv-x="1139" 
d="M563 903q-167 0 -265 -109q-95 -105 -95 -274q0 -179 93 -312q105 -149 277 -149q166 0 266 112q95 107 95 275q0 176 -95 309q-106 148 -276 148zM569 987q214 0 351 -145.5t137 -360.5q0 -216 -135 -360q-138 -146 -353 -146t-353 147q-136 143 -136 359t137 361
t352 145zM510 1446h118l232 -348h-58l-233 209l-233 -209h-58z" />
    <glyph glyph-name="otilde" unicode="&#xf5;" horiz-adv-x="1139" 
d="M563 903q-167 0 -265 -109q-95 -105 -95 -274q0 -179 93 -312q105 -149 277 -149q166 0 266 112q95 107 95 275q0 176 -95 309q-106 148 -276 148zM569 987q214 0 351 -145.5t137 -360.5q0 -216 -135 -360q-138 -146 -353 -146t-353 147q-136 143 -136 359t137 361
t352 145zM802 1395h54q-39 -205 -195 -205q-41 0 -119.5 22.5t-119.5 22.5q-61 0 -89 -90h-51q38 211 197 211q40 0 115 -22.5t114 -22.5q68 0 94 84z" />
    <glyph glyph-name="odieresis" unicode="&#xf6;" horiz-adv-x="1139" 
d="M563 903q-167 0 -265 -109q-95 -105 -95 -274q0 -179 93 -312q105 -149 277 -149q166 0 266 112q95 107 95 275q0 176 -95 309q-106 148 -276 148zM569 987q214 0 351 -145.5t137 -360.5q0 -216 -135 -360q-138 -146 -353 -146t-353 147q-136 143 -136 359t137 361
t352 145zM745 1352q41 0 69.5 -30t28.5 -71q0 -42 -28 -71t-70 -29t-71 29t-29 71q0 40 30 70.5t70 30.5zM393 1352q40 0 70 -30.5t30 -70.5q0 -42 -29 -71t-71 -29t-70 29t-28 71q0 41 28.5 71t69.5 30z" />
    <glyph glyph-name="divide" unicode="&#xf7;" horiz-adv-x="1706" 
d="M854 365q45 0 76 -31t31 -76t-31 -75.5t-76 -30.5t-75.5 30.5t-30.5 75.5q0 44 31 75.5t75 31.5zM254 659h1198v-98h-1198v98zM854 1071q44 0 75.5 -32t31.5 -76q0 -45 -31 -76t-76 -31q-46 0 -76 30.5t-30 76.5q0 44 31 76t75 32z" />
    <glyph glyph-name="oslash" unicode="&#xf8;" horiz-adv-x="1139" 
d="M797 817l-398 -717q94 -41 174 -41q167 0 266 111q95 107 95 276q0 200 -137 371zM741 862q-88 39 -176 39q-167 0 -266 -110q-94 -106 -94 -275q0 -198 139 -371zM840 1040h80l-76 -133q213 -160 213 -426q0 -216 -135 -360q-138 -146 -353 -146q-119 0 -215 48
l-59 -111h-80l78 145q-213 160 -213 424q0 216 137 361t352 145q121 0 215 -47z" />
    <glyph glyph-name="ugrave" unicode="&#xf9;" horiz-adv-x="1067" 
d="M764 -4q11 50 14 182q-106 -192 -315 -192q-313 0 -313 366v436q0 58 -23 76q-18 15 -80 17v28q85 13 219 86q-8 -38 -8 -116v-517q0 -290 227 -290q289 0 289 374v342q0 58 -21 76q-18 15 -79 17v28q86 14 219 86q-12 -68 -12 -179v-646q0 -68 16 -96q22 -37 88 -45v-33
q-54 14 -131 14q-52 0 -90 -14zM696 1098h-67l-330 205q-62 39 -62 81q0 30 21 51t51 21q41 0 98 -59z" />
    <glyph glyph-name="uacute" unicode="&#xfa;" horiz-adv-x="1067" 
d="M764 -4q11 50 14 182q-106 -192 -315 -192q-313 0 -313 366v436q0 58 -23 76q-18 15 -80 17v28q85 13 219 86q-8 -38 -8 -116v-517q0 -290 227 -290q289 0 289 374v342q0 58 -21 76q-18 15 -79 17v28q86 14 219 86q-12 -68 -12 -179v-646q0 -68 16 -96q22 -37 88 -45v-33
q-54 14 -131 14q-52 0 -90 -14zM411 1098h-67l289 299q57 59 98 59q30 0 51 -21t21 -51q0 -42 -62 -81z" />
    <glyph glyph-name="ucircumflex" unicode="&#xfb;" horiz-adv-x="1067" 
d="M764 -4q11 50 14 182q-106 -192 -315 -192q-313 0 -313 366v436q0 58 -23 76q-18 15 -80 17v28q85 13 219 86q-8 -38 -8 -116v-517q0 -290 227 -290q289 0 289 374v342q0 58 -21 76q-18 15 -79 17v28q86 14 219 86q-12 -68 -12 -179v-646q0 -68 16 -96q22 -37 88 -45v-33
q-54 14 -131 14q-52 0 -90 -14zM461 1446h118l232 -348h-58l-233 209l-233 -209h-58z" />
    <glyph glyph-name="udieresis" unicode="&#xfc;" horiz-adv-x="1067" 
d="M764 -4q11 50 14 182q-106 -192 -315 -192q-313 0 -313 366v436q0 58 -23 76q-18 15 -80 17v28q85 13 219 86q-8 -38 -8 -116v-517q0 -290 227 -290q289 0 289 374v342q0 58 -21 76q-18 15 -79 17v28q86 14 219 86q-12 -68 -12 -179v-646q0 -68 16 -96q22 -37 88 -45v-33
q-54 14 -131 14q-52 0 -90 -14zM696 1352q41 0 69.5 -30t28.5 -71q0 -42 -28 -71t-70 -29t-71 29t-29 71q0 40 30 70.5t70 30.5zM344 1352q40 0 70 -30.5t30 -70.5q0 -42 -29 -71t-71 -29t-70 29t-28 71q0 41 28.5 71t69.5 30z" />
    <glyph glyph-name="yacute" unicode="&#xfd;" horiz-adv-x="915" 
d="M401 -14l-264 770q-28 81 -44 108q-32 56 -87 70v33q62 -15 154 -15q97 0 157 15v-33q-96 -12 -96 -66q0 -21 13 -60l223 -675l239 676q13 37 13 63q0 50 -96 62l-1 32q72 -14 146 -14q89 0 145 15v-33q-73 -19 -131 -178l-305 -834q-73 -199 -122.5 -253t-127.5 -54
q-56 0 -115 39q-2 91 -14 165l35 1q21 -86 92 -86q101 0 137 106zM350 1098h-67l289 299q57 59 98 59q30 0 51 -21t21 -51q0 -42 -62 -81z" />
    <glyph glyph-name="thorn" unicode="&#xfe;" horiz-adv-x="1128" 
d="M596 893q-145 0 -232 -137q-75 -118 -75 -273q0 -163 76 -279q88 -136 243 -136q145 0 236 120q84 109 84 258q0 176 -76 300q-91 147 -256 147zM182 1300q0 59 -20.5 75t-81.5 18v28q86 13 221 86q-10 -96 -10 -178v-559q131 207 340 207q198 0 315 -158
q105 -143 105 -348q0 -196 -116 -336q-123 -149 -314 -149q-201 0 -330 194v-368q0 -67 17 -96q22 -36 87 -46v-32h-5q-23 0 -74.5 7t-77.5 7q-34 0 -158 -14v32q64 10 86 47q16 28 16 95v1488z" />
    <glyph glyph-name="ydieresis" unicode="&#xff;" horiz-adv-x="915" 
d="M401 -14l-264 770q-28 81 -44 108q-32 56 -87 70v33q62 -15 154 -15q97 0 157 15v-33q-96 -12 -96 -66q0 -21 13 -60l223 -675l239 676q13 37 13 63q0 50 -96 62l-1 32q72 -14 146 -14q89 0 145 15v-33q-73 -19 -131 -178l-305 -834q-73 -199 -122.5 -253t-127.5 -54
q-56 0 -115 39q-2 91 -14 165l35 1q21 -86 92 -86q101 0 137 106zM635 1352q41 0 69.5 -30t28.5 -71q0 -42 -28 -71t-70 -29t-71 29t-29 71q0 40 30 70.5t70 30.5zM283 1352q40 0 70 -30.5t30 -70.5q0 -42 -29 -71t-71 -29t-70 29t-28 71q0 41 28.5 71t69.5 30z" />
    <glyph glyph-name="Cacute" unicode="&#x106;" horiz-adv-x="1233" 
d="M1124 1270q0 -207 10 -289h-34q-38 285 -367 285q-234 0 -379 -166q-139 -158 -139 -395q0 -260 157 -443q165 -192 421 -192q201 0 372 131l-8 -101q-169 -125 -379 -125q-304 0 -499 191.5t-195 495.5q0 286 183 487q188 207 472 207q219 0 385 -86zM630 1469h-67
l289 299q57 59 98 59q30 0 51 -21t21 -51q0 -42 -62 -81z" />
    <glyph glyph-name="cacute" unicode="&#x107;" horiz-adv-x="958" 
d="M827 928l15 -221h-37q-44 198 -238 198q-159 0 -264 -126q-100 -119 -100 -281q0 -181 112 -301q115 -123 295 -123q165 0 267 92l-25 -115q-121 -76 -277 -76q-212 0 -353.5 144t-141.5 356q0 222 151 367q148 143 371 143q107 0 225 -57zM462 1098h-67l289 299
q57 59 98 59q30 0 51 -21t21 -51q0 -42 -62 -81z" />
    <glyph glyph-name="Ccaron" unicode="&#x10c;" horiz-adv-x="1233" 
d="M1124 1270q0 -207 10 -289h-34q-38 285 -367 285q-234 0 -379 -166q-139 -158 -139 -395q0 -260 157 -443q165 -192 421 -192q201 0 372 131l-8 -101q-169 -125 -379 -125q-304 0 -499 191.5t-195 495.5q0 286 183 487q188 207 472 207q219 0 385 -86zM448 1817h58
l233 -211l233 211h58l-232 -348h-118z" />
    <glyph glyph-name="ccaron" unicode="&#x10d;" horiz-adv-x="958" 
d="M827 928l15 -221h-37q-44 198 -238 198q-159 0 -264 -126q-100 -119 -100 -281q0 -181 112 -301q115 -123 295 -123q165 0 267 92l-25 -115q-121 -76 -277 -76q-212 0 -353.5 144t-141.5 356q0 222 151 367q148 143 371 143q107 0 225 -57zM280 1446h58l233 -211l233 211
h58l-232 -348h-118z" />
    <glyph glyph-name="Dslash" unicode="&#x110;" horiz-adv-x="1341" 
d="M328 90q90 -4 108 -4q307 0 483 133q199 150 199 447q0 193 -96 338q-101 153 -280 205q-114 32 -298 32h-116v-483h407v-84h-407v-584zM86 0v33q75 15 97 50q16 27 16 110v481h-199v84h199v381q0 82 -17 110q-21 34 -96 49v33h358q201 0 323 -28q228 -52 360 -228
q128 -172 128 -409q0 -234 -128 -404q-129 -173 -354 -231q-121 -31 -320 -31h-367z" />
    <glyph glyph-name="dcroat" unicode="&#x111;" horiz-adv-x="1110" 
d="M526 895q-154 0 -245 -128q-80 -113 -80 -273q0 -159 79 -282q91 -142 242 -142q152 0 241 134q77 116 77 275q0 161 -75 278q-87 138 -239 138zM819 -4q10 53 19 197q-133 -207 -340 -207q-193 0 -312 153q-108 141 -108 340q0 203 111 345q121 153 319 153
q201 0 326 -195v312h-353v75h353v56q0 81 -9 104q-17 47 -82 47h-24v33q94 21 237 98q-10 -104 -10 -268v-70h164v-75h-164v-924q0 -69 16 -96q21 -37 87 -45v-33q-93 14 -129 14q-35 0 -101 -14z" />
    <glyph glyph-name="Gbreve" unicode="&#x11e;" horiz-adv-x="1374" 
d="M1128 1274q0 -117 19 -307h-33q-43 297 -379 297q-237 0 -385 -166q-141 -160 -141 -400q0 -261 150.5 -436.5t365.5 -175.5q130 0 222 63q106 71 106 195v150q0 75 -143 98l-1 32q92 -14 191 -14q104 0 194 14v-32q-75 -15 -96 -49q-16 -28 -16 -111v-432h-55
q-16 56 -60 160q-164 -185 -401 -185q-245 0 -413.5 193t-168.5 475q0 318 199.5 516.5t517.5 198.5q192 0 327 -84zM395 1778h51q36 -141 242 -141q208 0 240 141h51q-41 -270 -291 -270q-252 0 -293 270z" />
    <glyph glyph-name="gbreve" unicode="&#x11f;" horiz-adv-x="967" 
d="M489 911q-105 0 -172 -68t-67 -173q0 -116 76 -206q80 -95 194 -95q98 0 162 80q59 74 59 174q0 112 -69 197q-74 91 -183 91zM979 964l-27 -87q-46 -11 -84 -11q-63 0 -145 21q135 -77 135 -238q0 -154 -113 -256q-109 -100 -264 -100q-122 0 -217 72
q-102 -81 -102 -140q0 -58 67 -82t326 -24q219 0 304 -48.5t85 -162.5q0 -152 -156 -230q-121 -61 -290 -61q-135 0 -228 54q-112 66 -112 192q0 41 22 85l125 64q-35 -58 -35 -125q0 -97 78 -150q67 -46 168 -46q108 0 202 50q113 60 113 159q0 60 -50.5 87.5t-198.5 30.5
h-208q-122 3 -185.5 28.5t-99.5 69.5q-44 53 -44 128q0 7 4 46q102 51 174 113q-82 102 -82 232q0 155 107 254q104 96 260 96q57 0 170.5 -17.5t171.5 -17.5q67 0 129 14zM190 1407h51q36 -141 242 -141q208 0 240 141h51q-41 -270 -291 -270q-252 0 -293 270z" />
    <glyph glyph-name="Idotaccent" unicode="&#x130;" horiz-adv-x="526" 
d="M86 1335q84 -14 176 -14q94 0 178 14v-32q-75 -16 -95 -50q-17 -27 -17 -110v-957q0 -83 16 -110q21 -34 96 -49v-33q-80 14 -178 14q-96 0 -176 -14v33q75 15 96 49q17 27 17 110v957q0 83 -17 110q-21 34 -96 50v32zM264 1723q40 0 70 -30.5t30 -70.5
q0 -41 -29.5 -70.5t-70.5 -29.5t-70.5 29.5t-29.5 70.5t29.5 71t70.5 30z" />
    <glyph glyph-name="dotlessi" unicode="&#x131;" horiz-adv-x="473" 
d="M78 -4v33q66 8 88 45q16 28 16 96v618q0 59 -23 77q-18 14 -81 16v30q100 16 223 84q-10 -96 -10 -177v-657q0 -63 19 -91q23 -34 85 -41v-33q-102 14 -157 14q-58 0 -160 -14z" />
    <glyph glyph-name="Lslash" unicode="&#x141;" horiz-adv-x="1010" 
d="M86 1335q84 -14 176 -14q94 0 178 14v-32q-75 -16 -95 -50q-17 -27 -17 -110v-455l350 246v-100l-350 -246v-498h334q216 0 268 52t76 220h34q-36 -250 -36 -362h-918v33q75 15 96 49q17 28 17 111v333l-199 -135v101l199 137v514q0 83 -17 110q-21 34 -96 50v32z" />
    <glyph glyph-name="lslash" unicode="&#x142;" horiz-adv-x="473" 
d="M78 -4v33q66 8 88 45q16 28 16 96v504l-182 -125v98l182 127v526q0 59 -23 77q-18 14 -81 16v28q92 14 223 86q-10 -96 -10 -177v-496l182 127v-101l-182 -129v-561q0 -68 17 -96q22 -37 87 -45v-33q-102 14 -157 14q-58 0 -160 -14z" />
    <glyph glyph-name="OE" unicode="&#x152;" horiz-adv-x="2001" 
d="M1063 1098q-156 168 -367 168q-220 0 -354 -158q-127 -149 -127 -373q0 -278 156 -470.5t377 -192.5q182 0 315 141v885zM1063 1233v98h817q4 -165 27 -274h-33q-26 123 -80 158q-42 26 -170 26h-442v-498h291q82 0 110 18q35 22 49 97h33q-14 -91 -14 -156
q0 -61 14 -157h-33q-14 75 -49 97q-28 17 -110 17h-291v-569h440q182 0 232.5 43t76.5 182h33q-31 -139 -31 -315h-870v94q-161 -117 -340 -117q-125 0 -240 52q-191 86 -297 274q-100 177 -100 395q0 279 173 466q178 192 454 192q211 0 350 -123z" />
    <glyph glyph-name="oe" unicode="&#x153;" horiz-adv-x="1843" 
d="M1047 594h606v4q0 125 -79 216q-83 95 -206 95q-133 0 -222 -93q-83 -87 -99 -222zM561 903q-166 0 -264 -110q-94 -105 -94 -273q0 -178 94 -311q105 -150 276 -150q166 0 266 112q95 107 95 275q0 178 -95 310q-106 147 -278 147zM989 238q-138 -263 -420 -263
q-214 0 -351.5 145t-137.5 361t137 361t352 145q281 0 418 -254q135 254 377 254q190 0 301 -122q107 -119 107 -310v-33h-730v-49q0 -167 116 -286t282 -119q152 0 291 145l-13 -119q-142 -119 -311 -119q-267 0 -418 263z" />
    <glyph glyph-name="Scedilla" unicode="&#x15e;" horiz-adv-x="1100" 
d="M952 1300q0 -174 14 -292h-32q-35 266 -322 266q-154 0 -265 -57q-140 -71 -140 -211q0 -152 216 -212q200 -49 401 -98q216 -84 216 -293q0 -210 -175 -327q-151 -101 -371 -101q-217 0 -394 99q0 11 1 34.5t1 35.5q0 144 -14 267l35 1q39 -357 373 -357q163 0 277 77
q132 88 132 243q0 104 -64.5 158t-303.5 102q-210 42 -302 97q-149 88 -149 259q0 189 172 286q140 79 344 79q164 0 350 -56zM518 0h64v-112q48 6 69 6q78 0 126 -43.5t48 -120.5q0 -176 -219 -176q-102 0 -293 75l35 78q125 -72 223 -72q121 0 121 93q0 90 -110 90
q-16 0 -64 -6v188z" />
    <glyph glyph-name="scedilla" unicode="&#x15f;" horiz-adv-x="883" 
d="M752 937q1 -68 13 -204h-32q-35 180 -256 180q-100 0 -179 -42q-97 -52 -97 -144q0 -100 156 -149l290 -82q156 -67 156 -213q0 -145 -132 -232q-116 -76 -268 -76q-167 0 -300 86q-4 116 -19 215h33q20 -109 98 -168q75 -57 188 -57q105 0 189 52q98 60 98 159
q0 109 -233 169q-180 46 -236 76q-125 67 -125 193q0 146 136 223q110 62 268 62q148 0 252 -48zM409 0h64v-112q48 6 69 6q78 0 126 -43.5t48 -120.5q0 -176 -219 -176q-102 0 -293 75l35 78q125 -72 223 -72q121 0 121 93q0 90 -110 90q-16 0 -64 -6v188z" />
    <glyph glyph-name="Scaron" unicode="&#x160;" horiz-adv-x="1100" 
d="M952 1300q0 -174 14 -292h-32q-35 266 -322 266q-154 0 -265 -57q-140 -71 -140 -211q0 -152 216 -212q200 -49 401 -98q216 -84 216 -293q0 -210 -175 -327q-151 -101 -371 -101q-217 0 -394 99q0 11 1 34.5t1 35.5q0 144 -14 267l35 1q39 -357 373 -357q163 0 277 77
q132 88 132 243q0 104 -64.5 158t-303.5 102q-210 42 -302 97q-149 88 -149 259q0 189 172 286q140 79 344 79q164 0 350 -56zM260 1817h58l233 -211l233 211h58l-232 -348h-118z" />
    <glyph glyph-name="scaron" unicode="&#x161;" horiz-adv-x="883" 
d="M752 937q1 -68 13 -204h-32q-35 180 -256 180q-100 0 -179 -42q-97 -52 -97 -144q0 -100 156 -149l290 -82q156 -67 156 -213q0 -145 -132 -232q-116 -76 -268 -76q-167 0 -300 86q-4 116 -19 215h33q20 -109 98 -168q75 -57 188 -57q105 0 189 52q98 60 98 159
q0 109 -233 169q-180 46 -236 76q-125 67 -125 193q0 146 136 223q110 62 268 62q148 0 252 -48zM151 1446h58l233 -211l233 211h58l-232 -348h-118z" />
    <glyph glyph-name="Ydieresis" unicode="&#x178;" horiz-adv-x="977" 
d="M306 -6l-1 33q75 15 97 49q18 28 18 110v371l-344 621q-65 118 -158 127v32q74 -14 186 -14q105 0 189 14v-32q-98 -13 -98 -64q0 -31 32 -88l283 -502l254 475q37 69 37 111q0 55 -103 68l1 32q68 -14 175 -14q98 0 176 14l1 -32q-84 -11 -170 -164l-334 -594v-361
q0 -82 18 -110q21 -35 97 -49l-1 -33q-80 14 -178 14q-97 0 -177 -14zM665 1723q41 0 69.5 -30t28.5 -71q0 -42 -28 -71t-70 -29t-71 29t-29 71q0 40 30 70.5t70 30.5zM313 1723q40 0 70 -30.5t30 -70.5q0 -42 -29 -71t-71 -29t-70 29t-28 71q0 41 28.5 71t69.5 30z" />
    <glyph glyph-name="Zcaron" unicode="&#x17d;" horiz-adv-x="1128" 
d="M185 1331h839l-782 -1241h450q157 0 227.5 62t92.5 217h35q-37 -183 -37 -369h-971l780 1241h-325q-155 0 -220 -41q-79 -50 -102 -194h-33q34 128 46 325zM274 1817h58l233 -211l233 211h58l-232 -348h-118z" />
    <glyph glyph-name="zcaron" unicode="&#x17e;" horiz-adv-x="872" 
d="M158 963h635l-574 -881h303q108 0 160 36q59 40 78 142h33q-19 -146 -28 -260h-720l576 881h-299q-134 0 -177 -152h-30q26 100 43 234zM145 1446h58l233 -211l233 211h58l-232 -348h-118z" />
    <glyph glyph-name="florin" unicode="&#x192;" horiz-adv-x="1053" 
d="M971 1343q-19 -54 -23 -104q-97 18 -143 18q-182 0 -213 -204l-35 -232h178l-12 -82h-180l-86 -549q-33 -209 -67 -299q-61 -160 -189 -231q-83 -45 -181 -45q-34 0 -116 14q16 47 22 102q103 -16 144 -16q181 0 213 203l129 821h-123l14 82q66 0 98 25.5t45 91.5
q5 23 15 70q39 156 135 247q105 101 258 101q54 0 117 -13z" />
    <glyph glyph-name="circumflex" unicode="&#x2c6;" horiz-adv-x="1024" 
d="M453 1446h118l232 -348h-58l-233 209l-233 -209h-58z" />
    <glyph glyph-name="caron" unicode="&#x2c7;" horiz-adv-x="1024" 
d="M221 1446h58l233 -211l233 211h58l-232 -348h-118z" />
    <glyph glyph-name="macron" unicode="&#xaf;" horiz-adv-x="1024" 
d="M254 1315h516v-125h-516v125z" />
    <glyph glyph-name="macron" unicode="&#x2c9;" horiz-adv-x="1024" 
d="M254 1315h516v-125h-516v125z" />
    <glyph glyph-name="breve" unicode="&#x2d8;" horiz-adv-x="1024" 
d="M219 1407h51q36 -141 242 -141q208 0 240 141h51q-41 -270 -291 -270q-252 0 -293 270z" />
    <glyph glyph-name="dotaccent" unicode="&#x2d9;" horiz-adv-x="1024" 
d="M512 1352q40 0 70 -30.5t30 -70.5q0 -41 -29.5 -70.5t-70.5 -29.5t-70.5 29.5t-29.5 70.5t29.5 71t70.5 30z" />
    <glyph glyph-name="ring" unicode="&#x2da;" horiz-adv-x="1024" 
d="M512 1468q-61 0 -105.5 -44t-44.5 -105q0 -63 43.5 -107.5t106.5 -44.5q62 0 107 45t45 107t-45 105.5t-107 43.5zM512 1559q100 0 171 -70t71 -170q0 -101 -70.5 -171.5t-171.5 -70.5t-170.5 70.5t-69.5 171.5t69.5 170.5t170.5 69.5z" />
    <glyph glyph-name="ogonek" unicode="&#x2db;" horiz-adv-x="1024" 
d="M575 31h50q-183 -144 -183 -267q0 -118 103 -118q79 0 119 71l28 -18q-75 -148 -211 -148q-67 0 -113 39t-46 105q0 170 253 336z" />
    <glyph glyph-name="tilde" unicode="&#x2dc;" horiz-adv-x="1024" 
d="M745 1395h54q-39 -205 -195 -205q-41 0 -119.5 22.5t-119.5 22.5q-61 0 -89 -90h-51q38 211 197 211q40 0 115 -22.5t114 -22.5q68 0 94 84z" />
    <glyph glyph-name="hungarumlaut" unicode="&#x2dd;" horiz-adv-x="1024" 
d="M653 1098h-59l143 278q42 82 92 82q28 0 48 -19.5t20 -47.5q0 -35 -41 -78zM377 1098h-58l144 278q42 82 92 82q28 0 48 -19.5t20 -47.5q0 -35 -41 -78z" />
    <glyph glyph-name="Delta" unicode="&#x394;" horiz-adv-x="1081" 
d="M514 1247l-391 -1118h766zM532 1497h29l512 -1497h-1067z" />
    <glyph glyph-name="Delta" unicode="&#x2206;" horiz-adv-x="1081" 
d="M514 1247l-391 -1118h766zM532 1497h29l512 -1497h-1067z" />
    <glyph glyph-name="Omega" unicode="&#x3a9;" horiz-adv-x="1565" 
d="M1087 150v-25h316l74 219h59l-102 -344h-494q295 498 295 866q0 242 -101 391q-117 173 -348 173q-232 0 -349 -173q-101 -148 -101 -391q0 -365 297 -866h-496l-102 344h59l74 -219h315v25q-299 385 -299 729q0 273 165 445.5t437 172.5t438 -174q162 -170 162 -444
q0 -345 -299 -729z" />
    <glyph glyph-name="Omega" unicode="&#x2126;" horiz-adv-x="1565" 
d="M1087 150v-25h316l74 219h59l-102 -344h-494q295 498 295 866q0 242 -101 391q-117 173 -348 173q-232 0 -349 -173q-101 -148 -101 -391q0 -365 297 -866h-496l-102 344h59l74 -219h315v25q-299 385 -299 729q0 273 165 445.5t437 172.5t438 -174q162 -170 162 -444
q0 -345 -299 -729z" />
    <glyph glyph-name="mu" unicode="&#xb5;" horiz-adv-x="1079" 
d="M162 190q-20 -111 -44 -329l-2 -15q-30 -262 -104 -262q-71 0 -71 74q0 39 60 279q49 197 210 948h129l-109 -509q-10 -47 -10 -95q0 -84 39 -137q44 -60 125 -60q203 0 272 307l111 494h129l-115 -527q-22 -101 -22 -155q0 -107 80 -107q68 0 111 61q20 29 52 114
q23 61 44 61q22 0 22 -35q0 -27 -16 -80q-71 -231 -244 -231q-152 0 -152 207q-87 -213 -274 -213q-195 0 -221 210z" />
    <glyph glyph-name="mu" unicode="&#x3bc;" horiz-adv-x="1079" 
d="M162 190q-20 -111 -44 -329l-2 -15q-30 -262 -104 -262q-71 0 -71 74q0 39 60 279q49 197 210 948h129l-109 -509q-10 -47 -10 -95q0 -84 39 -137q44 -60 125 -60q203 0 272 307l111 494h129l-115 -527q-22 -101 -22 -155q0 -107 80 -107q68 0 111 61q20 29 52 114
q23 61 44 61q22 0 22 -35q0 -27 -16 -80q-71 -231 -244 -231q-152 0 -152 207q-87 -213 -274 -213q-195 0 -221 210z" />
    <glyph glyph-name="pi" unicode="&#x3c0;" horiz-adv-x="1321" 
d="M1292 885l-28 -129h-320q-37 -187 -68 -493t-116 -306q-76 0 -76 78q0 50 80 292.5t125 428.5h-367q-36 -187 -67 -486q-33 -313 -117 -313q-76 0 -76 78q0 51 79 293q80 246 126 428h-127q-133 0 -175.5 -45t-74.5 -191h-63q30 177 95 259q82 106 245 106h925z" />
    <glyph glyph-name="endash" unicode="&#x2013;" horiz-adv-x="1024" 
d="M12 537h1024l-24 -72h-1024z" />
    <glyph glyph-name="emdash" unicode="&#x2014;" horiz-adv-x="2048" 
d="M-8 465l16 72h2048l-16 -72h-2048z" />
    <glyph glyph-name="quoteleft" unicode="&#x2018;" horiz-adv-x="526" 
d="M139 1331h156q-8 -62 -8 -129q0 -142 67 -248l-26 -24q-152 110 -189 401z" />
    <glyph glyph-name="quoteright" unicode="&#x2019;" horiz-adv-x="526" 
d="M231 1331h156q-33 -287 -188 -401l-27 24q68 108 68 248q0 77 -9 129z" />
    <glyph glyph-name="quotesinglbase" unicode="&#x201a;" horiz-adv-x="526" 
d="M199 176h157q-37 -290 -190 -403l-25 24q68 110 68 248q0 53 -10 131z" />
    <glyph glyph-name="quotedblleft" unicode="&#x201c;" horiz-adv-x="786" 
d="M399 1331h156q-8 -62 -8 -129q0 -142 67 -248l-24 -24q-154 112 -191 401zM139 1331h156q-8 -62 -8 -129q0 -142 67 -248l-26 -24q-152 110 -189 401z" />
    <glyph glyph-name="quotedblright" unicode="&#x201d;" horiz-adv-x="786" 
d="M494 1331h155q-33 -287 -190 -401l-25 24q68 108 68 248q0 71 -8 129zM231 1331h156q-33 -287 -188 -401l-27 24q68 108 68 248q0 77 -9 129z" />
    <glyph glyph-name="quotedblbase" unicode="&#x201e;" horiz-adv-x="786" 
d="M461 176h155q-37 -294 -188 -403l-27 24q68 104 68 248q0 71 -8 131zM201 176h155q-37 -290 -190 -403l-25 24q68 104 68 248q0 71 -8 131z" />
    <glyph glyph-name="dagger" unicode="&#x2020;" horiz-adv-x="1024" 
d="M344 1337q84 -14 168 -14t168 14v-32q-75 -16 -96 -50q-17 -27 -17 -110v-215h64q83 0 110 17q34 22 50 97h32q-14 -96 -14 -155q0 -53 14 -154h-32q-16 76 -49 97q-28 18 -111 18h-64v-664q0 -83 17 -110q21 -34 96 -49v-33q-84 14 -168 14t-168 -14v33q75 15 96 49
q17 27 17 110v664h-64q-83 0 -111 -18q-33 -21 -49 -97h-32q14 102 14 154q0 53 -14 155h32q16 -75 50 -97q27 -17 110 -17h64v215q0 83 -17 110q-21 34 -96 50v32z" />
    <glyph glyph-name="daggerdbl" unicode="&#x2021;" horiz-adv-x="1024" 
d="M344 966q91 -14 168 -14q72 0 168 14v-32q-75 -15 -96 -49q-17 -28 -17 -111v-244h121q83 0 111 18q33 21 49 97h33q-15 -95 -15 -153q0 -53 15 -156h-33q-16 76 -49 97q-28 18 -111 18h-121v-265q0 -83 17 -110q21 -34 96 -49v-33q-84 14 -168 14t-168 -14v33
q75 15 96 49q17 27 17 110v265h-121q-83 0 -111 -18q-33 -21 -49 -97h-33q15 105 15 156t-15 153h33q16 -76 49 -97q28 -18 111 -18h121v244q0 83 -17 111q-21 34 -96 49v32z" />
    <glyph glyph-name="bullet" unicode="&#x2022;" horiz-adv-x="1208" 
d="M307 762q0 124 86.5 209.5t210.5 85.5q123 0 209 -86t86 -209t-87 -210t-210 -87q-124 0 -209.5 86.5t-85.5 210.5z" />
    <glyph glyph-name="ellipsis" unicode="&#x2026;" horiz-adv-x="2048" 
d="M357 154q36 0 61 -26t25 -62q0 -35 -25.5 -63t-60.5 -28t-59.5 28t-24.5 63q0 36 24 62t60 26zM1039 154q36 0 61 -26t25 -62q0 -35 -25.5 -63t-60.5 -28t-59.5 28t-24.5 63q0 36 24 62t60 26zM1723 154q36 0 61 -26t25 -62q0 -35 -25.5 -63t-60.5 -28t-59.5 28t-24.5 63
q0 36 24 62t60 26z" />
    <glyph glyph-name="perthousand" unicode="&#x2030;" horiz-adv-x="2238" 
d="M1874 553q-101 0 -161 -62.5t-60 -164.5q0 -108 57 -187q64 -88 168 -88q101 0 161 64t60 166q0 105 -59 185q-64 87 -166 87zM1098 553q-101 0 -161 -62.5t-60 -164.5q0 -108 58 -187q65 -88 169 -88q101 0 161 64t60 166q0 105 -60 185q-65 87 -167 87zM1876 629
q144 0 240 -90q98 -93 98 -236q0 -144 -96.5 -236t-241.5 -92q-144 0 -241 92.5t-97 235.5t98 236q96 90 240 90zM1100 629q144 0 241 -90q99 -93 99 -236q0 -144 -97.5 -236t-242.5 -92q-144 0 -241 92.5t-97 235.5t98 236q96 90 240 90zM367 1280q-102 0 -162 -62.5
t-60 -164.5q0 -108 59 -187q65 -88 169 -88q100 0 161 65q58 64 58 165q0 104 -59 184q-65 88 -166 88zM1122 1356l68 -43l-842 -1338l-67 43zM369 1356q144 0 241 -92.5t97 -235.5t-97 -234.5t-241 -91.5q-145 0 -240 90q-98 92 -98 236q0 143 98 237q96 91 240 91z" />
    <glyph glyph-name="guilsinglleft" unicode="&#x2039;" horiz-adv-x="569" 
d="M496 905q22 0 22 -18q0 -15 -35 -39q-293 -201 -293 -367q0 -89 85 -186q52 -60 158 -141q85 -66 85 -78q0 -19 -22 -19q-32 0 -164 88q-162 108 -214 177.5t-52 158.5q0 102 74 186q47 54 159 130q159 108 197 108z" />
    <glyph glyph-name="guilsinglright" unicode="&#x203a;" horiz-adv-x="569" 
d="M49 889q0 16 25 16q35 0 164 -86q162 -108 214 -178.5t52 -159.5q0 -84 -48 -153q-47 -65 -186 -160q-163 -111 -198 -111q-23 0 -23 17t37 42q293 197 293 365q0 91 -86 189q-51 59 -158 141q-86 65 -86 78z" />
    <glyph glyph-name="fraction" unicode="&#x2044;" horiz-adv-x="342" 
d="M618 1356l64 -45l-958 -1336l-66 48z" />
    <glyph glyph-name="franc" unicode="&#x20a3;" horiz-adv-x="1645" 
d="M86 1331h850q4 -158 29 -274h-33q-26 123 -81 158q-43 26 -171 26h-352v-524h233q83 0 110 16q35 21 50 96h33q-15 -97 -15 -155q0 -56 14 -158h-32q-16 76 -50 97q-27 18 -110 18h-233v-445q0 -83 16 -110q21 -34 96 -49v-33q-80 14 -178 14q-96 0 -176 -14v33
q75 15 96 49q17 27 17 110v953q0 83 -17 110q-21 34 -96 49v33zM1073 -4v33q66 8 88 45q16 28 16 96v618q0 59 -23 77q-18 14 -81 16v30q100 16 223 84q-10 -102 -10 -225q115 207 282 207q28 0 56 -12l12 -140q-4 1 -36 18q-27 15 -62 15q-129 0 -197 -131
q-55 -105 -55 -246v-311q0 -68 17 -96q22 -37 87 -45v-33q-102 14 -157 14q-58 0 -160 -14z" />
    <glyph glyph-name="trademark" unicode="&#x2122;" horiz-adv-x="1683" 
d="M795 1434h176l143 -406l154 406h168v-23q-42 -3 -55 -9q-23 -12 -23 -48v-369q0 -36 23 -48q13 -6 55 -9v-25h-234v25q44 3 56 9q24 11 24 48v399l-182 -485h-13l-174 485v-399q0 -37 24 -48q12 -6 56 -9v-25h-198v25q42 0 56 7q23 11 23 48v371q0 36 -24 47
q-13 7 -55 10v23zM260 1434h438l11 -174h-25q-8 82 -41 115q-37 36 -121 36v-426q0 -37 24 -48q13 -7 56 -9v-25h-246v25q42 2 55 9q23 11 23 48v426h-22q-124 0 -138 -151h-24z" />
    <glyph glyph-name="partialdiff" unicode="&#x2202;" horiz-adv-x="1034" 
d="M752 592q24 166 24 309q0 326 -155 326q-45 0 -108 -68.5t-103 -68.5q-29 0 -51.5 19t-22.5 48q0 72 77 116q64 36 142 36q193 0 289 -193q74 -150 74 -364q0 -334 -136 -556.5t-333 -222.5q-154 0 -243 119q-81 107 -81 266q0 168 100 294q107 136 271 136
q191 0 256 -196zM711 463q0 258 -179 258q-137 0 -207 -165q-53 -124 -53 -282q0 -251 179 -251q134 0 205 162q55 124 55 278z" />
    <glyph glyph-name="product" unicode="&#x220f;" horiz-adv-x="1567" 
d="M59 1473h1448v-68h-188v-1731h188v-67h-524v67h201v1731h-803v-1731h203v-67h-525v67h187v1731h-187v68z" />
    <glyph glyph-name="summation" unicode="&#x2211;" horiz-adv-x="1409" 
d="M12 1473h1110l90 -322h-71l-62 213q-12 41 -78 41h-780l907 -862v-37l-886 -772h905q46 0 65.5 11t32.5 52l74 230h70l-127 -420h-1250v18l989 856l-989 946v46z" />
    <glyph glyph-name="minus" unicode="&#x2212;" horiz-adv-x="1706" 
d="M254 659h1198v-98h-1198v98z" />
    <glyph glyph-name="periodcentered" horiz-adv-x="526" 
d="M262 762q40 0 68 -28t28 -68q0 -39 -28.5 -67t-67.5 -28q-38 0 -66 28.5t-28 66.5q0 40 27 68t67 28z" />
    <glyph glyph-name="radical" unicode="&#x221a;" horiz-adv-x="1276" 
d="M1098 1636h178v-71h-125l-594 -1606h-41l-328 899l-114 -39l-19 58l246 86l272 -746z" />
    <glyph glyph-name="infinity" unicode="&#x221e;" horiz-adv-x="1706" 
d="M897 559q103 -199 281 -199q111 0 178 79q63 75 63 188q0 105 -56 180q-61 82 -163 82q-104 0 -191 -119q-49 -67 -112 -211zM811 668q-103 196 -281 196q-110 0 -177 -78q-64 -74 -64 -186q0 -104 56 -179q62 -83 163 -83q105 0 192 118q50 68 111 212zM868 502
q-137 -266 -321 -266q-144 0 -233 119q-81 109 -81 257q0 152 69 255q79 120 224 120q188 0 312 -266q134 272 331 272q138 0 226 -123q80 -111 80 -254q0 -152 -69 -255q-79 -119 -224 -119q-180 0 -314 260z" />
    <glyph glyph-name="integral" unicode="&#x222b;" horiz-adv-x="985" 
d="M293 -272q103 0 117 713l4 196q12 491 98 699q88 212 268 212q65 0 109 -33q49 -37 49 -100q0 -104 -107 -104q-76 0 -103 69.5t-34 69.5q-103 0 -116 -623q-2 -96 -7 -289q-16 -501 -101 -703q-87 -206 -267 -206q-63 0 -108 31q-50 36 -50 96q0 111 113 111
q90 0 109 -101q7 -38 26 -38z" />
    <glyph glyph-name="approxequal" unicode="&#x2248;" horiz-adv-x="1706" 
d="M1530 580v-111q-208 -145 -387 -145q-99 0 -290 69.5t-288 69.5q-153 0 -387 -160v111q210 145 387 145q101 0 295 -68.5t283 -68.5q164 0 387 158zM1530 918v-111q-204 -145 -387 -145q-99 0 -290 69.5t-288 69.5q-153 0 -387 -160v113q209 145 387 145q101 0 295 -69.5
t283 -69.5q158 0 387 158z" />
    <glyph glyph-name="approxequal" unicode="&#x22f2;" horiz-adv-x="1706" 
d="M1530 580v-111q-208 -145 -387 -145q-99 0 -290 69.5t-288 69.5q-153 0 -387 -160v111q210 145 387 145q101 0 295 -68.5t283 -68.5q164 0 387 158zM1530 918v-111q-204 -145 -387 -145q-99 0 -290 69.5t-288 69.5q-153 0 -387 -160v113q209 145 387 145q101 0 295 -69.5
t283 -69.5q158 0 387 158z" />
    <glyph glyph-name="notequal" unicode="&#x2260;" horiz-adv-x="1706" 
d="M1214 1169l74 -59l-205 -264h369v-96h-432l-215 -277h647v-98h-709l-254 -324l-73 60l205 264h-367v98h428l215 277h-643v96h707z" />
    <glyph glyph-name="lessequal" unicode="&#x2264;" horiz-adv-x="1706" 
d="M264 139h1178v-98h-1178v98zM1442 1182v-107l-1010 -338l1010 -336v-106l-1178 401v84z" />
    <glyph glyph-name="greaterequal" unicode="&#x2265;" horiz-adv-x="1706" 
d="M264 139h1178v-98h-1178v98zM264 1182l1178 -402v-84l-1178 -401v106l1010 336l-1010 338v107z" />
    <glyph glyph-name="SF370000" unicode="&#x255f;" horiz-adv-x="1237" 
d="M610 1188l-231 -588h459zM435 1337q66 -14 157 -14q70 0 110 8q21 -86 52 -166l385 -995q50 -130 137 -141v-35q-102 16 -170 16q-84 0 -176 -16v34q94 8 94 70q0 29 -20 78l-136 334h-522l-117 -307q-28 -73 -28 -107q0 -58 100 -68v-34q-88 16 -166 16q-74 0 -168 -16
v35q66 10 114 81q25 39 62 132l346 876q31 78 31 119q0 55 -86 62z" />
    <glyph glyph-name="SF420000" unicode="&#x2560;" horiz-adv-x="1147" 
d="M86 1331h938q5 -164 29 -274h-33q-25 123 -81 158q-43 26 -171 26h-440v-498h290q82 0 111 18q34 22 49 97h33q-14 -91 -14 -156q0 -61 14 -157h-33q-15 75 -50 97q-27 17 -110 17h-290v-569h438q182 0 232 43t77 182h33q-31 -139 -31 -315h-991v33q75 15 96 49
q17 28 17 111v946q0 83 -17 110q-21 34 -96 49v33z" />
    <glyph glyph-name="SF190000" unicode="&#x2561;" horiz-adv-x="526" 
d="M86 1335q84 -14 176 -14q94 0 178 14v-32q-75 -16 -95 -50q-17 -27 -17 -110v-957q0 -83 16 -110q21 -34 96 -49v-33q-80 14 -178 14q-96 0 -176 -14v33q75 15 96 49q17 27 17 110v957q0 83 -17 110q-21 34 -96 50v32z" />
    <glyph glyph-name="SF200000" unicode="&#x2562;" horiz-adv-x="1460" 
d="M707 1268q-226 0 -362 -156q-130 -148 -130 -377q0 -279 156.5 -471t380.5 -192q226 0 362 157q129 150 129 379q0 275 -158 467.5t-378 192.5zM86 698q0 286 178 471q181 189 465 189q291 0 473 -218q172 -204 172 -501q0 -284 -180 -473t-463 -189q-291 0 -473 219
q-172 205 -172 502z" />
    <glyph glyph-name="SF230000" unicode="&#x2563;" horiz-adv-x="1290" 
d="M60 1335q84 -14 178 -14q93 0 177 14l1 -32q-76 -16 -97 -50q-18 -28 -18 -110v-621q0 -218 62 -322q80 -134 282 -134t281 135q61 103 61 321v623q0 83 -17 110q-21 34 -96 48v32q108 -14 179 -14q66 0 176 14v-32q-75 -14 -96 -48q-17 -27 -17 -110v-629
q0 -266 -101 -395q-113 -146 -370 -146t-370 146q-101 129 -101 395v627q0 83 -18 111q-21 33 -97 49z" />
    <glyph glyph-name="SF470000" unicode="&#x2564;" horiz-adv-x="977" 
d="M306 -6l-1 33q75 15 97 49q18 28 18 110v371l-344 621q-65 118 -158 127v32q74 -14 186 -14q105 0 189 14v-32q-98 -13 -98 -64q0 -31 32 -88l283 -502l254 475q37 69 37 111q0 55 -103 68l1 32q68 -14 175 -14q98 0 176 14l1 -32q-84 -11 -170 -164l-334 -594v-361
q0 -82 18 -110q21 -35 97 -49l-1 -33q-80 14 -178 14q-97 0 -177 -14z" />
    <glyph glyph-name="SF480000" unicode="&#x2565;" 
d="M915 29v-35q-52 16 -104 16q-32 0 -102 -10l10 195q-126 -209 -346 -209q-126 0 -213 76q-90 79 -90 204q0 56 21 106q42 101 162 140q53 18 222 37q234 27 234 117q0 245 -246 245q-98 0 -171 -49q-80 -53 -99 -145h-37q18 90 18 192q148 78 291 78q350 0 350 -338v-538
q0 -82 100 -82zM711 514q-58 -12 -188 -33q-335 -55 -335 -207q0 -87 65 -144q62 -56 150 -56q140 0 228 109q83 101 83 244q0 14 -1.5 43t-1.5 44z" />
    <glyph glyph-name="SF410000" unicode="&#x2566;" horiz-adv-x="1006" 
d="M932 522h-729v-49q0 -167 115.5 -286t281.5 -119q152 0 291 145l-12 -119q-142 -119 -312 -119q-212 0 -351 150q-136 146 -136 360q0 201 120 346q128 154 326 154q190 0 300 -121q106 -117 106 -309v-33zM813 594v4q0 125 -79 216q-82 95 -206 95q-133 0 -221 -93
q-83 -87 -100 -222h606z" />
    <glyph glyph-name="SF450000" unicode="&#x2567;" horiz-adv-x="473" 
d="M141 1253q0 37 25.5 63.5t62.5 26.5q38 0 63 -26t25 -64q0 -37 -25.5 -63.5t-62.5 -26.5q-36 0 -62 27t-26 63zM78 -4v33q66 8 88 45q16 28 16 96v618q0 59 -20.5 75t-81.5 18v30q93 15 221 84q-10 -96 -10 -177v-657q0 -63 19 -91q23 -34 85 -41v-33q-102 14 -157 14
q-58 0 -160 -14z" />
    <glyph glyph-name="SF460000" unicode="&#x2568;" horiz-adv-x="473" 
d="M78 -4v33q66 8 88 45q16 28 16 96v618q0 59 -23 77q-18 14 -81 16v30q100 16 223 84q-10 -96 -10 -177v-657q0 -63 19 -91q23 -34 85 -41v-33q-102 14 -157 14q-58 0 -160 -14z" />
    <glyph glyph-name="SF400000" unicode="&#x2569;" horiz-adv-x="1139" 
d="M563 903q-167 0 -265 -109q-95 -105 -95 -274q0 -179 93 -312q105 -149 277 -149q166 0 266 112q95 107 95 275q0 176 -95 309q-106 148 -276 148zM569 987q214 0 351 -145.5t137 -360.5q0 -216 -135 -360q-138 -146 -353 -146t-353 147q-136 143 -136 359t137 361
t352 145z" />
    <glyph glyph-name="SF540000" unicode="&#x256a;" horiz-adv-x="1067" 
d="M764 -4q11 50 14 182q-106 -192 -315 -192q-313 0 -313 366v436q0 58 -23 76q-18 15 -80 17v28q85 13 219 86q-8 -38 -8 -116v-517q0 -290 227 -290q289 0 289 374v342q0 58 -21 76q-18 15 -79 17v28q86 14 219 86q-12 -68 -12 -179v-646q0 -68 16 -96q22 -37 88 -45v-33
q-54 14 -131 14q-52 0 -90 -14z" />
    <glyph glyph-name="SF530000" unicode="&#x256b;" horiz-adv-x="915" 
d="M401 -14l-264 770q-28 81 -44 108q-32 56 -87 70v33q62 -15 154 -15q97 0 157 15v-33q-96 -12 -96 -66q0 -21 13 -60l223 -675l239 676q13 37 13 63q0 50 -96 62l-1 32q72 -14 146 -14q89 0 145 15v-33q-73 -19 -131 -178l-305 -834q-73 -199 -122.5 -253t-127.5 -54
q-56 0 -115 39q-2 91 -14 165l35 1q21 -86 92 -86q101 0 137 106z" />
    <glyph glyph-name="lozenge" unicode="&#x25ca;" horiz-adv-x="1012" 
d="M506 1409l-385 -817l385 -825l385 825zM506 1653l500 -1061l-500 -1069l-500 1069z" />
    <glyph glyph-name="circle" unicode="&#x25cb;" horiz-adv-x="1237" 
d="M559 1757h118l232 -348h-58l-233 209l-233 -209h-58zM450 1791h-67l289 299q57 59 98 59q30 0 51 -21t21 -51q0 -42 -62 -81z" />
    <glyph glyph-name="H18533" unicode="&#x25cf;" horiz-adv-x="1237" 
d="M559 1757h118l232 -348h-58l-233 209l-233 -209h-58zM855 1790h-67l-330 205q-62 39 -62 81q0 30 21 51t51 21q41 0 98 -59z" />
    <glyph glyph-name="invbullet" unicode="&#x25d8;" horiz-adv-x="1237" 
d="M559 1757h118l232 -348h-58l-233 209l-233 -209h-58zM822 1702h-40q0 56 -5 115h8q53 0 98 34t45 83q0 48 -28.5 81t-76.5 33q-84 0 -106 -93h-38q7 38 10 96q66 65 148 65q74 0 126 -46q59 -51 59 -140q0 -64 -62 -115q-26 -20 -81 -40q-18 -6 -42 -22q-13 -18 -15 -51z
" />
    <glyph glyph-name="invcircle" unicode="&#x25d9;" horiz-adv-x="1237" 
d="M559 1757h118l232 -348h-58l-233 209l-233 -209h-58zM929 2056h54q-39 -205 -195 -205q-41 0 -119.5 22.5t-119.5 22.5q-61 0 -89 -90h-51q38 211 197 211q40 0 115 -22.5t114 -22.5q68 0 94 84z" />
    <glyph glyph-name="fi" unicode="&#xf001;" horiz-adv-x="1028" 
d="M635 -4v33q65 8 87 45q15 27 15 96v618q0 59 -22 77q-18 14 -80 16v30q93 15 221 84q-8 -77 -8 -169v-665q0 -63 18 -91q22 -34 84 -41v-33q-102 14 -157 14q-56 0 -158 -14zM105 -4l-1 33q66 8 88 45q17 28 17 96v711h-123v49q65 0 92.5 27t30.5 124q5 134 16 179
q26 105 108 159q79 51 193 51q76 0 174 -20l9 -121q28 47 75 47q38 0 63 -26t25 -64q0 -37 -25.5 -63.5t-62.5 -26.5q-59 0 -93 93q-38 104 -167 104q-207 0 -207 -258v-172h285v-82h-285v-711q0 -77 31 -106q28 -27 107 -35l-1 -33q-78 14 -165 14q-82 0 -184 -14z" />
    <glyph glyph-name="fl" unicode="&#xf002;" horiz-adv-x="1028" 
d="M856 1507q-8 -78 -8 -172v-1165q0 -69 15 -96q22 -37 87 -45v-33q-102 14 -157 14q-56 0 -158 -14v33q65 8 87 45q15 27 15 96v969q0 252 -200 252q-123 0 -175 -69q-45 -59 -45 -187v-172h332v-82h-332v-711q0 -77 31 -106q28 -27 107 -35l-1 -33q-78 14 -165 14
q-82 0 -184 -14l-1 33q66 8 88 45q17 28 17 96v711h-123v49q65 0 92.5 27t30.5 124q5 131 16 177q25 104 110 161q81 54 191 54q133 0 215 -60q56 33 115 94z" />
    <glyph glyph-name="u20AB" unicode="&#x20ab;" horiz-adv-x="729" 
d="M325 932q-102 0 -162 -84q-53 -75 -53 -181q0 -105 52 -187q60 -93 160 -93t159 88q51 77 51 182q0 106 -49 184q-58 91 -158 91zM518 338q7 35 13 130q-88 -137 -225 -137q-128 0 -206 101q-71 93 -71 225q0 134 73 228q80 101 211 101q133 0 215 -129v207h-233v49h233
v37q0 54 -5 69q-12 31 -55 31h-16v22q63 14 157 65q-7 -69 -7 -177v-47h109v-49h-109v-611q0 -47 12 -65q14 -23 57 -28v-22q-62 9 -86 9q-23 0 -67 -9zM83 184h480v-66h-480v66z" />
    <glyph glyph-name="glyph275" horiz-adv-x="526" 
 />
    <glyph glyph-name="glyph276" horiz-adv-x="526" 
 />
    <glyph glyph-name="nonbreakingspace" unicode="&#xa0;" horiz-adv-x="1053" 
 />
    <glyph glyph-name="apple" unicode="&#xf000;" horiz-adv-x="1618" 
d="M836 1216q-2 12 -2 37q0 132 101 237q96 99 230 124q2 -20 2 -62q0 -131 -103.5 -234.5t-211.5 -103.5q-3 0 -8.5 1t-7.5 1zM1505 403q-90 -195 -153 -280q-118 -158 -256 -158q-45 0 -128 33t-126 33q-45 0 -129.5 -33t-128.5 -33q-128 0 -259 176q-99 134 -156 296
q-56 155 -56 300q0 211 117 348q124 146 331 146q57 0 150 -34t129 -34q34 0 126 35t148 35q217 0 359 -164q-201 -128 -201 -328q0 -233 233 -338z" />
    <glyph glyph-name="sfthyphen" unicode="&#xad;" horiz-adv-x="702" 
d="M600 651h35q-42 -128 -57 -205h-369q-56 0 -109 -98h-34q35 108 57 205h369q56 0 108 98z" />
    <glyph glyph-name="ch270" unicode="&#xb7;" horiz-adv-x="526" 
d="M262 762q40 0 68 -28t28 -68q0 -39 -28.5 -67t-67.5 -28q-38 0 -66 28.5t-28 66.5q0 40 27 68t67 28z" />
    <glyph glyph-name="ch270" unicode="&#x2219;" horiz-adv-x="526" 
d="M262 762q40 0 68 -28t28 -68q0 -39 -28.5 -67t-67.5 -28q-38 0 -66 28.5t-28 66.5q0 40 27 68t67 28z" />
    <glyph glyph-name="euro" horiz-adv-x="1053" 
d="M29 479l22 76h143q-4 87 -4 107q0 19 4 106h-153l22 76h142q39 207 154 347q136 165 329 165q157 0 283 -86q0 -207 8 -289h-35q-27 295 -260 295q-154 0 -250 -145q-76 -115 -98 -287h567l-20 -76h-553q-2 -20 -2 -63q0 -82 6 -150h487l-24 -76h-451q28 -171 101 -279
q93 -139 245 -139q179 0 309 132l-6 -93q-127 -125 -313 -125q-202 0 -332 155q-112 135 -145 349h-176z" />
    <glyph glyph-name="glyph261" horiz-adv-x="526" 
d="M283 1324h143q-108 -274 -262 -334l-18 26q118 110 137 308z" />
    <glyph glyph-name="glyph262" horiz-adv-x="1024" 
d="M510 1079h-40q0 56 -5 115h8q53 0 98 34t45 83q0 48 -28.5 81t-76.5 33q-84 0 -106 -93h-38q7 38 10 96q66 65 148 65q74 0 126 -46q59 -51 59 -140q0 -64 -62 -115q-26 -20 -81 -40q-18 -6 -42 -22q-13 -18 -15 -51z" />
    <glyph glyph-name="glyph263" 
d="M414 1446h118l232 -348h-58l-233 209l-233 -209h-58zM305 1480h-67l289 299q57 59 98 59q30 0 51 -21t21 -51q0 -42 -62 -81z" />
    <glyph glyph-name="glyph264" 
d="M414 1446h118l232 -348h-58l-233 209l-233 -209h-58zM710 1479h-67l-330 205q-62 39 -62 81q0 30 21 51t51 21q41 0 98 -59z" />
    <glyph glyph-name="glyph265" 
d="M414 1446h118l232 -348h-58l-233 209l-233 -209h-58zM677 1391h-40q0 56 -5 115h8q53 0 98 34t45 83q0 48 -28.5 81t-76.5 33q-84 0 -106 -93h-38q7 38 10 96q66 65 148 65q74 0 126 -46q59 -51 59 -140q0 -64 -62 -115q-26 -20 -81 -40q-18 -6 -42 -22q-13 -18 -15 -51z
" />
    <glyph glyph-name="glyph266" 
d="M414 1446h118l232 -348h-58l-233 209l-233 -209h-58zM785 1744h54q-39 -205 -195 -205q-41 0 -119.5 22.5t-119.5 22.5q-61 0 -89 -90h-51q38 211 197 211q40 0 115 -22.5t114 -22.5q68 0 94 84z" />
    <glyph glyph-name="glyph267" 
d="M181 1407h51q36 -141 242 -141q208 0 240 141h51q-41 -270 -291 -270q-252 0 -293 270zM395 1480h-67l289 299q57 59 98 59q30 0 51 -21t21 -51q0 -42 -62 -81z" />
    <glyph glyph-name="glyph268" 
d="M181 1407h51q36 -141 242 -141q208 0 240 141h51q-41 -270 -291 -270q-252 0 -293 270zM640 1479h-67l-330 205q-62 39 -62 81q0 30 21 51t51 21q41 0 98 -59z" />
    <glyph glyph-name="glyph269" 
d="M181 1407h51q36 -141 242 -141q208 0 240 141h51q-41 -270 -291 -270q-252 0 -293 270zM458 1391h-40q0 56 -5 115h8q53 0 98 34t45 83q0 48 -28.5 81t-76.5 33q-84 0 -106 -93h-38q7 38 10 96q66 65 148 65q74 0 126 -46q59 -51 59 -140q0 -64 -62 -115q-26 -20 -81 -40
q-18 -6 -42 -22q-13 -18 -15 -51z" />
    <glyph glyph-name="glyph270" 
d="M181 1407h51q36 -141 242 -141q208 0 240 141h51q-41 -270 -291 -270q-252 0 -293 270zM785 1744h54q-39 -205 -195 -205q-41 0 -119.5 22.5t-119.5 22.5q-61 0 -89 -90h-51q38 211 197 211q40 0 115 -22.5t114 -22.5q68 0 94 84z" />
    <glyph glyph-name="glyph271" unicode="&#x102;" horiz-adv-x="1237" 
d="M610 1188l-231 -588h459zM435 1337q66 -14 157 -14q70 0 110 8q21 -86 52 -166l385 -995q50 -130 137 -141v-35q-102 16 -170 16q-84 0 -176 -16v34q94 8 94 70q0 29 -20 78l-136 334h-522l-117 -307q-28 -73 -28 -107q0 -58 100 -68v-34q-88 16 -166 16q-74 0 -168 -16
v35q66 10 114 81q25 39 62 132l346 876q31 78 31 119q0 55 -86 62zM326 1722h51q36 -141 242 -141q208 0 240 141h51q-41 -270 -291 -270q-252 0 -293 270z" />
    <glyph glyph-name="glyph272" unicode="&#x103;" 
d="M915 29v-35q-52 16 -104 16q-32 0 -102 -10l10 195q-126 -209 -346 -209q-126 0 -213 76q-90 79 -90 204q0 56 21 106q42 101 162 140q53 18 222 37q234 27 234 117q0 245 -246 245q-98 0 -171 -49q-80 -53 -99 -145h-37q18 90 18 192q148 78 291 78q350 0 350 -338v-538
q0 -82 100 -82zM711 514q-58 -12 -188 -33q-335 -55 -335 -207q0 -87 65 -144q62 -56 150 -56q140 0 228 109q83 101 83 244q0 14 -1.5 43t-1.5 44zM181 1407h51q36 -141 242 -141q208 0 240 141h51q-41 -270 -291 -270q-252 0 -293 270z" />
    <glyph glyph-name="glyph273" unicode="&#x128;" horiz-adv-x="526" 
d="M86 1335q84 -14 176 -14q94 0 178 14v-32q-75 -16 -95 -50q-17 -27 -17 -110v-957q0 -83 16 -110q21 -34 96 -49v-33q-80 14 -178 14q-96 0 -176 -14v33q75 15 96 49q17 27 17 110v957q0 83 -17 110q-21 34 -96 50v32zM524 1766h54q-39 -205 -195 -205q-41 0 -119.5 22.5
t-119.5 22.5q-61 0 -89 -90h-51q38 211 197 211q40 0 115 -22.5t114 -22.5q68 0 94 84z" />
    <glyph glyph-name="glyph274" unicode="&#x129;" horiz-adv-x="473" 
d="M78 -4v33q66 8 88 45q16 28 16 96v618q0 59 -23 77q-18 14 -81 16v30q100 16 223 84q-10 -96 -10 -177v-657q0 -63 19 -91q23 -34 85 -41v-33q-102 14 -157 14q-58 0 -160 -14zM482 1395h54q-39 -205 -195 -205q-41 0 -119.5 22.5t-119.5 22.5q-61 0 -89 -90h-51
q38 211 197 211q40 0 115 -22.5t114 -22.5q68 0 94 84z" />
    <glyph glyph-name="glyph275" unicode="&#x168;" horiz-adv-x="1290" 
d="M60 1335q84 -14 178 -14q93 0 177 14l1 -32q-76 -16 -97 -50q-18 -28 -18 -110v-621q0 -218 62 -322q80 -134 282 -134t281 135q61 103 61 321v623q0 83 -17 110q-21 34 -96 48v32q108 -14 179 -14q66 0 176 14v-32q-75 -14 -96 -48q-17 -27 -17 -110v-629
q0 -266 -101 -395q-113 -146 -370 -146t-370 146q-101 129 -101 395v627q0 83 -18 111q-21 33 -97 49zM904 1766h54q-39 -205 -195 -205q-41 0 -119.5 22.5t-119.5 22.5q-61 0 -89 -90h-51q38 211 197 211q40 0 115 -22.5t114 -22.5q68 0 94 84z" />
    <glyph glyph-name="glyph276" unicode="&#x169;" horiz-adv-x="1067" 
d="M764 -4q11 50 14 182q-106 -192 -315 -192q-313 0 -313 366v436q0 58 -23 76q-18 15 -80 17v28q85 13 219 86q-8 -38 -8 -116v-517q0 -290 227 -290q289 0 289 374v342q0 58 -21 76q-18 15 -79 17v28q86 14 219 86q-12 -68 -12 -179v-646q0 -68 16 -96q22 -37 88 -45v-33
q-54 14 -131 14q-52 0 -90 -14zM752 1395h54q-39 -205 -195 -205q-41 0 -119.5 22.5t-119.5 22.5q-61 0 -89 -90h-51q38 211 197 211q40 0 115 -22.5t114 -22.5q68 0 94 84z" />
    <glyph glyph-name="glyph277" unicode="&#x1a0;" horiz-adv-x="1460" 
d="M707 1268q-226 0 -362 -156q-130 -148 -130 -377q0 -279 156.5 -471t380.5 -192q226 0 362 157q129 150 129 379q0 275 -158 467.5t-378 192.5zM86 698q0 286 178 471q181 189 465 189q291 0 473 -218q172 -204 172 -501q0 -284 -180 -473t-463 -189q-291 0 -473 219
q-172 205 -172 502zM1218 1413h143q-108 -274 -262 -334l-18 26q118 110 137 308z" />
    <glyph glyph-name="glyph278" unicode="&#x1a1;" horiz-adv-x="1139" 
d="M563 903q-167 0 -265 -109q-95 -105 -95 -274q0 -179 93 -312q105 -149 277 -149q166 0 266 112q95 107 95 275q0 176 -95 309q-106 148 -276 148zM569 987q214 0 351 -145.5t137 -360.5q0 -216 -135 -360q-138 -146 -353 -146t-353 147q-136 143 -136 359t137 361
t352 145zM948 1056h143q-108 -274 -262 -334l-18 26q118 110 137 308z" />
    <glyph glyph-name="glyph279" unicode="&#x1af;" horiz-adv-x="1332" 
d="M60 1335q84 -14 178 -14q93 0 177 14l1 -32q-76 -16 -97 -50q-18 -28 -18 -110v-621q0 -218 62 -322q80 -134 282 -134t281 135q61 103 61 321v623q0 83 -17 110q-21 34 -96 48v32q108 -14 179 -14q66 0 176 14v-32q-75 -14 -96 -48q-17 -27 -17 -110v-629
q0 -266 -101 -395q-113 -146 -370 -146t-370 146q-101 129 -101 395v627q0 83 -18 111q-21 33 -97 49zM1232 1413h143q-108 -274 -262 -334l-18 26q118 110 137 308z" />
    <glyph glyph-name="glyph280" unicode="&#x1b0;" horiz-adv-x="1085" 
d="M764 -4q11 50 14 182q-106 -192 -315 -192q-313 0 -313 366v436q0 58 -23 76q-18 15 -80 17v28q85 13 219 86q-8 -38 -8 -116v-517q0 -290 227 -290q289 0 289 374v342q0 58 -21 76q-18 15 -79 17v28q86 14 219 86q-12 -68 -12 -179v-646q0 -68 16 -96q22 -37 88 -45v-33
q-54 14 -131 14q-52 0 -90 -14zM948 1056h143q-108 -274 -262 -334l-18 26q118 110 137 308z" />
    <glyph glyph-name="glyph281" unicode="&#x1ea0;" horiz-adv-x="1237" 
d="M610 1188l-231 -588h459zM435 1337q66 -14 157 -14q70 0 110 8q21 -86 52 -166l385 -995q50 -130 137 -141v-35q-102 16 -170 16q-84 0 -176 -16v34q94 8 94 70q0 29 -20 78l-136 334h-522l-117 -307q-28 -73 -28 -107q0 -58 100 -68v-34q-88 16 -166 16q-74 0 -168 -16
v35q66 10 114 81q25 39 62 132l346 876q31 78 31 119q0 55 -86 62zM611 -148q36 0 61 -26t25 -62q0 -35 -25.5 -63t-60.5 -28t-59.5 28t-24.5 63q0 36 24 62t60 26z" />
    <glyph glyph-name="glyph282" unicode="&#x1ea1;" 
d="M915 29v-35q-52 16 -104 16q-32 0 -102 -10l10 195q-126 -209 -346 -209q-126 0 -213 76q-90 79 -90 204q0 56 21 106q42 101 162 140q53 18 222 37q234 27 234 117q0 245 -246 245q-98 0 -171 -49q-80 -53 -99 -145h-37q18 90 18 192q148 78 291 78q350 0 350 -338v-538
q0 -82 100 -82zM711 514q-58 -12 -188 -33q-335 -55 -335 -207q0 -87 65 -144q62 -56 150 -56q140 0 228 109q83 101 83 244q0 14 -1.5 43t-1.5 44zM470 -148q36 0 61 -26t25 -62q0 -35 -25.5 -63t-60.5 -28t-59.5 28t-24.5 63q0 36 24 62t60 26z" />
    <glyph glyph-name="glyph283" unicode="&#x1ea2;" horiz-adv-x="1237" 
d="M610 1188l-231 -588h459zM435 1337q66 -14 157 -14q70 0 110 8q21 -86 52 -166l385 -995q50 -130 137 -141v-35q-102 16 -170 16q-84 0 -176 -16v34q94 8 94 70q0 29 -20 78l-136 334h-522l-117 -307q-28 -73 -28 -107q0 -58 100 -68v-34q-88 16 -166 16q-74 0 -168 -16
v35q66 10 114 81q25 39 62 132l346 876q31 78 31 119q0 55 -86 62zM593 1427h-40q0 56 -5 115h8q53 0 98 34t45 83q0 48 -28.5 81t-76.5 33q-84 0 -106 -93h-38q7 38 10 96q66 65 148 65q74 0 126 -46q59 -51 59 -140q0 -64 -62 -115q-26 -20 -81 -40q-18 -6 -42 -22
q-13 -18 -15 -51z" />
    <glyph glyph-name="glyph284" unicode="&#x1ea3;" 
d="M915 29v-35q-52 16 -104 16q-32 0 -102 -10l10 195q-126 -209 -346 -209q-126 0 -213 76q-90 79 -90 204q0 56 21 106q42 101 162 140q53 18 222 37q234 27 234 117q0 245 -246 245q-98 0 -171 -49q-80 -53 -99 -145h-37q18 90 18 192q148 78 291 78q350 0 350 -338v-538
q0 -82 100 -82zM711 514q-58 -12 -188 -33q-335 -55 -335 -207q0 -87 65 -144q62 -56 150 -56q140 0 228 109q83 101 83 244q0 14 -1.5 43t-1.5 44zM460 1079h-40q0 56 -5 115h8q53 0 98 34t45 83q0 48 -28.5 81t-76.5 33q-84 0 -106 -93h-38q7 38 10 96q66 65 148 65
q74 0 126 -46q59 -51 59 -140q0 -64 -62 -115q-26 -20 -81 -40q-18 -6 -42 -22q-13 -18 -15 -51z" />
    <glyph glyph-name="glyph285" unicode="&#x1ea4;" horiz-adv-x="1237" 
d="M610 1188l-231 -588h459zM435 1337q66 -14 157 -14q70 0 110 8q21 -86 52 -166l385 -995q50 -130 137 -141v-35q-102 16 -170 16q-84 0 -176 -16v34q94 8 94 70q0 29 -20 78l-136 334h-522l-117 -307q-28 -73 -28 -107q0 -58 100 -68v-34q-88 16 -166 16q-74 0 -168 -16
v35q66 10 114 81q25 39 62 132l346 876q31 78 31 119q0 55 -86 62zM559 1757h118l232 -348h-58l-233 209l-233 -209h-58zM450 1791h-67l289 299q57 59 98 59q30 0 51 -21t21 -51q0 -42 -62 -81z" />
    <glyph glyph-name="glyph286" unicode="&#x1ea5;" 
d="M915 29v-35q-52 16 -104 16q-32 0 -102 -10l10 195q-126 -209 -346 -209q-126 0 -213 76q-90 79 -90 204q0 56 21 106q42 101 162 140q53 18 222 37q234 27 234 117q0 245 -246 245q-98 0 -171 -49q-80 -53 -99 -145h-37q18 90 18 192q148 78 291 78q350 0 350 -338v-538
q0 -82 100 -82zM711 514q-58 -12 -188 -33q-335 -55 -335 -207q0 -87 65 -144q62 -56 150 -56q140 0 228 109q83 101 83 244q0 14 -1.5 43t-1.5 44zM414 1446h118l232 -348h-58l-233 209l-233 -209h-58zM305 1480h-67l289 299q57 59 98 59q30 0 51 -21t21 -51q0 -42 -62 -81
z" />
    <glyph glyph-name="glyph287" unicode="&#x1ea6;" horiz-adv-x="1237" 
d="M610 1188l-231 -588h459zM435 1337q66 -14 157 -14q70 0 110 8q21 -86 52 -166l385 -995q50 -130 137 -141v-35q-102 16 -170 16q-84 0 -176 -16v34q94 8 94 70q0 29 -20 78l-136 334h-522l-117 -307q-28 -73 -28 -107q0 -58 100 -68v-34q-88 16 -166 16q-74 0 -168 -16
v35q66 10 114 81q25 39 62 132l346 876q31 78 31 119q0 55 -86 62zM559 1757h118l232 -348h-58l-233 209l-233 -209h-58zM855 1790h-67l-330 205q-62 39 -62 81q0 30 21 51t51 21q41 0 98 -59z" />
    <glyph glyph-name="glyph288" unicode="&#x1ea7;" 
d="M915 29v-35q-52 16 -104 16q-32 0 -102 -10l10 195q-126 -209 -346 -209q-126 0 -213 76q-90 79 -90 204q0 56 21 106q42 101 162 140q53 18 222 37q234 27 234 117q0 245 -246 245q-98 0 -171 -49q-80 -53 -99 -145h-37q18 90 18 192q148 78 291 78q350 0 350 -338v-538
q0 -82 100 -82zM711 514q-58 -12 -188 -33q-335 -55 -335 -207q0 -87 65 -144q62 -56 150 -56q140 0 228 109q83 101 83 244q0 14 -1.5 43t-1.5 44zM414 1446h118l232 -348h-58l-233 209l-233 -209h-58zM710 1479h-67l-330 205q-62 39 -62 81q0 30 21 51t51 21q41 0 98 -59z
" />
    <glyph glyph-name="glyph289" unicode="&#x1ea8;" horiz-adv-x="1237" 
d="M610 1188l-231 -588h459zM435 1337q66 -14 157 -14q70 0 110 8q21 -86 52 -166l385 -995q50 -130 137 -141v-35q-102 16 -170 16q-84 0 -176 -16v34q94 8 94 70q0 29 -20 78l-136 334h-522l-117 -307q-28 -73 -28 -107q0 -58 100 -68v-34q-88 16 -166 16q-74 0 -168 -16
v35q66 10 114 81q25 39 62 132l346 876q31 78 31 119q0 55 -86 62zM559 1757h118l232 -348h-58l-233 209l-233 -209h-58zM822 1702h-40q0 56 -5 115h8q53 0 98 34t45 83q0 48 -28.5 81t-76.5 33q-84 0 -106 -93h-38q7 38 10 96q66 65 148 65q74 0 126 -46q59 -51 59 -140
q0 -64 -62 -115q-26 -20 -81 -40q-18 -6 -42 -22q-13 -18 -15 -51z" />
    <glyph glyph-name="glyph290" unicode="&#x1ea9;" 
d="M915 29v-35q-52 16 -104 16q-32 0 -102 -10l10 195q-126 -209 -346 -209q-126 0 -213 76q-90 79 -90 204q0 56 21 106q42 101 162 140q53 18 222 37q234 27 234 117q0 245 -246 245q-98 0 -171 -49q-80 -53 -99 -145h-37q18 90 18 192q148 78 291 78q350 0 350 -338v-538
q0 -82 100 -82zM711 514q-58 -12 -188 -33q-335 -55 -335 -207q0 -87 65 -144q62 -56 150 -56q140 0 228 109q83 101 83 244q0 14 -1.5 43t-1.5 44zM414 1446h118l232 -348h-58l-233 209l-233 -209h-58zM677 1391h-40q0 56 -5 115h8q53 0 98 34t45 83q0 48 -28.5 81
t-76.5 33q-84 0 -106 -93h-38q7 38 10 96q66 65 148 65q74 0 126 -46q59 -51 59 -140q0 -64 -62 -115q-26 -20 -81 -40q-18 -6 -42 -22q-13 -18 -15 -51z" />
    <glyph glyph-name="glyph291" unicode="&#x1eaa;" horiz-adv-x="1237" 
d="M610 1188l-231 -588h459zM435 1337q66 -14 157 -14q70 0 110 8q21 -86 52 -166l385 -995q50 -130 137 -141v-35q-102 16 -170 16q-84 0 -176 -16v34q94 8 94 70q0 29 -20 78l-136 334h-522l-117 -307q-28 -73 -28 -107q0 -58 100 -68v-34q-88 16 -166 16q-74 0 -168 -16
v35q66 10 114 81q25 39 62 132l346 876q31 78 31 119q0 55 -86 62zM559 1757h118l232 -348h-58l-233 209l-233 -209h-58zM929 2056h54q-39 -205 -195 -205q-41 0 -119.5 22.5t-119.5 22.5q-61 0 -89 -90h-51q38 211 197 211q40 0 115 -22.5t114 -22.5q68 0 94 84z" />
    <glyph glyph-name="glyph292" unicode="&#x1eab;" 
d="M915 29v-35q-52 16 -104 16q-32 0 -102 -10l10 195q-126 -209 -346 -209q-126 0 -213 76q-90 79 -90 204q0 56 21 106q42 101 162 140q53 18 222 37q234 27 234 117q0 245 -246 245q-98 0 -171 -49q-80 -53 -99 -145h-37q18 90 18 192q148 78 291 78q350 0 350 -338v-538
q0 -82 100 -82zM711 514q-58 -12 -188 -33q-335 -55 -335 -207q0 -87 65 -144q62 -56 150 -56q140 0 228 109q83 101 83 244q0 14 -1.5 43t-1.5 44zM414 1446h118l232 -348h-58l-233 209l-233 -209h-58zM785 1744h54q-39 -205 -195 -205q-41 0 -119.5 22.5t-119.5 22.5
q-61 0 -89 -90h-51q38 211 197 211q40 0 115 -22.5t114 -22.5q68 0 94 84z" />
    <glyph glyph-name="glyph293" unicode="&#x1eac;" horiz-adv-x="1237" 
d="M610 1188l-231 -588h459zM435 1337q66 -14 157 -14q70 0 110 8q21 -86 52 -166l385 -995q50 -130 137 -141v-35q-102 16 -170 16q-84 0 -176 -16v34q94 8 94 70q0 29 -20 78l-136 334h-522l-117 -307q-28 -73 -28 -107q0 -58 100 -68v-34q-88 16 -166 16q-74 0 -168 -16
v35q66 10 114 81q25 39 62 132l346 876q31 78 31 119q0 55 -86 62zM559 1757h118l232 -348h-58l-233 209l-233 -209h-58zM611 -148q36 0 61 -26t25 -62q0 -35 -25.5 -63t-60.5 -28t-59.5 28t-24.5 63q0 36 24 62t60 26z" />
    <glyph glyph-name="glyph294" unicode="&#x1ead;" 
d="M915 29v-35q-52 16 -104 16q-32 0 -102 -10l10 195q-126 -209 -346 -209q-126 0 -213 76q-90 79 -90 204q0 56 21 106q42 101 162 140q53 18 222 37q234 27 234 117q0 245 -246 245q-98 0 -171 -49q-80 -53 -99 -145h-37q18 90 18 192q148 78 291 78q350 0 350 -338v-538
q0 -82 100 -82zM711 514q-58 -12 -188 -33q-335 -55 -335 -207q0 -87 65 -144q62 -56 150 -56q140 0 228 109q83 101 83 244q0 14 -1.5 43t-1.5 44zM414 1446h118l232 -348h-58l-233 209l-233 -209h-58zM470 -148q36 0 61 -26t25 -62q0 -35 -25.5 -63t-60.5 -28t-59.5 28
t-24.5 63q0 36 24 62t60 26z" />
    <glyph glyph-name="glyph295" unicode="&#x1eae;" horiz-adv-x="1237" 
d="M610 1188l-231 -588h459zM435 1337q66 -14 157 -14q70 0 110 8q21 -86 52 -166l385 -995q50 -130 137 -141v-35q-102 16 -170 16q-84 0 -176 -16v34q94 8 94 70q0 29 -20 78l-136 334h-522l-117 -307q-28 -73 -28 -107q0 -58 100 -68v-34q-88 16 -166 16q-74 0 -168 -16
v35q66 10 114 81q25 39 62 132l346 876q31 78 31 119q0 55 -86 62zM326 1722h51q36 -141 242 -141q208 0 240 141h51q-41 -270 -291 -270q-252 0 -293 270zM540 1794h-67l289 299q57 59 98 59q30 0 51 -21t21 -51q0 -42 -62 -81z" />
    <glyph glyph-name="glyph296" unicode="&#x1eaf;" 
d="M915 29v-35q-52 16 -104 16q-32 0 -102 -10l10 195q-126 -209 -346 -209q-126 0 -213 76q-90 79 -90 204q0 56 21 106q42 101 162 140q53 18 222 37q234 27 234 117q0 245 -246 245q-98 0 -171 -49q-80 -53 -99 -145h-37q18 90 18 192q148 78 291 78q350 0 350 -338v-538
q0 -82 100 -82zM711 514q-58 -12 -188 -33q-335 -55 -335 -207q0 -87 65 -144q62 -56 150 -56q140 0 228 109q83 101 83 244q0 14 -1.5 43t-1.5 44zM181 1407h51q36 -141 242 -141q208 0 240 141h51q-41 -270 -291 -270q-252 0 -293 270zM395 1480h-67l289 299q57 59 98 59
q30 0 51 -21t21 -51q0 -42 -62 -81z" />
    <glyph glyph-name="glyph297" unicode="&#x1eb0;" horiz-adv-x="1237" 
d="M610 1188l-231 -588h459zM435 1337q66 -14 157 -14q70 0 110 8q21 -86 52 -166l385 -995q50 -130 137 -141v-35q-102 16 -170 16q-84 0 -176 -16v34q94 8 94 70q0 29 -20 78l-136 334h-522l-117 -307q-28 -73 -28 -107q0 -58 100 -68v-34q-88 16 -166 16q-74 0 -168 -16
v35q66 10 114 81q25 39 62 132l346 876q31 78 31 119q0 55 -86 62zM326 1722h51q36 -141 242 -141q208 0 240 141h51q-41 -270 -291 -270q-252 0 -293 270zM785 1794h-67l-330 205q-62 39 -62 81q0 30 21 51t51 21q41 0 98 -59z" />
    <glyph glyph-name="glyph298" unicode="&#x1eb1;" 
d="M915 29v-35q-52 16 -104 16q-32 0 -102 -10l10 195q-126 -209 -346 -209q-126 0 -213 76q-90 79 -90 204q0 56 21 106q42 101 162 140q53 18 222 37q234 27 234 117q0 245 -246 245q-98 0 -171 -49q-80 -53 -99 -145h-37q18 90 18 192q148 78 291 78q350 0 350 -338v-538
q0 -82 100 -82zM711 514q-58 -12 -188 -33q-335 -55 -335 -207q0 -87 65 -144q62 -56 150 -56q140 0 228 109q83 101 83 244q0 14 -1.5 43t-1.5 44zM181 1407h51q36 -141 242 -141q208 0 240 141h51q-41 -270 -291 -270q-252 0 -293 270zM640 1479h-67l-330 205
q-62 39 -62 81q0 30 21 51t51 21q41 0 98 -59z" />
    <glyph glyph-name="glyph299" unicode="&#x1eb2;" horiz-adv-x="1237" 
d="M610 1188l-231 -588h459zM435 1337q66 -14 157 -14q70 0 110 8q21 -86 52 -166l385 -995q50 -130 137 -141v-35q-102 16 -170 16q-84 0 -176 -16v34q94 8 94 70q0 29 -20 78l-136 334h-522l-117 -307q-28 -73 -28 -107q0 -58 100 -68v-34q-88 16 -166 16q-74 0 -168 -16
v35q66 10 114 81q25 39 62 132l346 876q31 78 31 119q0 55 -86 62zM326 1722h51q36 -141 242 -141q208 0 240 141h51q-41 -270 -291 -270q-252 0 -293 270zM603 1705h-40q0 56 -5 115h8q53 0 98 34t45 83q0 48 -28.5 81t-76.5 33q-84 0 -106 -93h-38q7 38 10 96
q66 65 148 65q74 0 126 -46q59 -51 59 -140q0 -64 -62 -115q-26 -20 -81 -40q-18 -6 -42 -22q-13 -18 -15 -51z" />
    <glyph glyph-name="glyph300" unicode="&#x1eb3;" 
d="M915 29v-35q-52 16 -104 16q-32 0 -102 -10l10 195q-126 -209 -346 -209q-126 0 -213 76q-90 79 -90 204q0 56 21 106q42 101 162 140q53 18 222 37q234 27 234 117q0 245 -246 245q-98 0 -171 -49q-80 -53 -99 -145h-37q18 90 18 192q148 78 291 78q350 0 350 -338v-538
q0 -82 100 -82zM711 514q-58 -12 -188 -33q-335 -55 -335 -207q0 -87 65 -144q62 -56 150 -56q140 0 228 109q83 101 83 244q0 14 -1.5 43t-1.5 44zM181 1407h51q36 -141 242 -141q208 0 240 141h51q-41 -270 -291 -270q-252 0 -293 270zM458 1391h-40q0 56 -5 115h8
q53 0 98 34t45 83q0 48 -28.5 81t-76.5 33q-84 0 -106 -93h-38q7 38 10 96q66 65 148 65q74 0 126 -46q59 -51 59 -140q0 -64 -62 -115q-26 -20 -81 -40q-18 -6 -42 -22q-13 -18 -15 -51z" />
    <glyph glyph-name="glyph301" unicode="&#x1eb4;" horiz-adv-x="1237" 
d="M610 1188l-231 -588h459zM435 1337q66 -14 157 -14q70 0 110 8q21 -86 52 -166l385 -995q50 -130 137 -141v-35q-102 16 -170 16q-84 0 -176 -16v34q94 8 94 70q0 29 -20 78l-136 334h-522l-117 -307q-28 -73 -28 -107q0 -58 100 -68v-34q-88 16 -166 16q-74 0 -168 -16
v35q66 10 114 81q25 39 62 132l346 876q31 78 31 119q0 55 -86 62zM326 1722h51q36 -141 242 -141q208 0 240 141h51q-41 -270 -291 -270q-252 0 -293 270zM929 2059h54q-39 -205 -195 -205q-41 0 -119.5 22.5t-119.5 22.5q-61 0 -89 -90h-51q38 211 197 211q40 0 115 -22.5
t114 -22.5q68 0 94 84z" />
    <glyph glyph-name="glyph302" unicode="&#x1eb5;" 
d="M915 29v-35q-52 16 -104 16q-32 0 -102 -10l10 195q-126 -209 -346 -209q-126 0 -213 76q-90 79 -90 204q0 56 21 106q42 101 162 140q53 18 222 37q234 27 234 117q0 245 -246 245q-98 0 -171 -49q-80 -53 -99 -145h-37q18 90 18 192q148 78 291 78q350 0 350 -338v-538
q0 -82 100 -82zM711 514q-58 -12 -188 -33q-335 -55 -335 -207q0 -87 65 -144q62 -56 150 -56q140 0 228 109q83 101 83 244q0 14 -1.5 43t-1.5 44zM181 1407h51q36 -141 242 -141q208 0 240 141h51q-41 -270 -291 -270q-252 0 -293 270zM785 1744h54q-39 -205 -195 -205
q-41 0 -119.5 22.5t-119.5 22.5q-61 0 -89 -90h-51q38 211 197 211q40 0 115 -22.5t114 -22.5q68 0 94 84z" />
    <glyph glyph-name="glyph303" unicode="&#x1eb6;" horiz-adv-x="1237" 
d="M610 1188l-231 -588h459zM435 1337q66 -14 157 -14q70 0 110 8q21 -86 52 -166l385 -995q50 -130 137 -141v-35q-102 16 -170 16q-84 0 -176 -16v34q94 8 94 70q0 29 -20 78l-136 334h-522l-117 -307q-28 -73 -28 -107q0 -58 100 -68v-34q-88 16 -166 16q-74 0 -168 -16
v35q66 10 114 81q25 39 62 132l346 876q31 78 31 119q0 55 -86 62zM326 1722h51q36 -141 242 -141q208 0 240 141h51q-41 -270 -291 -270q-252 0 -293 270zM611 -148q36 0 61 -26t25 -62q0 -35 -25.5 -63t-60.5 -28t-59.5 28t-24.5 63q0 36 24 62t60 26z" />
    <glyph glyph-name="glyph304" unicode="&#x1eb7;" 
d="M915 29v-35q-52 16 -104 16q-32 0 -102 -10l10 195q-126 -209 -346 -209q-126 0 -213 76q-90 79 -90 204q0 56 21 106q42 101 162 140q53 18 222 37q234 27 234 117q0 245 -246 245q-98 0 -171 -49q-80 -53 -99 -145h-37q18 90 18 192q148 78 291 78q350 0 350 -338v-538
q0 -82 100 -82zM711 514q-58 -12 -188 -33q-335 -55 -335 -207q0 -87 65 -144q62 -56 150 -56q140 0 228 109q83 101 83 244q0 14 -1.5 43t-1.5 44zM181 1407h51q36 -141 242 -141q208 0 240 141h51q-41 -270 -291 -270q-252 0 -293 270zM470 -148q36 0 61 -26t25 -62
q0 -35 -25.5 -63t-60.5 -28t-59.5 28t-24.5 63q0 36 24 62t60 26z" />
    <glyph glyph-name="glyph305" unicode="&#x1eb8;" horiz-adv-x="1147" 
d="M86 1331h938q5 -164 29 -274h-33q-25 123 -81 158q-43 26 -171 26h-440v-498h290q82 0 111 18q34 22 49 97h33q-14 -91 -14 -156q0 -61 14 -157h-33q-15 75 -50 97q-27 17 -110 17h-290v-569h438q182 0 232 43t77 182h33q-31 -139 -31 -315h-991v33q75 15 96 49
q17 28 17 111v946q0 83 -17 110q-21 34 -96 49v33zM611 -148q36 0 61 -26t25 -62q0 -35 -25.5 -63t-60.5 -28t-59.5 28t-24.5 63q0 36 24 62t60 26z" />
    <glyph glyph-name="glyph306" unicode="&#x1eb9;" horiz-adv-x="1006" 
d="M932 522h-729v-49q0 -167 115.5 -286t281.5 -119q152 0 291 145l-12 -119q-142 -119 -312 -119q-212 0 -351 150q-136 146 -136 360q0 201 120 346q128 154 326 154q190 0 300 -121q106 -117 106 -309v-33zM813 594v4q0 125 -79 216q-82 95 -206 95q-133 0 -221 -93
q-83 -87 -100 -222h606zM540 -148q36 0 61 -26t25 -62q0 -35 -25.5 -63t-60.5 -28t-59.5 28t-24.5 63q0 36 24 62t60 26z" />
    <glyph glyph-name="glyph307" unicode="&#x1eba;" horiz-adv-x="1147" 
d="M86 1331h938q5 -164 29 -274h-33q-25 123 -81 158q-43 26 -171 26h-440v-498h290q82 0 111 18q34 22 49 97h33q-14 -91 -14 -156q0 -61 14 -157h-33q-15 75 -50 97q-27 17 -110 17h-290v-569h438q182 0 232 43t77 182h33q-31 -139 -31 -315h-991v33q75 15 96 49
q17 28 17 111v946q0 83 -17 110q-21 34 -96 49v33zM593 1427h-40q0 56 -5 115h8q53 0 98 34t45 83q0 48 -28.5 81t-76.5 33q-84 0 -106 -93h-38q7 38 10 96q66 65 148 65q74 0 126 -46q59 -51 59 -140q0 -64 -62 -115q-26 -20 -81 -40q-18 -6 -42 -22q-13 -18 -15 -51z" />
    <glyph glyph-name="glyph308" unicode="&#x1ebb;" horiz-adv-x="1006" 
d="M932 522h-729v-49q0 -167 115.5 -286t281.5 -119q152 0 291 145l-12 -119q-142 -119 -312 -119q-212 0 -351 150q-136 146 -136 360q0 201 120 346q128 154 326 154q190 0 300 -121q106 -117 106 -309v-33zM813 594v4q0 125 -79 216q-82 95 -206 95q-133 0 -221 -93
q-83 -87 -100 -222h606zM520 1079h-40q0 56 -5 115h8q53 0 98 34t45 83q0 48 -28.5 81t-76.5 33q-84 0 -106 -93h-38q7 38 10 96q66 65 148 65q74 0 126 -46q59 -51 59 -140q0 -64 -62 -115q-26 -20 -81 -40q-18 -6 -42 -22q-13 -18 -15 -51z" />
    <glyph glyph-name="glyph309" unicode="&#x1ebc;" horiz-adv-x="1147" 
d="M86 1331h938q5 -164 29 -274h-33q-25 123 -81 158q-43 26 -171 26h-440v-498h290q82 0 111 18q34 22 49 97h33q-14 -91 -14 -156q0 -61 14 -157h-33q-15 75 -50 97q-27 17 -110 17h-290v-569h438q182 0 232 43t77 182h33q-31 -139 -31 -315h-991v33q75 15 96 49
q17 28 17 111v946q0 83 -17 110q-21 34 -96 49v33zM844 1766h54q-39 -205 -195 -205q-41 0 -119.5 22.5t-119.5 22.5q-61 0 -89 -90h-51q38 211 197 211q40 0 115 -22.5t114 -22.5q68 0 94 84z" />
    <glyph glyph-name="glyph310" unicode="&#x1ebd;" horiz-adv-x="1006" 
d="M932 522h-729v-49q0 -167 115.5 -286t281.5 -119q152 0 291 145l-12 -119q-142 -119 -312 -119q-212 0 -351 150q-136 146 -136 360q0 201 120 346q128 154 326 154q190 0 300 -121q106 -117 106 -309v-33zM813 594v4q0 125 -79 216q-82 95 -206 95q-133 0 -221 -93
q-83 -87 -100 -222h606zM752 1395h54q-39 -205 -195 -205q-41 0 -119.5 22.5t-119.5 22.5q-61 0 -89 -90h-51q38 211 197 211q40 0 115 -22.5t114 -22.5q68 0 94 84z" />
    <glyph glyph-name="glyph311" unicode="&#x1ebe;" horiz-adv-x="1147" 
d="M86 1331h938q5 -164 29 -274h-33q-25 123 -81 158q-43 26 -171 26h-440v-498h290q82 0 111 18q34 22 49 97h33q-14 -91 -14 -156q0 -61 14 -157h-33q-15 75 -50 97q-27 17 -110 17h-290v-569h438q182 0 232 43t77 182h33q-31 -139 -31 -315h-991v33q75 15 96 49
q17 28 17 111v946q0 83 -17 110q-21 34 -96 49v33zM549 1757h118l232 -348h-58l-233 209l-233 -209h-58zM440 1791h-67l289 299q57 59 98 59q30 0 51 -21t21 -51q0 -42 -62 -81z" />
    <glyph glyph-name="glyph312" unicode="&#x1ebf;" horiz-adv-x="1006" 
d="M932 522h-729v-49q0 -167 115.5 -286t281.5 -119q152 0 291 145l-12 -119q-142 -119 -312 -119q-212 0 -351 150q-136 146 -136 360q0 201 120 346q128 154 326 154q190 0 300 -121q106 -117 106 -309v-33zM813 594v4q0 125 -79 216q-82 95 -206 95q-133 0 -221 -93
q-83 -87 -100 -222h606zM480 1446h118l232 -348h-58l-233 209l-233 -209h-58zM371 1480h-67l289 299q57 59 98 59q30 0 51 -21t21 -51q0 -42 -62 -81z" />
    <glyph glyph-name="glyph313" unicode="&#x1ec0;" horiz-adv-x="1147" 
d="M86 1331h938q5 -164 29 -274h-33q-25 123 -81 158q-43 26 -171 26h-440v-498h290q82 0 111 18q34 22 49 97h33q-14 -91 -14 -156q0 -61 14 -157h-33q-15 75 -50 97q-27 17 -110 17h-290v-569h438q182 0 232 43t77 182h33q-31 -139 -31 -315h-991v33q75 15 96 49
q17 28 17 111v946q0 83 -17 110q-21 34 -96 49v33zM549 1757h118l232 -348h-58l-233 209l-233 -209h-58zM845 1790h-67l-330 205q-62 39 -62 81q0 30 21 51t51 21q41 0 98 -59z" />
    <glyph glyph-name="glyph314" unicode="&#x1ec1;" horiz-adv-x="1006" 
d="M932 522h-729v-49q0 -167 115.5 -286t281.5 -119q152 0 291 145l-12 -119q-142 -119 -312 -119q-212 0 -351 150q-136 146 -136 360q0 201 120 346q128 154 326 154q190 0 300 -121q106 -117 106 -309v-33zM813 594v4q0 125 -79 216q-82 95 -206 95q-133 0 -221 -93
q-83 -87 -100 -222h606zM480 1446h118l232 -348h-58l-233 209l-233 -209h-58zM776 1479h-67l-330 205q-62 39 -62 81q0 30 21 51t51 21q41 0 98 -59z" />
    <glyph glyph-name="glyph315" unicode="&#x1ec2;" horiz-adv-x="1147" 
d="M86 1331h938q5 -164 29 -274h-33q-25 123 -81 158q-43 26 -171 26h-440v-498h290q82 0 111 18q34 22 49 97h33q-14 -91 -14 -156q0 -61 14 -157h-33q-15 75 -50 97q-27 17 -110 17h-290v-569h438q182 0 232 43t77 182h33q-31 -139 -31 -315h-991v33q75 15 96 49
q17 28 17 111v946q0 83 -17 110q-21 34 -96 49v33zM549 1757h118l232 -348h-58l-233 209l-233 -209h-58zM812 1702h-40q0 56 -5 115h8q53 0 98 34t45 83q0 48 -28.5 81t-76.5 33q-84 0 -106 -93h-38q7 38 10 96q66 65 148 65q74 0 126 -46q59 -51 59 -140q0 -64 -62 -115
q-26 -20 -81 -40q-18 -6 -42 -22q-13 -18 -15 -51z" />
    <glyph glyph-name="glyph316" unicode="&#x1ec3;" horiz-adv-x="1006" 
d="M932 522h-729v-49q0 -167 115.5 -286t281.5 -119q152 0 291 145l-12 -119q-142 -119 -312 -119q-212 0 -351 150q-136 146 -136 360q0 201 120 346q128 154 326 154q190 0 300 -121q106 -117 106 -309v-33zM813 594v4q0 125 -79 216q-82 95 -206 95q-133 0 -221 -93
q-83 -87 -100 -222h606zM480 1446h118l232 -348h-58l-233 209l-233 -209h-58zM743 1391h-40q0 56 -5 115h8q53 0 98 34t45 83q0 48 -28.5 81t-76.5 33q-84 0 -106 -93h-38q7 38 10 96q66 65 148 65q74 0 126 -46q59 -51 59 -140q0 -64 -62 -115q-26 -20 -81 -40
q-18 -6 -42 -22q-13 -18 -15 -51z" />
    <glyph glyph-name="glyph317" unicode="&#x1ec4;" horiz-adv-x="1147" 
d="M86 1331h938q5 -164 29 -274h-33q-25 123 -81 158q-43 26 -171 26h-440v-498h290q82 0 111 18q34 22 49 97h33q-14 -91 -14 -156q0 -61 14 -157h-33q-15 75 -50 97q-27 17 -110 17h-290v-569h438q182 0 232 43t77 182h33q-31 -139 -31 -315h-991v33q75 15 96 49
q17 28 17 111v946q0 83 -17 110q-21 34 -96 49v33zM549 1757h118l232 -348h-58l-233 209l-233 -209h-58zM919 2056h54q-39 -205 -195 -205q-41 0 -119.5 22.5t-119.5 22.5q-61 0 -89 -90h-51q38 211 197 211q40 0 115 -22.5t114 -22.5q68 0 94 84z" />
    <glyph glyph-name="glyph318" unicode="&#x1ec5;" horiz-adv-x="1006" 
d="M932 522h-729v-49q0 -167 115.5 -286t281.5 -119q152 0 291 145l-12 -119q-142 -119 -312 -119q-212 0 -351 150q-136 146 -136 360q0 201 120 346q128 154 326 154q190 0 300 -121q106 -117 106 -309v-33zM813 594v4q0 125 -79 216q-82 95 -206 95q-133 0 -221 -93
q-83 -87 -100 -222h606zM480 1446h118l232 -348h-58l-233 209l-233 -209h-58zM851 1744h54q-39 -205 -195 -205q-41 0 -119.5 22.5t-119.5 22.5q-61 0 -89 -90h-51q38 211 197 211q40 0 115 -22.5t114 -22.5q68 0 94 84z" />
    <glyph glyph-name="glyph319" unicode="&#x1ec6;" horiz-adv-x="1147" 
d="M86 1331h938q5 -164 29 -274h-33q-25 123 -81 158q-43 26 -171 26h-440v-498h290q82 0 111 18q34 22 49 97h33q-14 -91 -14 -156q0 -61 14 -157h-33q-15 75 -50 97q-27 17 -110 17h-290v-569h438q182 0 232 43t77 182h33q-31 -139 -31 -315h-991v33q75 15 96 49
q17 28 17 111v946q0 83 -17 110q-21 34 -96 49v33zM549 1757h118l232 -348h-58l-233 209l-233 -209h-58zM611 -148q36 0 61 -26t25 -62q0 -35 -25.5 -63t-60.5 -28t-59.5 28t-24.5 63q0 36 24 62t60 26z" />
    <glyph glyph-name="glyph320" unicode="&#x1ec7;" horiz-adv-x="1006" 
d="M932 522h-729v-49q0 -167 115.5 -286t281.5 -119q152 0 291 145l-12 -119q-142 -119 -312 -119q-212 0 -351 150q-136 146 -136 360q0 201 120 346q128 154 326 154q190 0 300 -121q106 -117 106 -309v-33zM813 594v4q0 125 -79 216q-82 95 -206 95q-133 0 -221 -93
q-83 -87 -100 -222h606zM480 1446h118l232 -348h-58l-233 209l-233 -209h-58zM540 -148q36 0 61 -26t25 -62q0 -35 -25.5 -63t-60.5 -28t-59.5 28t-24.5 63q0 36 24 62t60 26z" />
    <glyph glyph-name="glyph321" unicode="&#x1ec8;" horiz-adv-x="526" 
d="M86 1335q84 -14 176 -14q94 0 178 14v-32q-75 -16 -95 -50q-17 -27 -17 -110v-957q0 -83 16 -110q21 -34 96 -49v-33q-80 14 -178 14q-96 0 -176 -14v33q75 15 96 49q17 27 17 110v957q0 83 -17 110q-21 34 -96 50v32zM255 1427h-40q0 56 -5 115h8q53 0 98 34t45 83
q0 48 -28.5 81t-76.5 33q-84 0 -106 -93h-38q7 38 10 96q66 65 148 65q74 0 126 -46q59 -51 59 -140q0 -64 -62 -115q-26 -20 -81 -40q-18 -6 -42 -22q-13 -18 -15 -51z" />
    <glyph glyph-name="glyph322" unicode="&#x1ec9;" horiz-adv-x="473" 
d="M78 -4v33q66 8 88 45q16 28 16 96v618q0 59 -23 77q-18 14 -81 16v30q100 16 223 84q-10 -96 -10 -177v-657q0 -63 19 -91q23 -34 85 -41v-33q-102 14 -157 14q-58 0 -160 -14zM210 1079h-40q0 56 -5 115h8q53 0 98 34t45 83q0 48 -28.5 81t-76.5 33q-84 0 -106 -93h-38
q7 38 10 96q66 65 148 65q74 0 126 -46q59 -51 59 -140q0 -64 -62 -115q-26 -20 -81 -40q-18 -6 -42 -22q-13 -18 -15 -51z" />
    <glyph glyph-name="glyph323" unicode="&#x1eca;" horiz-adv-x="526" 
d="M86 1335q84 -14 176 -14q94 0 178 14v-32q-75 -16 -95 -50q-17 -27 -17 -110v-957q0 -83 16 -110q21 -34 96 -49v-33q-80 14 -178 14q-96 0 -176 -14v33q75 15 96 49q17 27 17 110v957q0 83 -17 110q-21 34 -96 50v32zM271 -148q36 0 61 -26t25 -62q0 -35 -25.5 -63
t-60.5 -28t-59.5 28t-24.5 63q0 36 24 62t60 26z" />
    <glyph glyph-name="glyph324" unicode="&#x1ecb;" horiz-adv-x="473" 
d="M141 1253q0 37 25.5 63.5t62.5 26.5q38 0 63 -26t25 -64q0 -37 -25.5 -63.5t-62.5 -26.5q-36 0 -62 27t-26 63zM78 -4v33q66 8 88 45q16 28 16 96v618q0 59 -20.5 75t-81.5 18v30q93 15 221 84q-10 -96 -10 -177v-657q0 -63 19 -91q23 -34 85 -41v-33q-102 14 -157 14
q-58 0 -160 -14zM237 -148q36 0 61 -26t25 -62q0 -35 -25.5 -63t-60.5 -28t-59.5 28t-24.5 63q0 36 24 62t60 26z" />
    <glyph glyph-name="glyph325" unicode="&#x1ecc;" horiz-adv-x="1460" 
d="M707 1268q-226 0 -362 -156q-130 -148 -130 -377q0 -279 156.5 -471t380.5 -192q226 0 362 157q129 150 129 379q0 275 -158 467.5t-378 192.5zM86 698q0 286 178 471q181 189 465 189q291 0 473 -218q172 -204 172 -501q0 -284 -180 -473t-463 -189q-291 0 -473 219
q-172 205 -172 502zM734 -148q36 0 61 -26t25 -62q0 -35 -25.5 -63t-60.5 -28t-59.5 28t-24.5 63q0 36 24 62t60 26z" />
    <glyph glyph-name="glyph326" unicode="&#x1ecd;" horiz-adv-x="1139" 
d="M563 903q-167 0 -265 -109q-95 -105 -95 -274q0 -179 93 -312q105 -149 277 -149q166 0 266 112q95 107 95 275q0 176 -95 309q-106 148 -276 148zM569 987q214 0 351 -145.5t137 -360.5q0 -216 -135 -360q-138 -146 -353 -146t-353 147q-136 143 -136 359t137 361
t352 145zM570 -148q36 0 61 -26t25 -62q0 -35 -25.5 -63t-60.5 -28t-59.5 28t-24.5 63q0 36 24 62t60 26z" />
    <glyph glyph-name="glyph327" unicode="&#x1ece;" horiz-adv-x="1460" 
d="M707 1268q-226 0 -362 -156q-130 -148 -130 -377q0 -279 156.5 -471t380.5 -192q226 0 362 157q129 150 129 379q0 275 -158 467.5t-378 192.5zM86 698q0 286 178 471q181 189 465 189q291 0 473 -218q172 -204 172 -501q0 -284 -180 -473t-463 -189q-291 0 -473 219
q-172 205 -172 502zM723 1427h-40q0 56 -5 115h8q53 0 98 34t45 83q0 48 -28.5 81t-76.5 33q-84 0 -106 -93h-38q7 38 10 96q66 65 148 65q74 0 126 -46q59 -51 59 -140q0 -64 -62 -115q-26 -20 -81 -40q-18 -6 -42 -22q-13 -18 -15 -51z" />
    <glyph glyph-name="glyph328" unicode="&#x1ecf;" horiz-adv-x="1139" 
d="M563 903q-167 0 -265 -109q-95 -105 -95 -274q0 -179 93 -312q105 -149 277 -149q166 0 266 112q95 107 95 275q0 176 -95 309q-106 148 -276 148zM569 987q214 0 351 -145.5t137 -360.5q0 -216 -135 -360q-138 -146 -353 -146t-353 147q-136 143 -136 359t137 361
t352 145zM560 1079h-40q0 56 -5 115h8q53 0 98 34t45 83q0 48 -28.5 81t-76.5 33q-84 0 -106 -93h-38q7 38 10 96q66 65 148 65q74 0 126 -46q59 -51 59 -140q0 -64 -62 -115q-26 -20 -81 -40q-18 -6 -42 -22q-13 -18 -15 -51z" />
    <glyph glyph-name="glyph329" unicode="&#x1ed0;" horiz-adv-x="1460" 
d="M707 1268q-226 0 -362 -156q-130 -148 -130 -377q0 -279 156.5 -471t380.5 -192q226 0 362 157q129 150 129 379q0 275 -158 467.5t-378 192.5zM86 698q0 286 178 471q181 189 465 189q291 0 473 -218q172 -204 172 -501q0 -284 -180 -473t-463 -189q-291 0 -473 219
q-172 205 -172 502zM669 1757h118l232 -348h-58l-233 209l-233 -209h-58zM560 1791h-67l289 299q57 59 98 59q30 0 51 -21t21 -51q0 -42 -62 -81z" />
    <glyph glyph-name="glyph330" unicode="&#x1ed1;" horiz-adv-x="1139" 
d="M563 903q-167 0 -265 -109q-95 -105 -95 -274q0 -179 93 -312q105 -149 277 -149q166 0 266 112q95 107 95 275q0 176 -95 309q-106 148 -276 148zM569 987q214 0 351 -145.5t137 -360.5q0 -216 -135 -360q-138 -146 -353 -146t-353 147q-136 143 -136 359t137 361
t352 145zM510 1446h118l232 -348h-58l-233 209l-233 -209h-58zM401 1480h-67l289 299q57 59 98 59q30 0 51 -21t21 -51q0 -42 -62 -81z" />
    <glyph glyph-name="glyph331" unicode="&#x1ed2;" horiz-adv-x="1460" 
d="M707 1268q-226 0 -362 -156q-130 -148 -130 -377q0 -279 156.5 -471t380.5 -192q226 0 362 157q129 150 129 379q0 275 -158 467.5t-378 192.5zM86 698q0 286 178 471q181 189 465 189q291 0 473 -218q172 -204 172 -501q0 -284 -180 -473t-463 -189q-291 0 -473 219
q-172 205 -172 502zM669 1757h118l232 -348h-58l-233 209l-233 -209h-58zM965 1790h-67l-330 205q-62 39 -62 81q0 30 21 51t51 21q41 0 98 -59z" />
    <glyph glyph-name="glyph332" unicode="&#x1ed3;" horiz-adv-x="1139" 
d="M563 903q-167 0 -265 -109q-95 -105 -95 -274q0 -179 93 -312q105 -149 277 -149q166 0 266 112q95 107 95 275q0 176 -95 309q-106 148 -276 148zM569 987q214 0 351 -145.5t137 -360.5q0 -216 -135 -360q-138 -146 -353 -146t-353 147q-136 143 -136 359t137 361
t352 145zM510 1446h118l232 -348h-58l-233 209l-233 -209h-58zM806 1479h-67l-330 205q-62 39 -62 81q0 30 21 51t51 21q41 0 98 -59z" />
    <glyph glyph-name="glyph333" unicode="&#x1ed4;" horiz-adv-x="1460" 
d="M707 1268q-226 0 -362 -156q-130 -148 -130 -377q0 -279 156.5 -471t380.5 -192q226 0 362 157q129 150 129 379q0 275 -158 467.5t-378 192.5zM86 698q0 286 178 471q181 189 465 189q291 0 473 -218q172 -204 172 -501q0 -284 -180 -473t-463 -189q-291 0 -473 219
q-172 205 -172 502zM669 1757h118l232 -348h-58l-233 209l-233 -209h-58zM932 1702h-40q0 56 -5 115h8q53 0 98 34t45 83q0 48 -28.5 81t-76.5 33q-84 0 -106 -93h-38q7 38 10 96q66 65 148 65q74 0 126 -46q59 -51 59 -140q0 -64 -62 -115q-26 -20 -81 -40q-18 -6 -42 -22
q-13 -18 -15 -51z" />
    <glyph glyph-name="glyph334" unicode="&#x1ed5;" horiz-adv-x="1139" 
d="M563 903q-167 0 -265 -109q-95 -105 -95 -274q0 -179 93 -312q105 -149 277 -149q166 0 266 112q95 107 95 275q0 176 -95 309q-106 148 -276 148zM569 987q214 0 351 -145.5t137 -360.5q0 -216 -135 -360q-138 -146 -353 -146t-353 147q-136 143 -136 359t137 361
t352 145zM510 1446h118l232 -348h-58l-233 209l-233 -209h-58zM773 1391h-40q0 56 -5 115h8q53 0 98 34t45 83q0 48 -28.5 81t-76.5 33q-84 0 -106 -93h-38q7 38 10 96q66 65 148 65q74 0 126 -46q59 -51 59 -140q0 -64 -62 -115q-26 -20 -81 -40q-18 -6 -42 -22
q-13 -18 -15 -51z" />
    <glyph glyph-name="glyph335" unicode="&#x1ed6;" horiz-adv-x="1460" 
d="M707 1268q-226 0 -362 -156q-130 -148 -130 -377q0 -279 156.5 -471t380.5 -192q226 0 362 157q129 150 129 379q0 275 -158 467.5t-378 192.5zM86 698q0 286 178 471q181 189 465 189q291 0 473 -218q172 -204 172 -501q0 -284 -180 -473t-463 -189q-291 0 -473 219
q-172 205 -172 502zM669 1757h118l232 -348h-58l-233 209l-233 -209h-58zM1039 2056h54q-39 -205 -195 -205q-41 0 -119.5 22.5t-119.5 22.5q-61 0 -89 -90h-51q38 211 197 211q40 0 115 -22.5t114 -22.5q68 0 94 84z" />
    <glyph glyph-name="glyph336" unicode="&#x1ed7;" horiz-adv-x="1139" 
d="M563 903q-167 0 -265 -109q-95 -105 -95 -274q0 -179 93 -312q105 -149 277 -149q166 0 266 112q95 107 95 275q0 176 -95 309q-106 148 -276 148zM569 987q214 0 351 -145.5t137 -360.5q0 -216 -135 -360q-138 -146 -353 -146t-353 147q-136 143 -136 359t137 361
t352 145zM510 1446h118l232 -348h-58l-233 209l-233 -209h-58zM881 1744h54q-39 -205 -195 -205q-41 0 -119.5 22.5t-119.5 22.5q-61 0 -89 -90h-51q38 211 197 211q40 0 115 -22.5t114 -22.5q68 0 94 84z" />
    <glyph glyph-name="glyph337" unicode="&#x1ed8;" horiz-adv-x="1460" 
d="M707 1268q-226 0 -362 -156q-130 -148 -130 -377q0 -279 156.5 -471t380.5 -192q226 0 362 157q129 150 129 379q0 275 -158 467.5t-378 192.5zM86 698q0 286 178 471q181 189 465 189q291 0 473 -218q172 -204 172 -501q0 -284 -180 -473t-463 -189q-291 0 -473 219
q-172 205 -172 502zM669 1757h118l232 -348h-58l-233 209l-233 -209h-58zM734 -148q36 0 61 -26t25 -62q0 -35 -25.5 -63t-60.5 -28t-59.5 28t-24.5 63q0 36 24 62t60 26z" />
    <glyph glyph-name="glyph338" unicode="&#x1ed9;" horiz-adv-x="1139" 
d="M563 903q-167 0 -265 -109q-95 -105 -95 -274q0 -179 93 -312q105 -149 277 -149q166 0 266 112q95 107 95 275q0 176 -95 309q-106 148 -276 148zM569 987q214 0 351 -145.5t137 -360.5q0 -216 -135 -360q-138 -146 -353 -146t-353 147q-136 143 -136 359t137 361
t352 145zM510 1446h118l232 -348h-58l-233 209l-233 -209h-58zM570 -148q36 0 61 -26t25 -62q0 -35 -25.5 -63t-60.5 -28t-59.5 28t-24.5 63q0 36 24 62t60 26z" />
    <glyph glyph-name="glyph339" unicode="&#x1eda;" horiz-adv-x="1460" 
d="M707 1268q-226 0 -362 -156q-130 -148 -130 -377q0 -279 156.5 -471t380.5 -192q226 0 362 157q129 150 129 379q0 275 -158 467.5t-378 192.5zM86 698q0 286 178 471q181 189 465 189q291 0 473 -218q172 -204 172 -501q0 -284 -180 -473t-463 -189q-291 0 -473 219
q-172 205 -172 502zM1218 1413h143q-108 -274 -262 -334l-18 26q118 110 137 308zM622 1469h-67l289 299q57 59 98 59q30 0 51 -21t21 -51q0 -42 -62 -81z" />
    <glyph glyph-name="glyph340" unicode="&#x1edb;" horiz-adv-x="1139" 
d="M563 903q-167 0 -265 -109q-95 -105 -95 -274q0 -179 93 -312q105 -149 277 -149q166 0 266 112q95 107 95 275q0 176 -95 309q-106 148 -276 148zM569 987q214 0 351 -145.5t137 -360.5q0 -216 -135 -360q-138 -146 -353 -146t-353 147q-136 143 -136 359t137 361
t352 145zM948 1056h143q-108 -274 -262 -334l-18 26q118 110 137 308zM460 1098h-67l289 299q57 59 98 59q30 0 51 -21t21 -51q0 -42 -62 -81z" />
    <glyph glyph-name="glyph341" unicode="&#x1edc;" horiz-adv-x="1460" 
d="M707 1268q-226 0 -362 -156q-130 -148 -130 -377q0 -279 156.5 -471t380.5 -192q226 0 362 157q129 150 129 379q0 275 -158 467.5t-378 192.5zM86 698q0 286 178 471q181 189 465 189q291 0 473 -218q172 -204 172 -501q0 -284 -180 -473t-463 -189q-291 0 -473 219
q-172 205 -172 502zM1218 1413h143q-108 -274 -262 -334l-18 26q118 110 137 308zM907 1469h-67l-330 205q-62 39 -62 81q0 30 21 51t51 21q41 0 98 -59z" />
    <glyph glyph-name="glyph342" unicode="&#x1edd;" horiz-adv-x="1139" 
d="M563 903q-167 0 -265 -109q-95 -105 -95 -274q0 -179 93 -312q105 -149 277 -149q166 0 266 112q95 107 95 275q0 176 -95 309q-106 148 -276 148zM569 987q214 0 351 -145.5t137 -360.5q0 -216 -135 -360q-138 -146 -353 -146t-353 147q-136 143 -136 359t137 361
t352 145zM948 1056h143q-108 -274 -262 -334l-18 26q118 110 137 308zM745 1098h-67l-330 205q-62 39 -62 81q0 30 21 51t51 21q41 0 98 -59z" />
    <glyph glyph-name="glyph343" unicode="&#x1ede;" horiz-adv-x="1460" 
d="M707 1268q-226 0 -362 -156q-130 -148 -130 -377q0 -279 156.5 -471t380.5 -192q226 0 362 157q129 150 129 379q0 275 -158 467.5t-378 192.5zM86 698q0 286 178 471q181 189 465 189q291 0 473 -218q172 -204 172 -501q0 -284 -180 -473t-463 -189q-291 0 -473 219
q-172 205 -172 502zM1218 1413h143q-108 -274 -262 -334l-18 26q118 110 137 308zM723 1427h-40q0 56 -5 115h8q53 0 98 34t45 83q0 48 -28.5 81t-76.5 33q-84 0 -106 -93h-38q7 38 10 96q66 65 148 65q74 0 126 -46q59 -51 59 -140q0 -64 -62 -115q-26 -20 -81 -40
q-18 -6 -42 -22q-13 -18 -15 -51z" />
    <glyph glyph-name="glyph344" unicode="&#x1edf;" horiz-adv-x="1139" 
d="M563 903q-167 0 -265 -109q-95 -105 -95 -274q0 -179 93 -312q105 -149 277 -149q166 0 266 112q95 107 95 275q0 176 -95 309q-106 148 -276 148zM569 987q214 0 351 -145.5t137 -360.5q0 -216 -135 -360q-138 -146 -353 -146t-353 147q-136 143 -136 359t137 361
t352 145zM948 1056h143q-108 -274 -262 -334l-18 26q118 110 137 308zM560 1079h-40q0 56 -5 115h8q53 0 98 34t45 83q0 48 -28.5 81t-76.5 33q-84 0 -106 -93h-38q7 38 10 96q66 65 148 65q74 0 126 -46q59 -51 59 -140q0 -64 -62 -115q-26 -20 -81 -40q-18 -6 -42 -22
q-13 -18 -15 -51z" />
    <glyph glyph-name="glyph345" unicode="&#x1ee0;" horiz-adv-x="1460" 
d="M707 1268q-226 0 -362 -156q-130 -148 -130 -377q0 -279 156.5 -471t380.5 -192q226 0 362 157q129 150 129 379q0 275 -158 467.5t-378 192.5zM86 698q0 286 178 471q181 189 465 189q291 0 473 -218q172 -204 172 -501q0 -284 -180 -473t-463 -189q-291 0 -473 219
q-172 205 -172 502zM1218 1413h143q-108 -274 -262 -334l-18 26q118 110 137 308zM964 1766h54q-39 -205 -195 -205q-41 0 -119.5 22.5t-119.5 22.5q-61 0 -89 -90h-51q38 211 197 211q40 0 115 -22.5t114 -22.5q68 0 94 84z" />
    <glyph glyph-name="glyph346" unicode="&#x1ee1;" horiz-adv-x="1139" 
d="M563 903q-167 0 -265 -109q-95 -105 -95 -274q0 -179 93 -312q105 -149 277 -149q166 0 266 112q95 107 95 275q0 176 -95 309q-106 148 -276 148zM569 987q214 0 351 -145.5t137 -360.5q0 -216 -135 -360q-138 -146 -353 -146t-353 147q-136 143 -136 359t137 361
t352 145zM948 1056h143q-108 -274 -262 -334l-18 26q118 110 137 308zM802 1395h54q-39 -205 -195 -205q-41 0 -119.5 22.5t-119.5 22.5q-61 0 -89 -90h-51q38 211 197 211q40 0 115 -22.5t114 -22.5q68 0 94 84z" />
    <glyph glyph-name="glyph347" unicode="&#x1ee2;" horiz-adv-x="1460" 
d="M707 1268q-226 0 -362 -156q-130 -148 -130 -377q0 -279 156.5 -471t380.5 -192q226 0 362 157q129 150 129 379q0 275 -158 467.5t-378 192.5zM86 698q0 286 178 471q181 189 465 189q291 0 473 -218q172 -204 172 -501q0 -284 -180 -473t-463 -189q-291 0 -473 219
q-172 205 -172 502zM1218 1413h143q-108 -274 -262 -334l-18 26q118 110 137 308zM734 -148q36 0 61 -26t25 -62q0 -35 -25.5 -63t-60.5 -28t-59.5 28t-24.5 63q0 36 24 62t60 26z" />
    <glyph glyph-name="glyph348" unicode="&#x1ee3;" horiz-adv-x="1139" 
d="M563 903q-167 0 -265 -109q-95 -105 -95 -274q0 -179 93 -312q105 -149 277 -149q166 0 266 112q95 107 95 275q0 176 -95 309q-106 148 -276 148zM569 987q214 0 351 -145.5t137 -360.5q0 -216 -135 -360q-138 -146 -353 -146t-353 147q-136 143 -136 359t137 361
t352 145zM948 1056h143q-108 -274 -262 -334l-18 26q118 110 137 308zM570 -148q36 0 61 -26t25 -62q0 -35 -25.5 -63t-60.5 -28t-59.5 28t-24.5 63q0 36 24 62t60 26z" />
    <glyph glyph-name="glyph349" unicode="&#x1ee4;" horiz-adv-x="1290" 
d="M60 1335q84 -14 178 -14q93 0 177 14l1 -32q-76 -16 -97 -50q-18 -28 -18 -110v-621q0 -218 62 -322q80 -134 282 -134t281 135q61 103 61 321v623q0 83 -17 110q-21 34 -96 48v32q108 -14 179 -14q66 0 176 14v-32q-75 -14 -96 -48q-17 -27 -17 -110v-629
q0 -266 -101 -395q-113 -146 -370 -146t-370 146q-101 129 -101 395v627q0 83 -18 111q-21 33 -97 49zM649 -148q36 0 61 -26t25 -62q0 -35 -25.5 -63t-60.5 -28t-59.5 28t-24.5 63q0 36 24 62t60 26z" />
    <glyph glyph-name="glyph350" unicode="&#x1ee5;" horiz-adv-x="1067" 
d="M764 -4q11 50 14 182q-106 -192 -315 -192q-313 0 -313 366v436q0 58 -23 76q-18 15 -80 17v28q85 13 219 86q-8 -38 -8 -116v-517q0 -290 227 -290q289 0 289 374v342q0 58 -21 76q-18 15 -79 17v28q86 14 219 86q-12 -68 -12 -179v-646q0 -68 16 -96q22 -37 88 -45v-33
q-54 14 -131 14q-52 0 -90 -14zM513 -148q36 0 61 -26t25 -62q0 -35 -25.5 -63t-60.5 -28t-59.5 28t-24.5 63q0 36 24 62t60 26z" />
    <glyph glyph-name="glyph351" unicode="&#x1ee6;" horiz-adv-x="1290" 
d="M60 1335q84 -14 178 -14q93 0 177 14l1 -32q-76 -16 -97 -50q-18 -28 -18 -110v-621q0 -218 62 -322q80 -134 282 -134t281 135q61 103 61 321v623q0 83 -17 110q-21 34 -96 48v32q108 -14 179 -14q66 0 176 14v-32q-75 -14 -96 -48q-17 -27 -17 -110v-629
q0 -266 -101 -395q-113 -146 -370 -146t-370 146q-101 129 -101 395v627q0 83 -18 111q-21 33 -97 49zM643 1427h-40q0 56 -5 115h8q53 0 98 34t45 83q0 48 -28.5 81t-76.5 33q-84 0 -106 -93h-38q7 38 10 96q66 65 148 65q74 0 126 -46q59 -51 59 -140q0 -64 -62 -115
q-26 -20 -81 -40q-18 -6 -42 -22q-13 -18 -15 -51z" />
    <glyph glyph-name="glyph352" unicode="&#x1ee7;" horiz-adv-x="1067" 
d="M764 -4q11 50 14 182q-106 -192 -315 -192q-313 0 -313 366v436q0 58 -23 76q-18 15 -80 17v28q85 13 219 86q-8 -38 -8 -116v-517q0 -290 227 -290q289 0 289 374v342q0 58 -21 76q-18 15 -79 17v28q86 14 219 86q-12 -68 -12 -179v-646q0 -68 16 -96q22 -37 88 -45v-33
q-54 14 -131 14q-52 0 -90 -14zM500 1079h-40q0 56 -5 115h8q53 0 98 34t45 83q0 48 -28.5 81t-76.5 33q-84 0 -106 -93h-38q7 38 10 96q66 65 148 65q74 0 126 -46q59 -51 59 -140q0 -64 -62 -115q-26 -20 -81 -40q-18 -6 -42 -22q-13 -18 -15 -51z" />
    <glyph glyph-name="glyph353" unicode="&#x1ee8;" horiz-adv-x="1332" 
d="M60 1335q84 -14 178 -14q93 0 177 14l1 -32q-76 -16 -97 -50q-18 -28 -18 -110v-621q0 -218 62 -322q80 -134 282 -134t281 135q61 103 61 321v623q0 83 -17 110q-21 34 -96 48v32q108 -14 179 -14q66 0 176 14v-32q-75 -14 -96 -48q-17 -27 -17 -110v-629
q0 -266 -101 -395q-113 -146 -370 -146t-370 146q-101 129 -101 395v627q0 83 -18 111q-21 33 -97 49zM1232 1413h143q-108 -274 -262 -334l-18 26q118 110 137 308zM536 1469h-67l289 299q57 59 98 59q30 0 51 -21t21 -51q0 -42 -62 -81z" />
    <glyph glyph-name="glyph354" unicode="&#x1ee9;" horiz-adv-x="1085" 
d="M764 -4q11 50 14 182q-106 -192 -315 -192q-313 0 -313 366v436q0 58 -23 76q-18 15 -80 17v28q85 13 219 86q-8 -38 -8 -116v-517q0 -290 227 -290q289 0 289 374v342q0 58 -21 76q-18 15 -79 17v28q86 14 219 86q-12 -68 -12 -179v-646q0 -68 16 -96q22 -37 88 -45v-33
q-54 14 -131 14q-52 0 -90 -14zM948 1056h143q-108 -274 -262 -334l-18 26q118 110 137 308zM411 1098h-67l289 299q57 59 98 59q30 0 51 -21t21 -51q0 -42 -62 -81z" />
    <glyph glyph-name="glyph355" unicode="&#x1eea;" horiz-adv-x="1332" 
d="M60 1335q84 -14 178 -14q93 0 177 14l1 -32q-76 -16 -97 -50q-18 -28 -18 -110v-621q0 -218 62 -322q80 -134 282 -134t281 135q61 103 61 321v623q0 83 -17 110q-21 34 -96 48v32q108 -14 179 -14q66 0 176 14v-32q-75 -14 -96 -48q-17 -27 -17 -110v-629
q0 -266 -101 -395q-113 -146 -370 -146t-370 146q-101 129 -101 395v627q0 83 -18 111q-21 33 -97 49zM1232 1413h143q-108 -274 -262 -334l-18 26q118 110 137 308zM821 1469h-67l-330 205q-62 39 -62 81q0 30 21 51t51 21q41 0 98 -59z" />
    <glyph glyph-name="glyph356" unicode="&#x1eeb;" horiz-adv-x="1085" 
d="M764 -4q11 50 14 182q-106 -192 -315 -192q-313 0 -313 366v436q0 58 -23 76q-18 15 -80 17v28q85 13 219 86q-8 -38 -8 -116v-517q0 -290 227 -290q289 0 289 374v342q0 58 -21 76q-18 15 -79 17v28q86 14 219 86q-12 -68 -12 -179v-646q0 -68 16 -96q22 -37 88 -45v-33
q-54 14 -131 14q-52 0 -90 -14zM948 1056h143q-108 -274 -262 -334l-18 26q118 110 137 308zM696 1098h-67l-330 205q-62 39 -62 81q0 30 21 51t51 21q41 0 98 -59z" />
    <glyph glyph-name="glyph357" unicode="&#x1eec;" horiz-adv-x="1332" 
d="M60 1335q84 -14 178 -14q93 0 177 14l1 -32q-76 -16 -97 -50q-18 -28 -18 -110v-621q0 -218 62 -322q80 -134 282 -134t281 135q61 103 61 321v623q0 83 -17 110q-21 34 -96 48v32q108 -14 179 -14q66 0 176 14v-32q-75 -14 -96 -48q-17 -27 -17 -110v-629
q0 -266 -101 -395q-113 -146 -370 -146t-370 146q-101 129 -101 395v627q0 83 -18 111q-21 33 -97 49zM1232 1413h143q-108 -274 -262 -334l-18 26q118 110 137 308zM643 1427h-40q0 56 -5 115h8q53 0 98 34t45 83q0 48 -28.5 81t-76.5 33q-84 0 -106 -93h-38q7 38 10 96
q66 65 148 65q74 0 126 -46q59 -51 59 -140q0 -64 -62 -115q-26 -20 -81 -40q-18 -6 -42 -22q-13 -18 -15 -51z" />
    <glyph glyph-name="glyph358" unicode="&#x1eed;" horiz-adv-x="1085" 
d="M764 -4q11 50 14 182q-106 -192 -315 -192q-313 0 -313 366v436q0 58 -23 76q-18 15 -80 17v28q85 13 219 86q-8 -38 -8 -116v-517q0 -290 227 -290q289 0 289 374v342q0 58 -21 76q-18 15 -79 17v28q86 14 219 86q-12 -68 -12 -179v-646q0 -68 16 -96q22 -37 88 -45v-33
q-54 14 -131 14q-52 0 -90 -14zM948 1056h143q-108 -274 -262 -334l-18 26q118 110 137 308zM500 1079h-40q0 56 -5 115h8q53 0 98 34t45 83q0 48 -28.5 81t-76.5 33q-84 0 -106 -93h-38q7 38 10 96q66 65 148 65q74 0 126 -46q59 -51 59 -140q0 -64 -62 -115
q-26 -20 -81 -40q-18 -6 -42 -22q-13 -18 -15 -51z" />
    <glyph glyph-name="glyph359" unicode="&#x1eee;" horiz-adv-x="1332" 
d="M60 1335q84 -14 178 -14q93 0 177 14l1 -32q-76 -16 -97 -50q-18 -28 -18 -110v-621q0 -218 62 -322q80 -134 282 -134t281 135q61 103 61 321v623q0 83 -17 110q-21 34 -96 48v32q108 -14 179 -14q66 0 176 14v-32q-75 -14 -96 -48q-17 -27 -17 -110v-629
q0 -266 -101 -395q-113 -146 -370 -146t-370 146q-101 129 -101 395v627q0 83 -18 111q-21 33 -97 49zM1232 1413h143q-108 -274 -262 -334l-18 26q118 110 137 308zM904 1766h54q-39 -205 -195 -205q-41 0 -119.5 22.5t-119.5 22.5q-61 0 -89 -90h-51q38 211 197 211
q40 0 115 -22.5t114 -22.5q68 0 94 84z" />
    <glyph glyph-name="glyph360" unicode="&#x1eef;" horiz-adv-x="1085" 
d="M764 -4q11 50 14 182q-106 -192 -315 -192q-313 0 -313 366v436q0 58 -23 76q-18 15 -80 17v28q85 13 219 86q-8 -38 -8 -116v-517q0 -290 227 -290q289 0 289 374v342q0 58 -21 76q-18 15 -79 17v28q86 14 219 86q-12 -68 -12 -179v-646q0 -68 16 -96q22 -37 88 -45v-33
q-54 14 -131 14q-52 0 -90 -14zM948 1056h143q-108 -274 -262 -334l-18 26q118 110 137 308zM752 1395h54q-39 -205 -195 -205q-41 0 -119.5 22.5t-119.5 22.5q-61 0 -89 -90h-51q38 211 197 211q40 0 115 -22.5t114 -22.5q68 0 94 84z" />
    <glyph glyph-name="glyph361" unicode="&#x1ef0;" horiz-adv-x="1332" 
d="M60 1335q84 -14 178 -14q93 0 177 14l1 -32q-76 -16 -97 -50q-18 -28 -18 -110v-621q0 -218 62 -322q80 -134 282 -134t281 135q61 103 61 321v623q0 83 -17 110q-21 34 -96 48v32q108 -14 179 -14q66 0 176 14v-32q-75 -14 -96 -48q-17 -27 -17 -110v-629
q0 -266 -101 -395q-113 -146 -370 -146t-370 146q-101 129 -101 395v627q0 83 -18 111q-21 33 -97 49zM1232 1413h143q-108 -274 -262 -334l-18 26q118 110 137 308zM649 -148q36 0 61 -26t25 -62q0 -35 -25.5 -63t-60.5 -28t-59.5 28t-24.5 63q0 36 24 62t60 26z" />
    <glyph glyph-name="glyph362" unicode="&#x1ef1;" horiz-adv-x="1085" 
d="M764 -4q11 50 14 182q-106 -192 -315 -192q-313 0 -313 366v436q0 58 -23 76q-18 15 -80 17v28q85 13 219 86q-8 -38 -8 -116v-517q0 -290 227 -290q289 0 289 374v342q0 58 -21 76q-18 15 -79 17v28q86 14 219 86q-12 -68 -12 -179v-646q0 -68 16 -96q22 -37 88 -45v-33
q-54 14 -131 14q-52 0 -90 -14zM948 1056h143q-108 -274 -262 -334l-18 26q118 110 137 308zM513 -148q36 0 61 -26t25 -62q0 -35 -25.5 -63t-60.5 -28t-59.5 28t-24.5 63q0 36 24 62t60 26z" />
    <glyph glyph-name="glyph363" unicode="&#x1ef2;" horiz-adv-x="977" 
d="M306 -6l-1 33q75 15 97 49q18 28 18 110v371l-344 621q-65 118 -158 127v32q74 -14 186 -14q105 0 189 14v-32q-98 -13 -98 -64q0 -31 32 -88l283 -502l254 475q37 69 37 111q0 55 -103 68l1 32q68 -14 175 -14q98 0 176 14l1 -32q-84 -11 -170 -164l-334 -594v-361
q0 -82 18 -110q21 -35 97 -49l-1 -33q-80 14 -178 14q-97 0 -177 -14zM671 1469h-67l-330 205q-62 39 -62 81q0 30 21 51t51 21q41 0 98 -59z" />
    <glyph glyph-name="glyph364" unicode="&#x1ef3;" horiz-adv-x="915" 
d="M401 -14l-264 770q-28 81 -44 108q-32 56 -87 70v33q62 -15 154 -15q97 0 157 15v-33q-96 -12 -96 -66q0 -21 13 -60l223 -675l239 676q13 37 13 63q0 50 -96 62l-1 32q72 -14 146 -14q89 0 145 15v-33q-73 -19 -131 -178l-305 -834q-73 -199 -122.5 -253t-127.5 -54
q-56 0 -115 39q-2 91 -14 165l35 1q21 -86 92 -86q101 0 137 106zM646 1098h-67l-330 205q-62 39 -62 81q0 30 21 51t51 21q41 0 98 -59z" />
    <glyph glyph-name="glyph365" unicode="&#x1ef4;" horiz-adv-x="977" 
d="M306 -6l-1 33q75 15 97 49q18 28 18 110v371l-344 621q-65 118 -158 127v32q74 -14 186 -14q105 0 189 14v-32q-98 -13 -98 -64q0 -31 32 -88l283 -502l254 475q37 69 37 111q0 55 -103 68l1 32q68 -14 175 -14q98 0 176 14l1 -32q-84 -11 -170 -164l-334 -594v-361
q0 -82 18 -110q21 -35 97 -49l-1 -33q-80 14 -178 14q-97 0 -177 -14zM483 -148q36 0 61 -26t25 -62q0 -35 -25.5 -63t-60.5 -28t-59.5 28t-24.5 63q0 36 24 62t60 26z" />
    <glyph glyph-name="glyph366" unicode="&#x1ef5;" horiz-adv-x="915" 
d="M401 -14l-264 770q-28 81 -44 108q-32 56 -87 70v33q62 -15 154 -15q97 0 157 15v-33q-96 -12 -96 -66q0 -21 13 -60l223 -675l239 676q13 37 13 63q0 50 -96 62l-1 32q72 -14 146 -14q89 0 145 15v-33q-73 -19 -131 -178l-305 -834q-73 -199 -122.5 -253t-127.5 -54
q-56 0 -115 39q-2 91 -14 165l35 1q21 -86 92 -86q101 0 137 106zM609 -148q36 0 61 -26t25 -62q0 -35 -25.5 -63t-60.5 -28t-59.5 28t-24.5 63q0 36 24 62t60 26z" />
    <glyph glyph-name="glyph367" unicode="&#x1ef6;" horiz-adv-x="977" 
d="M306 -6l-1 33q75 15 97 49q18 28 18 110v371l-344 621q-65 118 -158 127v32q74 -14 186 -14q105 0 189 14v-32q-98 -13 -98 -64q0 -31 32 -88l283 -502l254 475q37 69 37 111q0 55 -103 68l1 32q68 -14 175 -14q98 0 176 14l1 -32q-84 -11 -170 -164l-334 -594v-361
q0 -82 18 -110q21 -35 97 -49l-1 -33q-80 14 -178 14q-97 0 -177 -14zM486 1427h-40q0 56 -5 115h8q53 0 98 34t45 83q0 48 -28.5 81t-76.5 33q-84 0 -106 -93h-38q7 38 10 96q66 65 148 65q74 0 126 -46q59 -51 59 -140q0 -64 -62 -115q-26 -20 -81 -40q-18 -6 -42 -22
q-13 -18 -15 -51z" />
    <glyph glyph-name="glyph368" unicode="&#x1ef7;" horiz-adv-x="915" 
d="M401 -14l-264 770q-28 81 -44 108q-32 56 -87 70v33q62 -15 154 -15q97 0 157 15v-33q-96 -12 -96 -66q0 -21 13 -60l223 -675l239 676q13 37 13 63q0 50 -96 62l-1 32q72 -14 146 -14q89 0 145 15v-33q-73 -19 -131 -178l-305 -834q-73 -199 -122.5 -253t-127.5 -54
q-56 0 -115 39q-2 91 -14 165l35 1q21 -86 92 -86q101 0 137 106zM460 1079h-40q0 56 -5 115h8q53 0 98 34t45 83q0 48 -28.5 81t-76.5 33q-84 0 -106 -93h-38q7 38 10 96q66 65 148 65q74 0 126 -46q59 -51 59 -140q0 -64 -62 -115q-26 -20 -81 -40q-18 -6 -42 -22
q-13 -18 -15 -51z" />
    <glyph glyph-name="glyph369" unicode="&#x1ef8;" horiz-adv-x="977" 
d="M306 -6l-1 33q75 15 97 49q18 28 18 110v371l-344 621q-65 118 -158 127v32q74 -14 186 -14q105 0 189 14v-32q-98 -13 -98 -64q0 -31 32 -88l283 -502l254 475q37 69 37 111q0 55 -103 68l1 32q68 -14 175 -14q98 0 176 14l1 -32q-84 -11 -170 -164l-334 -594v-361
q0 -82 18 -110q21 -35 97 -49l-1 -33q-80 14 -178 14q-97 0 -177 -14zM744 1766h54q-39 -205 -195 -205q-41 0 -119.5 22.5t-119.5 22.5q-61 0 -89 -90h-51q38 211 197 211q40 0 115 -22.5t114 -22.5q68 0 94 84z" />
    <glyph glyph-name="glyph370" unicode="&#x1ef9;" horiz-adv-x="915" 
d="M401 -14l-264 770q-28 81 -44 108q-32 56 -87 70v33q62 -15 154 -15q97 0 157 15v-33q-96 -12 -96 -66q0 -21 13 -60l223 -675l239 676q13 37 13 63q0 50 -96 62l-1 32q72 -14 146 -14q89 0 145 15v-33q-73 -19 -131 -178l-305 -834q-73 -199 -122.5 -253t-127.5 -54
q-56 0 -115 39q-2 91 -14 165l35 1q21 -86 92 -86q101 0 137 106zM712 1395h54q-39 -205 -195 -205q-41 0 -119.5 22.5t-119.5 22.5q-61 0 -89 -90h-51q38 211 197 211q40 0 115 -22.5t114 -22.5q68 0 94 84z" />
    </font>
</defs>
</svg>
