<svg xmlns="http://www.w3.org/2000/svg">
<defs>
<font id="UTMA&SGraceland" horiz-adv-x="1710" >
  <font-face 
    font-family="UTM A&S Graceland"
    font-weight="400"
    font-stretch="normal"
    units-per-em="2048"
    panose-1="2 4 6 3 5 5 6 2 2 4"
    ascent="1638"
    descent="-410"
    x-height="696"
    cap-height="1451"
    bbox="-350.284 -758.393 4942 2664.65"
    underline-thickness="109"
    underline-position="-143"
    unicode-range="U+0020-U+2026"
  />
<missing-glyph horiz-adv-x="5040" 
d="M3351 2045h10q37 -10 37 -52q0 -12 -32 -57h-28q0 24 28 54l2 10q-5 13 -10 15h-9q-8 0 -10 -19h-30q6 49 42 49zM2019 2016l29 -31q0 -16 -40 -30h-19l-59 12l-11 -12l-28 25q11 29 43 29h11l42 -11h2q10 0 30 18zM468 1980h142v-60h-94v-75h89v-59h-89v-129l-5 -5h-49
v323zM1155 1980h43l6 -5v-78h30v-52h-30v-188l-6 -5h-49v193h-25v52h25v78zM1621 1980h42l4 -5v-94h3q23 24 54 24h2q58 0 83 -71l2 -39v-143h-52v115q0 80 -42 80h-7q-43 0 -43 -86v-109h-51v323zM2200 1980h49l5 -5v-222q10 -51 45 -51q44 7 44 59v214l5 5h49v-216
q0 -85 -66 -112q-15 -8 -35 -8q-47 0 -82 55q-14 24 -14 57v224zM2435 1980h159v-60h-56v-268h-53v268h-55v55zM2621 1980h71q7 -4 83 -251h2l80 251h73v-328h-54v242h-2l-74 -242h-44q-4 0 -58 182l-19 60h-3v-242h-55v328zM3760 1980h52v-328h-45l-5 5v11l3 2l-3 14
q-29 -40 -78 -40q-67 0 -100 91l-5 39v3q0 94 92 125l23 3q35 0 63 -32h3v107zM2057 1928h36l4 -6v-49h-45v-221h-48v23q-23 -31 -59 -31q-89 14 -89 97v156h51v-104q0 -79 26 -86l18 -5h6q26 0 39 36l3 26v133h53v25zM3476 1928v-55h-31v-221h-47v25h-2q-15 -33 -57 -33
q-68 0 -86 78l-3 29v146h52v-120q0 -50 19 -68l21 -7h9q42 0 42 69v126h27q4 0 4 28l3 3h49zM758 1905q68 0 103 -77q9 -18 12 -54q0 -88 -90 -127l-32 -3q-63 0 -101 73q-12 22 -12 52v10q0 94 101 126h19zM1011 1905h3q74 0 83 -101v-152h-51v119q0 76 -42 76h-5
q-44 0 -44 -76v-119h-52v245h46v-21q30 29 62 29zM1466 1905h7q72 0 105 -89h-60q-16 31 -42 31h-17q-53 -14 -53 -61l-3 -15q12 -69 61 -69h9q22 0 47 27h40l2 3h3l2 -3l2 3l3 -3l2 3l2 -7q-33 -81 -110 -81q-76 0 -110 94l-4 36v3q0 85 77 120q15 8 37 8zM3141 1905h2

<glyph glyph-name=".notdef" horiz-adv-x="5040" 
d="M3351 2045h10q37 -10 37 -52q0 -12 -32 -57h-28q0 24 28 54l2 10q-5 13 -10 15h-9q-8 0 -10 -19h-30q6 49 42 49zM2019 2016l29 -31q0 -16 -40 -30h-19l-59 12l-11 -12l-28 25q11 29 43 29h11l42 -11h2q10 0 30 18zM468 1980h142v-60h-94v-75h89v-59h-89v-129l-5 -5h-49
v323zM1155 1980h43l6 -5v-78h30v-52h-30v-188l-6 -5h-49v193h-25v52h25v78zM1621 1980h42l4 -5v-94h3q23 24 54 24h2q58 0 83 -71l2 -39v-143h-52v115q0 80 -42 80h-7q-43 0 -43 -86v-109h-51v323zM2200 1980h49l5 -5v-222q10 -51 45 -51q44 7 44 59v214l5 5h49v-216
q0 -85 -66 -112q-15 -8 -35 -8q-47 0 -82 55q-14 24 -14 57v224zM2435 1980h159v-60h-56v-268h-53v268h-55v55zM2621 1980h71q7 -4 83 -251h2l80 251h73v-328h-54v242h-2l-74 -242h-44q-4 0 -58 182l-19 60h-3v-242h-55v328zM3760 1980h52v-328h-45l-5 5v11l3 2l-3 14
q-29 -40 -78 -40q-67 0 -100 91l-5 39v3q0 94 92 125l23 3q35 0 63 -32h3v107zM2057 1928h36l4 -6v-49h-45v-221h-48v23q-23 -31 -59 -31q-89 14 -89 97v156h51v-104q0 -79 26 -86l18 -5h6q26 0 39 36l3 26v133h53v25zM3476 1928v-55h-31v-221h-47v25h-2q-15 -33 -57 -33
q-68 0 -86 78l-3 29v146h52v-120q0 -50 19 -68l21 -7h9q42 0 42 69v126h27q4 0 4 28l3 3h49zM758 1905q68 0 103 -77q9 -18 12 -54q0 -88 -90 -127l-32 -3q-63 0 -101 73q-12 22 -12 52v10q0 94 101 126h19zM1011 1905h3q74 0 83 -101v-152h-51v119q0 76 -42 76h-5
q-44 0 -44 -76v-119h-52v245h46v-21q30 29 62 29zM1466 1905h7q72 0 105 -89h-60q-16 31 -42 31h-17q-53 -14 -53 -61l-3 -15q12 -69 61 -69h9q22 0 47 27h40l2 3h3l2 -3l2 3l3 -3l2 3l2 -7q-33 -81 -110 -81q-76 0 -110 94l-4 36v3q0 85 77 120q15 8 37 8zM3141 1905h2
q49 0 70 -60v-14h-52q0 16 -16 16h-4q-14 0 -19 -13v-13q0 -9 68 -35q30 -19 30 -59q0 -58 -61 -80l-23 -3q-76 12 -76 83h54q0 -20 27 -25h4q19 0 24 23q0 22 -68 44q-34 27 -34 59q0 66 74 77zM4203 1905q55 0 77 -63q7 -18 7 -65v-125h-52v112q0 83 -40 83h-11
q-33 0 -40 -54v-141h-52v5h-2l2 2v238h47v-21q25 29 64 29zM4432 1905h5q40 0 69 -40v18l-3 3l3 11h47v-208q0 -97 -85 -132l-33 -4h-7q-70 0 -104 80h59q24 -22 45 -23h13q22 0 43 22q15 13 22 52h-3q-32 -40 -73 -40q-57 0 -96 70q-10 18 -14 63q0 88 87 125zM3851 1897
h53v-136q6 -59 40 -59h7q46 0 46 93v102h51v-245h-47l-3 10h3l-3 3v5l3 2v3h-4q0 -23 -57 -31h-3q-59 0 -84 75l-2 85v93zM690 1771q10 -69 63 -69h7q59 14 59 65v15q-13 65 -59 65h-5q-58 0 -65 -76zM3630 1774q13 -72 61 -72h5q58 0 66 75q0 49 -51 70h-22q-37 0 -56 -57z
M4374 1774q8 -72 65 -72h5q59 12 59 72q0 61 -59 73h-14q-56 -16 -56 -62v-11zM3928 1620h52v-57h-52v57zM1054 1402q43 -11 43 -49v-4q0 -17 -32 -60h-28q0 25 31 57v7q0 12 -7 15h-12q-10 -4 -10 -19h-28v6q0 32 33 44zM3349 1339q92 0 138 -99h-60q-37 42 -80 42
q-55 0 -87 -68q-10 -22 -10 -47q0 -78 81 -110l18 -1q36 0 75 39h61q-44 -97 -138 -97q-93 0 -141 112q-10 31 -10 62q0 97 90 152q29 15 63 15zM3664 1339q57 0 103 -47q46 -51 46 -115v-20q0 -89 -91 -146q-33 -13 -63 -13q-89 0 -138 101q-13 33 -13 60v18q0 98 98 151
q29 11 58 11zM2261 1337h2l47 -11h3q11 0 26 11l18 -36q-18 -19 -35 -19h-3l-54 10l-20 -7l-20 36q18 16 36 16zM716 1334h19q118 0 129 -26q25 -26 25 -62q-10 -57 -30 -57v-6q47 -23 47 -66v-18q0 -63 -69 -88l-54 -5h-67v328zM2550 1334h53v-217q6 -61 45 -61q29 0 44 39
l3 30v203l4 6h45l5 -6v-171q0 -118 -40 -133q-24 -26 -64 -26q-55 0 -91 76l-4 54v206zM2805 1334h59q4 0 122 -237h4v237h50l4 -6v-322h-58q-29 48 -125 238h-3v-238h-53v328zM3101 1334h54v-328h-54v328zM3859 1334h8q155 0 174 -40q23 -11 47 -75l4 -36v-11l3 -2
q0 -94 -82 -149q-35 -15 -99 -15h-55v328zM4141 1334h153v-60h-103v-75h101v-57h-101v-74l4 -5h99v-57h-157v322zM3563 1175v-10q0 -76 79 -108l19 -1q68 0 96 86l3 20v15q0 61 -60 94q-12 8 -39 11q-66 0 -96 -83zM770 1274v-67h9q54 0 54 28l3 14q-11 25 -29 25h-37z
M3912 1274v-206l2 -3v-2q104 0 122 76l2 15v29q0 34 -32 68q-25 23 -78 23h-16zM1041 1259h5q38 0 71 -40v32h49v-245h-49v32q-36 -40 -80 -40q-75 0 -101 97l-5 36q0 89 85 125zM1314 1259h3q74 0 83 -102v-151h-51v128q0 67 -42 67h-10q-34 0 -39 -62v-133h-52v245h47v-21
q28 29 61 29zM1543 1259h5q45 0 71 -40v32h47v-219q0 -95 -104 -126h-16q-74 0 -108 82h59q26 -25 44 -25h14q52 0 64 77q-33 -42 -76 -42q-60 0 -101 81l-7 44v16q0 79 85 117zM1912 1259h2q43 0 61 -37h2q32 37 69 37h4q57 0 79 -55q8 -25 8 -45v-153h-52v138q0 44 -23 55
l-12 2h-15q-32 0 -36 -65v-130h-52v136q0 59 -43 59h-8q-32 0 -36 -57v-138h-54v245h50v-21h2q6 24 54 29zM2282 1259q47 0 75 -42v34h47v-245h-47v32q-36 -40 -78 -40q-74 0 -102 92l-6 41q0 90 85 125zM985 1117q0 -48 61 -61h4q45 0 62 46l3 15v22q-12 62 -57 62h-14
q-41 0 -59 -57v-27zM1487 1128q0 -48 43 -68l18 -4h5q47 0 63 57v23q-11 65 -58 65h-12q-50 0 -59 -73zM2225 1131v-14q15 -61 57 -61h14q58 12 58 64v11q0 45 -37 65l-18 5h-10q-64 -8 -64 -70zM770 1150v-82q0 -5 7 -5q77 0 77 45q0 34 -47 42h-37zM2966 753l24 -28
l-51 -55q-18 12 -27 26zM1524 727l85 -54q0 -15 -21 -42l-87 54q18 41 23 42zM2850 693h38l55 -60h-54l-21 26l-23 -26h-54q54 60 59 60zM3422 693h40l56 -60h-54l-24 26h-1q0 -5 -19 -26h-54zM622 685h52q8 -4 47 -137l34 -110q9 8 34 100l48 147h54v-2l-112 -326h-44z
M1159 685h51v-54h-51v54zM1354 685h46l6 -5v-323h-52v328zM2317 685h45l4 -5v-78h31v-52h-31v-193h-53v193h-26v52h26v78zM2425 685h52v-98h2q23 23 54 23h3q57 0 81 -71l3 -38v-144h-52v115q0 81 -39 81h-10q-42 0 -42 -87v-109h-52v328zM2664 685h52v-54h-52v54zM3028 685
h44l6 -5v-78h29v-52h-29v-193h-54v193h-27v52h27v78zM3234 685h52v-328h-52v328zM3957 685h52v-328h-52v328zM4316 685h51v-54h-51v54zM1555 610h5q83 0 110 -102l3 -23v-11q0 -83 -85 -120l-35 -5q-76 0 -111 97l-4 32q0 97 93 130zM1811 610h4q53 0 78 -60q7 -25 7 -81
v-112h-54v146q-7 50 -37 50h-10q-38 0 -42 -57v-139h-54v245h49v-21q26 29 59 29zM2046 610h4q45 0 63 -39h3v31h49v-206q0 -102 -89 -135l-28 -3h-5q-73 0 -106 81h52l37 -20l15 -3h14q50 0 61 72q-33 -39 -73 -39q-62 0 -98 76q-11 23 -12 60q0 85 86 123zM2866 610h2
q82 0 111 -104l2 -25l-2 -27h-172q15 -45 45 -45l14 -3q29 0 49 22h57v-3q-35 -76 -108 -76q-77 0 -111 97l-1 28v8q0 49 32 89q34 39 82 39zM3429 610h5q41 0 70 -39h2v31h47v-245h-47v31h-2q-35 -39 -77 -39q-71 0 -101 89l-5 36v14q0 86 84 120zM3711 610h7
q88 0 107 -128l-2 -1v-15q0 -65 -66 -106q-21 -11 -46 -11q-34 0 -64 32v-99l-5 -5h-49v325h49v-28q31 36 69 36zM4151 610q44 0 75 -39v31h49v-245h-49v31q-35 -39 -77 -39q-92 0 -108 132q0 84 73 121q15 8 37 8zM922 602h50v-136q3 -60 42 -60h5q44 0 44 87v109h52v-245
h-47v24h-5q0 -23 -56 -32h-3q-55 0 -82 68q-4 35 -4 99v81zM1159 602h51v-245h-51v245zM2664 602h52v-245h-52v245zM4316 602h51v-245h-51v245zM1492 488v-16q13 -66 59 -66h4q59 0 66 76q-13 71 -59 71h-11q-59 -16 -59 -65zM1987 472q15 -66 59 -66h11q48 0 59 75v1
q-13 71 -59 71h-14q-39 0 -56 -57v-24zM2805 506h122v2q-16 45 -59 45h-7q-35 0 -56 -47zM3373 474q13 -68 61 -68h5q52 0 65 63v12q-10 72 -57 72h-16q-56 -14 -56 -63zM3642 478q12 -72 61 -72h3q50 0 65 60v22q0 43 -49 65h-22q-47 0 -58 -72v-3zM4095 472q10 -66 66 -66
q43 0 61 48l2 15v16q0 54 -52 68h-18q-42 0 -59 -60v-21zM3416 321h51v-52h-51v52zM4137 321h51v-52h-51v52zM2733 133h4q35 0 43 -50v-2q0 -16 -24 -41l-10 -17h-28q0 25 28 56l3 2v2q-3 19 -9 19h-10q-8 0 -9 -19h-30q6 50 42 50zM1546 116l52 -60l-26 -19l-52 52zM352 79
h4q75 -48 85 -60l-20 -37q-88 49 -88 58zM3490 79l86 -58l-18 -39q-10 0 -91 55q15 36 23 42zM4578 76l19 -42l-91 -52l-20 39l92 58v-3zM1204 53h51v-19l5 -5h14v-36h-14l-5 -5v-279h-46v31q-34 -40 -81 -40q-72 0 -102 105l-3 26q0 102 101 131h14q33 0 66 -33v59l-6 5
h-43v36h49v24zM1480 45h40l56 -61h-53l-23 27l-23 -27h-53zM2641 45h33q12 0 63 -61h-54l-23 27q-19 -21 -19 -27h-58v4zM49 37h160v-60h-56v-268h-50l-4 5v245l2 3v2l-2 2l2 3l-2 2l2 3l-2 3h-54v54zM699 37h47v-73l2 -2l-2 -3v-3l2 -2l-2 -3v-3l2 -2v-2l-2 -3l2 -3h3
q17 24 51 24h3q53 0 77 -58q7 -17 7 -42v-153h-52v127q0 68 -40 68h-8q-43 0 -43 -86v-109h-52v322zM1297 37h47l5 -6v-49h-52v55zM1987 37h52v-198l70 115h62l-78 -118l90 -125v-2h-70q-10 22 -74 115v-115h-52v328zM2271 37v-99q24 24 53 24q57 0 80 -56q10 -19 10 -77
v-120h-54v133q0 62 -41 62h-11q-31 0 -37 -55v-140h-53v314l-1 3v3l1 2l-1 3l1 3h53zM2458 37h51v-55h-51v55zM3148 37h51v-108q27 33 68 33h3q75 0 105 -94l5 -37q0 -75 -64 -120q-30 -11 -49 -11q-41 0 -72 40v-31h-47v328zM4275 37h52v-99h2q23 24 54 24h3q60 0 82 -74
l2 -41v-138h-52v111q0 82 -32 82l-10 2h-12q-37 0 -37 -80v-115h-52v328zM329 -38h3v-58h-5q-42 0 -42 -57v-138h-53v245h47v-21q18 29 50 29zM564 -38q71 0 86 -87v-166h-51v136q-6 59 -41 59h-6q-45 0 -45 -84v-111h-52v245h50v-21q25 29 59 29zM1504 -38q72 0 105 -94
l5 -39q-2 -24 -7 -24h-169q17 -47 62 -47q24 0 48 21h57q-33 -79 -108 -79q-82 0 -113 105v37q0 81 89 117zM2657 -38h5q77 0 107 -97l3 -26v-21l-3 -13h-170q18 -47 53 -47h12q21 0 42 21h59q-34 -79 -105 -79q-84 0 -115 102l-2 29q0 93 91 128zM2915 -38h4q54 0 78 -60
q7 -25 7 -82v-111h-54v138q0 48 -35 57h-11q-38 0 -43 -57v-138h-54v245h50v-21q25 29 58 29zM3508 -38h6q40 0 70 -40h2v32h47v-245h-47v31h-2q-34 -40 -78 -40q-71 0 -101 90l-4 37v12q0 82 77 117q11 6 30 6zM3781 -38h4q62 0 82 -78l3 -84v-91h-54v138q0 48 -38 57h-9
q-38 0 -42 -52v-143h-54v245h49v-21q26 29 59 29zM4133 -38h1q74 0 104 -93l4 -40q0 -88 -84 -126l-25 -3q-41 0 -68 34v-106h-52v326h47v-29q30 37 73 37zM4714 -38h5q34 0 63 -37q27 37 69 37h6q56 0 79 -66l6 -51v-136h-52v122q0 73 -39 73h-7q-35 0 -41 -50v-140l-5 -5
h-48v140q0 42 -31 55h-17q-40 0 -40 -77v-118h-51v245h47v-21q22 29 56 29zM359 -46h49l5 -6v-234l-5 -5h-49v245zM1297 -46h52v-245h-52v245zM1649 -46h52v-136q4 -60 43 -60h4q44 0 44 81v115h52v-245h-47v24h-5q-12 -33 -59 -33q-52 0 -79 63q-5 12 -5 34v157zM2458 -46
h51v-245h-51v245zM4515 -46h51v-245h-51v245zM1077 -169q0 -53 51 -73h12q54 0 66 66v10q0 53 -54 70h-17q-38 0 -58 -57v-16zM1438 -143h122q-18 47 -53 47h-7q-43 0 -62 -44v-3zM2599 -143h122q-21 47 -54 47h-7q-46 0 -61 -47zM3196 -158v-11q10 -73 61 -73h5q64 8 64 71
v5q0 45 -38 65l-18 5h-14q-60 -14 -60 -62zM3452 -173q14 -69 62 -69h11q41 0 59 60v13q-8 73 -56 73h-17q-47 0 -59 -73v-4zM4062 -158v-22q0 -47 59 -62h9q50 0 61 76q-13 70 -58 70h-15q-56 -17 -56 -62z" />
    <glyph glyph-name=".null" horiz-adv-x="0" 
 />
    <glyph glyph-name="nonmarkingreturn" horiz-adv-x="571" 
 />
    <glyph glyph-name="space" unicode=" " horiz-adv-x="410" 
 />
    <glyph glyph-name="exclam" unicode="!" horiz-adv-x="579" 
d="M421 204q75 24 65 -49.5t-112 -123.5q-120 -55 -147 -13q-21 30 28 89.5t166 96.5zM738 1439q22 25 100.5 60.5t166.5 67t160 50.5t81 12q7 -6 -10.5 -18t-27.5 -18q-68 -46 -168.5 -170t-204 -283.5t-194 -333t-136.5 -317.5q-14 -26 -43 -58t-53.5 -38t-34 31t15.5 150
q19 85 63 217t96.5 263t104 239t84.5 146z" />
    <glyph glyph-name="quotedbl" unicode="&#x22;" horiz-adv-x="469" 
d="M468 948q104 78 156.5 173.5t7.5 128.5q-19 14 -44 -1t-44 -13q-111 9 -8 94.5t209 119.5q52 16 83 -19t13 -89q-40 -115 -139.5 -223.5t-189.5 -181.5q-27 -21 -46.5 -13t2.5 24zM828 948q103 78 156 173.5t8 128.5q-19 14 -44 -1t-44 -13q-111 9 -8 94.5t208 119.5
q52 16 83.5 -19t13.5 -89q-40 -115 -139.5 -223.5t-189.5 -181.5q-27 -21 -46.5 -13t2.5 24z" />
    <glyph glyph-name="numbersign" unicode="#" horiz-adv-x="1320" 
d="M217 410l204 441q6 25 -13 25q-71 0 -144 -11t-150 -44q-48 -21 -61.5 2.5t56.5 42.5q62 16 176.5 57t176.5 57q14 3 30 27l23 51q4 19 -10 19q-71 0 -144.5 -10.5t-150.5 -43.5q-48 -21 -62 2t57 42q62 16 177 57t176 57q9 2 25 24l116 252h88l-110 -235q-6 -22 8 -20
q14 0 28.5 1l29.5 2q14 0 32 28l101 221h88l-102 -218q-12 -32 9 -32q101 -5 185.5 -6t142.5 32q35 20 66 8t-52 -42q-106 -36 -182 -82.5t-158 -52.5q-47 -2 -70 -2q-19 0 -31 -17l-9 -20q-5 -20 28 -21q99 -4 176.5 -4.5t135.5 32.5q34 20 65.5 7.5t-52.5 -41.5
q-105 -36 -181 -82.5t-159 -52.5q-40 -2 -62 -2q-24 0 -28.5 -7.5l-15.5 -25.5l-193 -415l-82 -4l197 430q7 27 -10 29q-18 2 -52 4q-14 1 -30 -28l-200 -427zM598 1001q27 3 54 3q10 0 26 20l11 24q5 17 -8 18q-15 0 -28.5 1.5t-27.5 2.5q-13 2 -25 -14l-18 -38
q-4 -19 16 -17z" />
    <glyph glyph-name="dollar" unicode="$" horiz-adv-x="928" 
d="M212 426q19 36 34 69l26 58q7 20 -13 22q-90 10 -163.5 44t-82.5 83q-11 57 52 92t152 47q31 4 31.5 -7t-16.5 -32q-50 -81 30.5 -142.5t168.5 -36.5q156 43 88 150t-362 127q-30 18 2.5 88.5t142.5 165.5q133 105 329 127q15 1 23 13q30 45 39.5 84t24.5 45
q45 21 89.5 29.5t34.5 -21.5q-6 -18 -40.5 -52.5t-74.5 -79.5q-12 -13 11 -14q12 0 34 -2q83 -6 132 -38t-5 -86q-28 -28 -69 -61t-59 -42q-22 -12 -27.5 1.5t-4.5 16.5q15 57 -116 68t-189 -7q-28 -9 -37 -23t28 -11q70 1 156.5 -22t151.5 -65.5t76 -120.5t-45 -149.5
t-160.5 -118t-212.5 -52.5q-22 -2 -37 -17q-30 -23 -96 -137q-45 -86 -65.5 -70t19.5 77z" />
    <glyph glyph-name="percent" unicode="%" horiz-adv-x="1755" 
d="M-83.5 -116.5q13.5 38.5 106.5 181.5q69 106 214.5 280l307.5 354l325.5 347t220.5 209q42 32 134.5 73.5t188 76t170 55.5t82.5 12q6 -9 -23.5 -24l-46.5 -24q-140 -75 -407.5 -301.5t-540.5 -493.5l-311.5 -322t-251.5 -296l-79.5 -81.5t-75.5 -67t-13.5 21zM382 822.5
q61 13.5 109 69.5q44 51 59.5 121t16.5 131q1 115 -34 169q-36 52 -88 35t-82 -64q-73 -110 -84 -233q-10 -113 14 -172q28 -70 89 -56.5zM44 803q-32 61 -25.5 138.5t29.5 131.5q39 94 143 205q71 73 181.5 131t242.5 56q95 -3 141 -42.5t58 -96.5q16 -73 -7.5 -155.5
t-52.5 -130.5q-59 -96 -209.5 -213t-309.5 -119q-140 -3 -191 95zM923 111q58 15 104 69q44 51 59.5 121t16.5 132q1 136 -47 185q-36 35 -83 16t-74 -61q-71 -109 -83 -233q-13 -125 19 -184q30 -60 88 -45zM569 104q-27 61 -18 134t33 124q49 106 144 204q71 74 181 131.5
t242 56.5q123 -3 165.5 -66t39.5 -141q-3 -62 -23.5 -121.5t-42.5 -96.5q-59 -96 -209.5 -213t-309.5 -119q-155 -2 -202 107z" />
    <glyph glyph-name="ampersand" unicode="&#x26;" horiz-adv-x="1784" 
d="M944 887q44 30 93 67t73 59q116 97 97 181t-117 92q-86 3 -137 -60q-101 -129 -36 -331q6 -21 27 -8zM519 -49q-241 0 -298.5 182t161.5 390q58 47 135 98.5l152 101.5q17 12 17 43q-4 222 141 412q78 104 217 204t278 102q121 -2 175.5 -77t-12.5 -186
q-48 -81 -227 -202.5t-295 -193.5q-15 -11 -6 -28q79 -191 238 -348q18 -18 37 7l62.5 76.5l63.5 79.5q52 68 132 80t189 1.5t200.5 -13.5t128.5 44q29 33 37 13.5t-69 -82.5l-116 -102t-119 -72q-111 -42 -272 -1q-69 17 -107 -7.5t-80 -63.5q-23 -22 -3 -37
q49 -42 109 -78q164 -98 299 -130.5t249 45.5q36 30 43.5 9.5t-29.5 -40l-69 -37.5q-113 -61 -241 -120.5t-265 -55.5q-106 4 -193.5 51.5t-165.5 113.5q-20 15 -38 0q-99 -78 -213 -129t-246 -50zM673 635q-115 -121 -120 -239q-12 -184 193 -237q86 -24 177 19
q26 11 13 25q-189 196 -236 427q-5 28 -27 5z" />
    <glyph glyph-name="quotesingle" unicode="'" horiz-adv-x="469" 
d="M493 948q104 78 156.5 173.5t8.5 128.5q-20 14 -45 -1t-44 -13q-111 9 -8 94.5t209 119.5q52 16 83 -19t13 -89q-39 -115 -139 -223.5t-190 -181.5q-27 -21 -46.5 -13t2.5 24z" />
    <glyph glyph-name="parenleft" unicode="(" horiz-adv-x="1401" 
d="M1078 1645q66 51 102.5 73.5t71.5 38.5q39 18 61 19t-33 -50q-15 -15 -29.5 -24t-38.5 -29q-225 -185 -368.5 -371t-250.5 -375q-46 -81 -101 -224t-76.5 -293.5t11 -282.5t161.5 -193q28 -12 7 -34q-22 -22 -63.5 -59.5t-86.5 -73.5q-88 -69 -152.5 12t-76.5 230
q-21 250 72.5 508t234.5 482.5t296.5 396t258.5 249.5z" />
    <glyph glyph-name="parenright" unicode=")" horiz-adv-x="912" 
d="M-13 -269q-66 -51 -102.5 -73.5t-71.5 -38.5q-39 -18 -61 -19t34 50q15 15 29 24t38 29q223 185 366.5 370.5t251.5 374.5q45 81 100 223.5t76.5 293.5t-10.5 283.5t-161 193.5q-27 13 -6 34q21 22 62.5 59.5t86.5 73.5q87 68 152 -12.5t77 -230.5q21 -251 -73 -508.5
t-235 -482t-296 -395.5t-257 -249z" />
    <glyph glyph-name="asterisk" unicode="*" horiz-adv-x="1121" 
d="M1048 834q-87 -18 -158.5 -53.5t-128.5 -54.5q-41 -15 -42 -16t8 -47q13 -70 19 -134.5t10 -126.5q0 -11 -12.5 -16.5t-16.5 11.5q-17 63 -49 108.5t-56 86.5q-23 38 -23.5 40t-35.5 -34q-57 -59 -109 -107t-106 -93q-9 -9 -18 -1.5t6 22.5q60 68 96 138t71 121
q25 37 31.5 40.5t-39.5 23.5q-124 51 -226 112q-9 4 -1.5 16t23.5 7q72 -26 144 -26.5t126 -8.5q39 -7 41 -8.5t18 42.5q49 139 116 283q5 10 17.5 9t6.5 -19q-25 -82 -24.5 -151t-7.5 -124q-5 -35 -10.5 -41.5t35.5 0.5q84 13 158.5 19t145.5 10q11 0 10 -12.5t-19 -15.5z
" />
    <glyph glyph-name="plus" unicode="+" horiz-adv-x="1228" 
d="M643 748q14 51 39 134q50 172 61 199q17 53 25 72q19 60 43 25q14 -23 42 -77t6 -145q-3 -14 -62 -188q-4 -12 -7 -22q117 0 231 6t188 25q110 29 120 26.5t-84 -56.5q-105 -63 -256 -95q-122 -26 -244 -38q-13 -38 -17 -51q-35 -115 -64.5 -227.5t-33.5 -187.5
q-5 -110 -10.5 -119t-29.5 88q-31 111 -15 262q11 114 34 226q-50 -2 -129 -3q-175 -4 -202 -2q-55 0 -75 3q-61 0 -30 34q21 20 70.5 63.5t141.5 51.5q14 1 194 -2q35 -1 64 -2z" />
    <glyph glyph-name="comma" unicode="," horiz-adv-x="554" 
d="M137 -285q104 78 156.5 173t8.5 128q-20 14 -44.5 -1t-44.5 -14q-111 9 -7.5 94.5t208.5 119.5q52 16 83 -19t13 -89q-39 -114 -139 -222t-190 -181q-27 -21 -46.5 -13t2.5 24z" />
    <glyph glyph-name="hyphen" unicode="-" horiz-adv-x="859" 
d="M984 804l-191.5 -132t-127.5 -48q-61 -8 -153.5 26.5t-144.5 -10.5q-29 -25 -40.5 -2.5t32.5 46.5q37 21 106 69.5t108 69.5q118 63 229.5 6.5t169.5 7.5q20 22 41.5 12.5t-29.5 -45.5z" />
    <glyph glyph-name="hyphen" unicode="&#x2010;" horiz-adv-x="859" 
d="M984 804l-191.5 -132t-127.5 -48q-61 -8 -153.5 26.5t-144.5 -10.5q-29 -25 -40.5 -2.5t32.5 46.5q37 21 106 69.5t108 69.5q118 63 229.5 6.5t169.5 7.5q20 22 41.5 12.5t-29.5 -45.5z" />
    <glyph glyph-name="period" unicode="." horiz-adv-x="496" 
d="M399 218q74 -12 66 -67.5t-110 -105.5q-127 -61 -170 -30q-33 24 48 120t166 83z" />
    <glyph glyph-name="slash" unicode="/" horiz-adv-x="1939" 
d="M1176 1247q48 39 154.5 88t217 90t197 65t95.5 14q7 -9 -26.5 -27l-53.5 -29q-282 -159 -597 -433t-588 -577q-154 -170 -282 -337l-236 -319q-69 -77 -102 -76t45 124q78 125 230 335.5t333 422.5l365 412.5t248 246.5z" />
    <glyph glyph-name="zero" unicode="0" horiz-adv-x="1674" 
d="M806 149q117 -93 303 -69.5t346 204.5q170 217 153 554q-10 221 -102 359q-104 151 -291 144q-181 -6 -313 -116q-118 -98 -185 -244q-109 -217 -87 -466.5t176 -365.5zM845 -87q-294 -4 -418.5 166.5t-80 465t265.5 539.5q165 201 413 307q189 82 399 79
q201 -5 312 -99.5t145 -243.5q31 -136 8.5 -275.5t-74.5 -254.5q-144 -295 -407 -486.5t-563 -197.5z" />
    <glyph glyph-name="one" unicode="1" horiz-adv-x="792" 
d="M1268 1556q-63 -102 -188.5 -350.5t-245.5 -511.5q-118 -256 -201 -464t-71 -246q4 -14 -7 -21q-4 -1 -56.5 -18l-114.5 -36l-114 -35t-55 -17q-17 -1 -7 15q71 128 171 325l196 395l196 416q8 18 -7 24t-22 2q-62 -40 -124.5 -88t-107.5 -87q-55 -47 -75.5 -14.5
t15.5 55.5q218 137 383 280q103 87 194.5 179l195.5 197q27 28 39 18.5t6 -18.5z" />
    <glyph glyph-name="two" unicode="2" horiz-adv-x="1320" 
d="M125 -1q-86 -30 -64 4.5t64 56.5q151 81 257 145.5l251 157.5q123 79 268 186t202 171q77 88 99 213.5t-10.5 229t-118.5 154t-224 -12.5q-145 -67 -160.5 -190.5t27.5 -201.5q41 -78 138.5 -78t185.5 119q21 39 44 18.5t-6 -50.5q-82 -90 -221.5 -158t-267.5 -61
q-75 3 -127 46.5t-43 148.5q8 103 102 218.5t223 193.5q183 111 428.5 140t357.5 -84q91 -89 43.5 -260.5t-234.5 -324.5q-193 -158 -369 -286.5t-390 -250.5q-54 -31 11 -15q123 27 239 -20.5t230 -88.5q99 -37 221 -40t191 90q20 27 36 7.5t-16 -45.5q-233 -188 -408 -255
q-90 -33 -152.5 -36t-104.5 6q-43 10 -123 47.5t-177.5 72t-203 50t-198.5 -16.5z" />
    <glyph glyph-name="three" unicode="3" horiz-adv-x="1323" 
d="M423 -100q-273 9 -283.5 169t196.5 380q55 59 35 -11q-15 -48 4 -113.5t82 -110.5q80 -60 216 -79t280 53q87 44 161 126.5t98.5 169.5t-18.5 162t-189 105q-123 25 -251 19t-131 -5q-15 2 -15.5 17.5t14.5 25.5q177 121 287 208.5t188 135.5q18 11 11.5 15.5t-16.5 4.5
q-31 -3 -196 16q-225 26 -297 -11t-119 -82q-19 -19 -30 2t15 37q57 34 141.5 166.5t215.5 171.5q81 24 186.5 12t220.5 -27t232.5 -17t224.5 44q43 18 40.5 -4.5t-20.5 -41.5q-54 -58 -123.5 -100.5t-168.5 -93.5q-129 -68 -226.5 -126.5t-181.5 -133.5q-27 -24 -2 -21.5
t57 13.5q145 50 291 11q121 -34 153 -100t8.5 -145.5t-84 -162t-123.5 -148.5q-167 -177 -397.5 -357.5t-485.5 -173.5z" />
    <glyph glyph-name="four" unicode="4" horiz-adv-x="1368" 
d="M542 -125.5q4 12.5 10 25.5l106.5 212l112.5 212q13 24 -14 29q-216 34 -327 40t-165 -1t-75.5 -20t-58.5 -24q-42 24 -20.5 44.5t39.5 30.5q197 112 378.5 272t330.5 328q196 221 318 411.5t128 256.5q5 57 86 78t69 -28q-42 -166 -196 -372.5t-326 -386.5
q-111 -116 -213 -209t-171 -146q-31 -24 -35 -29.5t41 7.5q61 17 177 29.5t178 7.5q21 -2 33 18l147.5 293.5t180.5 350.5q2 4 40 29t81 50t74.5 38.5t21.5 -5.5q-93 -171 -182.5 -380.5t-155.5 -389.5q-8 -24 11 -26q91 -12 189 -38t186 -9q118 31 172 111q21 36 37.5 6
t-37.5 -72l-234 -188t-424 -113q-21 0 -29 -26l-49 -140t-34 -146q4 -11 -18 -20l-155.5 -49.5l-201.5 -64.5q-30 -9 -26 3.5z" />
    <glyph glyph-name="five" unicode="5" horiz-adv-x="1297" 
d="M53.5 38q-5.5 160 207.5 379q23 24 33 19t2 -30q-47 -138 48.5 -220.5t251.5 -83.5q194 -13 315 38q85 35 151.5 95t100 139.5t22 161.5t-141.5 157q-161 62 -359.5 36.5t-252.5 -45.5q-12 -5 -21 6t-3 24q119 249 169.5 366.5l133.5 309.5q24 54 77.5 56t134.5 45
q44 23 24 -7l-21 -30t-25 -40q-19 -32 22 -8q135 80 313 80q102 -1 232.5 -35.5t210.5 40.5q34 33 45 4t-45 -64q-129 -81 -247 -197t-289 -74q-63 15 -203.5 35t-180.5 -59l-66 -126.5t-55 -117.5q-19 -41 31 -12q79 46 194 71.5t227 22.5q233 3 296.5 -175t-104.5 -437
q-139 -197 -416 -349t-533 -144q-273 9 -278.5 169z" />
    <glyph glyph-name="six" unicode="6" horiz-adv-x="1250" 
d="M1070 116q93 48 130.5 139.5t24.5 188.5q-45 273 -309 332q-176 28 -245 -68q-124 -190 25 -446q169 -210 374 -146zM1460 1530q46 7 67 -22.5t-68 -39.5q-102 0 -230.5 -59.5t-251.5 -162.5q-96 -80 -180.5 -183t-141.5 -220q-15 -30 -19.5 -47.5t29.5 13.5
q186 168 406 189.5t341 -152.5q87 -160 27 -352t-245 -360q-141 -127 -282.5 -184t-264.5 -54q-149 4 -255.5 85t-136.5 224q-26 117 12 270.5t159 332.5q94 140 217 258t255 210q305 211 562 254z" />
    <glyph glyph-name="seven" unicode="7" horiz-adv-x="1014" 
d="M1122 741l-163 -109t-126 -40h-12h-12q-23 0 -30 -20q-40 -108 -17.5 -201.5t145.5 -150.5q51 -24 30.5 -36.5t-50.5 -32.5q-65 -42 -190 -157t-202 -95q-166 42 -100.5 233t215.5 407q7 11 15 21.5t16 22.5q21 29 -3 33q-49 6 -90 6.5t-61 -16.5q-23 -21 -45 -3t18 39
q33 17 91.5 57.5t94.5 57.5q49 22 126 21q16 -1 34 20q74 91 139.5 164t107.5 115q2 3 34 38.5t-40 6.5q-77 -32 -143.5 -28.5t-125.5 22.5q-114 35 -209 75.5t-190 -48.5q-26 -25 -47 -9t25 43q25 15 89 69.5t145.5 110.5t170 94t163.5 20q63 -17 154.5 -36.5t186.5 -28.5
q111 -12 212 6.5t157 54.5q44 27 49.5 5t-23.5 -37q-95 -48 -207 -126.5t-215 -161.5q-69 -57 -167 -156t-179 -213q-10 -13 6 -15q68 -12 121 -17t74 22q14 18 42.5 10t-14.5 -37z" />
    <glyph glyph-name="eight" unicode="8" horiz-adv-x="1300" 
d="M595 685q-138 -86 -171 -186q-35 -102 2 -193q34 -94 121 -162q84 -70 186 -91q49 -12 108 -4q115 17 175 81q108 117 29 285q-49 102 -143.5 192.5t-169.5 121.5q-25 10 -64 -7t-73 -37zM955 1368q-76 -29 -102 -92q-29 -63 -21 -112q7 -71 76 -149q58 -67 146 -122
q53 -38 137 7q99 54 122 138q23 83 -7 164q-33 77 -106 133q-73 54 -166 50q-45 -4 -79 -17zM712 -52q-143 -42 -262 -41q-174 2 -259 98q-80 88 -51 229q27 142 157 280q138 149 363 247q31 13 12 29q-172 131 -140.5 252.5t131.5 206.5q92 77 229 148q166 87 356 87
q173 0 270 -77q102 -87 55 -229q-30 -94 -139 -183q-104 -85 -243 -139q-44 -17 -5 -38q370 -210 146 -495q-106 -135 -263.5 -227t-356.5 -148z" />
    <glyph glyph-name="nine" unicode="9" horiz-adv-x="1254" 
d="M835 1345q-163 -66 -185.5 -222.5t48.5 -288.5q63 -117 186.5 -161t254.5 20q132 81 148.5 229.5t-50.5 270.5q-57 102 -163 148t-239 4zM589 1253q136 121 269 170q146 59 353.5 44.5t319.5 -192.5q57 -109 50 -222.5t-34 -211.5q-72 -252 -375 -508
q-141 -120 -325 -227.5t-401 -194.5q-26 -10 -40 2.5t-8 26.5q9 28 100 50q152 54 318.5 180.5t267.5 254t146 229.5q20 48 -22 13q-109 -91 -263.5 -145.5t-295.5 -29.5q-142 24 -216 146.5t-36.5 296.5t192.5 318z" />
    <glyph glyph-name="colon" unicode=":" horiz-adv-x="732" 
d="M684 706q74 -12 66 -67.5t-110 -104.5q-127 -64 -170 -31q-33 24 48 120t166 83zM406 217q74 -12 66 -67.5t-110 -105.5q-126 -61 -170 -30q-33 24 48 120t166 83z" />
    <glyph glyph-name="semicolon" unicode=";" horiz-adv-x="698" 
d="M159 -286q103 78 156 173.5t8 127.5q-19 14 -44 -0.5t-44 -13.5q-111 9 -8 94.5t209 119.5q51 16 82.5 -19.5t13.5 -88.5q-40 -114 -139.5 -222t-189.5 -182q-27 -21 -46.5 -12.5t2.5 23.5zM656 706q74 -12 66 -67.5t-110 -104.5q-128 -64 -170 -31q-33 24 48 120t166 83
z" />
    <glyph glyph-name="less" unicode="&#x3c;" horiz-adv-x="1253" 
d="M880 -69q133 12 227 115t178 264q33 65 34 61.5t22 -93.5q15 -66 -44 -142t-161 -140t-230 -106.5t-250 -40.5q-183 5 -259.5 113.5t-64.5 251.5q18 213 174 368q40 39 13 49t-79 7q-15 -2 -21 -14q-34 -63 -81 -138t-101 -147q-75 -99 -153 -175.5t-143 -88.5
q-52 -6 -41.5 34t65.5 61q54 -2 118 60t118 143q93 140 114 234q1 10 -8 7q-33 -9 -46.5 4t20.5 45q34 33 75 49q57 24 167 43.5t188 22.5q107 3 71 -30q-79 -70 -137.5 -201t-70.5 -263q-13 -150 53.5 -259.5t252.5 -93.5z" />
    <glyph glyph-name="equal" unicode="=" horiz-adv-x="1228" 
d="M278 703q-55 0 -75 3q-61 0 -33 34q19 20 64.5 63.5t136.5 51.5q14 1 194 -2.5t210 -3.5q118 0 232 6t186 25q107 29 117 26.5t-78 -56.5q-100 -63 -247.5 -95t-295.5 -43q-33 -4 -208.5 -7.5t-202.5 -1.5zM278 331q-55 0 -75 2q-61 0 -33 34q19 21 64.5 64.5t136.5 51.5
q14 1 194 -3t210 -4q118 0 232 6.5t186 25.5q107 29 117 26.5t-78 -56.5q-100 -64 -247.5 -95.5t-295.5 -42.5q-33 -4 -208.5 -8t-202.5 -1z" />
    <glyph glyph-name="greater" unicode="&#x3e;" horiz-adv-x="1245" 
d="M-104.5 107.5q10.5 40.5 65.5 61.5q86 -4 192.5 132.5t149.5 244.5q38 96 132 159t186 102q104 44 106.5 30.5t-36.5 -50.5q-116 -107 -122 -179q-14 -140 21.5 -269.5t-126.5 -225.5q-32 -20 17 -14q123 11 205 3t207 -42q164 -45 274 -83.5t263 85.5q42 35 47 7
t-45 -52l-285.5 -137.5t-313.5 -13.5l-171.5 57t-217.5 58.5t-214.5 30.5t-160.5 -28q-37 -21 -33 11.5t30 44.5q85 39 174 55q47 15 57 49t12 55q3 46 -1 100.5t-7 101.5q-2 33 -24 2l-80.5 -107.5t-85.5 -100.5q-103 -109 -174 -122q-52 -6 -41.5 34.5z" />
    <glyph glyph-name="question" unicode="?" horiz-adv-x="1008" 
d="M338 94.5q103 85.5 209 119.5q75 24 65 -49.5t-112 -123.5q-29 -15 -74 -29t-81 -12q-110 9 -7 94.5zM431.5 386.5q-47.5 69.5 25.5 187.5q24 39 73.5 80.5t100.5 77.5q132 93 215.5 171.5t129.5 146.5q63 92 70 165t-9 135q-34 123 -148 150t-232 -41
q-115 -68 -148 -161.5t-3 -154.5q36 -77 148 -73t198 160q23 44 34 17t-22 -69q-38 -50 -113 -112t-160 -110q-120 -69 -226 -79t-118 116q-12 120 114 274t318 250q73 36 175 65t198.5 28t172 -43t95.5 -147q22 -120 -44 -228.5t-180 -206.5q-98 -84 -217 -161l-236 -147
q-54 -33 18.5 -51t134.5 -12q26 2 18.5 -17t-58.5 -48q-42 -24 -81 -66.5t-72 -67.5q-124 -98 -171.5 -28.5z" />
    <glyph glyph-name="at" unicode="@" horiz-adv-x="1635" 
d="M1078 689q16 -14 95 96q96 135 91 225t-83 3q-20 -22 -53 -101.5t-49.5 -144t-0.5 -78.5zM1034 89q134 2 243 72q106 70 180 180q69 103 107 235q4 17 -3.5 18.5t-16.5 -10.5q-116 -147 -240 -229q-111 -73 -152.5 32t30.5 321q9 30 -19 -3q-72 -81 -133.5 -172.5
t-97.5 -128.5q-85 -88 -147.5 -51.5t-37.5 165.5q4 22 -12 6q-41 -39 -61 -54q-23 -18 -17 -52q8 -50 24 -83q49 -114 140 -180q91 -69 213 -66zM675 531q53 36 107 101q38 94 115 201q24 33 61 77q158 183 305 219.5t130 -197.5q-2 -22 75 20t57 5l-42.5 -68.5t-38.5 -71.5
q-7 -15 -20 -59.5t-16.5 -86.5t10 -66t59.5 2q17 9 45.5 31.5t48.5 52.5q30 43 33 104.5t0 112.5q-11 177 -89 295q-104 150 -292 144q-183 -8 -313 -116q-120 -100 -183 -260q-76 -182 -80 -367v-29.5v-26.5q0 -34 28 -17zM507 -2q-107 81 -149 200q-43 119 -32 248
q9 130 45 225q80 216 256 419q175 202 426 307q193 82 402 79q214 -7 316 -105q101 -102 127 -239q25 -138 -6 -285q-33 -147 -82 -245q-155 -294 -492 -500q-57 -34 -115 -65q-62 -33 -121 -57q-147 -61 -269 -61q-201 -3 -306 79z" />
    <glyph glyph-name="A" unicode="A" 
d="M-113 -149q-11 19 26 54q72 69 192 163.5t278 252.5q126 123 124.5 141t14.5 51q29 61 84 100.5t127 70.5q124 129 219 242.5t131 188.5q12 73 33 118.5t152 113t222 102t106 29.5q42 -16 10 -35q-60 -37 -100 -132.5t-60 -218.5q-29 -181 -16 -383q1 -33 21 -33
q142 -13 269.5 0t203.5 89q22 22 33 10t-7 -28q-244 -219 -453 -278q-29 -9 -18 -45q45 -135 112 -195q85 -63 175 -13.5t153 148.5q24 38 31.5 16.5t-9.5 -44.5q-111 -161 -244 -264t-267 -125q-138 -14 -213 110q-45 74 -77.5 182.5t-50.5 231.5q-6 32 -30 43l-140.5 62
t-133.5 32q-48 1 -80 -34l-261 -295q-225 -262 -261 -336q-39 -14 -115.5 -49t-151.5 -57q-18 -5 -29 14zM875 721q60 6 165 0q23 -2 22 30q-5 93 0 177q1 27 -17 9l-180 -190q-27 -30 10 -26z" />
    <glyph glyph-name="B" unicode="B" horiz-adv-x="1665" 
d="M560 -31q-105 37 -23.5 228t191.5 402q73 141 129 266t47 193q-3 15 156 68.5t227 71.5q31 8 28 20t-51 14q-175 4 -321.5 -12t-258.5 -46q-154 -43 -237 -103q-100 -71 -106 -161t43 -147.5t136 -57.5t174 108q29 34 41.5 7t-5.5 -47q-48 -56 -175.5 -110t-246 -67
t-184 36t9.5 199q55 109 204.5 225.5t294.5 199.5q123 71 208 103q209 79 437 101t419 -1q190 -25 314.5 -90t127.5 -162q3 -160 -308 -337q-156 -91 -368 -162q-29 -11 -40 -19.5t31 -12.5q192 -19 282.5 -68.5t102.5 -115.5q10 -67 -46.5 -143.5t-158.5 -148.5
q-102 -73 -237 -134t-281 -97q-174 -40 -326 -38q-127 4 -230 38zM880 196q3 -44 51.5 -75t112.5 -48q72 -13 140.5 -9t150.5 36q140 67 145.5 144t-71.5 140q-78 62 -200.5 101.5t-214.5 42.5q-14 0 -36 -41q-36 -66 -59 -162q-22 -93 -19 -129zM1028 633q-3 -20 16 -16
q156 36 324 121q169 86 281 188.5t97 159.5q-15 53 -91.5 81.5t-208.5 39.5q-21 1 -34 -15q-118 -138 -189.5 -242t-126.5 -192.5t-68 -124.5z" />
    <glyph glyph-name="C" unicode="C" horiz-adv-x="1264" 
d="M249 623q56 195 235.5 385.5t486.5 326.5q215 88 355 112.5t221 1.5q81 -24 109 -85t15 -142q-29 -169 -187 -340q-75 -80 -168.5 -139.5t-193.5 -79.5q-111 -23 -176.5 30.5t-55.5 148.5t108.5 214.5t314.5 229.5q14 6 1 14q-53 27 -130 24.5t-183 -50.5
q-173 -83 -303 -278q-148 -241 -139 -416q-11 -183 77 -314t263.5 -151.5t334.5 42.5q194 80 332 279q28 45 40 28.5t-17 -61.5q-116 -210 -348.5 -373t-435.5 -182q-346 -50 -505 190.5t-51 584.5zM1163 730q51 20 113 85.5t105.5 147t49.5 166t-37 134.5q-10 9 -24 2
q-86 -48 -157 -148.5t-107.5 -196.5t-27 -158t84.5 -32z" />
    <glyph glyph-name="D" unicode="D" horiz-adv-x="1788" 
d="M1040 819q98 -3 214.5 18t221.5 63q28 10 8 33q-106 123 -212 184q-24 14 -43 -6q-53 -60 -97 -116q-56 -70 -109 -148q-18 -28 17 -28zM386.5 107q45.5 205 184.5 463q15 28 -19 34q-288 43 -385 209q-45 76 -26 168t122 186q157 143 364.5 222t420.5 78q213 -2 410 -93
t334 -288q17 -28 46 -9q35 24 81.5 66t80.5 87q24 32 33.5 -6t-32.5 -69q-34 -30 -67 -64t-68 -61q-25 -20 -12 -51q84 -220 42.5 -419t-164.5 -345t-307 -221.5t-383 -49.5q-221 30 -362 136q-27 20 -90.5 -21.5l-182.5 -115.5q-66 -41 -20.5 164zM723 236q27 27 62 52
t68 -16q88 -114 202 -174t225 -64q111 -6 205 46.5t145 163.5q63 154 37.5 301t-102.5 272q-9 14 -27 5q-94 -57 -158 -88t-151 -60q-182 -57 -316 -73q-33 -4 -38 -6t-20 -27q-60 -94 -98 -181t-48 -139q-7 -35 14 -12zM736 856q31 51 36 95l12 104q0 15 114 50l200 61
q43 13 -4 29q-92 29 -210 47.5t-234 15.5q-117 -4 -217 -36t-157 -102q-54 -66 56 -153q51 -41 138.5 -76t210.5 -53q41 -6 55 18z" />
    <glyph glyph-name="E" unicode="E" horiz-adv-x="1243" 
d="M268 -108.5q-111 68.5 -138 163.5q-32 108 38.5 247t231.5 273q166 138 407 216q45 14 -2 21q-117 12 -206.5 32.5t-116.5 43.5q-58 44 43 179q48 65 141 141.5t239 151.5q111 57 285 81t319 9q144 -16 213.5 -73.5t-26.5 -162.5q-49 -54 -125 -102t-109 -62
q-11 -5 -16.5 1t-1.5 10q70 85 -24.5 127t-241.5 50q-126 6 -252.5 -8.5t-183.5 -44.5q-77 -42 -22.5 -66t165.5 -39q110 -15 237 -27t195 -27q6 -2 -22.5 -38.5t-67.5 -80t-77.5 -79t-53.5 -35.5q-104 0 -201.5 -34t-187.5 -80q-198 -101 -205 -242t100 -236
q89 -67 266 -72.5t309 38t215 118.5t138 171q23 36 41.5 28.5t-2.5 -40.5q-135 -232 -353 -401q-318 -227 -626 -219q-211 -1 -322 67.5z" />
    <glyph glyph-name="F" unicode="F" horiz-adv-x="1983" 
d="M530.5 58.5q-90.5 84.5 -79.5 213.5q6 88 124.5 134.5t334.5 151.5q26 12 38.5 -10t-14.5 -25q-121 -19 -157 -118t-6 -193q28 -96 115.5 -153t226.5 -31q97 18 178.5 81.5t147.5 153.5q62 86 111.5 189.5t86.5 211.5q6 21 -21 28q-177 36 -265 20.5t-146 -48.5
q-16 -7 -21.5 3.5t12.5 22.5q52 44 165.5 103t305.5 81q32 2 39 30q20 85 34 176q4 28 -23 34q-137 27 -279.5 74.5t-285.5 80.5q-150 33 -298 28.5t-288 -90.5q-97 -60 -99 -138.5t56 -126.5q57 -50 154.5 -42.5t207.5 113.5q32 30 27.5 -4.5t-28.5 -49.5
q-174 -102 -326 -129t-235 9q-81 36 -68.5 125.5t179.5 208.5q84 59 175 104.5t195 87.5q269 104 546 96.5t568 -69.5q267 -57 506 -80t352 73q36 31 44.5 5t-11.5 -35q-216 -99 -396 -159q-171 -57 -301 -80q-23 -4 -27 -28q-19 -88 -70 -203q-10 -22 19 -25
q73 -9 153.5 -8t126.5 48q27 26 28.5 3.5t-19.5 -37.5q-127 -85 -228 -131t-173 -64q-27 -7 -41 -29q-53 -84 -105 -156t-91 -120q-171 -211 -395.5 -332t-509.5 -82q-159 22 -249.5 106.5z" />
    <glyph glyph-name="G" unicode="G" horiz-adv-x="1582" 
d="M29.5 -484.5q-60.5 93.5 -11.5 202.5q34 78 109 121.5t279 135.5q29 14 38.5 -12t-20.5 -27q-102 -24 -99 -127.5t84 -187.5q80 -82 236.5 -81.5t317.5 126.5q195 165 285.5 378t81.5 398q-11 67 -21.5 54.5l-28.5 -35.5q-88 -111 -235 -217t-279 -150q-186 -60 -313 -23
t-177 136q-116 227 68 507.5t504 478.5q340 211 706 235q155 10 246 -35q20 -11 37 -4q186 63 315 48t45 -132l-72 -92q-22 -25 -22 3q0 47 -58.5 78.5t-146.5 28.5q-18 0 -12 -11q37 -68 -15 -179t-143 -201.5t-203 -161t-218 -87.5q-134 -26 -180.5 79t87.5 257
q101 116 291 216q12 7 1 27q-60 92 -234.5 67t-379.5 -181q-143 -109 -226 -266.5t-92 -296.5t64 -226t243 -55q104 19 219 83.5t177 157.5q13 20 20 22q116 25 253 107t131 42q-19 -270 -225.5 -588t-485.5 -525q-218 -165 -412.5 -209t-331 -8t-197 129.5zM1356 752
q83 45 137 147q72 140 46 264q-5 16 -17 8q-96 -62 -145.5 -117t-78.5 -106q-78 -135 -50 -185.5t108 -10.5z" />
    <glyph glyph-name="H" unicode="H" horiz-adv-x="2265" 
d="M212 112.5q-33 89.5 36 167.5q37 42 97.5 78.5t120.5 60.5q31 12 19.5 -18t12 -104.5t81.5 -132t175.5 -84t269.5 -4.5q212 31 352 169t220 304q7 16 -15 19q-257 35 -325 7t-94 -43q-23 -12 -34 -5t13 28q83 69 221.5 100t240.5 38q36 2 45 30q60 199 16 329t-137 196
q-94 66 -211 71t-201 -44q-165 -98 -173.5 -206.5t62.5 -171.5q70 -63 181 -51.5t186 155.5q20 39 40.5 18.5t-15.5 -65.5q-24 -30 -99 -93.5t-175 -115.5q-69 -36 -144.5 -58t-149.5 -16q-134 11 -173.5 98t28.5 209q102 184 352.5 322t492.5 160q223 19 341.5 -60.5
t131.5 -267.5t-124 -423q-13 -20 12 -20q102 -5 112.5 -2.5t21.5 18.5q59 93 155.5 193t210.5 196q112 95 231.5 179.5t224.5 148.5q79 55 79.5 17t-40.5 -59q-105 -39 -210 -114t-200 -168q-199 -197 -305 -404q-12 -23 13 -24q122 -6 217.5 7t142.5 67q22 25 28.5 3
t-23.5 -49q-128 -112 -234.5 -157.5t-201.5 -51.5q-20 -3 -23 -26q-18 -105 2 -180t72 -97q54 -24 148 13.5t194 193.5q14 18 23.5 5.5t-5.5 -33.5q-41 -65 -110 -142.5t-156 -148t-181.5 -115t-170.5 -31.5q-96 17 -118.5 91t-6.5 164.5t52 176t58 125.5q11 21 -10 27
l-94 21q-22 4 -35 -13q-123 -158 -272 -281q-170 -140 -376 -229t-426 -100q-217 -10 -348 65q-83 48 -116 137.5z" />
    <glyph glyph-name="I" unicode="I" horiz-adv-x="1548" 
d="M1544 1451q173 8 243 -56.5t89 -147.5q23 -105 -20 -272.5t-145 -347.5t-260 -347t-363 -270q-168 -84 -337 -111t-304 -3q-135 25 -216 98.5t-74 193.5q5 81 91.5 132t149.5 79q30 13 28.5 -9t1.5 -49q10 -111 90.5 -198t199.5 -120t260 1t273 165q283 283 324 578
t-1 404q-51 132 -169.5 165.5t-240.5 -41.5q-120 -73 -153 -177.5t4 -170.5q46 -84 167.5 -80.5t200.5 174.5q22 47 36 18t-18 -75q-44 -65 -144 -148t-206.5 -134t-194.5 -43.5t-109 124.5q-17 89 43.5 201.5t172 213.5t263 173t318.5 80z" />
    <glyph glyph-name="J" unicode="J" horiz-adv-x="1497" 
d="M-348 -527q26 195 235 360q210 167 543 243q162 36 330 33t326 -22q17 -3 28 17q72 130 140 285t99 283q46 192 40 348.5t-83 222.5q-75 64 -209 37t-256 -123q-190 -149 -238.5 -353t10.5 -283q85 -115 258 -42.5t261 318.5q4 10 21 -10.5t8 -53.5q-15 -49 -76 -122.5
t-146 -144.5q-97 -81 -210.5 -141t-209.5 -60q-112 0 -169 88q-56 84 -15.5 214t133 265.5t214.5 256.5t230 186q127 77 241 119.5t205 55.5q4 2 5 3q264 44 317.5 -149.5t-39.5 -487.5q-54 -171 -156 -371t-225 -375q-11 -16 2 -19q102 -27 193.5 -73.5t139.5 -117.5
q22 -33 -57 -165t-137 -205q-21 -25 -28 -16t-3 23q24 105 -52.5 197.5t-211.5 160.5q-18 9 -31 -7q-145 -161 -294 -273q-261 -193 -496 -270.5t-393 -59.5q-270 33 -244 228zM22 -555q336 -94 721 210q115 100 223 242q9 13 -7 20q-168 73 -357 81.5t-319 -23.5t-217 -87
q-78 -50 -123 -116.5t-48 -115.5q-10 -149 127 -211z" />
    <glyph glyph-name="K" unicode="K" horiz-adv-x="2431" 
d="M948 37q24 54 112.5 209.5l182.5 334.5q97 186 166 351t42 217q-43 78 -135.5 119.5t-200.5 55.5q-123 15 -241.5 1t-181.5 -42q-180 -86 -218.5 -206t19.5 -218q65 -113 227.5 -121t319.5 191q29 38 33 -0.5t-20 -58.5q-187 -157 -348 -223t-278 -63q-108 3 -170 52
q-97 77 -55 237.5t280 337.5q101 79 262.5 144t348 87t380.5 -12t362 -151q23 -16 5 -47l-100 -175.5t-168 -312.5q-4 -9 0 -11.5t10 6.5q108 130 288.5 281t373.5 266q211 126 399 172.5t272 -59.5q45 -57 -55 -150.5t-186 -155.5q-52 -38 -41.5 -11.5t-19.5 64.5
q-54 66 -189.5 44.5t-284.5 -88.5q-132 -60 -247.5 -140.5t-168.5 -152.5q-40 -56 -6 -111q132 -189 297 -404t331 -338q216 -162 353.5 -140.5t269.5 137.5q28 26 44.5 0t-71.5 -77q-118 -66 -266 -186t-337 -101q-223 36 -411.5 257t-305.5 433.5t-129 269.5q-5 25 -16 2
q-81 -170 -121 -289.5t13 -113.5q23 2 62.5 14t47.5 11q41 -4 -8 -31t-133.5 -61.5t-177 -66.5t-137.5 -46q-17 -5 -53 14.5t-21 54.5z" />
    <glyph glyph-name="L" unicode="L" horiz-adv-x="1752" 
d="M1604 991q-13 -35 28 -15q137 65 226 169q47 54 62 161.5t-79 81.5q-78 -21 -146 -177.5t-91 -219.5zM1566 885q-50 -144 -106.5 -288.5t-148.5 -266.5q-10 -12 8 -29l181 -165.5t184 -153.5q103 -81 204 -136.5t194 -67.5q87 -10 160.5 -2t145.5 100q41 54 47 13
t-27 -64q-201 -137 -323.5 -210t-227.5 -70t-223.5 78.5t-242.5 188.5l-145 139.5l-145 149.5q-18 18 -36 4q-88 -66 -223.5 -113.5t-274.5 -56.5q-141 -9 -264 34t-185 162q-74 140 26 274t268 200q156 61 287 54q97 -6 193 -47t209 -116q19 -14 27 8l45.5 160.5
t49.5 163.5q6 18 -23 17q-151 -6 -240.5 32.5t-122.5 101.5q-63 115 47.5 263.5t349.5 202.5q44 9 41.5 -21.5t-62.5 -27.5q-141 5 -212.5 -120.5t-0.5 -236.5q60 -98 229 -133q19 -4 29 20q24 63 54 123q82 160 243.5 257t323.5 160q152 58 203 16.5t36 -128.5
q-22 -129 -171.5 -250.5t-353.5 -190.5q-20 -8 -27 -28zM973 228l-105.5 97.5t-146.5 115.5t-159.5 85t-144.5 9q-101 -36 -122.5 -109t11 -152t108 -147.5t169.5 -96.5q99 -30 207 6.5t193 155.5q11 14 -10 36z" />
    <glyph glyph-name="M" unicode="M" horiz-adv-x="2909" 
d="M2373 1329q33 15 152.5 54.5t184.5 51.5q25 4 35.5 -3.5t-4.5 -19.5q-87 -71 -225 -328q-67 -126 -134.5 -270t-121.5 -278q-12 -30 -6 -34t23 23q69 110 153.5 224t167.5 213q83 97 155.5 168t117.5 95q35 19 164 59t202 46q30 2 42.5 -7t-10.5 -27
q-135 -101 -237 -259.5t-161 -324.5q-60 -167 -75 -309.5t21 -201.5q41 -70 143.5 -4t179.5 182q24 38 35.5 26t-3.5 -41q-21 -40 -76 -111t-129.5 -142t-160.5 -125.5t-170 -62.5q-138 -12 -160.5 117.5t15.5 303.5q37 173 118.5 360t163.5 304q16 23 6 21t-19 -9
q-81 -65 -175 -176.5t-180 -241.5q-87 -131 -161 -280.5t-105 -258.5q0 -1 0.5 -1h0.5q1 -1 1 -2h-0.5h-0.5q-1 0 -2 -1v-0.5v-0.5v-0.5v-0.5q-1 0 -1 1h-1v0l-248.5 -104t-167.5 -42l126 311l136.5 328.5t142.5 311t107 198.5q26 39 11 39.5t-38 -15.5
q-76 -54 -204.5 -197.5t-245.5 -308.5q-117 -166 -210 -333t-139 -225q-30 -36 -131.5 -59t-217.5 -54q-55 -14 -43.5 13t53.5 86q93 133 196 329t181 367t129 306.5t28 165.5q-62 82 -192.5 120t-270.5 46q-140 7 -272.5 -24.5t-219.5 -97.5q-177 -135 -164.5 -273
t123.5 -216q110 -79 276.5 -69.5t305.5 162.5q34 38 35.5 0t-25.5 -57q-200 -144 -374 -201.5t-304 -49.5q-129 7 -225 85.5t-62 231.5q40 184 278 365q135 103 318 168t380 76q196 9 388.5 -42.5t347.5 -181.5q25 -22 -2 -74q-57 -110 -175 -312t-208 -402
q-13 -29 -8.5 -33.5t22.5 23.5q67 106 165.5 245t208.5 272q109 132 220 240t206 153z" />
    <glyph glyph-name="N" unicode="N" horiz-adv-x="2381" 
d="M2608 386q25 38 39 33t0 -49q-6 -19 -59.5 -85t-130.5 -140t-165 -136t-163 -74q-138 -21 -160.5 129t6.5 333q27 182 94.5 368t129.5 279q25 39 -10 17q-114 -72 -247 -223t-249 -310q-117 -159 -208 -312.5t-99 -186.5v0v0v0v0v-1v0v-1.5v-0.5q-43 -20 -150 -55
t-223 -65q-54 -14 -43 12t51 83q28 40 108 182l160 292q78 150 148.5 305.5t97.5 267.5q22 91 -6 130q-73 95 -230 147.5t-328 48.5q-112 -3 -227 -41t-191.5 -104.5t-93.5 -157.5t69 -200q94 -120 287 -129.5t343 161.5q32 36 42 9.5t-14 -44.5q-302 -234 -557.5 -251
t-356.5 100q-73 85 -58.5 181t76.5 183t151.5 156t165.5 102q162 69 339.5 90.5t304.5 9.5q181 -18 346 -67t267 -158q41 -45 17 -94q-49 -98 -151 -283t-189 -371q-5 -11 1 -12t9 4q90 122 205.5 257t231.5 257q129 134 240.5 234t171.5 130q28 13 121 37t184 41t148 18.5
t15 -28.5q-90 -63 -221 -232t-231 -361q-63 -121 -95.5 -286t-6.5 -259q22 -84 96.5 -75t197.5 195z" />
    <glyph glyph-name="O" unicode="O" horiz-adv-x="1632" 
d="M231 198.5q-110 303.5 95 648.5q93 157 243.5 295.5t345.5 228.5q65 30 147 58t165 16q120 73 253 69q138 -3 258 -85.5t180 -218.5q77 -176 18 -417.5t-340 -496.5q-189 -197 -421 -292.5t-434 -99.5q-400 -9 -510 294.5zM787.5 136.5q114.5 -72.5 249.5 -71.5
q118 1 245 69.5t248 224.5q88 136 109 305t-28 313q-67 196 -208.5 277.5t-279.5 57.5q-130 -24 -223 -136.5t-84 -306.5q6 -149 91.5 -278t205.5 -130q120 0 228 146q15 20 28 -7t-9 -45q-84 -69 -219.5 -160t-266.5 -97q-167 -9 -236.5 135t-45.5 294q27 168 133 326
t220 240q31 22 29 27.5t-38 -10.5q-79 -36 -164 -93q-248 -168 -272 -431.5t99 -458.5q74 -118 188.5 -190.5z" />
    <glyph glyph-name="P" unicode="P" horiz-adv-x="1751" 
d="M550 -5q26 57 132 259l202 400q75 153 124.5 286t36.5 194q-12 24 60 50.5t151 44.5q22 5 18 12t-19 6q-180 -15 -349 -41.5t-280 -77.5q-164 -76 -183.5 -179.5t44.5 -155.5q50 -41 135 -30t177 111q41 30 41 -9t-31 -52q-170 -109 -306 -138t-210 1q-94 39 -62.5 156
t196.5 239t341.5 202.5t314.5 116.5q146 38 388 59t467 -3q224 -24 373 -106t108 -250q-37 -151 -200 -258t-371 -179t-421 -111.5t-351 -54.5q-15 -2 -22 -15q-68 -147 -100 -259.5t15 -107.5q24 3 63.5 14.5t47.5 10.5q41 -3 -8 -30t-133.5 -61t-177 -66l-138.5 -47
q-16 -5 -52.5 15t-20.5 54zM1099 546q207 6 386.5 55.5t303.5 123.5q123 73 178 159t14 164q-45 84 -174 130t-298 61q-49 5 -74 -37l-59.5 -105l-104.5 -192l-90.5 -170.5l-88.5 -176.5q-7 -12 7 -12z" />
    <glyph glyph-name="Q" unicode="Q" horiz-adv-x="1483" 
d="M465 -123q-13 20 21 38q86 49 133.5 64.5t141.5 42.5q222 67 348 131t236 195q159 191 163 412t-107 372q-77 103 -196.5 156.5t-251.5 36.5q-179 -23 -299 -146.5t-154 -297.5q-44 -227 44 -430q82 -193 254 -256.5t343 127.5q24 26 35.5 -8t-25.5 -59
q-114 -78 -283.5 -147.5t-326.5 -66.5q-114 2 -207 58.5t-137 191.5q-63 192 6 389t213 364q168 194 398 321.5t431 130.5q214 4 352.5 -71.5t196.5 -201.5q57 -127 29.5 -290t-144.5 -334q-135 -198 -302.5 -327.5t-373.5 -243.5q-43 -25 -2 -30q103 -17 241.5 -101
l288.5 -177q225 -138 446 -208t359 131q25 38 39.5 8.5t-35.5 -73.5q-379 -324 -694 -304q-90 6 -198 62t-221 133q-120 82 -237 171t-213 149q-69 44 -119 66t-129 9q-51 -7 -64 13z" />
    <glyph glyph-name="R" unicode="R" horiz-adv-x="2053" 
d="M554.5 -19.5q3.5 48.5 34.5 102.5l137 251.5l133 261.5q79 163 129 291.5t40 171.5q-9 39 59 75.5t146 62.5q23 8 13.5 11.5t-24.5 3.5q-520 -28 -724 -145q-138 -78 -138 -166.5t74 -130.5q60 -36 149.5 -18.5t182.5 107.5q37 36 39 -5t-29 -59q-326 -193 -481 -185
q-102 6 -122.5 77.5t33.5 162.5q99 162 303.5 295.5t454.5 211.5q175 55 357.5 79t352.5 22q378 -5 605 -113q107 -51 152.5 -121.5t4.5 -152.5q-52 -104 -175 -189t-280 -151q-148 -62 -311 -105t-311 -66q-34 -7 -8 -37q108 -135 289 -312t299 -251q239 -151 381 -135
t282 132q30 26 47 0.5t-76 -76.5q-78 -42 -168.5 -111t-195.5 -120q-88 -42 -186.5 -55.5t-209.5 26.5q-111 41 -251.5 185t-257.5 304q-79 108 -137 207.5t-79 163.5q-9 24 -15 32t-20 -20q-57 -116 -92 -211t-25 -150q3 -23 -21 -31q-53 -18 -147.5 -58.5t-196.5 -99.5
q-20 -11 -16.5 37.5zM1136 609q91 -2 178 13q181 27 327 85q168 66 249 150t56 150q-42 108 -199 159.5t-280 51.5q-48 0 -57 -4t-21 -48q-23 -81 -99.5 -223l-157.5 -295q-19 -39 4 -39z" />
    <glyph glyph-name="S" unicode="S" horiz-adv-x="1802" 
d="M165 212q-21 154 204 301.5t552 138.5q42 -1 35 -36.5t-45 -23.5q-277 39 -384.5 -95.5t-12.5 -294.5q82 -97 206 -130t279.5 -32t307.5 49.5t246 148.5q119 127 73.5 238t-193.5 186q-149 73 -370 99t-453 -17q-39 -8 -37.5 48t59.5 145q57 89 176.5 195.5t316.5 199.5
q149 71 368.5 102.5t397.5 17.5t260 -77t-43 -180q-64 -60 -159.5 -113.5t-137.5 -69.5q-14 -6 -20.5 1t-1.5 11q103 95 20.5 140t-241.5 54q-159 8 -342.5 -13.5t-282.5 -60.5q-90 -36 -121 -76t72 -24q207 32 436 4t389 -112q159 -86 204.5 -228t-113.5 -339
q-187 -231 -461 -332t-531 -106q-258 -5 -447 72t-206 209z" />
    <glyph glyph-name="T" unicode="T" horiz-adv-x="1564" 
d="M766 -47q21 48 101 194.5l164 315.5t146 324t47 222q-13 25 71 60q72 30 164 45q57 7 -9 30l-236.5 81.5t-272.5 78.5t-266 36t-215 -44q-142 -79 -128 -186.5t107 -179.5t227.5 -75.5t233.5 127.5q28 38 36 5t-17 -54q-153 -104 -273 -152t-208 -54q-170 -12 -230 105
q-53 103 11 256t243 252q333 183 565.5 168.5t567.5 -105.5q360 -108 586 -139t430 31q60 21 125.5 46.5t120.5 66.5q79 60 82.5 21.5t-89.5 -77.5q-301 -129 -496 -195t-326 -88q-132 -23 -221 -13t-179 34q-25 5 -39 -17q-39 -64 -130.5 -233t-174.5 -344
q-84 -176 -129.5 -309.5t6.5 -127.5q21 2 59 13t45 10q39 -3 -7.5 -29t-126 -58.5t-166.5 -63.5t-130 -45q-15 -4 -49.5 15t-19.5 52z" />
    <glyph glyph-name="U" unicode="U" horiz-adv-x="1906" 
d="M755.5 70.5q-36.5 149.5 151.5 455.5l202.5 333t137.5 273q25 84 -29.5 138t-148 72t-204.5 -2.5t-197 -83.5q-128 -94 -165.5 -218.5t24.5 -193.5q51 -57 181 -41.5t204 137.5q24 41 33.5 4t-10.5 -57q-51 -50 -174.5 -130t-253.5 -114q-207 -54 -260.5 42t20.5 245
q58 114 188.5 234t321.5 199q380 156 598.5 72.5t149.5 -264.5q-26 -68 -94 -178l-145 -232.5t-145.5 -242.5t-94.5 -207q-52 -172 38 -172.5t205 92.5q94 76 192.5 191t191.5 247q103 148 190 301.5t141 279.5l0.5 -0.5l0.5 -0.5q31 81 149.5 101.5t204.5 48.5
q151 48 112 5q-94 -102 -215 -292t-222 -387q-124 -243 -175.5 -403t50.5 -153q69 4 150.5 79t99.5 84q27 16 24 -2t-30 -54q-72 -90 -167.5 -182.5t-228.5 -167.5q-102 -39 -155.5 -4.5t-58 113.5t25.5 181t64 180q34 81 83 188q20 44 16 54t-37 -32l-141 -182.5
t-199.5 -234t-223.5 -199t-213 -77.5q-126 8 -162.5 157.5z" />
    <glyph glyph-name="V" unicode="V" horiz-adv-x="1593" 
d="M857 -167q84 85 168 302.5t124 457t13.5 444.5t-162.5 263q-99 42 -207.5 12t-188 -101t-112 -167t21.5 -187q41 -72 189.5 -61t232.5 196q21 17 35 -15.5t-11 -56.5q-137 -127 -262.5 -190t-222.5 -73q-174 -18 -225 107t117 328q112 135 323.5 236.5t413.5 121.5
q252 24 339.5 -99t78.5 -305q-9 -177 -75 -369.5t-125 -321.5q-15 -33 0 -26t25 24q109 179 184.5 330.5l144.5 277.5q85 155 184.5 268t266.5 182q36 15 229.5 62.5t289.5 59.5q31 3 35.5 -15t-12.5 -16q-74 3 -208.5 -72.5t-293 -210.5t-321 -319t-291.5 -397
q-99 -163 -169.5 -312.5l-116.5 -254.5q-9 -19 -169 -61t-218 -69q-12 -5 -27 3.5t2 23.5z" />
    <glyph glyph-name="W" unicode="W" horiz-adv-x="2096" 
d="M654 -152q105 87 195 221.5t154 282.5t95.5 291t19.5 245q-23 183 -142.5 269t-266.5 89q-126 2 -261.5 -57t-193.5 -178q-60 -121 -12 -241.5t166 -147.5q101 -24 227 21.5t198 162.5q15 34 39 2t-18 -65q-117 -94 -282.5 -184.5t-320.5 -79.5q-150 10 -198 130t42 305
q31 64 117.5 155.5t205.5 177t260 147.5t283 69q320 14 387 -204.5t-18 -480.5l-51.5 -152t-62.5 -156q-6 -12 -1.5 -13t10.5 10l136.5 232.5t180.5 271.5q100 135 209.5 247t211.5 151q23 9 88 27.5t128.5 32.5t105 17.5t19.5 -16.5q-60 -30 -141.5 -163t-160.5 -308
q-63 -137 -105 -253t-76 -241q-4 -13 1 -13t10 9q150 251 386.5 534.5t412.5 409.5t309 159q242 47 328 -88q15 -26 -1.5 -53.5t-100.5 -117.5t-111 -109t-23 17q-23 149 -209 108t-356 -196q-157 -142 -280.5 -302t-159.5 -215q-106 -161 -174.5 -303.5t-93.5 -256.5
q-29 -23 -123 -65t-169.5 -67.5t-114.5 -42t11 65.5q59 110 151 410l186 615q18 31 -14 8q-65 -42 -155.5 -178.5t-168.5 -285.5q-81 -152 -158.5 -313t-95.5 -189q-20 -30 -104.5 -67.5t-172.5 -66t-148 -39t-29 14.5z" />
    <glyph glyph-name="X" unicode="X" horiz-adv-x="1877" 
d="M64 -266q114 63 236 152q282 204 539.5 438.5t343.5 326.5q23 24 14 77q-18 91 -29 202.5t-38 198.5q-30 89 -110.5 128.5t-233.5 -1.5q-181 -56 -234 -197t56 -270q70 -79 187.5 -72.5t192.5 159.5q11 23 35 -8.5t-17 -71.5q-47 -46 -179.5 -123t-300.5 -79
q-178 0 -223.5 114.5t46.5 265.5q101 159 313 278.5t401 127t270 -52.5t103 -168q6 -38 19 -140q3 -31 7.5 -42t32.5 20q147 163 309.5 306t312.5 229q148 85 269 95t186 -91q15 -26 -13 -72.5t-70 -89.5t-83 -69.5t-51 -10.5q-61 90 -198.5 75t-247.5 -87
q-105 -69 -208.5 -174.5t-197.5 -225.5q-29 -36 -23 -76q8 -65 23.5 -174.5t50.5 -213.5t95 -179t158 -72q60 1 133 38t160 131q40 45 45.5 17t-38.5 -73q-69 -93 -222 -227t-321 -124q-155 10 -230 199t-111 417q-5 29 -25 4q-343 -353 -500.5 -549.5l-191.5 -241.5
q-13 -9 -89.5 -26t-165.5 -31.5t-165.5 -23t-90.5 -2.5q-18 11 69 59z" />
    <glyph glyph-name="Y" unicode="Y" horiz-adv-x="1921" 
d="M354 -289q34 78 106 136.5t276 150.5q30 12 39 -10t-21 -29q-78 -16 -103 -92.5t-3.5 -163t86.5 -157t166 -76.5q138 -6 297 128q117 99 201.5 244.5t153.5 310.5l81 195l105 238q9 22 -1.5 30.5t-18.5 -2.5l-125 -154.5t-181 -197.5t-202.5 -166t-188.5 -60
q-100 10 -119 152t144 457l140 272t100 220q35 99 -22 152t-235 53q-80 0 -163 -23.5t-148 -71.5q-125 -92 -142 -209.5t23 -176.5q51 -75 159.5 -60t198.5 127q30 30 41 9.5t-30 -59.5q-117 -105 -244 -181t-289 -62q-107 13 -128 99.5t27.5 200t173.5 230.5t318 194
q278 98 531.5 46.5t200.5 -231.5q-51 -131 -188.5 -365t-188.5 -404q-28 -93 -5 -157.5t160 56.5q228 201 402 435q191 258 301 540q31 81 140 86t194 32q144 45 109 5q-194 -217 -320.5 -473t-219.5 -474q-139 -327 -340 -552t-397 -369q-171 -124 -318 -170.5t-260 -36.5
q-176 16 -253 133.5t-20 250.5z" />
    <glyph glyph-name="Z" unicode="Z" horiz-adv-x="1638" 
d="M-50 7q44 59 141 111.5t208 84.5t182 62q202 92 387.5 203t340.5 222q154 110 269.5 211.5t178.5 174.5q30 37 -13 36q-105 -1 -206 13.5t-195 33.5q-109 22 -217 39.5t-212 11.5q-104 -7 -201.5 -47t-186.5 -133q-22 -24 -46 -4.5t4 40.5l306.5 231.5t314.5 162.5
q225 42 460.5 -4.5t437.5 -75.5q76 -12 196 -17t189 48q30 23 35.5 0.5t-7.5 -31.5l-441 -314.5l-478 -336.5l-317 -225.5l-303 -223.5q-38 -30 -31 -39.5t52 -14.5q198 -21 340 -89t467 -287q195 -143 388 -227.5t402 -80.5q214 14 419 199q43 24 40 -16t-28 -47
q-206 -142 -418.5 -259.5t-466.5 -105.5q-201 10 -366 102t-320 210l-404 295.5t-476 166.5q-117 10 -227 -22t-169 -103q-22 -30 -39 -10.5t10 55.5z" />
    <glyph glyph-name="bracketleft" unicode="[" horiz-adv-x="1199" 
d="M-86.5 110.5q10.5 40.5 65.5 61.5q40 -6 86 26.5t91 85.5q54 66 80 144q48 145 94 260q49 123 99 219t90 134q26 23 104 56.5t163.5 62.5t155 47t78.5 11q6 -6 -12.5 -17.5t-28.5 -19.5q-66 -54 -142 -155t-150 -223q-71 -117 -134.5 -239.5t-112.5 -248.5
q-7 -16 -0.5 -19t17.5 12l114.5 161.5t136.5 138.5q220 141 277.5 127.5t21.5 -62.5q-138 -188 -155 -434q-15 -215 72.5 -289.5t190.5 -69.5q134 7 257.5 130t189.5 285q26 64 26.5 60.5t33.5 -93.5q22 -65 -35.5 -147t-161 -152.5t-235 -117.5t-254.5 -43
q-105 4 -198.5 59.5t-129.5 168.5q-45 140 -5 258t77 196q10 21 -3.5 16t-34.5 -30q-11 -13 -47.5 -65l-80 -112t-85.5 -112.5t-64 -65.5q-106 -66 -228 -113q-19 -6 1 82q12 58 35 136q7 32 -15 7q-54 -60 -106 -101t-97 -50q-52 -6 -41.5 34.5z" />
    <glyph glyph-name="backslash" unicode="\" horiz-adv-x="832" 
d="M881 -211h-202l-726 1694h205z" />
    <glyph glyph-name="bracketright" unicode="]" horiz-adv-x="1181" 
d="M-97.5 107q10.5 40 65.5 61q69 -9 153.5 93t140.5 207l41 119t49 133q38 98 76 172.5t73 107.5q22 20 87 51t143 61q102 41 193.5 69.5t101.5 20.5q6 -6 -12.5 -17.5t-28.5 -20.5q-105 -84 -233.5 -282t-225.5 -396q-13 -27 -1.5 -22.5t24.5 16.5q67 61 151 120
q181 128 297 137q72 5 86 -41t-38 -118q-61 -83 -158 -132.5t-146 -67.5q-15 -8 -13 -20q3 -218 67.5 -341.5t250.5 -129.5q76 -2 159.5 40.5t158.5 114.5q103 100 183 258q36 63 35 60t21 -93q16 -70 -63.5 -159t-206.5 -161q-109 -63 -235 -102.5t-240 -36.5
q-197 2 -290 142q-75 156 -62 322q1 39 29 54q86 49 120.5 83t37.5 59q3 36 -37.5 20t-82.5 -50q-72 -59 -119 -153.5t-63 -145.5q-13 -36 -37 -48q-38 -20 -97 -54.5t-122 -58.5q-18 -6 -14 23.5t19 74.5l27.5 88.5l30.5 98.5q11 35 -11 8q-63 -75 -126.5 -132t-116.5 -66
q-52 -6 -41.5 34z" />
    <glyph glyph-name="asciicircum" unicode="^" horiz-adv-x="1191" 
d="M-91.5 102.5q8.5 40.5 62.5 61.5q69 -3 145.5 77t124.5 185q15 34 12.5 37t15.5 20q48 46 177 108t145 47q9 -9 -6.5 -32.5t-21.5 -33.5q-42 -62 -63 -97.5t-57 -135.5q-11 -30 -1 -21.5t19 22.5l97.5 130.5t117.5 118.5q192 132 278.5 123t44.5 -47q-93 -98 -137 -232
t-42 -267q1 -122 57.5 -218t199.5 -89q135 7 256.5 134t187.5 289q27 64 27.5 60.5t32.5 -93.5q22 -65 -32 -145.5t-153 -149.5t-226.5 -114.5t-250.5 -41.5q-166 6 -254 89.5t-109 198.5q-41 224 115 414q21 30 -9 12t-38 -25q-63 -54 -130 -181.5t-111 -175.5
q-48 -52 -134 -96.5t-151 -56.5q-15 -2 -15 8t24 52q24 47 44 105l33 98q3 9 5 21.5t-11 -4.5q-58 -74 -116.5 -126.5t-109.5 -62.5q-52 -6 -43.5 34.5z" />
    <glyph glyph-name="underscore" unicode="_" horiz-adv-x="1453" 
d="M-80.5 107.5q10.5 41.5 67.5 63.5q45 -6 98.5 40t101.5 108q67 174 221 312q117 102 243 129q86 18 117.5 -34t44.5 -151q1 -18 16 -10q36 19 117 57t67 -1q-102 -144 -146 -305l-91 -324q-6 -18 10 -23q105 -28 224 -50t230 -23q138 0 249 42.5t156 155.5q15 38 21 14.5
t-18 -76.5q-22 -46 -68.5 -102.5t-84.5 -89.5q-80 -66 -171 -91.5t-182 -25.5q-132 2 -248.5 37.5t-176.5 57.5q-19 8 -28 -11q-118 -209 -350 -367q-189 -128 -314 -120q-84 6 -112 74t5 167q43 120 157 239q69 70 175.5 134t283.5 64q19 2 24 17q10 36 17 73.5t16 75.5
q16 80 36 146q6 26 -10 10q-27 -39 -76.5 -97t-106.5 -110q-53 -48 -106.5 -80.5t-97.5 -30.5q-58 -1 -77.5 55.5t-2.5 138.5q3 29 -15 9q-46 -48 -90 -86.5t-83 -45.5q-53 -7 -42.5 34.5zM511.5 259q40.5 26 131.5 163q49 84 64 172q13 123 -40.5 93.5t-99.5 -122.5
q-43 -86 -71.5 -169.5t-26.5 -123t42.5 -13.5zM502 -117q-137 21 -249 -14q-149 -45 -185 -152q-40 -112 1 -198q38 -81 119 -85q79 -3 138.5 65t92.5 129q27 53 50 112.5l45 120.5q8 20 -12 22z" />
    <glyph glyph-name="grave" unicode="`" horiz-adv-x="835" 
d="M400 331q-36 -240 52 -325t188 -89q133 -3 275.5 124t224.5 289q36 63 35.5 60t20.5 -93q14 -60 -46 -134.5t-161 -142.5q-120 -78 -272 -132.5t-285 -50.5q-100 3 -181.5 59t-112.5 160q-20 62 -10 130q4 25 -15 9q-101 -108 -169 -120q-53 -6 -37.5 34t72.5 61
q42 -6 85.5 30.5t97.5 95.5q59 153 227 296q74 63 157 103t161 37q90 -13 73 -71.5t-88 -125.5q-125 -118 -271 -179q-19 -9 -21 -25zM410 414q-2 -14 8 -7q47 28 79 61q25 25 41.5 59.5t-1.5 67.5q-11 19 -32.5 3.5t-42.5 -51.5q-44 -73 -52 -133z" />
    <glyph glyph-name="a" unicode="a" horiz-adv-x="758" 
d="M462 346q38 9 91 96.5t68 125.5q52 133 -1 141q-44 5 -81.5 -53t-67.5 -141q-26 -75 -30 -125t21 -44zM-91 110q10 37 63 60q60 -10 150 82q35 36 57 81q51 110 157 243q93 108 185 163.5t158 48.5q105 -12 93 -199q-3 -22 74 20t57 5q-50 -77 -92.5 -168t-33.5 -165
q18 -57 85 -23q35 17 116 122q32 38 43.5 24.5t-56.5 -98.5q-99 -134 -194.5 -235t-183.5 -84q-66 15 -73.5 115.5t41.5 246.5q9 28 1 24.5t-15 -11.5q-76 -91 -135.5 -177.5t-95.5 -123.5q-60 -62 -116 -61q-100 7 -65 184q4 22 -12 6q-48 -48 -90 -81t-86 -34
q-42 -2 -32 35z" />
    <glyph glyph-name="b" unicode="b" horiz-adv-x="851" 
d="M-94.5 110.5q10.5 40.5 65.5 61.5q45 -7 96 33t99 102q18 22 24 60q16 105 49 217.5t74 210.5q41 97 86.5 168.5t87.5 96.5q31 18 106.5 49t153.5 58.5t137 43.5t57 4q-4 -17 -54 -57q-24 -19 -82.5 -92.5t-126.5 -175.5q-69 -103 -134 -224.5t-102 -235.5q-3 -10 9.5 -7
t22.5 14q121 146 261 234t282 54q145 -45 -12 -279q-117 -168 -297 -318.5t-317 -141.5q-108 -5 -163.5 64.5t-50.5 183.5q0 23 -18 3q-56 -63 -110 -107.5t-102 -53.5q-52 -6 -41.5 34.5zM457 77q20 -44 65 9t91 139t82 174t39 115q6 67 -41.5 42t-131.5 -119
q-82 -92 -108 -193.5t4 -166.5z" />
    <glyph glyph-name="c" unicode="c" horiz-adv-x="597" 
d="M-84 108.5q11 41.5 63 61.5q69 -6 163 114q7 8 17 36q42 126 180 258q93 82 213 132q64 27 135 30.5t130 -28.5q26 -15 22 -23.5t-18 -35.5q-37 -69 -114 -170.5t-101 -73.5q-12 13 33.5 98t26.5 140q-60 67 -153 -58q-90 -128 -71.5 -263.5t100.5 -152.5
q73 -10 162.5 72.5t135.5 172.5q28 38 32 12t-11 -52q-74 -123 -238 -266t-322 -131q-79 6 -120.5 63.5t-38.5 163.5q0 18 -11 6q-110 -130 -175 -139q-51 -8 -40 33.5z" />
    <glyph glyph-name="d" unicode="d" horiz-adv-x="744" 
d="M428 408q-10 -39 -10.5 -68t16.5 -26q27 3 104 114q40 59 52 107q12 45 6 58q-18 34 -63 -2q-44 -35 -68 -83.5t-37 -99.5zM-83.5 112.5q17.5 41.5 63.5 57.5q26 -3 85 32.5t96 96.5q24 39 43.5 83t57.5 94q70 92 153 136t202 61q14 1 18 13q25 77 54 139t59 92
q24 23 99 56t157.5 61.5t150.5 46t77 10.5q7 -6 -10.5 -17.5t-26.5 -19.5q-51 -43 -104.5 -111.5t-103.5 -148.5q-60 -93 -109 -191.5t-79 -178.5q-9 -21 -25.5 -92.5t14.5 -90.5q56 -19 163 121q46 59 62.5 48t-44.5 -93q-41 -62 -162 -203t-213 -127q-58 10 -74 103
t28 252q10 37 -16 6q-39 -44 -73.5 -94l-63.5 -94q-28 -42 -73.5 -103t-104.5 -55q-99 8 -80 186q1 25 -14 10q-49 -57 -94.5 -90t-78.5 -34q-51 -3 -33.5 38.5z" />
    <glyph glyph-name="e" unicode="e" horiz-adv-x="517" 
d="M-83 116q22 45 64 54q78 -4 181 109q13 14 29 48q35 81 93.5 168.5t169.5 177.5t232 90q82 -10 82.5 -59.5t-47.5 -111.5t-127 -122t-155 -91q-13 -5 -14 -24q5 -56 29 -93.5t81.5 -33t114 54t109.5 132.5q21 29 33.5 14.5t-8.5 -42.5q-81 -149 -223.5 -276t-278.5 -113
q-57 0 -94.5 45.5t-37.5 153.5q3 22 -12 7q-51 -53 -98.5 -91t-91.5 -39q-53 -3 -31 42zM432 424q67 46 97 108q19 36 20 76t-38 34q-30 -9 -47.5 -41t-24.5 -54q-19 -58 -17 -118q0 -13 10 -5z" />
    <glyph glyph-name="f" unicode="f" horiz-adv-x="669" 
d="M-70 -527.5q3 55.5 13 102.5q15 64 42.5 144l58.5 167l66 175.5t76 179.5q3 8 -0.5 11.5t-9.5 -3.5q-74 -90 -131.5 -132.5t-101.5 -42.5q-45 -1 -29 39t51 58q106 27 176.5 106.5t151.5 223.5q11 22 -7 22q-30 -1 -55 -1q-21 -2 2 29q17 22 68.5 61.5t59.5 57.5l104 236
t97 182q22 25 101 60.5t166.5 67t160 50.5t81.5 12q6 -6 -11 -18t-28 -19q-78 -53 -189 -195q-110 -136 -228 -330q-15 -21 14 -21q93 3 177 3t159 6q28 2 74 3.5t-47 -39.5q-29 -12 -132.5 -78t-208.5 -71q-13 -2 4 -26q71 -103 49 -256q-16 -117 -80.5 -238.5
t-151.5 -230.5q-121 -151 -257.5 -252t-220.5 -100q-67 1 -64 56.5zM276 -213q33 -39 120.5 29t157.5 191q45 81 66.5 176t1.5 173q-27 99 -121 131q-14 4 -27 -18q-48 -91 -94 -198.5t-81 -215.5q-25 -78 -36.5 -150t13.5 -118z" />
    <glyph glyph-name="g" unicode="g" horiz-adv-x="792" 
d="M-166 -506.5q8 148.5 174 298t519 200.5q19 3 25 24l30 149t37 148q9 34 -10 9q-25 -35 -70 -87.5t-97 -102.5q-56 -53 -114.5 -91t-106.5 -37q-59 1 -77 57.5t0 140.5q5 26 -16 3q-46 -49 -90 -86.5t-83 -43.5q-53 -9 -43.5 32.5t66.5 62.5q41 -6 90.5 35.5t94.5 96.5
q18 21 32 51.5t28 55.5q43 78 78.5 123.5t98.5 100.5q115 102 243 129q85 18 117 -34t44 -151q3 -16 16 -9q36 18 121.5 54.5t62.5 0.5q-96 -150 -141 -291.5t-87 -303.5q-49 -187 -171 -359t-310 -279q-197 -114 -333 -79.5t-128 183zM55 -591q63 -53 181 0q99 57 150 136
t91 191q21 53 47 163q7 29 -17 30q-200 2 -330 -99t-157 -228q-28 -140 35 -193zM472 250q35 -14 169 171q18 26 48 141.5t-12 129.5q-21 7 -55.5 -29.5t-63.5 -95.5q-53 -107 -83 -207t-3 -110z" />
    <glyph glyph-name="h" unicode="h" horiz-adv-x="909" 
d="M-92.5 107q10.5 42 64.5 63q50 -7 107 41t108 120q20 29 33 67q48 149 104 288q49 123 98.5 219.5t90.5 132.5q43 39 206 97.5t248 77.5q55 12 44 -0.5t-38 -33.5q-66 -54 -142.5 -155t-150.5 -223q-71 -117 -134 -239.5t-113 -248.5q-6 -17 0 -19.5t18 12.5l114.5 161.5
t135.5 138.5q221 140 279 126.5t21 -61.5q-59 -76 -81 -166.5t-20 -158.5q2 -69 28.5 -103t73.5 1q28 22 77.5 79.5t56.5 45.5q24 -15 -36.5 -89.5t-128.5 -136.5t-155.5 -111t-182.5 -43q-44 5 -57 59t-6 114q6 60 27.5 127t47.5 121q38 81 29 88t-39 -30
q-11 -13 -47.5 -67l-81 -116l-87 -116t-64.5 -67q-109 -68 -227 -112q-19 -7 1 81q12 58 38 153q9 28 -8 9q-56 -63 -110 -107.5t-101 -51.5q-51 -9 -40.5 33z" />
    <glyph glyph-name="i" unicode="i" horiz-adv-x="397" 
d="M419 681q-71 6 -39.5 60t103.5 111q87 69 167 96q75 24 50.5 -76.5t-126.5 -149.5q-30 -15 -74.5 -30t-80.5 -11zM-90.5 113.5q10.5 40.5 65.5 61.5q67 -9 141 73q45 46 61 90q19 54 41 96t37 67q31 51 159.5 95.5t152.5 14.5q6 -9 -11 -19.5t-29 -22.5q-42 -42 -76 -110
t-43 -130.5t3 -88.5t59 -10q39 11 146 144q20 21 26 3t-74.5 -121t-159 -180.5t-171.5 -77.5q-93 4 -101 104q-1 52 6 99q2 20 -13 5q-106 -113 -178 -126q-52 -7 -41.5 33.5z" />
    <glyph glyph-name="j" unicode="j" horiz-adv-x="399" 
d="M418 750q-79 6 -38.5 56.5t120.5 98.5q63 37 127 59q77 24 64.5 -50t-117.5 -123q-30 -15 -75 -29.5t-81 -11.5zM-228 -611q-53 -9 -65 23.5t36 24.5q57 -8 104 12q87 60 144 164.5t96 224.5q33 106 55.5 211l40.5 190q5 24 -11 7q-59 -66 -110.5 -110.5t-99.5 -53.5
q-52 -7 -47 32t61 60q52 -8 116 48t119 135q28 101 53 148q31 63 154 119.5t188 74.5q33 8 12 -16.5l-31 -36.5q-69 -82 -110.5 -235t-91.5 -301q-29 -89 -61.5 -173t-73.5 -161q-68 -123 -199 -242.5t-279 -144.5z" />
    <glyph glyph-name="k" unicode="k" horiz-adv-x="849" 
d="M-98.5 107q10.5 42 64.5 63q65 2 148 83.5t137 193.5q32 72 54 148t49 144q38 98 76 172.5t73 106.5q22 21 87 52t142 61q102 40 194 69t102 21q6 -7 -12.5 -18.5t-28.5 -19.5q-62 -51 -134.5 -145t-143.5 -208q-97 -155 -181 -325q-13 -27 -2 -23t25 16q63 59 150 121
q197 138 313 137q63 -1 73 -46t-40 -113q-61 -83 -163 -133.5t-151 -68.5q-20 -7 -1 -46q35 -90 87 -111q74 -26 135 14.5t113 121.5q29 49 45 40.5t-10 -47.5q-63 -105 -193 -243.5t-229 -128.5q-88 3 -132 104t-40 192q1 39 28 54q87 49 121.5 83t37.5 59q3 36 -37.5 20
t-82.5 -50q-72 -59 -120.5 -159t-64.5 -151q-13 -36 -36 -48q-39 -20 -98 -54.5t-122 -58.5q-26 -10 1 81l26.5 89.5l31.5 101.5q4 18 -10 1q-64 -78 -125 -127t-115 -58q-52 -9 -41.5 33z" />
    <glyph glyph-name="l" unicode="l" horiz-adv-x="431" 
d="M-94.5 108.5q10.5 40.5 65.5 61.5q52 -8 115 52.5t115 137.5q24 35 32 61.5t22 68.5q48 150 112 294q38 84 74 149t66 93q37 37 189.5 98.5t239.5 85.5q44 11 50.5 7t-32.5 -38q-66 -57 -144.5 -165t-166 -262t-128.5 -244.5t-60.5 -166t18.5 -87.5q70 -21 172 126
q42 63 59 52.5t-43 -93.5q-70 -98 -140.5 -178.5t-148.5 -129.5q-50 -31 -93 -31q-88 0 -91 96.5t9 162.5q6 34 -15 10q-60 -72 -122 -129t-113 -66q-52 -6 -41.5 34.5z" />
    <glyph glyph-name="m" unicode="m" horiz-adv-x="1250" 
d="M-91.5 110.5q10.5 41.5 65.5 62.5q59 -9 127.5 60t123.5 159q18 30 27 57.5t24 59.5q20 45 53 81q36 38 138 83t172 69q66 22 56 2.5t-28 -43.5q-43 -57 -83.5 -124.5t-73.5 -156.5q-25 -67 18 -9q39 54 88 109t103 93q97 66 169 96.5t114 36.5q104 14 45 -41
q-51 -48 -91.5 -119.5t-67.5 -148.5q-17 -49 15 -9q41 54 85 102t101 87q109 75 208 93q25 4 46 6q103 10 60 -31q-22 -21 -61.5 -87t-64.5 -139t-19 -134t65 -59q64 -7 163 144q17 27 30 12.5t-5 -39.5q-56 -92 -174.5 -235t-240.5 -155q-99 -8 -129 101.5t3 217.5
q22 74 44 118.5t35 65.5q21 38 -10 14q-87 -58 -130.5 -163t-56.5 -163q-6 -27 -6.5 -30.5t-23.5 -20.5q-60 -43 -130 -82t-106 -51q-25 -8 -26 2t-3 36q8 142 44 244q30 96 59.5 150.5t49.5 84.5q8 12 -7 7.5t-39 -27.5q-74 -69 -139.5 -196t-107.5 -161
q-61 -49 -147.5 -98.5t-162.5 -64.5q-16 -3 -15 8t26 58q35 66 57 126t37 111q7 29 -10 7q-66 -81 -131 -141t-121 -68q-52 -9 -41.5 32.5z" />
    <glyph glyph-name="n" unicode="n" horiz-adv-x="814" 
d="M683 625q97 66 167.5 93.5t112.5 30.5t53.5 -13t-8.5 -36q-141 -140 -167.5 -310t36.5 -157q43 7 88 62t64 82q16 21 28.5 8.5t-17.5 -51.5q-49 -72 -163.5 -197.5t-211.5 -136.5q-98 -7 -129 76t-6 176q24 87 67 160.5t68 109.5q21 30 2 21t-27 -16q-64 -54 -149 -195.5
t-130 -189.5q-49 -52 -135.5 -97t-151.5 -56q-16 -2 -15.5 7.5t24.5 52.5l53 102t43 94q3 9 5 21.5t-11 -4.5q-60 -74 -119.5 -126.5t-110.5 -62.5q-52 -6 -42.5 34.5t63.5 61.5q76 -1 156.5 92.5t120.5 199.5q17 45 23 50q36 35 128.5 84.5t154.5 70.5t55 6.5t-35 -47.5
q-51 -59 -122 -250q-11 -30 -1.5 -22t19.5 22l100.5 131t119.5 119z" />
    <glyph glyph-name="o" unicode="o" horiz-adv-x="689" 
d="M-96.5 109.5q10.5 40.5 65.5 61.5q59 -3 129 70t126 163q55 129 194 251t298 130q142 -4 147 -131.5t-42 -260.5q-61 -173 -185 -292q-138 -127 -268 -122q-92 5 -147 75t-39 194q2 20 -12 4q-60 -69 -117.5 -118t-107.5 -58q-52 -7 -41.5 33.5zM565 194q42 -5 98 78
q37 54 65.5 122.5t42.5 126.5q18 70 16.5 125t-33.5 55q-32 -2 -88 -62q-72 -73 -107 -171q-22 -63 -27 -108.5t-5 -64.5q-5 -96 38 -101z" />
    <glyph glyph-name="p" unicode="p" horiz-adv-x="903" 
d="M-88.5 111.5q10.5 40.5 65.5 61.5q71 -17 172 114t145 228t109 201q23 25 115.5 63.5t202 66.5t118.5 21q6 -6 -11.5 -17.5l-28.5 -18.5q-98 -67 -181 -174.5t-153 -228.5q-6 -9 -4 -15.5t10 3.5q117 154 247.5 239t269.5 45q131 -50 28 -273q-90 -187 -232 -327
t-349 -118q-76 13 -103 85q-7 23 -22 -12q-29 -70 -69 -209.5t-57 -204.5q-8 -29 -139 -104.5t-210 -98.5q-17 -5 -39.5 -6t3.5 19q59 47 131 178.5t141 289.5q41 93 78.5 188.5l68.5 179.5q3 7 -1.5 7.5t-7.5 -3.5q-66 -83 -133 -143t-123 -71q-52 -6 -41.5 34.5zM484 54
q40 1 91.5 73t104 189.5t56.5 179.5q5 67 -43.5 44t-131.5 -117q-127 -151 -134 -259.5t57 -109.5z" />
    <glyph glyph-name="q" unicode="q" horiz-adv-x="755" 
d="M487 215q32 -11 129 133q47 71 74.5 128.5t36.5 121.5q12 96 -29 103q-27 4 -64.5 -31t-63.5 -92q-59 -124 -85 -239q-5 -20 -12 -69t14 -55zM-93.5 110.5q10.5 40.5 65.5 61.5q52 -3 114 56t115 138q84 123 214 261.5t302 130.5q145 -7 131 -219q-2 -20 59 3.5t39 -10.5
q-8 -12 -64 -112t-116 -225q-75 -151 -121 -286t13 -143q40 -4 141 71q66 51 69.5 31t-53.5 -83l-99.5 -103t-150 -145.5t-151.5 -129t-105 -54.5q-52 3 -33 119t50 195l45 114.5t88 184.5l56.5 108.5l74.5 138.5q6 10 4 18.5t-20 -11.5q-57 -65 -146 -139.5t-172 -79.5
q-74 -3 -93 63t6 165q5 26 -10 8q-56 -64 -110 -108t-101 -53q-52 -6 -41.5 34.5z" />
    <glyph glyph-name="r" unicode="r" horiz-adv-x="574" 
d="M-105.5 108.5q10.5 40.5 65.5 61.5q54 -3 117 59t117 143q95 143 116 235q1 9 -8 7q-33 -10 -47 3t21 46q34 32 74 49q46 18 122 36.5t145 27.5t112 3t23 -35q-51 -51 -80.5 -97t-56.5 -99q-16 -31 -28 -91.5t-7.5 -114t30.5 -82.5t71.5 -1t117.5 128q26 40 37 24.5
t-28 -68.5q-96 -153 -184.5 -245t-186.5 -98q-82 -3 -111.5 88.5t12 221.5t163.5 271q44 36 15 48t-81 9q-14 -2 -21 -14q-34 -63 -81.5 -138t-101.5 -147q-75 -99 -152.5 -175.5t-142.5 -88.5q-52 -7 -41.5 33.5z" />
    <glyph glyph-name="s" unicode="s" horiz-adv-x="507" 
d="M-97.5 108.5q10.5 40.5 65.5 61.5q85 -4 198 145t156 257q39 93 133 146t182 92q105 44 107.5 30.5t-37.5 -50.5q-105 -100 -124 -167q-9 -105 1.5 -280.5t-48.5 -232t-164.5 -86.5t-168.5 -36q-80 -15 -95.5 12.5t49.5 33.5q96 21 126.5 77.5t30 160.5t-1.5 156
q0 19 -11 4q-75 -114 -180 -230.5t-177 -127.5q-52 -6 -41.5 34.5z" />
    <glyph glyph-name="t" unicode="t" horiz-adv-x="501" 
d="M-52 73q-53 -6 -42 34.5t65 61.5q44 -5 93.5 35.5t96.5 102.5q73 95 125 206l73 156.5t93 179.5q8 16 -10 16l-63 1q-44 2 -18 23q16 12 38 33.5t82 30.5q16 4 19 12q13 34 49 55q83 48 246.5 101t178.5 41q7 -6 -10.5 -17.5t-27.5 -19.5q-48 -37 -78 -65.5t-55 -67.5
q-14 -21 3 -20q312 25 472 41t204 22q15 5 15.5 -3.5t-14.5 -21.5q-84 -96 -170 -120.5t-298 -22.5q-204 -2 -267 -1q-23 0 -34 -20q-62 -102 -111.5 -200.5t-77.5 -166.5q-45 -112 -36.5 -171t47.5 -71q73 -20 173 133q20 28 25 11t-16 -49q-48 -82 -122 -165.5
t-144.5 -129.5t-148.5 -37q-69 5 -80.5 111t16.5 206q8 35 -11 8q-72 -93 -145.5 -166.5t-134.5 -85.5z" />
    <glyph glyph-name="u" unicode="u" horiz-adv-x="873" 
d="M-98.5 109.5q10.5 40.5 65.5 61.5q52 -8 112.5 46.5t113.5 131.5q18 27 28.5 51.5l23.5 54.5q47 109 84 145q27 27 132.5 66.5t168.5 45.5q71 6 13 -39q-62 -48 -141.5 -217t-64.5 -216q21 -41 96.5 56.5t155.5 220.5q22 34 37.5 61.5t51.5 48.5q112 61 271 95q29 6 44 1
t-10 -25q-68 -58 -113.5 -140t-62 -195.5t39.5 -122.5q58 -7 149 157q16 28 32 18.5t-20 -67.5q-72 -124 -167.5 -231t-194.5 -115q-105 -1 -127.5 94.5t15.5 257.5q4 25 -9 6q-51 -67 -138.5 -215t-186.5 -148q-79 2 -106 70t-8 184q3 26 -12 8q-60 -72 -120 -123.5
t-111 -60.5q-52 -6 -41.5 34.5z" />
    <glyph glyph-name="v" unicode="v" horiz-adv-x="598" 
d="M177.5 98.5q-16.5 85.5 -13.5 217.5q4 89 17.5 160t19.5 92q9 41 129.5 106.5t197.5 83.5q48 12 46.5 1.5t-25.5 -37.5q-33 -38 -68.5 -121t-61.5 -169q-23 -75 -35.5 -136.5t-14.5 -84.5q-5 -48 25 -28t73.5 74t91 125t78.5 125q66 116 87 211t-24 128q-30 21 -23.5 33
t47.5 37q78 46 171 57t8 -166q-51 -105 -145.5 -248t-187.5 -269l-132 -170t-169 -119q-75 12 -91.5 97.5z" />
    <glyph glyph-name="w" unicode="w" horiz-adv-x="1051" 
d="M172 76q-21 163 38 336.5t97 209.5q30 29 148 73t186 49q53 3 13 -37q-73 -71 -163.5 -230t-63.5 -226q19 -50 75.5 26t121.5 175l57 83.5t64 74.5q39 27 90.5 53t87.5 27q48 0 14 -33q-77 -72 -108 -224t-12 -216q22 -76 101.5 -7.5t153 193.5t110 262t-27.5 198
q-27 26 -22 36t47 36q78 47 151 65.5t31 -176.5q-10 -43 -79 -175.5t-166 -275.5t-205 -256.5t-194 -116.5q-52 -3 -85 37q-37 45 -38 121.5t17 153.5q11 52 -19 9l-90.5 -130t-84.5 -105q-62 -65 -135.5 -91t-109.5 81z" />
    <glyph glyph-name="x" unicode="x" horiz-adv-x="756" 
d="M-28 -147q33 48 139 161.5l236 245.5q14 15 16 38q1 57 8 99q17 117 -50.5 29t-154.5 -167q-59 -54 -66.5 -40t33.5 61q57 66 127.5 171.5t101.5 142.5q64 78 115 109t87 33q39 0 52 -21t12 -57q-6 -36 -12 -104q0 -24 21 -3l167.5 161t88.5 76q30 17 80.5 35t99.5 22
q58 3 56 -16t-31 -27q-39 -11 -158.5 -113l-293.5 -252q-20 -16 -16 -37q13 -73 50.5 -123t80.5 -53q84 -4 176 117q26 32 36.5 21.5t-4.5 -29.5q-107 -148 -215 -252.5t-232 -88.5q-52 3 -95 57.5t-55 124.5q-2 18 -15 7l-162.5 -169l-200.5 -203q-60 -57 -64.5 -39.5
t42.5 83.5z" />
    <glyph glyph-name="y" unicode="y" horiz-adv-x="836" 
d="M-89.5 109q10.5 40 65.5 61q55 -2 122.5 61.5t118.5 150.5q28 47 60.5 113.5t72.5 104.5q26 24 122.5 60.5t162.5 45.5q73 10 11 -38q-63 -50 -142.5 -193.5t-67.5 -212.5q8 -54 63.5 8.5t118.5 154.5l91 135t63 84q30 28 141.5 63t160.5 37q52 0 18 -33
q-78 -54 -147 -211t-120 -319q-73 -226 -150.5 -421.5t-322.5 -348.5q-73 -45 -174.5 -80t-186.5 -23q-87 13 -127 72.5t-28 140.5q13 81 81.5 171t198.5 164q174 97 420 130q10 2 13 13l21.5 84l21.5 86q24 101 47 169q5 16 0.5 20t-14.5 -11q-75 -104 -190 -228.5
t-198 -118.5q-65 3 -80.5 63t2.5 147q5 26 -13 6q-115 -126 -194 -141q-52 -6 -41.5 34zM521 -79q-153 10 -271 -49q-108 -47 -163.5 -139.5t-63.5 -179.5q-8 -75 20 -129t89 -57q103 2 184.5 89t127.5 200q29 61 48.5 123t35.5 128q3 13 -7 14z" />
    <glyph glyph-name="z" unicode="z" horiz-adv-x="665" 
d="M135.5 19q-75.5 41 38.5 161q63 68 147.5 130.5t141.5 100.5q33 23 9 32q-56 18 -105 6q-60 -15 -102 -61t-54 -65q-17 -24 -26 -11.5t30 69.5q31 45 71 112.5t94.5 122.5t126 80t166.5 -15q55 -24 91.5 -29.5t90.5 19.5q13 6 18.5 -4.5t-6.5 -30.5
q-104 -160 -279.5 -228t-273.5 -224q-21 -33 16 -6q54 39 115.5 57.5t114.5 19.5q109 0 146.5 -44t40.5 -98q6 -119 -116 -273t-182 -213q-42 -45 -172 -140.5t-232 -89.5q-66 5 -78.5 47t2.5 95.5t44.5 105.5t47.5 76q63 85 159.5 171t222.5 151q16 8 0 16q-54 29 -123 9.5
t-103 -77.5q-6 -13 -81.5 28zM483 0q-86 -25 -150.5 -72t-107.5 -103q-84 -104 -91 -202t62 -102q68 -4 155 79q89 90 127 185q41 109 20 203q-4 14 -15 12z" />
    <glyph glyph-name="braceleft" unicode="{" horiz-adv-x="804" 
d="M-100.5 107q10.5 40 65.5 61q60 -9 129.5 61t124.5 161q55 196 143 393q83 186 139 242q24 23 99 58t158 66.5t151 52t77 13.5q6 -6 -11 -17.5t-27 -19.5q-66 -58 -144 -165.5t-151 -233.5q-76 -128 -132 -250q-38 -81 -71 -185t-39 -201v0h1q-8 -111 32 -191.5
t166 -71.5q130 9 281 132.5t217 295.5q27 63 27 60t30 -93q31 -92 -100.5 -210.5t-311.5 -189t-350.5 -55.5t-217.5 192q-11 44 -11 95q-4 57 10 138q5 31 -13 10q-60 -72 -119.5 -122.5t-110.5 -59.5q-52 -6 -41.5 34z" />
    <glyph glyph-name="bar" unicode="|" horiz-adv-x="827" 
d="M-60 74q-52 -6 -41.5 34.5t65.5 61.5q69 -3 150.5 88.5t129.5 190.5q29 72 54.5 143t52.5 132q9 20 -13 22q-43 0 -59 2q-48 0 -26 27q15 16 51 50.5t108 40.5q11 1 21 15q25 41 47 60q24 23 95.5 56t149.5 61.5t142 46.5t73 11q6 -6 -11.5 -17.5t-27.5 -19.5
q-87 -68 -178 -197q-16 -21 8 -21q93 0 183 5t147 20q84 23 92 21t-61 -45q-79 -50 -195.5 -75t-233.5 -34q-26 -3 -39 -26q-62 -106 -114 -223t-76 -236q-59 -275 13 -358.5t205 -61.5t267 133.5t194 271.5q27 63 27 60t30 -93q33 -98 -133 -236t-328.5 -183.5t-307 -10.5
t-187 186t-13.5 299q6 28 -16 0q-58 -73 -123.5 -132t-121.5 -69z" />
    <glyph glyph-name="braceright" unicode="}" horiz-adv-x="1515" 
d="M-99.5 111q10.5 40 65.5 61q66 -9 143.5 76t133.5 187q26 99 78 154q37 39 141.5 86.5t174.5 67.5q73 20 53 4.5t-35 -38.5q-43 -64 -85.5 -141t-76.5 -175q-17 -46 12 -4q40 58 101 132.5t121 116.5q71 50 145.5 73.5t122.5 26.5q83 3 44 -34q-52 -49 -93 -122t-67 -151
q-3 -9 -4.5 -20.5t15.5 10.5q44 59 83.5 101t46.5 48q88 72 143 100.5t173 38.5q77 6 53 -18q-52 -50 -101 -143.5t-79 -200.5q-33 -123 -30 -240t67 -184q101 -106 288.5 -31.5t345.5 404.5q30 62 27.5 59t29.5 -92q30 -87 -78 -205.5t-277 -190.5q-166 -70 -330.5 -68.5
t-250.5 109.5q-49 61 -60 151t6 184q31 179 125 280q5 6 0 11t-7 4q-85 -61 -141.5 -169.5t-75.5 -174.5q-10 -36 -8.5 -39t-25.5 -23q-51 -37 -116.5 -75t-104.5 -55q-37 -14 -37 -7q-5 75 6 145.5t30 132.5q24 84 56.5 147t53.5 96q8 12 -7 7.5t-39 -27.5
q-74 -69 -139.5 -196t-107.5 -161q-60 -49 -147 -98.5t-163 -64.5q-16 -2 -15 8.5t27 57.5q62 120 93 237q8 28 -15 2q-65 -81 -128.5 -137.5t-118.5 -66.5q-52 -6 -41.5 34z" />
    <glyph glyph-name="asciitilde" unicode="~" horiz-adv-x="1028" 
d="M565 678q-20 -22 -53 -101t-49 -144t-0.5 -79t94.5 96q96 135 91 225.5t-83 2.5zM-97 108.5q12 40.5 68 61.5q103 -15 195 128q27 42 71 125t102 150q161 185 308.5 221.5t130.5 -197.5q-3 -22 74.5 19.5t56.5 5.5q-38 -62 -76.5 -140t-56.5 -159q-44 -155 2.5 -292
t220.5 -117q129 15 264 136.5t195 283.5q27 63 27 60.5t30 -92.5q25 -78 -60.5 -174.5t-220.5 -169.5q-100 -54 -212 -86.5t-212 -27.5q-127 -2 -201 81.5t-74 259.5q-1 108 31 188q10 28 -19 -3q-72 -81 -140 -180t-95 -126q-97 -97 -151 -52t-30 173q7 25 -8 10
q-107 -107 -180 -120q-52 -7 -40 33.5z" />
    <glyph glyph-name="dieresis" unicode="&#xa8;" horiz-adv-x="1024" 
 />
    <glyph glyph-name="copyright" unicode="&#xa9;" horiz-adv-x="750" 
 />
    <glyph glyph-name="registered" unicode="&#xae;" horiz-adv-x="750" 
 />
    <glyph glyph-name="acute" unicode="&#xb4;" horiz-adv-x="1024" 
 />
    <glyph glyph-name="paragraph" unicode="&#xb6;" horiz-adv-x="1024" 
d="M929 1435v-70h-127v-1365h-82v1365h-166v-1365h-84v738q-174 8 -275.5 102.5t-101.5 245.5q0 157 107.5 253t285.5 96h443z" />
    <glyph glyph-name="onequarter" unicode="&#xbc;" horiz-adv-x="1780" 
 />
    <glyph glyph-name="onehalf" unicode="&#xbd;" horiz-adv-x="1780" 
 />
    <glyph glyph-name="threequarters" unicode="&#xbe;" horiz-adv-x="1780" 
 />
    <glyph glyph-name="Agrave" unicode="&#xc0;" 
d="M-113 -149q-11 19 26 54q72 69 192 163.5t278 252.5q126 123 124.5 141t14.5 51q29 61 84 100.5t127 70.5q124 129 219 242.5t131 188.5q12 73 33 118.5t152 113t222 102t106 29.5q42 -16 10 -35q-60 -37 -100 -132.5t-60 -218.5q-29 -181 -16 -383q1 -33 21 -33
q142 -13 269.5 0t203.5 89q22 22 33 10t-7 -28q-244 -219 -453 -278q-29 -9 -18 -45q45 -135 112 -195q85 -63 175 -13.5t153 148.5q24 38 31.5 16.5t-9.5 -44.5q-111 -161 -244 -264t-267 -125q-138 -14 -213 110q-45 74 -77.5 182.5t-50.5 231.5q-6 32 -30 43l-140.5 62
t-133.5 32q-48 1 -80 -34l-261 -295q-225 -262 -261 -336q-39 -14 -115.5 -49t-151.5 -57q-18 -5 -29 14zM875 721q60 6 165 0q23 -2 22 30q-5 93 0 177q1 27 -17 9l-180 -190q-27 -30 10 -26zM1172 1718q-18 12 -57.5 68t-80 120t-70.5 118t-29 62q1 7 12 -4.5t17 -18.5
q41 -46 130 -102t196.5 -107.5t218 -90t193.5 -47.5q16 -6 40 -23t34 -35t-5.5 -33t-77.5 -17q-47 -1 -124 8.5t-155.5 25.5t-146 36.5t-95.5 39.5z" />
    <glyph glyph-name="Aacute" unicode="&#xc1;" 
d="M-113 -149q-11 19 26 54q72 69 192 163.5t278 252.5q126 123 124.5 141t14.5 51q29 61 84 100.5t127 70.5q124 129 219 242.5t131 188.5q12 73 33 118.5t152 113t222 102t106 29.5q42 -16 10 -35q-60 -37 -100 -132.5t-60 -218.5q-29 -181 -16 -383q1 -33 21 -33
q142 -13 269.5 0t203.5 89q22 22 33 10t-7 -28q-244 -219 -453 -278q-29 -9 -18 -45q45 -135 112 -195q85 -63 175 -13.5t153 148.5q24 38 31.5 16.5t-9.5 -44.5q-111 -161 -244 -264t-267 -125q-138 -14 -213 110q-45 74 -77.5 182.5t-50.5 231.5q-6 32 -30 43l-140.5 62
t-133.5 32q-48 1 -80 -34l-261 -295q-225 -262 -261 -336q-39 -14 -115.5 -49t-151.5 -57q-18 -5 -29 14zM875 721q60 6 165 0q23 -2 22 30q-5 93 0 177q1 27 -17 9l-180 -190q-27 -30 10 -26zM1772.5 1668.5q-67.5 -20.5 -146 -36.5t-155.5 -25.5t-124 -8.5q-62 2 -77.5 17
t-5.5 33t34 35t40 23q84 9 194 47.5t217.5 90t196.5 107.5t131 102q5 7 16 18.5t12 4.5q1 -8 -29 -62t-70 -118t-80 -120t-58 -68q-28 -19 -95.5 -39.5z" />
    <glyph glyph-name="uni1EA2" unicode="&#x1ea2;" 
d="M-113 -149q-11 19 26 54q72 69 192 163.5t278 252.5q126 123 124.5 141t14.5 51q29 61 84 100.5t127 70.5q124 129 219 242.5t131 188.5q12 73 33 118.5t152 113t222 102t106 29.5q42 -16 10 -35q-60 -37 -100 -132.5t-60 -218.5q-29 -181 -16 -383q1 -33 21 -33
q142 -13 269.5 0t203.5 89q22 22 33 10t-7 -28q-244 -219 -453 -278q-29 -9 -18 -45q45 -135 112 -195q85 -63 175 -13.5t153 148.5q24 38 31.5 16.5t-9.5 -44.5q-111 -161 -244 -264t-267 -125q-138 -14 -213 110q-45 74 -77.5 182.5t-50.5 231.5q-6 32 -30 43l-140.5 62
t-133.5 32q-48 1 -80 -34l-261 -295q-225 -262 -261 -336q-39 -14 -115.5 -49t-151.5 -57q-18 -5 -29 14zM875 721q60 6 165 0q23 -2 22 30q-5 93 0 177q1 27 -17 9l-180 -190q-27 -30 10 -26zM1292 1476q-24 35 13 94q12 20 37 40.5l50 39.5q66 46 108 85.5t65 73.5
q32 46 35.5 83t-4.5 68q-17 61 -74.5 74.5t-116.5 -20.5q-57 -34 -74 -81t-2 -77q19 -39 75 -37t99 80q12 23 17.5 9t-11.5 -35q-19 -25 -56.5 -56t-80.5 -55q-60 -35 -113 -40t-60 59q-6 60 57.5 137t159.5 125q37 19 88 33.5t99.5 14t86.5 -22t48 -73.5q11 -60 -22 -114.5
t-90 -104.5q-50 -42 -109.5 -80.5l-118.5 -73.5q-27 -17 9.5 -26t67.5 -6q13 1 9.5 -8.5t-29.5 -23.5q-21 -12 -40.5 -33.5t-36.5 -34.5q-62 -49 -86 -14z" />
    <glyph glyph-name="Atilde" unicode="&#xc3;" 
d="M-113 -149q-11 19 26 54q72 69 192 163.5t278 252.5q126 123 124.5 141t14.5 51q29 61 84 100.5t127 70.5q124 129 219 242.5t131 188.5q12 73 33 118.5t152 113t222 102t106 29.5q42 -16 10 -35q-60 -37 -100 -132.5t-60 -218.5q-29 -181 -16 -383q1 -33 21 -33
q142 -13 269.5 0t203.5 89q22 22 33 10t-7 -28q-244 -219 -453 -278q-29 -9 -18 -45q45 -135 112 -195q85 -63 175 -13.5t153 148.5q24 38 31.5 16.5t-9.5 -44.5q-111 -161 -244 -264t-267 -125q-138 -14 -213 110q-45 74 -77.5 182.5t-50.5 231.5q-6 32 -30 43l-140.5 62
t-133.5 32q-48 1 -80 -34l-261 -295q-225 -262 -261 -336q-39 -14 -115.5 -49t-151.5 -57q-18 -5 -29 14zM875 721q60 6 165 0q23 -2 22 30q-5 93 0 177q1 27 -17 9l-180 -190q-27 -30 10 -26zM1689.5 1593.5l-99.5 10t-113 28.5q-89 31 -145.5 54.5t-151.5 -66.5
q-25 -28 -26.5 -6.5t27.5 40.5q70 60 134.5 93.5t133.5 37t143.5 -32.5t135.5 -52t136 -8.5t80 58t-100 41.5q79 21 111 -14.5t5 -88t-121.5 -76.5t-149 -18.5z" />
    <glyph glyph-name="uni1EA0" unicode="&#x1ea0;" 
d="M-113 -149q-11 19 26 54q72 69 192 163.5t278 252.5q126 123 124.5 141t14.5 51q29 61 84 100.5t127 70.5q124 129 219 242.5t131 188.5q12 73 33 118.5t152 113t222 102t106 29.5q42 -16 10 -35q-60 -37 -100 -132.5t-60 -218.5q-29 -181 -16 -383q1 -33 21 -33
q142 -13 269.5 0t203.5 89q22 22 33 10t-7 -28q-244 -219 -453 -278q-29 -9 -18 -45q45 -135 112 -195q85 -63 175 -13.5t153 148.5q24 38 31.5 16.5t-9.5 -44.5q-111 -161 -244 -264t-267 -125q-138 -14 -213 110q-45 74 -77.5 182.5t-50.5 231.5q-6 32 -30 43l-140.5 62
t-133.5 32q-48 1 -80 -34l-261 -295q-225 -262 -261 -336q-39 -14 -115.5 -49t-151.5 -57q-18 -5 -29 14zM875 721q60 6 165 0q23 -2 22 30q-5 93 0 177q1 27 -17 9l-180 -190q-27 -30 10 -26zM498 -227.5q149 123.5 303 172.5q108 35 93.5 -71.5t-161.5 -178.5
q-42 -22 -107 -42t-118 -17q-159 13 -10 136.5z" />
    <glyph glyph-name="Acircumflex" unicode="&#xc2;" 
d="M-87 -95q72 69 192 163.5t278 252.5q126 123 124.5 141t14.5 51q29 61 84 100.5t127 70.5q124 129 219 242.5t131 188.5q12 73 33 118.5t152 113t222 102t106 29.5q42 -16 10 -35q-60 -37 -100 -132.5t-60 -218.5q-29 -181 -16 -383q1 -33 21 -33q142 -13 269.5 0
t203.5 89q22 22 33 10t-7 -28q-244 -219 -453 -278q-29 -9 -18 -45q45 -135 112 -195q85 -63 175 -13.5t153 148.5q24 38 31.5 16.5t-9.5 -44.5q-111 -161 -244 -264t-267 -125q-138 -14 -213 110q-45 74 -77.5 182.5t-50.5 231.5q-6 32 -30 43l-140.5 62t-133.5 32
q-48 1 -80 -34l-261 -295q-225 -262 -261 -336q-39 -14 -115.5 -49t-151.5 -57q-18 -5 -29 14t26 54zM875 721q60 6 165 0q23 -2 22 30q-5 93 0 177q1 27 -17 9l-180 -190q-27 -30 10 -26zM1406 1765l23 27q71 85 114 196q3 10 14.5 23.5t41.5 -3.5q0 -19 -5 -31t3 -39
t37 -82t73 -113t112 -110l31 34l25 -15l-153 -176q-111 110 -168 205q-40 78 -54 97q-92 -109 -207 -216q-121 -111 -241 -164q-37 -15 -43.5 26.5t37.5 55.5q52 16 169 110q94 75 191 175z" />
    <glyph glyph-name="uni1EA6" unicode="&#x1ea6;" 
d="M-87 -95q72 69 192 163.5t278 252.5q126 123 124.5 141t14.5 51q29 61 84 100.5t127 70.5q124 129 219 242.5t131 188.5q12 73 33 118.5t152 113t222 102t106 29.5q42 -16 10 -35q-60 -37 -100 -132.5t-60 -218.5q-29 -181 -16 -383q1 -33 21 -33q142 -13 269.5 0
t203.5 89q22 22 33 10t-7 -28q-244 -219 -453 -278q-29 -9 -18 -45q45 -135 112 -195q85 -63 175 -13.5t153 148.5q24 38 31.5 16.5t-9.5 -44.5q-111 -161 -244 -264t-267 -125q-138 -14 -213 110q-45 74 -77.5 182.5t-50.5 231.5q-6 32 -30 43l-140.5 62t-133.5 32
q-48 1 -80 -34l-261 -295q-225 -262 -261 -336q-39 -14 -115.5 -49t-151.5 -57q-18 -5 -29 14t26 54zM875 721q60 6 165 0q23 -2 22 30q-5 93 0 177q1 27 -17 9l-180 -190q-27 -30 10 -26zM1406 1765l23 27q71 85 114 196q3 10 14.5 23.5t41.5 -3.5q0 -19 -5 -31t3 -39
t37 -82t73 -113t112 -110l31 34l25 -15l-153 -176q-111 110 -168 205q-40 78 -54 97q-92 -109 -207 -216q-121 -111 -241 -164q-37 -15 -43.5 26.5t37.5 55.5q52 16 169 110q94 75 191 175zM1311 2163q-18 12 -57.5 68t-80 120t-70.5 118t-29 62q1 7 12 -4.5t17 -18.5
q41 -46 130 -102t196.5 -107.5t218 -90t193.5 -47.5q16 -6 40 -23t34 -35t-5.5 -33t-77.5 -17q-47 -1 -124 8.5t-155.5 25.5t-146 36.5t-95.5 39.5z" />
    <glyph glyph-name="uni1EA4" unicode="&#x1ea4;" 
d="M-87 -95q72 69 192 163.5t278 252.5q126 123 124.5 141t14.5 51q29 61 84 100.5t127 70.5q124 129 219 242.5t131 188.5q12 73 33 118.5t152 113t222 102t106 29.5q42 -16 10 -35q-60 -37 -100 -132.5t-60 -218.5q-29 -181 -16 -383q1 -33 21 -33q142 -13 269.5 0
t203.5 89q22 22 33 10t-7 -28q-244 -219 -453 -278q-29 -9 -18 -45q45 -135 112 -195q85 -63 175 -13.5t153 148.5q24 38 31.5 16.5t-9.5 -44.5q-111 -161 -244 -264t-267 -125q-138 -14 -213 110q-45 74 -77.5 182.5t-50.5 231.5q-6 32 -30 43l-140.5 62t-133.5 32
q-48 1 -80 -34l-261 -295q-225 -262 -261 -336q-39 -14 -115.5 -49t-151.5 -57q-18 -5 -29 14t26 54zM875 721q60 6 165 0q23 -2 22 30q-5 93 0 177q1 27 -17 9l-180 -190q-27 -30 10 -26zM1406 1765l23 27q71 85 114 196q3 10 14.5 23.5t41.5 -3.5q0 -19 -5 -31t3 -39
t37 -82t73 -113t112 -110l31 34l25 -15l-153 -176q-111 110 -168 205q-40 78 -54 97q-92 -109 -207 -216q-121 -111 -241 -164q-37 -15 -43.5 26.5t37.5 55.5q52 16 169 110q94 75 191 175zM2245.5 1856.5q-67.5 -20.5 -146 -36.5t-155.5 -25.5t-124 -8.5q-62 2 -77.5 17
t-5.5 33t34 35t40 23q84 9 194 47.5t217.5 90t196.5 107.5t131 102q5 7 16 18.5t12 4.5q1 -8 -29 -62t-70 -118t-80 -120t-58 -68q-28 -19 -95.5 -39.5z" />
    <glyph glyph-name="uni1EA8" unicode="&#x1ea8;" 
d="M-87 -95q72 69 192 163.5t278 252.5q126 123 124.5 141t14.5 51q29 61 84 100.5t127 70.5q124 129 219 242.5t131 188.5q12 73 33 118.5t152 113t222 102t106 29.5q42 -16 10 -35q-60 -37 -100 -132.5t-60 -218.5q-29 -181 -16 -383q1 -33 21 -33q142 -13 269.5 0
t203.5 89q22 22 33 10t-7 -28q-244 -219 -453 -278q-29 -9 -18 -45q45 -135 112 -195q85 -63 175 -13.5t153 148.5q24 38 31.5 16.5t-9.5 -44.5q-111 -161 -244 -264t-267 -125q-138 -14 -213 110q-45 74 -77.5 182.5t-50.5 231.5q-6 32 -30 43l-140.5 62t-133.5 32
q-48 1 -80 -34l-261 -295q-225 -262 -261 -336q-39 -14 -115.5 -49t-151.5 -57q-18 -5 -29 14t26 54zM875 721q60 6 165 0q23 -2 22 30q-5 93 0 177q1 27 -17 9l-180 -190q-27 -30 10 -26zM1406 1765l23 27q71 85 114 196q3 10 14.5 23.5t41.5 -3.5q0 -19 -5 -31t3 -39
t37 -82t73 -113t112 -110l31 34l25 -15l-153 -176q-111 110 -168 205q-40 78 -54 97q-92 -109 -207 -216q-121 -111 -241 -164q-37 -15 -43.5 26.5t37.5 55.5q52 16 169 110q94 75 191 175zM1706 1871q-24 35 13 94q12 20 37 40.5l50 39.5q66 46 108 85.5t65 73.5
q32 46 35.5 83t-4.5 68q-17 61 -74.5 74.5t-116.5 -20.5q-57 -34 -74 -81t-2 -77q19 -39 75 -37t99 80q12 23 17.5 9t-11.5 -35q-19 -25 -56.5 -56t-80.5 -55q-60 -35 -113 -40t-60 59q-6 60 57.5 137t159.5 125q37 19 88 33.5t99.5 14t86.5 -22t48 -73.5q11 -60 -22 -114.5
t-90 -104.5q-50 -42 -109.5 -80.5l-118.5 -73.5q-27 -17 9.5 -26t67.5 -6q13 1 9.5 -8.5t-29.5 -23.5q-21 -12 -40.5 -33.5t-36.5 -34.5q-62 -49 -86 -14z" />
    <glyph glyph-name="uni1EAA" unicode="&#x1eaa;" 
d="M-87 -95q72 69 192 163.5t278 252.5q126 123 124.5 141t14.5 51q29 61 84 100.5t127 70.5q124 129 219 242.5t131 188.5q12 73 33 118.5t152 113t222 102t106 29.5q42 -16 10 -35q-60 -37 -100 -132.5t-60 -218.5q-29 -181 -16 -383q1 -33 21 -33q142 -13 269.5 0
t203.5 89q22 22 33 10t-7 -28q-244 -219 -453 -278q-29 -9 -18 -45q45 -135 112 -195q85 -63 175 -13.5t153 148.5q24 38 31.5 16.5t-9.5 -44.5q-111 -161 -244 -264t-267 -125q-138 -14 -213 110q-45 74 -77.5 182.5t-50.5 231.5q-6 32 -30 43l-140.5 62t-133.5 32
q-48 1 -80 -34l-261 -295q-225 -262 -261 -336q-39 -14 -115.5 -49t-151.5 -57q-18 -5 -29 14t26 54zM875 721q60 6 165 0q23 -2 22 30q-5 93 0 177q1 27 -17 9l-180 -190q-27 -30 10 -26zM1406 1765l23 27q71 85 114 196q3 10 14.5 23.5t41.5 -3.5q0 -19 -5 -31t3 -39
t37 -82t73 -113t112 -110l31 34l25 -15l-153 -176q-111 110 -168 205q-40 78 -54 97q-92 -109 -207 -216q-121 -111 -241 -164q-37 -15 -43.5 26.5t37.5 55.5q52 16 169 110q94 75 191 175zM1847.5 2012.5l-99.5 10t-113 28.5q-89 31 -145.5 54.5t-151.5 -66.5
q-25 -28 -26.5 -6.5t27.5 40.5q70 60 134.5 93.5t133.5 37t143.5 -32.5t135.5 -52t136 -8.5t80 58t-100 41.5q79 21 111 -14.5t5 -88t-121.5 -76.5t-149 -18.5z" />
    <glyph glyph-name="uni1EAC" unicode="&#x1eac;" 
d="M-87 -95q72 69 192 163.5t278 252.5q126 123 124.5 141t14.5 51q29 61 84 100.5t127 70.5q124 129 219 242.5t131 188.5q12 73 33 118.5t152 113t222 102t106 29.5q42 -16 10 -35q-60 -37 -100 -132.5t-60 -218.5q-29 -181 -16 -383q1 -33 21 -33q142 -13 269.5 0
t203.5 89q22 22 33 10t-7 -28q-244 -219 -453 -278q-29 -9 -18 -45q45 -135 112 -195q85 -63 175 -13.5t153 148.5q24 38 31.5 16.5t-9.5 -44.5q-111 -161 -244 -264t-267 -125q-138 -14 -213 110q-45 74 -77.5 182.5t-50.5 231.5q-6 32 -30 43l-140.5 62t-133.5 32
q-48 1 -80 -34l-261 -295q-225 -262 -261 -336q-39 -14 -115.5 -49t-151.5 -57q-18 -5 -29 14t26 54zM875 721q60 6 165 0q23 -2 22 30q-5 93 0 177q1 27 -17 9l-180 -190q-27 -30 10 -26zM1406 1765l23 27q71 85 114 196q3 10 14.5 23.5t41.5 -3.5q0 -19 -5 -31t3 -39
t37 -82t73 -113t112 -110l31 34l25 -15l-153 -176q-111 110 -168 205q-40 78 -54 97q-92 -109 -207 -216q-121 -111 -241 -164q-37 -15 -43.5 26.5t37.5 55.5q52 16 169 110q94 75 191 175zM498 -227.5q149 123.5 303 172.5q108 35 93.5 -71.5t-161.5 -178.5
q-42 -22 -107 -42t-118 -17q-159 13 -10 136.5z" />
    <glyph glyph-name="Abreve" unicode="&#x102;" 
d="M-87 -95q72 69 192 163.5t278 252.5q126 123 124.5 141t14.5 51q29 61 84 100.5t127 70.5q124 129 219 242.5t131 188.5q12 73 33 118.5t152 113t222 102t106 29.5q42 -16 10 -35q-60 -37 -100 -132.5t-60 -218.5q-29 -181 -16 -383q1 -33 21 -33q142 -13 269.5 0
t203.5 89q22 22 33 10t-7 -28q-244 -219 -453 -278q-29 -9 -18 -45q45 -135 112 -195q85 -63 175 -13.5t153 148.5q24 38 31.5 16.5t-9.5 -44.5q-111 -161 -244 -264t-267 -125q-138 -14 -213 110q-45 74 -77.5 182.5t-50.5 231.5q-6 32 -30 43l-140.5 62t-133.5 32
q-48 1 -80 -34l-261 -295q-225 -262 -261 -336q-39 -14 -115.5 -49t-151.5 -57q-18 -5 -29 14t26 54zM875 721q60 6 165 0q23 -2 22 30q-5 93 0 177q1 27 -17 9l-180 -190q-27 -30 10 -26zM1734 1758q-142 -171 -352 -228q-226 -60 -276 40t63 291q29 51 31 1
q-18 -72 19 -115t110.5 -56t193 28.5t218.5 122.5q60 49 99 119.5t37.5 19t-143.5 -222.5z" />
    <glyph glyph-name="uni1EB0" unicode="&#x1eb0;" 
d="M-87 -95q72 69 192 163.5t278 252.5q126 123 124.5 141t14.5 51q29 61 84 100.5t127 70.5q124 129 219 242.5t131 188.5q12 73 33 118.5t152 113t222 102t106 29.5q42 -16 10 -35q-60 -37 -100 -132.5t-60 -218.5q-29 -181 -16 -383q1 -33 21 -33q142 -13 269.5 0
t203.5 89q22 22 33 10t-7 -28q-244 -219 -453 -278q-29 -9 -18 -45q45 -135 112 -195q85 -63 175 -13.5t153 148.5q24 38 31.5 16.5t-9.5 -44.5q-111 -161 -244 -264t-267 -125q-138 -14 -213 110q-45 74 -77.5 182.5t-50.5 231.5q-6 32 -30 43l-140.5 62t-133.5 32
q-48 1 -80 -34l-261 -295q-225 -262 -261 -336q-39 -14 -115.5 -49t-151.5 -57q-18 -5 -29 14t26 54zM875 721q60 6 165 0q23 -2 22 30q-5 93 0 177q1 27 -17 9l-180 -190q-27 -30 10 -26zM1734 1758q-142 -171 -352 -228q-226 -60 -276 40t63 291q29 51 31 1
q-18 -72 19 -115t110.5 -56t193 28.5t218.5 122.5q60 49 99 119.5t37.5 19t-143.5 -222.5zM1098 1988q-18 12 -57.5 68t-80 120t-70.5 118t-29 62q1 7 12 -4.5t17 -18.5q41 -46 130 -102t196.5 -107.5t218 -90t193.5 -47.5q16 -6 40 -23t34 -35t-5.5 -33t-77.5 -17
q-47 -1 -124 8.5t-155.5 25.5t-146 36.5t-95.5 39.5z" />
    <glyph glyph-name="uni1EAE" unicode="&#x1eae;" 
d="M-87 -95q72 69 192 163.5t278 252.5q126 123 124.5 141t14.5 51q29 61 84 100.5t127 70.5q124 129 219 242.5t131 188.5q12 73 33 118.5t152 113t222 102t106 29.5q42 -16 10 -35q-60 -37 -100 -132.5t-60 -218.5q-29 -181 -16 -383q1 -33 21 -33q142 -13 269.5 0
t203.5 89q22 22 33 10t-7 -28q-244 -219 -453 -278q-29 -9 -18 -45q45 -135 112 -195q85 -63 175 -13.5t153 148.5q24 38 31.5 16.5t-9.5 -44.5q-111 -161 -244 -264t-267 -125q-138 -14 -213 110q-45 74 -77.5 182.5t-50.5 231.5q-6 32 -30 43l-140.5 62t-133.5 32
q-48 1 -80 -34l-261 -295q-225 -262 -261 -336q-39 -14 -115.5 -49t-151.5 -57q-18 -5 -29 14t26 54zM875 721q60 6 165 0q23 -2 22 30q-5 93 0 177q1 27 -17 9l-180 -190q-27 -30 10 -26zM1734 1758q-142 -171 -352 -228q-226 -60 -276 40t63 291q29 51 31 1
q-18 -72 19 -115t110.5 -56t193 28.5t218.5 122.5q60 49 99 119.5t37.5 19t-143.5 -222.5zM1780 2062.5q-53 -46.5 -117.5 -94.5t-130 -89.5t-108.5 -59.5q-57 -25 -77.5 -18t-19 28t16 46.5t26.5 37.5q72 43 156 124.5t159 173.5t132 180.5t76 147.5q2 9 7 24t9 9
q4 -7 0 -68.5t-13.5 -136.5t-22 -142.5t-23.5 -86.5q-17 -29 -70 -75.5z" />
    <glyph glyph-name="uni1EB2" unicode="&#x1eb2;" 
d="M-87 -95q72 69 192 163.5t278 252.5q126 123 124.5 141t14.5 51q29 61 84 100.5t127 70.5q124 129 219 242.5t131 188.5q12 73 33 118.5t152 113t222 102t106 29.5q42 -16 10 -35q-60 -37 -100 -132.5t-60 -218.5q-29 -181 -16 -383q1 -33 21 -33q142 -13 269.5 0
t203.5 89q22 22 33 10t-7 -28q-244 -219 -453 -278q-29 -9 -18 -45q45 -135 112 -195q85 -63 175 -13.5t153 148.5q24 38 31.5 16.5t-9.5 -44.5q-111 -161 -244 -264t-267 -125q-138 -14 -213 110q-45 74 -77.5 182.5t-50.5 231.5q-6 32 -30 43l-140.5 62t-133.5 32
q-48 1 -80 -34l-261 -295q-225 -262 -261 -336q-39 -14 -115.5 -49t-151.5 -57q-18 -5 -29 14t26 54zM875 721q60 6 165 0q23 -2 22 30q-5 93 0 177q1 27 -17 9l-180 -190q-27 -30 10 -26zM1734 1758q-142 -171 -352 -228q-226 -60 -276 40t63 291q29 51 31 1
q-18 -72 19 -115t110.5 -56t193 28.5t218.5 122.5q60 49 99 119.5t37.5 19t-143.5 -222.5zM1406 1827q-24 35 13 94q12 20 37 40.5l50 39.5q66 46 108 85.5t65 73.5q32 46 35.5 83t-4.5 68q-17 61 -74.5 74.5t-116.5 -20.5q-57 -34 -74 -81t-2 -77q19 -39 75 -37t99 80
q12 23 17.5 9t-11.5 -35q-19 -25 -56.5 -56t-80.5 -55q-60 -35 -113 -40t-60 59q-6 60 57.5 137t159.5 125q37 19 88 33.5t99.5 14t86.5 -22t48 -73.5q11 -60 -22 -114.5t-90 -104.5q-50 -42 -109.5 -80.5l-118.5 -73.5q-27 -17 9.5 -26t67.5 -6q13 1 9.5 -8.5t-29.5 -23.5
q-21 -12 -40.5 -33.5t-36.5 -34.5q-62 -49 -86 -14z" />
    <glyph glyph-name="uni1EB4" unicode="&#x1eb4;" 
d="M-87 -95q72 69 192 163.5t278 252.5q126 123 124.5 141t14.5 51q29 61 84 100.5t127 70.5q124 129 219 242.5t131 188.5q12 73 33 118.5t152 113t222 102t106 29.5q42 -16 10 -35q-60 -37 -100 -132.5t-60 -218.5q-29 -181 -16 -383q1 -33 21 -33q142 -13 269.5 0
t203.5 89q22 22 33 10t-7 -28q-244 -219 -453 -278q-29 -9 -18 -45q45 -135 112 -195q85 -63 175 -13.5t153 148.5q24 38 31.5 16.5t-9.5 -44.5q-111 -161 -244 -264t-267 -125q-138 -14 -213 110q-45 74 -77.5 182.5t-50.5 231.5q-6 32 -30 43l-140.5 62t-133.5 32
q-48 1 -80 -34l-261 -295q-225 -262 -261 -336q-39 -14 -115.5 -49t-151.5 -57q-18 -5 -29 14t26 54zM875 721q60 6 165 0q23 -2 22 30q-5 93 0 177q1 27 -17 9l-180 -190q-27 -30 10 -26zM1734 1758q-142 -171 -352 -228q-226 -60 -276 40t63 291q29 51 31 1
q-18 -72 19 -115t110.5 -56t193 28.5t218.5 122.5q60 49 99 119.5t37.5 19t-143.5 -222.5zM1624.5 1979.5l-99.5 10t-113 28.5q-89 31 -145.5 54.5t-151.5 -66.5q-25 -28 -26.5 -6.5t27.5 40.5q70 60 134.5 93.5t133.5 37t143.5 -32.5t135.5 -52t136 -8.5t80 58t-100 41.5
q79 21 111 -14.5t5 -88t-121.5 -76.5t-149 -18.5z" />
    <glyph glyph-name="uni1EB6" unicode="&#x1eb6;" 
d="M-87 -95q72 69 192 163.5t278 252.5q126 123 124.5 141t14.5 51q29 61 84 100.5t127 70.5q124 129 219 242.5t131 188.5q12 73 33 118.5t152 113t222 102t106 29.5q42 -16 10 -35q-60 -37 -100 -132.5t-60 -218.5q-29 -181 -16 -383q1 -33 21 -33q142 -13 269.5 0
t203.5 89q22 22 33 10t-7 -28q-244 -219 -453 -278q-29 -9 -18 -45q45 -135 112 -195q85 -63 175 -13.5t153 148.5q24 38 31.5 16.5t-9.5 -44.5q-111 -161 -244 -264t-267 -125q-138 -14 -213 110q-45 74 -77.5 182.5t-50.5 231.5q-6 32 -30 43l-140.5 62t-133.5 32
q-48 1 -80 -34l-261 -295q-225 -262 -261 -336q-39 -14 -115.5 -49t-151.5 -57q-18 -5 -29 14t26 54zM875 721q60 6 165 0q23 -2 22 30q-5 93 0 177q1 27 -17 9l-180 -190q-27 -30 10 -26zM1734 1758q-142 -171 -352 -228q-226 -60 -276 40t63 291q29 51 31 1
q-18 -72 19 -115t110.5 -56t193 28.5t218.5 122.5q60 49 99 119.5t37.5 19t-143.5 -222.5zM504 -227.5q149 123.5 303 172.5q108 35 93.5 -71.5t-161.5 -178.5q-42 -22 -107 -42t-118 -17q-159 13 -10 136.5z" />
    <glyph glyph-name="Egrave" unicode="&#xc8;" horiz-adv-x="1243" 
d="M268 -108.5q-111 68.5 -138 163.5q-32 108 38.5 247t231.5 273q166 138 407 216q45 14 -2 21q-117 12 -206.5 32.5t-116.5 43.5q-58 44 43 179q48 65 141 141.5t239 151.5q111 57 285 81t319 9q144 -16 213.5 -73.5t-26.5 -162.5q-49 -54 -125 -102t-109 -62
q-11 -5 -16.5 1t-1.5 10q70 85 -24.5 127t-241.5 50q-126 6 -252.5 -8.5t-183.5 -44.5q-77 -42 -22.5 -66t165.5 -39q110 -15 237 -27t195 -27q6 -2 -22.5 -38.5t-67.5 -80t-77.5 -79t-53.5 -35.5q-104 0 -201.5 -34t-187.5 -80q-198 -101 -205 -242t100 -236
q89 -67 266 -72.5t309 38t215 118.5t138 171q23 36 41.5 28.5t-2.5 -40.5q-135 -232 -353 -401q-318 -227 -626 -219q-211 -1 -322 67.5zM952 1696q-18 12 -57.5 68t-80 120t-70.5 118t-29 62q1 7 12 -4.5t17 -18.5q41 -46 130 -102t196.5 -107.5t218 -90t193.5 -47.5
q16 -6 40 -23t34 -35t-5.5 -33t-77.5 -17q-47 -1 -124 8.5t-155.5 25.5t-146 36.5t-95.5 39.5z" />
    <glyph glyph-name="Eacute" unicode="&#xc9;" horiz-adv-x="1243" 
d="M268 -108.5q-111 68.5 -138 163.5q-32 108 38.5 247t231.5 273q166 138 407 216q45 14 -2 21q-117 12 -206.5 32.5t-116.5 43.5q-58 44 43 179q48 65 141 141.5t239 151.5q111 57 285 81t319 9q144 -16 213.5 -73.5t-26.5 -162.5q-49 -54 -125 -102t-109 -62
q-11 -5 -16.5 1t-1.5 10q70 85 -24.5 127t-241.5 50q-126 6 -252.5 -8.5t-183.5 -44.5q-77 -42 -22.5 -66t165.5 -39q110 -15 237 -27t195 -27q6 -2 -22.5 -38.5t-67.5 -80t-77.5 -79t-53.5 -35.5q-104 0 -201.5 -34t-187.5 -80q-198 -101 -205 -242t100 -236
q89 -67 266 -72.5t309 38t215 118.5t138 171q23 36 41.5 28.5t-2.5 -40.5q-135 -232 -353 -401q-318 -227 -626 -219q-211 -1 -322 67.5zM1793.5 1668.5q-67.5 -20.5 -146 -36.5t-155.5 -25.5t-124 -8.5q-62 2 -77.5 17t-5.5 33t34 35t40 23q84 9 194 47.5t217.5 90
t196.5 107.5t131 102q5 7 16 18.5t12 4.5q1 -8 -29 -62t-70 -118t-80 -120t-58 -68q-28 -19 -95.5 -39.5z" />
    <glyph glyph-name="uni1EBA" unicode="&#x1eba;" horiz-adv-x="1243" 
d="M268 -108.5q-111 68.5 -138 163.5q-32 108 38.5 247t231.5 273q166 138 407 216q45 14 -2 21q-117 12 -206.5 32.5t-116.5 43.5q-58 44 43 179q48 65 141 141.5t239 151.5q111 57 285 81t319 9q144 -16 213.5 -73.5t-26.5 -162.5q-49 -54 -125 -102t-109 -62
q-11 -5 -16.5 1t-1.5 10q70 85 -24.5 127t-241.5 50q-126 6 -252.5 -8.5t-183.5 -44.5q-77 -42 -22.5 -66t165.5 -39q110 -15 237 -27t195 -27q6 -2 -22.5 -38.5t-67.5 -80t-77.5 -79t-53.5 -35.5q-104 0 -201.5 -34t-187.5 -80q-198 -101 -205 -242t100 -236
q89 -67 266 -72.5t309 38t215 118.5t138 171q23 36 41.5 28.5t-2.5 -40.5q-135 -232 -353 -401q-318 -227 -626 -219q-211 -1 -322 67.5zM1346 1586q-24 35 13 94q12 20 37 40.5l50 39.5q66 46 108 85.5t65 73.5q32 46 35.5 83t-4.5 68q-17 61 -74.5 74.5t-116.5 -20.5
q-57 -34 -74 -81t-2 -77q19 -39 75 -37t99 80q12 23 17.5 9t-11.5 -35q-19 -25 -56.5 -56t-80.5 -55q-60 -35 -113 -40t-60 59q-6 60 57.5 137t159.5 125q37 19 88 33.5t99.5 14t86.5 -22t48 -73.5q11 -60 -22 -114.5t-90 -104.5q-50 -42 -109.5 -80.5l-118.5 -73.5
q-27 -17 9.5 -26t67.5 -6q13 1 9.5 -8.5t-29.5 -23.5q-21 -12 -40.5 -33.5t-36.5 -34.5q-62 -49 -86 -14z" />
    <glyph glyph-name="uni1EBC" unicode="&#x1ebc;" horiz-adv-x="1243" 
d="M268 -108.5q-111 68.5 -138 163.5q-32 108 38.5 247t231.5 273q166 138 407 216q45 14 -2 21q-117 12 -206.5 32.5t-116.5 43.5q-58 44 43 179q48 65 141 141.5t239 151.5q111 57 285 81t319 9q144 -16 213.5 -73.5t-26.5 -162.5q-49 -54 -125 -102t-109 -62
q-11 -5 -16.5 1t-1.5 10q70 85 -24.5 127t-241.5 50q-126 6 -252.5 -8.5t-183.5 -44.5q-77 -42 -22.5 -66t165.5 -39q110 -15 237 -27t195 -27q6 -2 -22.5 -38.5t-67.5 -80t-77.5 -79t-53.5 -35.5q-104 0 -201.5 -34t-187.5 -80q-198 -101 -205 -242t100 -236
q89 -67 266 -72.5t309 38t215 118.5t138 171q23 36 41.5 28.5t-2.5 -40.5q-135 -232 -353 -401q-318 -227 -626 -219q-211 -1 -322 67.5zM1710.5 1593.5l-99.5 10t-113 28.5q-89 31 -145.5 54.5t-151.5 -66.5q-25 -28 -26.5 -6.5t27.5 40.5q70 60 134.5 93.5t133.5 37
t143.5 -32.5t135.5 -52t136 -8.5t80 58t-100 41.5q79 21 111 -14.5t5 -88t-121.5 -76.5t-149 -18.5z" />
    <glyph glyph-name="uni1EB8" unicode="&#x1eb8;" horiz-adv-x="1243" 
d="M268 -108.5q-111 68.5 -138 163.5q-32 108 38.5 247t231.5 273q166 138 407 216q45 14 -2 21q-117 12 -206.5 32.5t-116.5 43.5q-58 44 43 179q48 65 141 141.5t239 151.5q111 57 285 81t319 9q144 -16 213.5 -73.5t-26.5 -162.5q-49 -54 -125 -102t-109 -62
q-11 -5 -16.5 1t-1.5 10q70 85 -24.5 127t-241.5 50q-126 6 -252.5 -8.5t-183.5 -44.5q-77 -42 -22.5 -66t165.5 -39q110 -15 237 -27t195 -27q6 -2 -22.5 -38.5t-67.5 -80t-77.5 -79t-53.5 -35.5q-104 0 -201.5 -34t-187.5 -80q-198 -101 -205 -242t100 -236
q89 -67 266 -72.5t309 38t215 118.5t138 171q23 36 41.5 28.5t-2.5 -40.5q-135 -232 -353 -401q-318 -227 -626 -219q-211 -1 -322 67.5zM372 -446.5q149 123.5 303 172.5q108 35 93.5 -71.5t-161.5 -178.5q-42 -22 -107 -42t-118 -17q-159 13 -10 136.5z" />
    <glyph glyph-name="Ecircumflex" unicode="&#xca;" horiz-adv-x="1243" 
d="M268 -108.5q-111 68.5 -138 163.5q-32 108 38.5 247t231.5 273q166 138 407 216q45 14 -2 21q-117 12 -206.5 32.5t-116.5 43.5q-58 44 43 179q48 65 141 141.5t239 151.5q111 57 285 81t319 9q144 -16 213.5 -73.5t-26.5 -162.5q-49 -54 -125 -102t-109 -62
q-11 -5 -16.5 1t-1.5 10q70 85 -24.5 127t-241.5 50q-126 6 -252.5 -8.5t-183.5 -44.5q-77 -42 -22.5 -66t165.5 -39q110 -15 237 -27t195 -27q6 -2 -22.5 -38.5t-67.5 -80t-77.5 -79t-53.5 -35.5q-104 0 -201.5 -34t-187.5 -80q-198 -101 -205 -242t100 -236
q89 -67 266 -72.5t309 38t215 118.5t138 171q23 36 41.5 28.5t-2.5 -40.5q-135 -232 -353 -401q-318 -227 -626 -219q-211 -1 -322 67.5zM1350 1885l23 27q71 85 114 196q3 10 14.5 23.5t41.5 -3.5q0 -19 -5 -31t3 -39t37 -82t73 -113t112 -110l31 34l25 -15l-153 -176
q-111 110 -168 205q-40 78 -54 97q-92 -109 -207 -216q-121 -111 -241 -164q-37 -15 -43.5 26.5t37.5 55.5q52 16 169 110q94 75 191 175z" />
    <glyph glyph-name="uni1EC0" unicode="&#x1ec0;" horiz-adv-x="1243" 
d="M268 -108.5q-111 68.5 -138 163.5q-32 108 38.5 247t231.5 273q166 138 407 216q45 14 -2 21q-117 12 -206.5 32.5t-116.5 43.5q-58 44 43 179q48 65 141 141.5t239 151.5q111 57 285 81t319 9q144 -16 213.5 -73.5t-26.5 -162.5q-49 -54 -125 -102t-109 -62
q-11 -5 -16.5 1t-1.5 10q70 85 -24.5 127t-241.5 50q-126 6 -252.5 -8.5t-183.5 -44.5q-77 -42 -22.5 -66t165.5 -39q110 -15 237 -27t195 -27q6 -2 -22.5 -38.5t-67.5 -80t-77.5 -79t-53.5 -35.5q-104 0 -201.5 -34t-187.5 -80q-198 -101 -205 -242t100 -236
q89 -67 266 -72.5t309 38t215 118.5t138 171q23 36 41.5 28.5t-2.5 -40.5q-135 -232 -353 -401q-318 -227 -626 -219q-211 -1 -322 67.5zM1350 1885l23 27q71 85 114 196q3 10 14.5 23.5t41.5 -3.5q0 -19 -5 -31t3 -39t37 -82t73 -113t112 -110l31 34l25 -15l-153 -176
q-111 110 -168 205q-40 78 -54 97q-92 -109 -207 -216q-121 -111 -241 -164q-37 -15 -43.5 26.5t37.5 55.5q52 16 169 110q94 75 191 175zM1178 2294q-18 12 -57.5 68t-80 120t-70.5 118t-29 62q1 7 12 -4.5t17 -18.5q41 -46 130 -102t196.5 -107.5t218 -90t193.5 -47.5
q16 -6 40 -23t34 -35t-5.5 -33t-77.5 -17q-47 -1 -124 8.5t-155.5 25.5t-146 36.5t-95.5 39.5z" />
    <glyph glyph-name="uni1EBE" unicode="&#x1ebe;" horiz-adv-x="1243" 
d="M268 -108.5q-111 68.5 -138 163.5q-32 108 38.5 247t231.5 273q166 138 407 216q45 14 -2 21q-117 12 -206.5 32.5t-116.5 43.5q-58 44 43 179q48 65 141 141.5t239 151.5q111 57 285 81t319 9q144 -16 213.5 -73.5t-26.5 -162.5q-49 -54 -125 -102t-109 -62
q-11 -5 -16.5 1t-1.5 10q70 85 -24.5 127t-241.5 50q-126 6 -252.5 -8.5t-183.5 -44.5q-77 -42 -22.5 -66t165.5 -39q110 -15 237 -27t195 -27q6 -2 -22.5 -38.5t-67.5 -80t-77.5 -79t-53.5 -35.5q-104 0 -201.5 -34t-187.5 -80q-198 -101 -205 -242t100 -236
q89 -67 266 -72.5t309 38t215 118.5t138 171q23 36 41.5 28.5t-2.5 -40.5q-135 -232 -353 -401q-318 -227 -626 -219q-211 -1 -322 67.5zM1350 1885l23 27q71 85 114 196q3 10 14.5 23.5t41.5 -3.5q0 -19 -5 -31t3 -39t37 -82t73 -113t112 -110l31 34l25 -15l-153 -176
q-111 110 -168 205q-40 78 -54 97q-92 -109 -207 -216q-121 -111 -241 -164q-37 -15 -43.5 26.5t37.5 55.5q52 16 169 110q94 75 191 175zM2201.5 1954.5q-67.5 -20.5 -146 -36.5t-155.5 -25.5t-124 -8.5q-62 2 -77.5 17t-5.5 33t34 35t40 23q84 9 194 47.5t217.5 90
t196.5 107.5t131 102q5 7 16 18.5t12 4.5q1 -8 -29 -62t-70 -118t-80 -120t-58 -68q-28 -19 -95.5 -39.5z" />
    <glyph glyph-name="uni1EC2" unicode="&#x1ec2;" horiz-adv-x="1243" 
d="M268 -108.5q-111 68.5 -138 163.5q-32 108 38.5 247t231.5 273q166 138 407 216q45 14 -2 21q-117 12 -206.5 32.5t-116.5 43.5q-58 44 43 179q48 65 141 141.5t239 151.5q111 57 285 81t319 9q144 -16 213.5 -73.5t-26.5 -162.5q-49 -54 -125 -102t-109 -62
q-11 -5 -16.5 1t-1.5 10q70 85 -24.5 127t-241.5 50q-126 6 -252.5 -8.5t-183.5 -44.5q-77 -42 -22.5 -66t165.5 -39q110 -15 237 -27t195 -27q6 -2 -22.5 -38.5t-67.5 -80t-77.5 -79t-53.5 -35.5q-104 0 -201.5 -34t-187.5 -80q-198 -101 -205 -242t100 -236
q89 -67 266 -72.5t309 38t215 118.5t138 171q23 36 41.5 28.5t-2.5 -40.5q-135 -232 -353 -401q-318 -227 -626 -219q-211 -1 -322 67.5zM1350 1885l23 27q71 85 114 196q3 10 14.5 23.5t41.5 -3.5q0 -19 -5 -31t3 -39t37 -82t73 -113t112 -110l31 34l25 -15l-153 -176
q-111 110 -168 205q-40 78 -54 97q-92 -109 -207 -216q-121 -111 -241 -164q-37 -15 -43.5 26.5t37.5 55.5q52 16 169 110q94 75 191 175zM1694 1958q-24 35 13 94q12 20 37 40.5l50 39.5q66 46 108 85.5t65 73.5q32 46 35.5 83t-4.5 68q-17 61 -74.5 74.5t-116.5 -20.5
q-57 -34 -74 -81t-2 -77q19 -39 75 -37t99 80q12 23 17.5 9t-11.5 -35q-19 -25 -56.5 -56t-80.5 -55q-60 -35 -113 -40t-60 59q-6 60 57.5 137t159.5 125q37 19 88 33.5t99.5 14t86.5 -22t48 -73.5q11 -60 -22 -114.5t-90 -104.5q-50 -42 -109.5 -80.5l-118.5 -73.5
q-27 -17 9.5 -26t67.5 -6q13 1 9.5 -8.5t-29.5 -23.5q-21 -12 -40.5 -33.5t-36.5 -34.5q-62 -49 -86 -14z" />
    <glyph glyph-name="uni1EC4" unicode="&#x1ec4;" horiz-adv-x="1243" 
d="M268 -108.5q-111 68.5 -138 163.5q-32 108 38.5 247t231.5 273q166 138 407 216q45 14 -2 21q-117 12 -206.5 32.5t-116.5 43.5q-58 44 43 179q48 65 141 141.5t239 151.5q111 57 285 81t319 9q144 -16 213.5 -73.5t-26.5 -162.5q-49 -54 -125 -102t-109 -62
q-11 -5 -16.5 1t-1.5 10q70 85 -24.5 127t-241.5 50q-126 6 -252.5 -8.5t-183.5 -44.5q-77 -42 -22.5 -66t165.5 -39q110 -15 237 -27t195 -27q6 -2 -22.5 -38.5t-67.5 -80t-77.5 -79t-53.5 -35.5q-104 0 -201.5 -34t-187.5 -80q-198 -101 -205 -242t100 -236
q89 -67 266 -72.5t309 38t215 118.5t138 171q23 36 41.5 28.5t-2.5 -40.5q-135 -232 -353 -401q-318 -227 -626 -219q-211 -1 -322 67.5zM1350 1885l23 27q71 85 114 196q3 10 14.5 23.5t41.5 -3.5q0 -19 -5 -31t3 -39t37 -82t73 -113t112 -110l31 34l25 -15l-153 -176
q-111 110 -168 205q-40 78 -54 97q-92 -109 -207 -216q-121 -111 -241 -164q-37 -15 -43.5 26.5t37.5 55.5q52 16 169 110q94 75 191 175zM1824.5 2099.5l-99.5 10t-113 28.5q-89 31 -145.5 54.5t-151.5 -66.5q-25 -28 -26.5 -6.5t27.5 40.5q70 60 134.5 93.5t133.5 37
t143.5 -32.5t135.5 -52t136 -8.5t80 58t-100 41.5q79 21 111 -14.5t5 -88t-121.5 -76.5t-149 -18.5z" />
    <glyph glyph-name="uni1EC6" unicode="&#x1ec6;" horiz-adv-x="1243" 
d="M268 -108.5q-111 68.5 -138 163.5q-32 108 38.5 247t231.5 273q166 138 407 216q45 14 -2 21q-117 12 -206.5 32.5t-116.5 43.5q-58 44 43 179q48 65 141 141.5t239 151.5q111 57 285 81t319 9q144 -16 213.5 -73.5t-26.5 -162.5q-49 -54 -125 -102t-109 -62
q-11 -5 -16.5 1t-1.5 10q70 85 -24.5 127t-241.5 50q-126 6 -252.5 -8.5t-183.5 -44.5q-77 -42 -22.5 -66t165.5 -39q110 -15 237 -27t195 -27q6 -2 -22.5 -38.5t-67.5 -80t-77.5 -79t-53.5 -35.5q-104 0 -201.5 -34t-187.5 -80q-198 -101 -205 -242t100 -236
q89 -67 266 -72.5t309 38t215 118.5t138 171q23 36 41.5 28.5t-2.5 -40.5q-135 -232 -353 -401q-318 -227 -626 -219q-211 -1 -322 67.5zM1350 1885l23 27q71 85 114 196q3 10 14.5 23.5t41.5 -3.5q0 -19 -5 -31t3 -39t37 -82t73 -113t112 -110l31 34l25 -15l-153 -176
q-111 110 -168 205q-40 78 -54 97q-92 -109 -207 -216q-121 -111 -241 -164q-37 -15 -43.5 26.5t37.5 55.5q52 16 169 110q94 75 191 175zM393 -446.5q149 123.5 303 172.5q108 35 93.5 -71.5t-161.5 -178.5q-42 -22 -107 -42t-118 -17q-159 13 -10 136.5z" />
    <glyph glyph-name="Igrave" unicode="&#xcc;" horiz-adv-x="1548" 
d="M1544 1451q173 8 243 -56.5t89 -147.5q23 -105 -20 -272.5t-145 -347.5t-260 -347t-363 -270q-168 -84 -337 -111t-304 -3q-135 25 -216 98.5t-74 193.5q5 81 91.5 132t149.5 79q30 13 28.5 -9t1.5 -49q10 -111 90.5 -198t199.5 -120t260 1t273 165q283 283 324 578
t-1 404q-51 132 -169.5 165.5t-240.5 -41.5q-120 -73 -153 -177.5t4 -170.5q46 -84 167.5 -80.5t200.5 174.5q22 47 36 18t-18 -75q-44 -65 -144 -148t-206.5 -134t-194.5 -43.5t-109 124.5q-17 89 43.5 201.5t172 213.5t263 173t318.5 80zM1230 1696q-18 12 -57.5 68
t-80 120t-70.5 118t-29 62q1 7 12 -4.5t17 -18.5q41 -46 130 -102t196.5 -107.5t218 -90t193.5 -47.5q16 -6 40 -23t34 -35t-5.5 -33t-77.5 -17q-47 -1 -124 8.5t-155.5 25.5t-146 36.5t-95.5 39.5z" />
    <glyph glyph-name="Iacute" unicode="&#xcd;" horiz-adv-x="1548" 
d="M1544 1451q173 8 243 -56.5t89 -147.5q23 -105 -20 -272.5t-145 -347.5t-260 -347t-363 -270q-168 -84 -337 -111t-304 -3q-135 25 -216 98.5t-74 193.5q5 81 91.5 132t149.5 79q30 13 28.5 -9t1.5 -49q10 -111 90.5 -198t199.5 -120t260 1t273 165q283 283 324 578
t-1 404q-51 132 -169.5 165.5t-240.5 -41.5q-120 -73 -153 -177.5t4 -170.5q46 -84 167.5 -80.5t200.5 174.5q22 47 36 18t-18 -75q-44 -65 -144 -148t-206.5 -134t-194.5 -43.5t-109 124.5q-17 89 43.5 201.5t172 213.5t263 173t318.5 80zM1951.5 1668.5
q-67.5 -20.5 -146 -36.5t-155.5 -25.5t-124 -8.5q-62 2 -77.5 17t-5.5 33t34 35t40 23q84 9 194 47.5t217.5 90t196.5 107.5t131 102q5 7 16 18.5t12 4.5q1 -8 -29 -62t-70 -118t-80 -120t-58 -68q-28 -19 -95.5 -39.5z" />
    <glyph glyph-name="uni1EC8" unicode="&#x1ec8;" horiz-adv-x="1548" 
d="M1544 1451q173 8 243 -56.5t89 -147.5q23 -105 -20 -272.5t-145 -347.5t-260 -347t-363 -270q-168 -84 -337 -111t-304 -3q-135 25 -216 98.5t-74 193.5q5 81 91.5 132t149.5 79q30 13 28.5 -9t1.5 -49q10 -111 90.5 -198t199.5 -120t260 1t273 165q283 283 324 578
t-1 404q-51 132 -169.5 165.5t-240.5 -41.5q-120 -73 -153 -177.5t4 -170.5q46 -84 167.5 -80.5t200.5 174.5q22 47 36 18t-18 -75q-44 -65 -144 -148t-206.5 -134t-194.5 -43.5t-109 124.5q-17 89 43.5 201.5t172 213.5t263 173t318.5 80zM1460 1586q-24 35 13 94
q12 20 37 40.5l50 39.5q66 46 108 85.5t65 73.5q32 46 35.5 83t-4.5 68q-17 61 -74.5 74.5t-116.5 -20.5q-57 -34 -74 -81t-2 -77q19 -39 75 -37t99 80q12 23 17.5 9t-11.5 -35q-19 -25 -56.5 -56t-80.5 -55q-60 -35 -113 -40t-60 59q-6 60 57.5 137t159.5 125
q37 19 88 33.5t99.5 14t86.5 -22t48 -73.5q11 -60 -22 -114.5t-90 -104.5q-50 -42 -109.5 -80.5l-118.5 -73.5q-27 -17 9.5 -26t67.5 -6q13 1 9.5 -8.5t-29.5 -23.5q-21 -12 -40.5 -33.5t-36.5 -34.5q-62 -49 -86 -14z" />
    <glyph glyph-name="Itilde" unicode="&#x128;" horiz-adv-x="1548" 
d="M1544 1451q173 8 243 -56.5t89 -147.5q23 -105 -20 -272.5t-145 -347.5t-260 -347t-363 -270q-168 -84 -337 -111t-304 -3q-135 25 -216 98.5t-74 193.5q5 81 91.5 132t149.5 79q30 13 28.5 -9t1.5 -49q10 -111 90.5 -198t199.5 -120t260 1t273 165q283 283 324 578
t-1 404q-51 132 -169.5 165.5t-240.5 -41.5q-120 -73 -153 -177.5t4 -170.5q46 -84 167.5 -80.5t200.5 174.5q22 47 36 18t-18 -75q-44 -65 -144 -148t-206.5 -134t-194.5 -43.5t-109 124.5q-17 89 43.5 201.5t172 213.5t263 173t318.5 80zM1785.5 1593.5l-99.5 10
t-113 28.5q-89 31 -145.5 54.5t-151.5 -66.5q-25 -28 -26.5 -6.5t27.5 40.5q70 60 134.5 93.5t133.5 37t143.5 -32.5t135.5 -52t136 -8.5t80 58t-100 41.5q79 21 111 -14.5t5 -88t-121.5 -76.5t-149 -18.5z" />
    <glyph glyph-name="uni1ECA" unicode="&#x1eca;" horiz-adv-x="1548" 
d="M1544 1451q173 8 243 -56.5t89 -147.5q23 -105 -20 -272.5t-145 -347.5t-260 -347t-363 -270q-168 -84 -337 -111t-304 -3q-135 25 -216 98.5t-74 193.5q5 81 91.5 132t149.5 79q30 13 28.5 -9t1.5 -49q10 -111 90.5 -198t199.5 -120t260 1t273 165q283 283 324 578
t-1 404q-51 132 -169.5 165.5t-240.5 -41.5q-120 -73 -153 -177.5t4 -170.5q46 -84 167.5 -80.5t200.5 174.5q22 47 36 18t-18 -75q-44 -65 -144 -148t-206.5 -134t-194.5 -43.5t-109 124.5q-17 89 43.5 201.5t172 213.5t263 173t318.5 80zM447 -424.5q149 123.5 303 172.5
q108 35 93.5 -71.5t-161.5 -178.5q-42 -22 -107 -42t-118 -17q-159 13 -10 136.5z" />
    <glyph glyph-name="Ograve" unicode="&#xd2;" horiz-adv-x="1632" 
d="M231 198.5q-110 303.5 95 648.5q93 157 243.5 295.5t345.5 228.5q65 30 147 58t165 16q120 73 253 69q138 -3 258 -85.5t180 -218.5q77 -176 18 -417.5t-340 -496.5q-189 -197 -421 -292.5t-434 -99.5q-400 -9 -510 294.5zM787.5 136.5q114.5 -72.5 249.5 -71.5
q118 1 245 69.5t248 224.5q88 136 109 305t-28 313q-67 196 -208.5 277.5t-279.5 57.5q-130 -24 -223 -136.5t-84 -306.5q6 -149 91.5 -278t205.5 -130q120 0 228 146q15 20 28 -7t-9 -45q-84 -69 -219.5 -160t-266.5 -97q-167 -9 -236.5 135t-45.5 294q27 168 133 326
t220 240q31 22 29 27.5t-38 -10.5q-79 -36 -164 -93q-248 -168 -272 -431.5t99 -458.5q74 -118 188.5 -190.5zM1242 1718q-18 12 -57.5 68t-80 120t-70.5 118t-29 62q1 7 12 -4.5t17 -18.5q41 -46 130 -102t196.5 -107.5t218 -90t193.5 -47.5q16 -6 40 -23t34 -35t-5.5 -33
t-77.5 -17q-47 -1 -124 8.5t-155.5 25.5t-146 36.5t-95.5 39.5z" />
    <glyph glyph-name="Oacute" unicode="&#xd3;" horiz-adv-x="1632" 
d="M231 198.5q-110 303.5 95 648.5q93 157 243.5 295.5t345.5 228.5q65 30 147 58t165 16q120 73 253 69q138 -3 258 -85.5t180 -218.5q77 -176 18 -417.5t-340 -496.5q-189 -197 -421 -292.5t-434 -99.5q-400 -9 -510 294.5zM787.5 136.5q114.5 -72.5 249.5 -71.5
q118 1 245 69.5t248 224.5q88 136 109 305t-28 313q-67 196 -208.5 277.5t-279.5 57.5q-130 -24 -223 -136.5t-84 -306.5q6 -149 91.5 -278t205.5 -130q120 0 228 146q15 20 28 -7t-9 -45q-84 -69 -219.5 -160t-266.5 -97q-167 -9 -236.5 135t-45.5 294q27 168 133 326
t220 240q31 22 29 27.5t-38 -10.5q-79 -36 -164 -93q-248 -168 -272 -431.5t99 -458.5q74 -118 188.5 -190.5zM1842.5 1668.5q-67.5 -20.5 -146 -36.5t-155.5 -25.5t-124 -8.5q-62 2 -77.5 17t-5.5 33t34 35t40 23q84 9 194 47.5t217.5 90t196.5 107.5t131 102q5 7 16 18.5
t12 4.5q1 -8 -29 -62t-70 -118t-80 -120t-58 -68q-28 -19 -95.5 -39.5z" />
    <glyph glyph-name="uni1ECE" unicode="&#x1ece;" horiz-adv-x="1632" 
d="M231 198.5q-110 303.5 95 648.5q93 157 243.5 295.5t345.5 228.5q65 30 147 58t165 16q120 73 253 69q138 -3 258 -85.5t180 -218.5q77 -176 18 -417.5t-340 -496.5q-189 -197 -421 -292.5t-434 -99.5q-400 -9 -510 294.5zM787.5 136.5q114.5 -72.5 249.5 -71.5
q118 1 245 69.5t248 224.5q88 136 109 305t-28 313q-67 196 -208.5 277.5t-279.5 57.5q-130 -24 -223 -136.5t-84 -306.5q6 -149 91.5 -278t205.5 -130q120 0 228 146q15 20 28 -7t-9 -45q-84 -69 -219.5 -160t-266.5 -97q-167 -9 -236.5 135t-45.5 294q27 168 133 326
t220 240q31 22 29 27.5t-38 -10.5q-79 -36 -164 -93q-248 -168 -272 -431.5t99 -458.5q74 -118 188.5 -190.5zM1242 1551q-24 35 13 94q12 20 37 40.5l50 39.5q66 46 108 85.5t65 73.5q32 46 35.5 83t-4.5 68q-17 61 -74.5 74.5t-116.5 -20.5q-57 -34 -74 -81t-2 -77
q19 -39 75 -37t99 80q12 23 17.5 9t-11.5 -35q-19 -25 -56.5 -56t-80.5 -55q-60 -35 -113 -40t-60 59q-6 60 57.5 137t159.5 125q37 19 88 33.5t99.5 14t86.5 -22t48 -73.5q11 -60 -22 -114.5t-90 -104.5q-50 -42 -109.5 -80.5l-118.5 -73.5q-27 -17 9.5 -26t67.5 -6
q13 1 9.5 -8.5t-29.5 -23.5q-21 -12 -40.5 -33.5t-36.5 -34.5q-62 -49 -86 -14z" />
    <glyph glyph-name="Otilde" unicode="&#xd5;" horiz-adv-x="1632" 
d="M231 198.5q-110 303.5 95 648.5q93 157 243.5 295.5t345.5 228.5q65 30 147 58t165 16q120 73 253 69q138 -3 258 -85.5t180 -218.5q77 -176 18 -417.5t-340 -496.5q-189 -197 -421 -292.5t-434 -99.5q-400 -9 -510 294.5zM787.5 136.5q114.5 -72.5 249.5 -71.5
q118 1 245 69.5t248 224.5q88 136 109 305t-28 313q-67 196 -208.5 277.5t-279.5 57.5q-130 -24 -223 -136.5t-84 -306.5q6 -149 91.5 -278t205.5 -130q120 0 228 146q15 20 28 -7t-9 -45q-84 -69 -219.5 -160t-266.5 -97q-167 -9 -236.5 135t-45.5 294q27 168 133 326
t220 240q31 22 29 27.5t-38 -10.5q-79 -36 -164 -93q-248 -168 -272 -431.5t99 -458.5q74 -118 188.5 -190.5zM1780.5 1593.5l-99.5 10t-113 28.5q-89 31 -145.5 54.5t-151.5 -66.5q-25 -28 -26.5 -6.5t27.5 40.5q70 60 134.5 93.5t133.5 37t143.5 -32.5t135.5 -52t136 -8.5
t80 58t-100 41.5q79 21 111 -14.5t5 -88t-121.5 -76.5t-149 -18.5z" />
    <glyph glyph-name="uni1ECC" unicode="&#x1ecc;" horiz-adv-x="1632" 
d="M231 198.5q-110 303.5 95 648.5q93 157 243.5 295.5t345.5 228.5q65 30 147 58t165 16q120 73 253 69q138 -3 258 -85.5t180 -218.5q77 -176 18 -417.5t-340 -496.5q-189 -197 -421 -292.5t-434 -99.5q-400 -9 -510 294.5zM787.5 136.5q114.5 -72.5 249.5 -71.5
q118 1 245 69.5t248 224.5q88 136 109 305t-28 313q-67 196 -208.5 277.5t-279.5 57.5q-130 -24 -223 -136.5t-84 -306.5q6 -149 91.5 -278t205.5 -130q120 0 228 146q15 20 28 -7t-9 -45q-84 -69 -219.5 -160t-266.5 -97q-167 -9 -236.5 135t-45.5 294q27 168 133 326
t220 240q31 22 29 27.5t-38 -10.5q-79 -36 -164 -93q-248 -168 -272 -431.5t99 -458.5q74 -118 188.5 -190.5zM442 -424.5q149 123.5 303 172.5q108 35 93.5 -71.5t-161.5 -178.5q-42 -22 -107 -42t-118 -17q-159 13 -10 136.5z" />
    <glyph glyph-name="Ocircumflex" unicode="&#xd4;" horiz-adv-x="1632" 
d="M231 198.5q-110 303.5 95 648.5q93 157 243.5 295.5t345.5 228.5q65 30 147 58t165 16q120 73 253 69q138 -3 258 -85.5t180 -218.5q77 -176 18 -417.5t-340 -496.5q-189 -197 -421 -292.5t-434 -99.5q-400 -9 -510 294.5zM787.5 136.5q114.5 -72.5 249.5 -71.5
q118 1 245 69.5t248 224.5q88 136 109 305t-28 313q-67 196 -208.5 277.5t-279.5 57.5q-130 -24 -223 -136.5t-84 -306.5q6 -149 91.5 -278t205.5 -130q120 0 228 146q15 20 28 -7t-9 -45q-84 -69 -219.5 -160t-266.5 -97q-167 -9 -236.5 135t-45.5 294q27 168 133 326
t220 240q31 22 29 27.5t-38 -10.5q-79 -36 -164 -93q-248 -168 -272 -431.5t99 -458.5q74 -118 188.5 -190.5zM1399 1885l23 27q71 85 114 196q3 10 14.5 23.5t41.5 -3.5q0 -19 -5 -31t3 -39t37 -82t73 -113t112 -110l31 34l25 -15l-153 -176q-111 110 -168 205
q-40 78 -54 97q-92 -109 -207 -216q-121 -111 -241 -164q-37 -15 -43.5 26.5t37.5 55.5q52 16 169 110q94 75 191 175z" />
    <glyph glyph-name="uni1ED2" unicode="&#x1ed2;" horiz-adv-x="1632" 
d="M231 198.5q-110 303.5 95 648.5q93 157 243.5 295.5t345.5 228.5q65 30 147 58t165 16q120 73 253 69q138 -3 258 -85.5t180 -218.5q77 -176 18 -417.5t-340 -496.5q-189 -197 -421 -292.5t-434 -99.5q-400 -9 -510 294.5zM787.5 136.5q114.5 -72.5 249.5 -71.5
q118 1 245 69.5t248 224.5q88 136 109 305t-28 313q-67 196 -208.5 277.5t-279.5 57.5q-130 -24 -223 -136.5t-84 -306.5q6 -149 91.5 -278t205.5 -130q120 0 228 146q15 20 28 -7t-9 -45q-84 -69 -219.5 -160t-266.5 -97q-167 -9 -236.5 135t-45.5 294q27 168 133 326
t220 240q31 22 29 27.5t-38 -10.5q-79 -36 -164 -93q-248 -168 -272 -431.5t99 -458.5q74 -118 188.5 -190.5zM1399 1885l23 27q71 85 114 196q3 10 14.5 23.5t41.5 -3.5q0 -19 -5 -31t3 -39t37 -82t73 -113t112 -110l31 34l25 -15l-153 -176q-111 110 -168 205
q-40 78 -54 97q-92 -109 -207 -216q-121 -111 -241 -164q-37 -15 -43.5 26.5t37.5 55.5q52 16 169 110q94 75 191 175zM1227 2294q-18 12 -57.5 68t-80 120t-70.5 118t-29 62q1 7 12 -4.5t17 -18.5q41 -46 130 -102t196.5 -107.5t218 -90t193.5 -47.5q16 -6 40 -23t34 -35
t-5.5 -33t-77.5 -17q-47 -1 -124 8.5t-155.5 25.5t-146 36.5t-95.5 39.5z" />
    <glyph glyph-name="uni1ED0" unicode="&#x1ed0;" horiz-adv-x="1632" 
d="M231 198.5q-110 303.5 95 648.5q93 157 243.5 295.5t345.5 228.5q65 30 147 58t165 16q120 73 253 69q138 -3 258 -85.5t180 -218.5q77 -176 18 -417.5t-340 -496.5q-189 -197 -421 -292.5t-434 -99.5q-400 -9 -510 294.5zM787.5 136.5q114.5 -72.5 249.5 -71.5
q118 1 245 69.5t248 224.5q88 136 109 305t-28 313q-67 196 -208.5 277.5t-279.5 57.5q-130 -24 -223 -136.5t-84 -306.5q6 -149 91.5 -278t205.5 -130q120 0 228 146q15 20 28 -7t-9 -45q-84 -69 -219.5 -160t-266.5 -97q-167 -9 -236.5 135t-45.5 294q27 168 133 326
t220 240q31 22 29 27.5t-38 -10.5q-79 -36 -164 -93q-248 -168 -272 -431.5t99 -458.5q74 -118 188.5 -190.5zM1399 1885l23 27q71 85 114 196q3 10 14.5 23.5t41.5 -3.5q0 -19 -5 -31t3 -39t37 -82t73 -113t112 -110l31 34l25 -15l-153 -176q-111 110 -168 205
q-40 78 -54 97q-92 -109 -207 -216q-121 -111 -241 -164q-37 -15 -43.5 26.5t37.5 55.5q52 16 169 110q94 75 191 175zM2250.5 1954.5q-67.5 -20.5 -146 -36.5t-155.5 -25.5t-124 -8.5q-62 2 -77.5 17t-5.5 33t34 35t40 23q84 9 194 47.5t217.5 90t196.5 107.5t131 102
q5 7 16 18.5t12 4.5q1 -8 -29 -62t-70 -118t-80 -120t-58 -68q-28 -19 -95.5 -39.5z" />
    <glyph glyph-name="uni1ED4" unicode="&#x1ed4;" horiz-adv-x="1632" 
d="M231 198.5q-110 303.5 95 648.5q93 157 243.5 295.5t345.5 228.5q65 30 147 58t165 16q120 73 253 69q138 -3 258 -85.5t180 -218.5q77 -176 18 -417.5t-340 -496.5q-189 -197 -421 -292.5t-434 -99.5q-400 -9 -510 294.5zM787.5 136.5q114.5 -72.5 249.5 -71.5
q118 1 245 69.5t248 224.5q88 136 109 305t-28 313q-67 196 -208.5 277.5t-279.5 57.5q-130 -24 -223 -136.5t-84 -306.5q6 -149 91.5 -278t205.5 -130q120 0 228 146q15 20 28 -7t-9 -45q-84 -69 -219.5 -160t-266.5 -97q-167 -9 -236.5 135t-45.5 294q27 168 133 326
t220 240q31 22 29 27.5t-38 -10.5q-79 -36 -164 -93q-248 -168 -272 -431.5t99 -458.5q74 -118 188.5 -190.5zM1399 1885l23 27q71 85 114 196q3 10 14.5 23.5t41.5 -3.5q0 -19 -5 -31t3 -39t37 -82t73 -113t112 -110l31 34l25 -15l-153 -176q-111 110 -168 205
q-40 78 -54 97q-92 -109 -207 -216q-121 -111 -241 -164q-37 -15 -43.5 26.5t37.5 55.5q52 16 169 110q94 75 191 175zM1743 1958q-24 35 13 94q12 20 37 40.5l50 39.5q66 46 108 85.5t65 73.5q32 46 35.5 83t-4.5 68q-17 61 -74.5 74.5t-116.5 -20.5q-57 -34 -74 -81
t-2 -77q19 -39 75 -37t99 80q12 23 17.5 9t-11.5 -35q-19 -25 -56.5 -56t-80.5 -55q-60 -35 -113 -40t-60 59q-6 60 57.5 137t159.5 125q37 19 88 33.5t99.5 14t86.5 -22t48 -73.5q11 -60 -22 -114.5t-90 -104.5q-50 -42 -109.5 -80.5l-118.5 -73.5q-27 -17 9.5 -26t67.5 -6
q13 1 9.5 -8.5t-29.5 -23.5q-21 -12 -40.5 -33.5t-36.5 -34.5q-62 -49 -86 -14z" />
    <glyph glyph-name="uni1ED6" unicode="&#x1ed6;" horiz-adv-x="1632" 
d="M231 198.5q-110 303.5 95 648.5q93 157 243.5 295.5t345.5 228.5q65 30 147 58t165 16q120 73 253 69q138 -3 258 -85.5t180 -218.5q77 -176 18 -417.5t-340 -496.5q-189 -197 -421 -292.5t-434 -99.5q-400 -9 -510 294.5zM787.5 136.5q114.5 -72.5 249.5 -71.5
q118 1 245 69.5t248 224.5q88 136 109 305t-28 313q-67 196 -208.5 277.5t-279.5 57.5q-130 -24 -223 -136.5t-84 -306.5q6 -149 91.5 -278t205.5 -130q120 0 228 146q15 20 28 -7t-9 -45q-84 -69 -219.5 -160t-266.5 -97q-167 -9 -236.5 135t-45.5 294q27 168 133 326
t220 240q31 22 29 27.5t-38 -10.5q-79 -36 -164 -93q-248 -168 -272 -431.5t99 -458.5q74 -118 188.5 -190.5zM1399 1885l23 27q71 85 114 196q3 10 14.5 23.5t41.5 -3.5q0 -19 -5 -31t3 -39t37 -82t73 -113t112 -110l31 34l25 -15l-153 -176q-111 110 -168 205
q-40 78 -54 97q-92 -109 -207 -216q-121 -111 -241 -164q-37 -15 -43.5 26.5t37.5 55.5q52 16 169 110q94 75 191 175zM1873.5 2099.5l-99.5 10t-113 28.5q-89 31 -145.5 54.5t-151.5 -66.5q-25 -28 -26.5 -6.5t27.5 40.5q70 60 134.5 93.5t133.5 37t143.5 -32.5t135.5 -52
t136 -8.5t80 58t-100 41.5q79 21 111 -14.5t5 -88t-121.5 -76.5t-149 -18.5z" />
    <glyph glyph-name="uni1ED8" unicode="&#x1ed8;" horiz-adv-x="1632" 
d="M231 198.5q-110 303.5 95 648.5q93 157 243.5 295.5t345.5 228.5q65 30 147 58t165 16q120 73 253 69q138 -3 258 -85.5t180 -218.5q77 -176 18 -417.5t-340 -496.5q-189 -197 -421 -292.5t-434 -99.5q-400 -9 -510 294.5zM787.5 136.5q114.5 -72.5 249.5 -71.5
q118 1 245 69.5t248 224.5q88 136 109 305t-28 313q-67 196 -208.5 277.5t-279.5 57.5q-130 -24 -223 -136.5t-84 -306.5q6 -149 91.5 -278t205.5 -130q120 0 228 146q15 20 28 -7t-9 -45q-84 -69 -219.5 -160t-266.5 -97q-167 -9 -236.5 135t-45.5 294q27 168 133 326
t220 240q31 22 29 27.5t-38 -10.5q-79 -36 -164 -93q-248 -168 -272 -431.5t99 -458.5q74 -118 188.5 -190.5zM1399 1885l23 27q71 85 114 196q3 10 14.5 23.5t41.5 -3.5q0 -19 -5 -31t3 -39t37 -82t73 -113t112 -110l31 34l25 -15l-153 -176q-111 110 -168 205
q-40 78 -54 97q-92 -109 -207 -216q-121 -111 -241 -164q-37 -15 -43.5 26.5t37.5 55.5q52 16 169 110q94 75 191 175zM442 -424.5q149 123.5 303 172.5q108 35 93.5 -71.5t-161.5 -178.5q-42 -22 -107 -42t-118 -17q-159 13 -10 136.5z" />
    <glyph glyph-name="Ugrave" unicode="&#xd9;" horiz-adv-x="1906" 
d="M755.5 70.5q-36.5 149.5 151.5 455.5l202.5 333t137.5 273q25 84 -29.5 138t-148 72t-204.5 -2.5t-197 -83.5q-128 -94 -165.5 -218.5t24.5 -193.5q51 -57 181 -41.5t204 137.5q24 41 33.5 4t-10.5 -57q-51 -50 -174.5 -130t-253.5 -114q-207 -54 -260.5 42t20.5 245
q58 114 188.5 234t321.5 199q380 156 598.5 72.5t149.5 -264.5q-26 -68 -94 -178l-145 -232.5t-145.5 -242.5t-94.5 -207q-52 -172 38 -172.5t205 92.5q94 76 192.5 191t191.5 247q103 148 190 301.5t141 279.5l0.5 -0.5l0.5 -0.5q31 81 149.5 101.5t204.5 48.5
q151 48 112 5q-94 -102 -215 -292t-222 -387q-124 -243 -175.5 -403t50.5 -153q69 4 150.5 79t99.5 84q27 16 24 -2t-30 -54q-72 -90 -167.5 -182.5t-228.5 -167.5q-102 -39 -155.5 -4.5t-58 113.5t25.5 181t64 180q34 81 83 188q20 44 16 54t-37 -32l-141 -182.5
t-199.5 -234t-223.5 -199t-213 -77.5q-126 8 -162.5 157.5zM1544 1718q-18 12 -57.5 68t-80 120t-70.5 118t-29 62q1 7 12 -4.5t17 -18.5q41 -46 130 -102t196.5 -107.5t218 -90t193.5 -47.5q16 -6 40 -23t34 -35t-5.5 -33t-77.5 -17q-47 -1 -124 8.5t-155.5 25.5t-146 36.5
t-95.5 39.5z" />
    <glyph glyph-name="Uacute" unicode="&#xda;" horiz-adv-x="1906" 
d="M755.5 70.5q-36.5 149.5 151.5 455.5l202.5 333t137.5 273q25 84 -29.5 138t-148 72t-204.5 -2.5t-197 -83.5q-128 -94 -165.5 -218.5t24.5 -193.5q51 -57 181 -41.5t204 137.5q24 41 33.5 4t-10.5 -57q-51 -50 -174.5 -130t-253.5 -114q-207 -54 -260.5 42t20.5 245
q58 114 188.5 234t321.5 199q380 156 598.5 72.5t149.5 -264.5q-26 -68 -94 -178l-145 -232.5t-145.5 -242.5t-94.5 -207q-52 -172 38 -172.5t205 92.5q94 76 192.5 191t191.5 247q103 148 190 301.5t141 279.5l0.5 -0.5l0.5 -0.5q31 81 149.5 101.5t204.5 48.5
q151 48 112 5q-94 -102 -215 -292t-222 -387q-124 -243 -175.5 -403t50.5 -153q69 4 150.5 79t99.5 84q27 16 24 -2t-30 -54q-72 -90 -167.5 -182.5t-228.5 -167.5q-102 -39 -155.5 -4.5t-58 113.5t25.5 181t64 180q34 81 83 188q20 44 16 54t-37 -32l-141 -182.5
t-199.5 -234t-223.5 -199t-213 -77.5q-126 8 -162.5 157.5zM2242.5 1668.5q-67.5 -20.5 -146 -36.5t-155.5 -25.5t-124 -8.5q-62 2 -77.5 17t-5.5 33t34 35t40 23q84 9 194 47.5t217.5 90t196.5 107.5t131 102q5 7 16 18.5t12 4.5q1 -8 -29 -62t-70 -118t-80 -120t-58 -68
q-28 -19 -95.5 -39.5z" />
    <glyph glyph-name="uni1EE6" unicode="&#x1ee6;" horiz-adv-x="1906" 
d="M755.5 70.5q-36.5 149.5 151.5 455.5l202.5 333t137.5 273q25 84 -29.5 138t-148 72t-204.5 -2.5t-197 -83.5q-128 -94 -165.5 -218.5t24.5 -193.5q51 -57 181 -41.5t204 137.5q24 41 33.5 4t-10.5 -57q-51 -50 -174.5 -130t-253.5 -114q-207 -54 -260.5 42t20.5 245
q58 114 188.5 234t321.5 199q380 156 598.5 72.5t149.5 -264.5q-26 -68 -94 -178l-145 -232.5t-145.5 -242.5t-94.5 -207q-52 -172 38 -172.5t205 92.5q94 76 192.5 191t191.5 247q103 148 190 301.5t141 279.5l0.5 -0.5l0.5 -0.5q31 81 149.5 101.5t204.5 48.5
q151 48 112 5q-94 -102 -215 -292t-222 -387q-124 -243 -175.5 -403t50.5 -153q69 4 150.5 79t99.5 84q27 16 24 -2t-30 -54q-72 -90 -167.5 -182.5t-228.5 -167.5q-102 -39 -155.5 -4.5t-58 113.5t25.5 181t64 180q34 81 83 188q20 44 16 54t-37 -32l-141 -182.5
t-199.5 -234t-223.5 -199t-213 -77.5q-126 8 -162.5 157.5zM1828 1551q-24 35 13 94q12 20 37 40.5l50 39.5q66 46 108 85.5t65 73.5q32 46 35.5 83t-4.5 68q-17 61 -74.5 74.5t-116.5 -20.5q-57 -34 -74 -81t-2 -77q19 -39 75 -37t99 80q12 23 17.5 9t-11.5 -35
q-19 -25 -56.5 -56t-80.5 -55q-60 -35 -113 -40t-60 59q-6 60 57.5 137t159.5 125q37 19 88 33.5t99.5 14t86.5 -22t48 -73.5q11 -60 -22 -114.5t-90 -104.5q-50 -42 -109.5 -80.5l-118.5 -73.5q-27 -17 9.5 -26t67.5 -6q13 1 9.5 -8.5t-29.5 -23.5q-21 -12 -40.5 -33.5
t-36.5 -34.5q-62 -49 -86 -14z" />
    <glyph glyph-name="Utilde" unicode="&#x168;" horiz-adv-x="1906" 
d="M755.5 70.5q-36.5 149.5 151.5 455.5l202.5 333t137.5 273q25 84 -29.5 138t-148 72t-204.5 -2.5t-197 -83.5q-128 -94 -165.5 -218.5t24.5 -193.5q51 -57 181 -41.5t204 137.5q24 41 33.5 4t-10.5 -57q-51 -50 -174.5 -130t-253.5 -114q-207 -54 -260.5 42t20.5 245
q58 114 188.5 234t321.5 199q380 156 598.5 72.5t149.5 -264.5q-26 -68 -94 -178l-145 -232.5t-145.5 -242.5t-94.5 -207q-52 -172 38 -172.5t205 92.5q94 76 192.5 191t191.5 247q103 148 190 301.5t141 279.5l0.5 -0.5l0.5 -0.5q31 81 149.5 101.5t204.5 48.5
q151 48 112 5q-94 -102 -215 -292t-222 -387q-124 -243 -175.5 -403t50.5 -153q69 4 150.5 79t99.5 84q27 16 24 -2t-30 -54q-72 -90 -167.5 -182.5t-228.5 -167.5q-102 -39 -155.5 -4.5t-58 113.5t25.5 181t64 180q34 81 83 188q20 44 16 54t-37 -32l-141 -182.5
t-199.5 -234t-223.5 -199t-213 -77.5q-126 8 -162.5 157.5zM2115.5 1593.5l-99.5 10t-113 28.5q-89 31 -145.5 54.5t-151.5 -66.5q-25 -28 -26.5 -6.5t27.5 40.5q70 60 134.5 93.5t133.5 37t143.5 -32.5t135.5 -52t136 -8.5t80 58t-100 41.5q79 21 111 -14.5t5 -88
t-121.5 -76.5t-149 -18.5z" />
    <glyph glyph-name="uni1EE4" unicode="&#x1ee4;" horiz-adv-x="1906" 
d="M755.5 70.5q-36.5 149.5 151.5 455.5l202.5 333t137.5 273q25 84 -29.5 138t-148 72t-204.5 -2.5t-197 -83.5q-128 -94 -165.5 -218.5t24.5 -193.5q51 -57 181 -41.5t204 137.5q24 41 33.5 4t-10.5 -57q-51 -50 -174.5 -130t-253.5 -114q-207 -54 -260.5 42t20.5 245
q58 114 188.5 234t321.5 199q380 156 598.5 72.5t149.5 -264.5q-26 -68 -94 -178l-145 -232.5t-145.5 -242.5t-94.5 -207q-52 -172 38 -172.5t205 92.5q94 76 192.5 191t191.5 247q103 148 190 301.5t141 279.5l0.5 -0.5l0.5 -0.5q31 81 149.5 101.5t204.5 48.5
q151 48 112 5q-94 -102 -215 -292t-222 -387q-124 -243 -175.5 -403t50.5 -153q69 4 150.5 79t99.5 84q27 16 24 -2t-30 -54q-72 -90 -167.5 -182.5t-228.5 -167.5q-102 -39 -155.5 -4.5t-58 113.5t25.5 181t64 180q34 81 83 188q20 44 16 54t-37 -32l-141 -182.5
t-199.5 -234t-223.5 -199t-213 -77.5q-126 8 -162.5 157.5zM1039 -424.5q149 123.5 303 172.5q108 35 93.5 -71.5t-161.5 -178.5q-42 -22 -107 -42t-118 -17q-159 13 -10 136.5z" />
    <glyph glyph-name="Uhorn" unicode="&#x1af;" horiz-adv-x="1906" 
d="M2334 1229q-38 -54 -78 -117q-121 -190 -222 -387q-124 -243 -175.5 -403t50.5 -153q69 4 150.5 79t99.5 84q27 16 24 -2t-30 -54q-72 -90 -167.5 -182.5t-228.5 -167.5q-102 -39 -155.5 -4.5t-58 113.5t25.5 181t64 180q34 81 83 188q20 44 16 54t-37 -32l-141 -182.5
t-199.5 -234t-223.5 -199t-213 -77.5q-126 8 -162.5 157.5t151.5 455.5l202.5 333t137.5 273q25 84 -29.5 138t-148 72t-204.5 -2.5t-197 -83.5q-128 -94 -165.5 -218.5t24.5 -193.5q51 -57 181 -41.5t204 137.5q24 41 33.5 4t-10.5 -57q-51 -50 -174.5 -130t-253.5 -114
q-207 -54 -260.5 42t20.5 245q58 114 188.5 234t321.5 199q380 156 598.5 72.5t149.5 -264.5q-26 -68 -94 -178l-145 -232.5t-145.5 -242.5t-94.5 -207q-52 -172 38 -172.5t205 92.5q94 76 192.5 191t191.5 247q103 148 190 301.5t141 279.5h1v-1q31 81 149.5 101.5
t204.5 48.5q151 48 112 5q-45 -49 -96 -118q71 37 123 87q79 76 45 119q-14 19 -42 12.5t-46 0.5q-104 41 20 92.5t235 52.5q53 1 73 -42.5t-13 -88.5q-72 -97 -199 -171t-234 -118q-2 -1 -3 -1z" />
    <glyph glyph-name="uni1EEA" unicode="&#x1eea;" horiz-adv-x="1906" 
d="M1544 1718q-18 12 -57.5 68t-80 120t-70.5 118t-29 62q1 7 12 -4.5t17 -18.5q41 -46 130 -102t196.5 -107.5t218 -90t193.5 -47.5q16 -6 40 -23t34 -35t-5.5 -33t-77.5 -17q-47 -1 -124 8.5t-155.5 25.5t-146 36.5t-95.5 39.5zM2334 1229q-38 -54 -78 -117
q-121 -190 -222 -387q-124 -243 -175.5 -403t50.5 -153q69 4 150.5 79t99.5 84q27 16 24 -2t-30 -54q-72 -90 -167.5 -182.5t-228.5 -167.5q-102 -39 -155.5 -4.5t-58 113.5t25.5 181t64 180q34 81 83 188q20 44 16 54t-37 -32l-141 -182.5t-199.5 -234t-223.5 -199
t-213 -77.5q-126 8 -162.5 157.5t151.5 455.5l202.5 333t137.5 273q25 84 -29.5 138t-148 72t-204.5 -2.5t-197 -83.5q-128 -94 -165.5 -218.5t24.5 -193.5q51 -57 181 -41.5t204 137.5q24 41 33.5 4t-10.5 -57q-51 -50 -174.5 -130t-253.5 -114q-207 -54 -260.5 42
t20.5 245q58 114 188.5 234t321.5 199q380 156 598.5 72.5t149.5 -264.5q-26 -68 -94 -178l-145 -232.5t-145.5 -242.5t-94.5 -207q-52 -172 38 -172.5t205 92.5q94 76 192.5 191t191.5 247q103 148 190 301.5t141 279.5h1v-1q31 81 149.5 101.5t204.5 48.5q151 48 112 5
q-45 -49 -96 -118q71 37 123 87q79 76 45 119q-14 19 -42 12.5t-46 0.5q-104 41 20 92.5t235 52.5q53 1 73 -42.5t-13 -88.5q-72 -97 -199 -171t-234 -118q-2 -1 -3 -1z" />
    <glyph glyph-name="uni1EE8" unicode="&#x1ee8;" horiz-adv-x="1906" 
d="M2242.5 1668.5q-67.5 -20.5 -146 -36.5t-155.5 -25.5t-124 -8.5q-62 2 -77.5 17t-5.5 33t34 35t40 23q84 9 194 47.5t217.5 90t196.5 107.5t131 102q5 7 16 18.5t12 4.5q1 -8 -29 -62t-70 -118t-80 -120t-58 -68q-28 -19 -95.5 -39.5zM2334 1229q-38 -54 -78 -117
q-121 -190 -222 -387q-124 -243 -175.5 -403t50.5 -153q69 4 150.5 79t99.5 84q27 16 24 -2t-30 -54q-72 -90 -167.5 -182.5t-228.5 -167.5q-102 -39 -155.5 -4.5t-58 113.5t25.5 181t64 180q34 81 83 188q20 44 16 54t-37 -32l-141 -182.5t-199.5 -234t-223.5 -199
t-213 -77.5q-126 8 -162.5 157.5t151.5 455.5l202.5 333t137.5 273q25 84 -29.5 138t-148 72t-204.5 -2.5t-197 -83.5q-128 -94 -165.5 -218.5t24.5 -193.5q51 -57 181 -41.5t204 137.5q24 41 33.5 4t-10.5 -57q-51 -50 -174.5 -130t-253.5 -114q-207 -54 -260.5 42
t20.5 245q58 114 188.5 234t321.5 199q380 156 598.5 72.5t149.5 -264.5q-26 -68 -94 -178l-145 -232.5t-145.5 -242.5t-94.5 -207q-52 -172 38 -172.5t205 92.5q94 76 192.5 191t191.5 247q103 148 190 301.5t141 279.5h1v-1q31 81 149.5 101.5t204.5 48.5q151 48 112 5
q-45 -49 -96 -118q71 37 123 87q79 76 45 119q-14 19 -42 12.5t-46 0.5q-104 41 20 92.5t235 52.5q53 1 73 -42.5t-13 -88.5q-72 -97 -199 -171t-234 -118q-2 -1 -3 -1z" />
    <glyph glyph-name="uni1EEC" unicode="&#x1eec;" horiz-adv-x="1906" 
d="M1828 1551q-24 35 13 94q12 20 37 40.5l50 39.5q66 46 108 85.5t65 73.5q32 46 35.5 83t-4.5 68q-17 61 -74.5 74.5t-116.5 -20.5q-57 -34 -74 -81t-2 -77q19 -39 75 -37t99 80q12 23 17.5 9t-11.5 -35q-19 -25 -56.5 -56t-80.5 -55q-60 -35 -113 -40t-60 59
q-6 60 57.5 137t159.5 125q37 19 88 33.5t99.5 14t86.5 -22t48 -73.5q11 -60 -22 -114.5t-90 -104.5q-50 -42 -109.5 -80.5l-118.5 -73.5q-27 -17 9.5 -26t67.5 -6q13 1 9.5 -8.5t-29.5 -23.5q-21 -12 -40.5 -33.5t-36.5 -34.5q-62 -49 -86 -14zM2334 1229q-38 -54 -78 -117
q-121 -190 -222 -387q-124 -243 -175.5 -403t50.5 -153q69 4 150.5 79t99.5 84q27 16 24 -2t-30 -54q-72 -90 -167.5 -182.5t-228.5 -167.5q-102 -39 -155.5 -4.5t-58 113.5t25.5 181t64 180q34 81 83 188q20 44 16 54t-37 -32l-141 -182.5t-199.5 -234t-223.5 -199
t-213 -77.5q-126 8 -162.5 157.5t151.5 455.5l202.5 333t137.5 273q25 84 -29.5 138t-148 72t-204.5 -2.5t-197 -83.5q-128 -94 -165.5 -218.5t24.5 -193.5q51 -57 181 -41.5t204 137.5q24 41 33.5 4t-10.5 -57q-51 -50 -174.5 -130t-253.5 -114q-207 -54 -260.5 42
t20.5 245q58 114 188.5 234t321.5 199q380 156 598.5 72.5t149.5 -264.5q-26 -68 -94 -178l-145 -232.5t-145.5 -242.5t-94.5 -207q-52 -172 38 -172.5t205 92.5q94 76 192.5 191t191.5 247q103 148 190 301.5t141 279.5h1v-1q31 81 149.5 101.5t204.5 48.5q151 48 112 5
q-45 -49 -96 -118q71 37 123 87q79 76 45 119q-14 19 -42 12.5t-46 0.5q-104 41 20 92.5t235 52.5q53 1 73 -42.5t-13 -88.5q-72 -97 -199 -171t-234 -118q-2 -1 -3 -1z" />
    <glyph glyph-name="uni1EEE" unicode="&#x1eee;" horiz-adv-x="1906" 
d="M2115.5 1593.5l-99.5 10t-113 28.5q-89 31 -145.5 54.5t-151.5 -66.5q-25 -28 -26.5 -6.5t27.5 40.5q70 60 134.5 93.5t133.5 37t143.5 -32.5t135.5 -52t136 -8.5t80 58t-100 41.5q79 21 111 -14.5t5 -88t-121.5 -76.5t-149 -18.5zM2334 1229q-38 -54 -78 -117
q-121 -190 -222 -387q-124 -243 -175.5 -403t50.5 -153q69 4 150.5 79t99.5 84q27 16 24 -2t-30 -54q-72 -90 -167.5 -182.5t-228.5 -167.5q-102 -39 -155.5 -4.5t-58 113.5t25.5 181t64 180q34 81 83 188q20 44 16 54t-37 -32l-141 -182.5t-199.5 -234t-223.5 -199
t-213 -77.5q-126 8 -162.5 157.5t151.5 455.5l202.5 333t137.5 273q25 84 -29.5 138t-148 72t-204.5 -2.5t-197 -83.5q-128 -94 -165.5 -218.5t24.5 -193.5q51 -57 181 -41.5t204 137.5q24 41 33.5 4t-10.5 -57q-51 -50 -174.5 -130t-253.5 -114q-207 -54 -260.5 42
t20.5 245q58 114 188.5 234t321.5 199q380 156 598.5 72.5t149.5 -264.5q-26 -68 -94 -178l-145 -232.5t-145.5 -242.5t-94.5 -207q-52 -172 38 -172.5t205 92.5q94 76 192.5 191t191.5 247q103 148 190 301.5t141 279.5h1v-1q31 81 149.5 101.5t204.5 48.5q151 48 112 5
q-45 -49 -96 -118q71 37 123 87q79 76 45 119q-14 19 -42 12.5t-46 0.5q-104 41 20 92.5t235 52.5q53 1 73 -42.5t-13 -88.5q-72 -97 -199 -171t-234 -118q-2 -1 -3 -1z" />
    <glyph glyph-name="uni1EF0" unicode="&#x1ef0;" horiz-adv-x="1906" 
d="M1039 -424.5q149 123.5 303 172.5q108 35 93.5 -71.5t-161.5 -178.5q-42 -22 -107 -42t-118 -17q-159 13 -10 136.5zM2334 1229q-38 -54 -78 -117q-121 -190 -222 -387q-124 -243 -175.5 -403t50.5 -153q69 4 150.5 79t99.5 84q27 16 24 -2t-30 -54
q-72 -90 -167.5 -182.5t-228.5 -167.5q-102 -39 -155.5 -4.5t-58 113.5t25.5 181t64 180q34 81 83 188q20 44 16 54t-37 -32l-141 -182.5t-199.5 -234t-223.5 -199t-213 -77.5q-126 8 -162.5 157.5t151.5 455.5l202.5 333t137.5 273q25 84 -29.5 138t-148 72t-204.5 -2.5
t-197 -83.5q-128 -94 -165.5 -218.5t24.5 -193.5q51 -57 181 -41.5t204 137.5q24 41 33.5 4t-10.5 -57q-51 -50 -174.5 -130t-253.5 -114q-207 -54 -260.5 42t20.5 245q58 114 188.5 234t321.5 199q380 156 598.5 72.5t149.5 -264.5q-26 -68 -94 -178l-145 -232.5
t-145.5 -242.5t-94.5 -207q-52 -172 38 -172.5t205 92.5q94 76 192.5 191t191.5 247q103 148 190 301.5t141 279.5h1v-1q31 81 149.5 101.5t204.5 48.5q151 48 112 5q-45 -49 -96 -118q71 37 123 87q79 76 45 119q-14 19 -42 12.5t-46 0.5q-104 41 20 92.5t235 52.5
q53 1 73 -42.5t-13 -88.5q-72 -97 -199 -171t-234 -118q-2 -1 -3 -1z" />
    <glyph glyph-name="Ohorn" unicode="&#x1a0;" horiz-adv-x="1632" 
d="M787.5 136.5q114.5 -72.5 249.5 -71.5q118 1 245 69.5t248 224.5q88 136 109 305t-28 313q-67 196 -208.5 277.5t-279.5 57.5q-130 -24 -223 -136.5t-84 -306.5q6 -149 91.5 -278t205.5 -130q120 0 228 146q15 20 28 -7t-9 -45q-84 -69 -219.5 -160t-266.5 -97
q-167 -9 -236.5 135t-45.5 294q27 168 133 326t220 240q31 22 29 27.5t-38 -10.5q-79 -36 -164 -93q-248 -168 -272 -431.5t99 -458.5q74 -118 188.5 -190.5zM1898 1251q11 -20 20 -41q77 -176 18 -417.5t-340 -496.5q-189 -197 -421 -292.5t-434 -99.5q-400 -9 -510 294.5
t95 648.5q93 157 243.5 295.5t345.5 228.5q65 30 147 58t165 16q120 73 253 69q138 -3 258 -85q86 -60 141 -146q76 37 131 90q79 76 45 119q-14 19 -42 12.5t-46 0.5q-104 41 20 92.5t235 52.5q53 1 73 -42.5t-13 -88.5q-72 -97 -199 -171q-99 -57 -185 -97z" />
    <glyph glyph-name="uni1EDC" unicode="&#x1edc;" horiz-adv-x="1632" 
d="M787.5 136.5q114.5 -72.5 249.5 -71.5q118 1 245 69.5t248 224.5q88 136 109 305t-28 313q-67 196 -208.5 277.5t-279.5 57.5q-130 -24 -223 -136.5t-84 -306.5q6 -149 91.5 -278t205.5 -130q120 0 228 146q15 20 28 -7t-9 -45q-84 -69 -219.5 -160t-266.5 -97
q-167 -9 -236.5 135t-45.5 294q27 168 133 326t220 240q31 22 29 27.5t-38 -10.5q-79 -36 -164 -93q-248 -168 -272 -431.5t99 -458.5q74 -118 188.5 -190.5zM1242 1718q-18 12 -57.5 68t-80 120t-70.5 118t-29 62q1 7 12 -4.5t17 -18.5q41 -46 130 -102t196.5 -107.5
t218 -90t193.5 -47.5q16 -6 40 -23t34 -35t-5.5 -33t-77.5 -17q-47 -1 -124 8.5t-155.5 25.5t-146 36.5t-95.5 39.5zM1898 1251q11 -20 20 -41q77 -176 18 -417.5t-340 -496.5q-189 -197 -421 -292.5t-434 -99.5q-400 -9 -510 294.5t95 648.5q93 157 243.5 295.5
t345.5 228.5q65 30 147 58t165 16q120 73 253 69q138 -3 258 -85q86 -60 141 -146q76 37 131 90q79 76 45 119q-14 19 -42 12.5t-46 0.5q-104 41 20 92.5t235 52.5q53 1 73 -42.5t-13 -88.5q-72 -97 -199 -171q-99 -57 -185 -97z" />
    <glyph glyph-name="uni1EDA" unicode="&#x1eda;" horiz-adv-x="1632" 
d="M787.5 136.5q114.5 -72.5 249.5 -71.5q118 1 245 69.5t248 224.5q88 136 109 305t-28 313q-67 196 -208.5 277.5t-279.5 57.5q-130 -24 -223 -136.5t-84 -306.5q6 -149 91.5 -278t205.5 -130q120 0 228 146q15 20 28 -7t-9 -45q-84 -69 -219.5 -160t-266.5 -97
q-167 -9 -236.5 135t-45.5 294q27 168 133 326t220 240q31 22 29 27.5t-38 -10.5q-79 -36 -164 -93q-248 -168 -272 -431.5t99 -458.5q74 -118 188.5 -190.5zM1842.5 1668.5q-67.5 -20.5 -146 -36.5t-155.5 -25.5t-124 -8.5q-62 2 -77.5 17t-5.5 33t34 35t40 23
q84 9 194 47.5t217.5 90t196.5 107.5t131 102q5 7 16 18.5t12 4.5q1 -8 -29 -62t-70 -118t-80 -120t-58 -68q-28 -19 -95.5 -39.5zM1898 1251q11 -20 20 -41q77 -176 18 -417.5t-340 -496.5q-189 -197 -421 -292.5t-434 -99.5q-400 -9 -510 294.5t95 648.5
q93 157 243.5 295.5t345.5 228.5q65 30 147 58t165 16q120 73 253 69q138 -3 258 -85q86 -60 141 -146q76 37 131 90q79 76 45 119q-14 19 -42 12.5t-46 0.5q-104 41 20 92.5t235 52.5q53 1 73 -42.5t-13 -88.5q-72 -97 -199 -171q-99 -57 -185 -97z" />
    <glyph glyph-name="uni1EDE" unicode="&#x1ede;" horiz-adv-x="1632" 
d="M787.5 136.5q114.5 -72.5 249.5 -71.5q118 1 245 69.5t248 224.5q88 136 109 305t-28 313q-67 196 -208.5 277.5t-279.5 57.5q-130 -24 -223 -136.5t-84 -306.5q6 -149 91.5 -278t205.5 -130q120 0 228 146q15 20 28 -7t-9 -45q-84 -69 -219.5 -160t-266.5 -97
q-167 -9 -236.5 135t-45.5 294q27 168 133 326t220 240q31 22 29 27.5t-38 -10.5q-79 -36 -164 -93q-248 -168 -272 -431.5t99 -458.5q74 -118 188.5 -190.5zM1242 1551q-24 35 13 94q12 20 37 40.5l50 39.5q66 46 108 85.5t65 73.5q32 46 35.5 83t-4.5 68
q-17 61 -74.5 74.5t-116.5 -20.5q-57 -34 -74 -81t-2 -77q19 -39 75 -37t99 80q12 23 17.5 9t-11.5 -35q-19 -25 -56.5 -56t-80.5 -55q-60 -35 -113 -40t-60 59q-6 60 57.5 137t159.5 125q37 19 88 33.5t99.5 14t86.5 -22t48 -73.5q11 -60 -22 -114.5t-90 -104.5
q-50 -42 -109.5 -80.5l-118.5 -73.5q-27 -17 9.5 -26t67.5 -6q13 1 9.5 -8.5t-29.5 -23.5q-21 -12 -40.5 -33.5t-36.5 -34.5q-62 -49 -86 -14zM1898 1251q11 -20 20 -41q77 -176 18 -417.5t-340 -496.5q-189 -197 -421 -292.5t-434 -99.5q-400 -9 -510 294.5t95 648.5
q93 157 243.5 295.5t345.5 228.5q65 30 147 58t165 16q120 73 253 69q138 -3 258 -85q86 -60 141 -146q76 37 131 90q79 76 45 119q-14 19 -42 12.5t-46 0.5q-104 41 20 92.5t235 52.5q53 1 73 -42.5t-13 -88.5q-72 -97 -199 -171q-99 -57 -185 -97z" />
    <glyph glyph-name="uni1EE0" unicode="&#x1ee0;" horiz-adv-x="1632" 
d="M787.5 136.5q114.5 -72.5 249.5 -71.5q118 1 245 69.5t248 224.5q88 136 109 305t-28 313q-67 196 -208.5 277.5t-279.5 57.5q-130 -24 -223 -136.5t-84 -306.5q6 -149 91.5 -278t205.5 -130q120 0 228 146q15 20 28 -7t-9 -45q-84 -69 -219.5 -160t-266.5 -97
q-167 -9 -236.5 135t-45.5 294q27 168 133 326t220 240q31 22 29 27.5t-38 -10.5q-79 -36 -164 -93q-248 -168 -272 -431.5t99 -458.5q74 -118 188.5 -190.5zM1780.5 1658.5l-99.5 10t-113 28.5q-89 31 -145.5 54.5t-151.5 -66.5q-25 -28 -26.5 -6.5t27.5 40.5
q70 60 134.5 93.5t133.5 37t143.5 -32.5t135.5 -52t136 -8.5t80 58t-100 41.5q79 21 111 -14.5t5 -88t-121.5 -76.5t-149 -18.5zM1898 1251q11 -20 20 -41q77 -176 18 -417.5t-340 -496.5q-189 -197 -421 -292.5t-434 -99.5q-400 -9 -510 294.5t95 648.5q93 157 243.5 295.5
t345.5 228.5q65 30 147 58t165 16q120 73 253 69q138 -3 258 -85q86 -60 141 -146q76 37 131 90q79 76 45 119q-14 19 -42 12.5t-46 0.5q-104 41 20 92.5t235 52.5q53 1 73 -42.5t-13 -88.5q-72 -97 -199 -171q-99 -57 -185 -97z" />
    <glyph glyph-name="uni1EE2" unicode="&#x1ee2;" horiz-adv-x="1632" 
d="M787.5 136.5q114.5 -72.5 249.5 -71.5q118 1 245 69.5t248 224.5q88 136 109 305t-28 313q-67 196 -208.5 277.5t-279.5 57.5q-130 -24 -223 -136.5t-84 -306.5q6 -149 91.5 -278t205.5 -130q120 0 228 146q15 20 28 -7t-9 -45q-84 -69 -219.5 -160t-266.5 -97
q-167 -9 -236.5 135t-45.5 294q27 168 133 326t220 240q31 22 29 27.5t-38 -10.5q-79 -36 -164 -93q-248 -168 -272 -431.5t99 -458.5q74 -118 188.5 -190.5zM442 -424.5q149 123.5 303 172.5q108 35 93.5 -71.5t-161.5 -178.5q-42 -22 -107 -42t-118 -17q-159 13 -10 136.5
zM1898 1251q11 -20 20 -41q77 -176 18 -417.5t-340 -496.5q-189 -197 -421 -292.5t-434 -99.5q-400 -9 -510 294.5t95 648.5q93 157 243.5 295.5t345.5 228.5q65 30 147 58t165 16q120 73 253 69q138 -3 258 -85q86 -60 141 -146q76 37 131 90q79 76 45 119q-14 19 -42 12.5
t-46 0.5q-104 41 20 92.5t235 52.5q53 1 73 -42.5t-13 -88.5q-72 -97 -199 -171q-99 -57 -185 -97z" />
    <glyph glyph-name="Ygrave" unicode="&#x1ef2;" horiz-adv-x="1921" 
d="M354 -289q34 78 106 136.5t276 150.5q30 12 39 -10t-21 -29q-78 -16 -103 -92.5t-3.5 -163t86.5 -157t166 -76.5q138 -6 297 128q117 99 201.5 244.5t153.5 310.5l81 195l105 238q9 22 -1.5 30.5t-18.5 -2.5l-125 -154.5t-181 -197.5t-202.5 -166t-188.5 -60
q-100 10 -119 152t144 457l140 272t100 220q35 99 -22 152t-235 53q-80 0 -163 -23.5t-148 -71.5q-125 -92 -142 -209.5t23 -176.5q51 -75 159.5 -60t198.5 127q30 30 41 9.5t-30 -59.5q-117 -105 -244 -181t-289 -62q-107 13 -128 99.5t27.5 200t173.5 230.5t318 194
q278 98 531.5 46.5t200.5 -231.5q-51 -131 -188.5 -365t-188.5 -404q-28 -93 -5 -157.5t160 56.5q228 201 402 435q191 258 301 540q31 81 140 86t194 32q144 45 109 5q-194 -217 -320.5 -473t-219.5 -474q-139 -327 -340 -552t-397 -369q-171 -124 -318 -170.5t-260 -36.5
q-176 16 -253 133.5t-20 250.5zM1557 1664q-18 12 -57.5 68t-80 120t-70.5 118t-29 62q1 7 12 -4.5t17 -18.5q41 -46 130 -102t196.5 -107.5t218 -90t193.5 -47.5q16 -6 40 -23t34 -35t-5.5 -33t-77.5 -17q-47 -1 -124 8.5t-155.5 25.5t-146 36.5t-95.5 39.5z" />
    <glyph glyph-name="Yacute" unicode="&#xdd;" horiz-adv-x="1921" 
d="M354 -289q34 78 106 136.5t276 150.5q30 12 39 -10t-21 -29q-78 -16 -103 -92.5t-3.5 -163t86.5 -157t166 -76.5q138 -6 297 128q117 99 201.5 244.5t153.5 310.5l81 195l105 238q9 22 -1.5 30.5t-18.5 -2.5l-125 -154.5t-181 -197.5t-202.5 -166t-188.5 -60
q-100 10 -119 152t144 457l140 272t100 220q35 99 -22 152t-235 53q-80 0 -163 -23.5t-148 -71.5q-125 -92 -142 -209.5t23 -176.5q51 -75 159.5 -60t198.5 127q30 30 41 9.5t-30 -59.5q-117 -105 -244 -181t-289 -62q-107 13 -128 99.5t27.5 200t173.5 230.5t318 194
q278 98 531.5 46.5t200.5 -231.5q-51 -131 -188.5 -365t-188.5 -404q-28 -93 -5 -157.5t160 56.5q228 201 402 435q191 258 301 540q31 81 140 86t194 32q144 45 109 5q-194 -217 -320.5 -473t-219.5 -474q-139 -327 -340 -552t-397 -369q-171 -124 -318 -170.5t-260 -36.5
q-176 16 -253 133.5t-20 250.5zM2233.5 1592.5q-67.5 -20.5 -146 -36.5t-155.5 -25.5t-124 -8.5q-62 2 -77.5 17t-5.5 33t34 35t40 23q84 9 194 47.5t217.5 90t196.5 107.5t131 102q5 7 16 18.5t12 4.5q1 -8 -29 -62t-70 -118t-80 -120t-58 -68q-28 -19 -95.5 -39.5z" />
    <glyph glyph-name="uni1EF6" unicode="&#x1ef6;" horiz-adv-x="1921" 
d="M354 -289q34 78 106 136.5t276 150.5q30 12 39 -10t-21 -29q-78 -16 -103 -92.5t-3.5 -163t86.5 -157t166 -76.5q138 -6 297 128q117 99 201.5 244.5t153.5 310.5l81 195l105 238q9 22 -1.5 30.5t-18.5 -2.5l-125 -154.5t-181 -197.5t-202.5 -166t-188.5 -60
q-100 10 -119 152t144 457l140 272t100 220q35 99 -22 152t-235 53q-80 0 -163 -23.5t-148 -71.5q-125 -92 -142 -209.5t23 -176.5q51 -75 159.5 -60t198.5 127q30 30 41 9.5t-30 -59.5q-117 -105 -244 -181t-289 -62q-107 13 -128 99.5t27.5 200t173.5 230.5t318 194
q278 98 531.5 46.5t200.5 -231.5q-51 -131 -188.5 -365t-188.5 -404q-28 -93 -5 -157.5t160 56.5q228 201 402 435q191 258 301 540q31 81 140 86t194 32q144 45 109 5q-194 -217 -320.5 -473t-219.5 -474q-139 -327 -340 -552t-397 -369q-171 -124 -318 -170.5t-260 -36.5
q-176 16 -253 133.5t-20 250.5zM1808 1453q-24 35 13 94q12 20 37 40.5l50 39.5q66 46 108 85.5t65 73.5q32 46 35.5 83t-4.5 68q-17 61 -74.5 74.5t-116.5 -20.5q-57 -34 -74 -81t-2 -77q19 -39 75 -37t99 80q12 23 17.5 9t-11.5 -35q-19 -25 -56.5 -56t-80.5 -55
q-60 -35 -113 -40t-60 59q-6 60 57.5 137t159.5 125q37 19 88 33.5t99.5 14t86.5 -22t48 -73.5q11 -60 -22 -114.5t-90 -104.5q-50 -42 -109.5 -80.5l-118.5 -73.5q-27 -17 9.5 -26t67.5 -6q13 1 9.5 -8.5t-29.5 -23.5q-21 -12 -40.5 -33.5t-36.5 -34.5q-62 -49 -86 -14z
" />
    <glyph glyph-name="uni1EF8" unicode="&#x1ef8;" horiz-adv-x="1921" 
d="M354 -289q34 78 106 136.5t276 150.5q30 12 39 -10t-21 -29q-78 -16 -103 -92.5t-3.5 -163t86.5 -157t166 -76.5q138 -6 297 128q117 99 201.5 244.5t153.5 310.5l81 195l105 238q9 22 -1.5 30.5t-18.5 -2.5l-125 -154.5t-181 -197.5t-202.5 -166t-188.5 -60
q-100 10 -119 152t144 457l140 272t100 220q35 99 -22 152t-235 53q-80 0 -163 -23.5t-148 -71.5q-125 -92 -142 -209.5t23 -176.5q51 -75 159.5 -60t198.5 127q30 30 41 9.5t-30 -59.5q-117 -105 -244 -181t-289 -62q-107 13 -128 99.5t27.5 200t173.5 230.5t318 194
q278 98 531.5 46.5t200.5 -231.5q-51 -131 -188.5 -365t-188.5 -404q-28 -93 -5 -157.5t160 56.5q228 201 402 435q191 258 301 540q31 81 140 86t194 32q144 45 109 5q-194 -217 -320.5 -473t-219.5 -474q-139 -327 -340 -552t-397 -369q-171 -124 -318 -170.5t-260 -36.5
q-176 16 -253 133.5t-20 250.5zM2084.5 1560.5l-99.5 10t-113 28.5q-89 31 -145.5 54.5t-151.5 -66.5q-25 -28 -26.5 -6.5t27.5 40.5q70 60 134.5 93.5t133.5 37t143.5 -32.5t135.5 -52t136 -8.5t80 58t-100 41.5q79 21 111 -14.5t5 -88t-121.5 -76.5t-149 -18.5z" />
    <glyph glyph-name="uni1EF4" unicode="&#x1ef4;" horiz-adv-x="1921" 
d="M354 -289q34 78 106 136.5t276 150.5q30 12 39 -10t-21 -29q-78 -16 -103 -92.5t-3.5 -163t86.5 -157t166 -76.5q138 -6 297 128q117 99 201.5 244.5t153.5 310.5l81 195l105 238q9 22 -1.5 30.5t-18.5 -2.5l-125 -154.5t-181 -197.5t-202.5 -166t-188.5 -60
q-100 10 -119 152t144 457l140 272t100 220q35 99 -22 152t-235 53q-80 0 -163 -23.5t-148 -71.5q-125 -92 -142 -209.5t23 -176.5q51 -75 159.5 -60t198.5 127q30 30 41 9.5t-30 -59.5q-117 -105 -244 -181t-289 -62q-107 13 -128 99.5t27.5 200t173.5 230.5t318 194
q278 98 531.5 46.5t200.5 -231.5q-51 -131 -188.5 -365t-188.5 -404q-28 -93 -5 -157.5t160 56.5q228 201 402 435q191 258 301 540q31 81 140 86t194 32q144 45 109 5q-194 -217 -320.5 -473t-219.5 -474q-139 -327 -340 -552t-397 -369q-171 -124 -318 -170.5t-260 -36.5
q-176 16 -253 133.5t-20 250.5zM1368 -457.5q149 123.5 303 172.5q108 35 93.5 -71.5t-161.5 -178.5q-42 -22 -107 -42t-118 -17q-159 13 -10 136.5z" />
    <glyph glyph-name="agrave" unicode="&#xe0;" horiz-adv-x="758" 
d="M462 346q38 9 91 96.5t68 125.5q52 133 -1 141q-44 5 -81.5 -53t-67.5 -141q-26 -75 -30 -125t21 -44zM-91 110q10 37 63 60q60 -10 150 82q35 36 57 81q51 110 157 243q93 108 185 163.5t158 48.5q105 -12 93 -199q-3 -22 74 20t57 5q-50 -77 -92.5 -168t-33.5 -165
q18 -57 85 -23q35 17 116 122q32 38 43.5 24.5t-56.5 -98.5q-99 -134 -194.5 -235t-183.5 -84q-66 15 -73.5 115.5t41.5 246.5q9 28 1 24.5t-15 -11.5q-76 -91 -135.5 -177.5t-95.5 -123.5q-60 -62 -116 -61q-100 7 -65 184q4 22 -12 6q-48 -48 -90 -81t-86 -34
q-42 -2 -32 35zM528 934q-8 11 -22.5 55t-18.5 94.5t5.5 66t50 -35.5t93 -101.5t110.5 -92l97.5 -68.5t41 -41t-12 -22t-52.5 -2q-29 6 -74 22.5t-89 38.5t-80.5 45.5t-48.5 40.5z" />
    <glyph glyph-name="aacute" unicode="&#xe1;" horiz-adv-x="758" 
d="M462 346q38 9 91 96.5t68 125.5q52 133 -1 141q-44 5 -81.5 -53t-67.5 -141q-26 -75 -30 -125t21 -44zM-91 110q10 37 63 60q60 -10 150 82q35 36 57 81q51 110 157 243q93 108 185 163.5t158 48.5q105 -12 93 -199q-3 -22 74 20t57 5q-50 -77 -92.5 -168t-33.5 -165
q18 -57 85 -23q35 17 116 122q32 38 43.5 24.5t-56.5 -98.5q-99 -134 -194.5 -235t-183.5 -84q-66 15 -73.5 115.5t41.5 246.5q9 28 1 24.5t-15 -11.5q-76 -91 -135.5 -177.5t-95.5 -123.5q-60 -62 -116 -61q-100 7 -65 184q4 22 -12 6q-48 -48 -90 -81t-86 -34
q-42 -2 -32 35zM833.5 865.5q-41.5 -11.5 -90 -20t-96.5 -11.5t-78 0q-39 4 -49 16t-5 25t50.5 27.5t113 38t132.5 56.5t118.5 70t58 19.5t-14 -65t-45 -85.5t-37.5 -46q-16 -13 -57.5 -24.5z" />
    <glyph glyph-name="uni1EA3" unicode="&#x1ea3;" horiz-adv-x="758" 
d="M462 346q38 9 91 96.5t68 125.5q52 133 -1 141q-44 5 -81.5 -53t-67.5 -141q-26 -75 -30 -125t21 -44zM-91 110q10 37 63 60q60 -10 150 82q35 36 57 81q51 110 157 243q93 108 185 163.5t158 48.5q105 -12 93 -199q-3 -22 74 20t57 5q-50 -77 -92.5 -168t-33.5 -165
q18 -57 85 -23q35 17 116 122q32 38 43.5 24.5t-56.5 -98.5q-99 -134 -194.5 -235t-183.5 -84q-66 15 -73.5 115.5t41.5 246.5q9 28 1 24.5t-15 -11.5q-76 -91 -135.5 -177.5t-95.5 -123.5q-60 -62 -116 -61q-100 7 -65 184q4 22 -12 6q-48 -48 -90 -81t-86 -34
q-42 -2 -32 35zM734 847.5q-20 20.5 11 55.5q16 20 31 31.5t36 22.5q55 27 92.5 47.5t56.5 41.5q26 27 29 49t-3 40q-15 37 -58.5 41t-92.5 -16q-57 -25 -70 -46.5t-1 -40.5q15 -23 62 -21.5t82 47.5q10 14 14.5 5.5t-9.5 -20.5q-15 -15 -46.5 -33.5t-66.5 -33.5
q-50 -20 -94.5 -23t-49.5 35q-5 35 47.5 81t132.5 75q31 11 73.5 19.5t82.5 8.5t71.5 -12.5t39.5 -44.5q10 -36 -17.5 -68.5t-75.5 -61.5q-41 -25 -90.5 -48l-98.5 -44q-22 -10 8 -15.5t56 -3.5q11 1 8 -4.5t-25 -14.5q-17 -7 -33.5 -20t-29.5 -20q-52 -29 -72 -8.5z" />
    <glyph glyph-name="atilde" unicode="&#xe3;" horiz-adv-x="758" 
d="M462 346q38 9 91 96.5t68 125.5q52 133 -1 141q-44 5 -81.5 -53t-67.5 -141q-26 -75 -30 -125t21 -44zM-91 110q10 37 63 60q60 -10 150 82q35 36 57 81q51 110 157 243q93 108 185 163.5t158 48.5q105 -12 93 -199q-3 -22 74 20t57 5q-50 -77 -92.5 -168t-33.5 -165
q18 -57 85 -23q35 17 116 122q32 38 43.5 24.5t-56.5 -98.5q-99 -134 -194.5 -235t-183.5 -84q-66 15 -73.5 115.5t41.5 246.5q9 28 1 24.5t-15 -11.5q-76 -91 -135.5 -177.5t-95.5 -123.5q-60 -62 -116 -61q-100 7 -65 184q4 22 -12 6q-48 -48 -90 -81t-86 -34
q-42 -2 -32 35zM841 846.5l-69 8t-77 22.5q-61 26 -100 45t-104 -54q-17 -23 -18 -5.5t18 32.5q48 49 92.5 76.5t92 30.5t99 -26.5t93 -42.5t93 -6.5t55 47t-68.5 33.5q55 18 77 -11t3 -72t-83.5 -62.5t-102.5 -15z" />
    <glyph glyph-name="uni1EA1" unicode="&#x1ea1;" horiz-adv-x="758" 
d="M462 346q38 9 91 96.5t68 125.5q52 133 -1 141q-44 5 -81.5 -53t-67.5 -141q-26 -75 -30 -125t21 -44zM-91 110q10 37 63 60q60 -10 150 82q35 36 57 81q51 110 157 243q93 108 185 163.5t158 48.5q105 -12 93 -199q-3 -22 74 20t57 5q-50 -77 -92.5 -168t-33.5 -165
q18 -57 85 -23q35 17 116 122q32 38 43.5 24.5t-56.5 -98.5q-99 -134 -194.5 -235t-183.5 -84q-66 15 -73.5 115.5t41.5 246.5q9 28 1 24.5t-15 -11.5q-76 -91 -135.5 -177.5t-95.5 -123.5q-60 -62 -116 -61q-100 7 -65 184q4 22 -12 6q-48 -48 -90 -81t-86 -34
q-42 -2 -32 35zM430 -30q57 -10 51 -56t-86 -88q-99 -51 -132 -25q-26 20 37 100t130 69z" />
    <glyph glyph-name="acircumflex" unicode="&#xe2;" horiz-adv-x="758" 
d="M462 346q38 9 91 96.5t68 125.5q52 133 -1 141q-44 5 -81.5 -53t-67.5 -141q-26 -75 -30 -125t21 -44zM-91 110q10 37 63 60q60 -10 150 82q35 36 57 81q51 110 157 243q93 108 185 163.5t158 48.5q105 -12 93 -199q-3 -22 74 20t57 5q-50 -77 -92.5 -168t-33.5 -165
q18 -57 85 -23q35 17 116 122q32 38 43.5 24.5t-56.5 -98.5q-99 -134 -194.5 -235t-183.5 -84q-66 15 -73.5 115.5t41.5 246.5q9 28 1 24.5t-15 -11.5q-76 -91 -135.5 -177.5t-95.5 -123.5q-60 -62 -116 -61q-100 7 -65 184q4 22 -12 6q-48 -48 -90 -81t-86 -34
q-42 -2 -32 35zM703 1024l17 15q49 48 79 111q2 6 10 13.5t29 -2.5q0 -11 -3.5 -17.5t2 -22t25.5 -46.5t50.5 -64t77.5 -62l22 19l17 -8l-118 -120q-67 36 -107 89l-38 55q-57 -37 -137 -97q-84 -63 -171 -85q-25 5 -29.5 29t25.5 31q36 9 117 63q65 42 132 99z" />
    <glyph glyph-name="uni1EA7" unicode="&#x1ea7;" horiz-adv-x="758" 
d="M462 346q38 9 91 96.5t68 125.5q52 133 -1 141q-44 5 -81.5 -53t-67.5 -141q-26 -75 -30 -125t21 -44zM-91 110q10 37 63 60q60 -10 150 82q35 36 57 81q51 110 157 243q93 108 185 163.5t158 48.5q105 -12 93 -199q-3 -22 74 20t57 5q-50 -77 -92.5 -168t-33.5 -165
q18 -57 85 -23q35 17 116 122q32 38 43.5 24.5t-56.5 -98.5q-99 -134 -194.5 -235t-183.5 -84q-66 15 -73.5 115.5t41.5 246.5q9 28 1 24.5t-15 -11.5q-76 -91 -135.5 -177.5t-95.5 -123.5q-60 -62 -116 -61q-100 7 -65 184q4 22 -12 6q-48 -48 -90 -81t-86 -34
q-42 -2 -32 35zM703 1024l17 15q49 48 79 111q2 6 10 13.5t29 -2.5q0 -11 -3.5 -17.5t2 -22t25.5 -46.5t50.5 -64t77.5 -62l22 19l17 -8l-118 -120q-67 36 -107 89l-38 55q-57 -37 -137 -97q-84 -63 -171 -85q-25 5 -29.5 29t25.5 31q36 9 117 63q65 42 132 99zM665 1294
q-8 11 -22.5 55t-18.5 94.5t5.5 66t50 -35.5t93 -101.5t110.5 -92l97.5 -68.5t41 -41t-12 -22t-52.5 -2q-29 6 -74 22.5t-89 38.5t-80.5 45.5t-48.5 40.5z" />
    <glyph glyph-name="uni1EA5" unicode="&#x1ea5;" horiz-adv-x="758" 
d="M462 346q38 9 91 96.5t68 125.5q52 133 -1 141q-44 5 -81.5 -53t-67.5 -141q-26 -75 -30 -125t21 -44zM-91 110q10 37 63 60q60 -10 150 82q35 36 57 81q51 110 157 243q93 108 185 163.5t158 48.5q105 -12 93 -199q-3 -22 74 20t57 5q-50 -77 -92.5 -168t-33.5 -165
q18 -57 85 -23q35 17 116 122q32 38 43.5 24.5t-56.5 -98.5q-99 -134 -194.5 -235t-183.5 -84q-66 15 -73.5 115.5t41.5 246.5q9 28 1 24.5t-15 -11.5q-76 -91 -135.5 -177.5t-95.5 -123.5q-60 -62 -116 -61q-100 7 -65 184q4 22 -12 6q-48 -48 -90 -81t-86 -34
q-42 -2 -32 35zM703 1024l17 15q49 48 79 111q2 6 10 13.5t29 -2.5q0 -11 -3.5 -17.5t2 -22t25.5 -46.5t50.5 -64t77.5 -62l22 19l17 -8l-118 -120q-67 36 -107 89l-38 55q-57 -37 -137 -97q-84 -63 -171 -85q-25 5 -29.5 29t25.5 31q36 9 117 63q65 42 132 99z
M1248.5 1077.5q-41.5 -11.5 -90 -20t-96.5 -11.5t-78 0q-39 4 -49 16t-5 25t50.5 27.5t113 38t132.5 56.5t118.5 70t58 19.5t-14 -65t-45 -85.5t-37.5 -46q-16 -13 -57.5 -24.5z" />
    <glyph glyph-name="uni1EA9" unicode="&#x1ea9;" horiz-adv-x="758" 
d="M462 346q38 9 91 96.5t68 125.5q52 133 -1 141q-44 5 -81.5 -53t-67.5 -141q-26 -75 -30 -125t21 -44zM-91 110q10 37 63 60q60 -10 150 82q35 36 57 81q51 110 157 243q93 108 185 163.5t158 48.5q105 -12 93 -199q-3 -22 74 20t57 5q-50 -77 -92.5 -168t-33.5 -165
q18 -57 85 -23q35 17 116 122q32 38 43.5 24.5t-56.5 -98.5q-99 -134 -194.5 -235t-183.5 -84q-66 15 -73.5 115.5t41.5 246.5q9 28 1 24.5t-15 -11.5q-76 -91 -135.5 -177.5t-95.5 -123.5q-60 -62 -116 -61q-100 7 -65 184q4 22 -12 6q-48 -48 -90 -81t-86 -34
q-42 -2 -32 35zM703 1024l17 15q49 48 79 111q2 6 10 13.5t29 -2.5q0 -11 -3.5 -17.5t2 -22t25.5 -46.5t50.5 -64t77.5 -62l22 19l17 -8l-118 -120q-67 36 -107 89l-38 55q-57 -37 -137 -97q-84 -63 -171 -85q-25 5 -29.5 29t25.5 31q36 9 117 63q65 42 132 99zM930 1055.5
q-20 20.5 11 55.5q16 20 31 31.5t36 22.5q55 27 92.5 47.5t56.5 41.5q26 27 29 49t-3 40q-15 37 -58.5 41t-92.5 -16q-57 -25 -70 -46.5t-1 -40.5q15 -23 62 -21.5t82 47.5q10 14 14.5 5.5t-9.5 -20.5q-15 -15 -46.5 -33.5t-66.5 -33.5q-50 -20 -94.5 -23t-49.5 35
q-5 35 47.5 81t132.5 75q31 11 73.5 19.5t82.5 8.5t71.5 -12.5t39.5 -44.5q10 -36 -17.5 -68.5t-75.5 -61.5q-41 -25 -90.5 -48l-98.5 -44q-22 -10 8 -15.5t56 -3.5q11 1 8 -4.5t-25 -14.5q-17 -7 -33.5 -20t-29.5 -20q-52 -29 -72 -8.5z" />
    <glyph glyph-name="uni1EAB" unicode="&#x1eab;" horiz-adv-x="758" 
d="M462 346q38 9 91 96.5t68 125.5q52 133 -1 141q-44 5 -81.5 -53t-67.5 -141q-26 -75 -30 -125t21 -44zM-91 110q10 37 63 60q60 -10 150 82q35 36 57 81q51 110 157 243q93 108 185 163.5t158 48.5q105 -12 93 -199q-3 -22 74 20t57 5q-50 -77 -92.5 -168t-33.5 -165
q18 -57 85 -23q35 17 116 122q32 38 43.5 24.5t-56.5 -98.5q-99 -134 -194.5 -235t-183.5 -84q-66 15 -73.5 115.5t41.5 246.5q9 28 1 24.5t-15 -11.5q-76 -91 -135.5 -177.5t-95.5 -123.5q-60 -62 -116 -61q-100 7 -65 184q4 22 -12 6q-48 -48 -90 -81t-86 -34
q-42 -2 -32 35zM703 1024l17 15q49 48 79 111q2 6 10 13.5t29 -2.5q0 -11 -3.5 -17.5t2 -22t25.5 -46.5t50.5 -64t77.5 -62l22 19l17 -8l-118 -120q-67 36 -107 89l-38 55q-57 -37 -137 -97q-84 -63 -171 -85q-25 5 -29.5 29t25.5 31q36 9 117 63q65 42 132 99zM994 1168.5
l-69 8t-77 22.5q-61 26 -100 45t-104 -54q-17 -23 -18 -5.5t18 32.5q48 49 92.5 76.5t92 30.5t99 -26.5t93 -42.5t93 -6.5t55 47t-68.5 33.5q55 18 77 -11t3 -72t-83.5 -62.5t-102.5 -15z" />
    <glyph glyph-name="uni1EAD" unicode="&#x1ead;" horiz-adv-x="758" 
d="M462 346q38 9 91 96.5t68 125.5q52 133 -1 141q-44 5 -81.5 -53t-67.5 -141q-26 -75 -30 -125t21 -44zM-91 110q10 37 63 60q60 -10 150 82q35 36 57 81q51 110 157 243q93 108 185 163.5t158 48.5q105 -12 93 -199q-3 -22 74 20t57 5q-50 -77 -92.5 -168t-33.5 -165
q18 -57 85 -23q35 17 116 122q32 38 43.5 24.5t-56.5 -98.5q-99 -134 -194.5 -235t-183.5 -84q-66 15 -73.5 115.5t41.5 246.5q9 28 1 24.5t-15 -11.5q-76 -91 -135.5 -177.5t-95.5 -123.5q-60 -62 -116 -61q-100 7 -65 184q4 22 -12 6q-48 -48 -90 -81t-86 -34
q-42 -2 -32 35zM703 1024l17 15q49 48 79 111q2 6 10 13.5t29 -2.5q0 -11 -3.5 -17.5t2 -22t25.5 -46.5t50.5 -64t77.5 -62l22 19l17 -8l-118 -120q-67 36 -107 89l-38 55q-57 -37 -137 -97q-84 -63 -171 -85q-25 5 -29.5 29t25.5 31q36 9 117 63q65 42 132 99zM430 -30
q57 -10 51 -56t-86 -88q-99 -51 -132 -25q-26 20 37 100t130 69z" />
    <glyph glyph-name="abreve" unicode="&#x103;" horiz-adv-x="758" 
d="M462 346q38 9 91 96.5t68 125.5q52 133 -1 141q-44 5 -81.5 -53t-67.5 -141q-26 -75 -30 -125t21 -44zM-28 170q60 -10 150 82q35 36 57 81q51 110 157 243q93 108 185 163.5t158 48.5q105 -12 93 -199q-3 -22 74 20t57 5q-50 -77 -92.5 -168t-33.5 -165q18 -57 85 -23
q35 17 116 122q32 38 43.5 24.5t-56.5 -98.5q-99 -134 -194.5 -235t-183.5 -84q-66 15 -73.5 115.5t41.5 246.5q9 28 1 24.5t-15 -11.5q-76 -91 -135.5 -177.5t-95.5 -123.5q-60 -62 -116 -61q-100 7 -65 184q4 22 -12 6q-48 -48 -90 -81t-86 -34q-42 -2 -32 35t63 60z
M1029 1087q-96 -152 -259 -222q-178 -73 -230 -0.5t19 235.5q17 44 24 6q-6 -59 29 -89t96 -31.5t154 40.5t165 121q14 11 25.5 10t8.5 -13q-13 -30 -32 -57z" />
    <glyph glyph-name="uni1EB1" unicode="&#x1eb1;" horiz-adv-x="758" 
d="M462 346q38 9 91 96.5t68 125.5q52 133 -1 141q-44 5 -81.5 -53t-67.5 -141q-26 -75 -30 -125t21 -44zM-28 170q60 -10 150 82q35 36 57 81q51 110 157 243q93 108 185 163.5t158 48.5q105 -12 93 -199q-3 -22 74 20t57 5q-50 -77 -92.5 -168t-33.5 -165q18 -57 85 -23
q35 17 116 122q32 38 43.5 24.5t-56.5 -98.5q-99 -134 -194.5 -235t-183.5 -84q-66 15 -73.5 115.5t41.5 246.5q9 28 1 24.5t-15 -11.5q-76 -91 -135.5 -177.5t-95.5 -123.5q-60 -62 -116 -61q-100 7 -65 184q4 22 -12 6q-48 -48 -90 -81t-86 -34q-42 -2 -32 35t63 60z
M1029 1087q-96 -152 -259 -222q-178 -73 -230 -0.5t19 235.5q17 44 24 6q-6 -59 29 -89t96 -31.5t154 40.5t165 121q14 11 25.5 10t8.5 -13q-13 -30 -32 -57zM512 1239q-8 11 -22.5 55t-18.5 94.5t5.5 66t50 -35.5t93 -101.5t110.5 -92l97.5 -68.5t41 -41t-12 -22t-52.5 -2
q-29 6 -74 22.5t-89 38.5t-80.5 45.5t-48.5 40.5z" />
    <glyph glyph-name="uni1EAF" unicode="&#x1eaf;" horiz-adv-x="758" 
d="M462 346q38 9 91 96.5t68 125.5q52 133 -1 141q-44 5 -81.5 -53t-67.5 -141q-26 -75 -30 -125t21 -44zM-28 170q60 -10 150 82q35 36 57 81q51 110 157 243q93 108 185 163.5t158 48.5q105 -12 93 -199q-3 -22 74 20t57 5q-50 -77 -92.5 -168t-33.5 -165q18 -57 85 -23
q35 17 116 122q32 38 43.5 24.5t-56.5 -98.5q-99 -134 -194.5 -235t-183.5 -84q-66 15 -73.5 115.5t41.5 246.5q9 28 1 24.5t-15 -11.5q-76 -91 -135.5 -177.5t-95.5 -123.5q-60 -62 -116 -61q-100 7 -65 184q4 22 -12 6q-48 -48 -90 -81t-86 -34q-42 -2 -32 35t63 60z
M1029 1087q-96 -152 -259 -222q-178 -73 -230 -0.5t19 235.5q17 44 24 6q-6 -59 29 -89t96 -31.5t154 40.5t165 121q14 11 25.5 10t8.5 -13q-13 -30 -32 -57zM1030 1211.5q-37 -21.5 -82.5 -42t-91 -35.5t-74.5 -19q-39 -6 -52 3t-11 23t42.5 39.5l100 64.5t114 87.5t97 98
t51.5 33t3 -66.5t-22 -93.5t-25 -54.5q-13 -16 -50 -37.5z" />
    <glyph glyph-name="uni1EB3" unicode="&#x1eb3;" horiz-adv-x="758" 
d="M462 346q38 9 91 96.5t68 125.5q52 133 -1 141q-44 5 -81.5 -53t-67.5 -141q-26 -75 -30 -125t21 -44zM-28 170q60 -10 150 82q35 36 57 81q51 110 157 243q93 108 185 163.5t158 48.5q105 -12 93 -199q-3 -22 74 20t57 5q-50 -77 -92.5 -168t-33.5 -165q18 -57 85 -23
q35 17 116 122q32 38 43.5 24.5t-56.5 -98.5q-99 -134 -194.5 -235t-183.5 -84q-66 15 -73.5 115.5t41.5 246.5q9 28 1 24.5t-15 -11.5q-76 -91 -135.5 -177.5t-95.5 -123.5q-60 -62 -116 -61q-100 7 -65 184q4 22 -12 6q-48 -48 -90 -81t-86 -34q-42 -2 -32 35t63 60z
M1029 1087q-96 -152 -259 -222q-178 -73 -230 -0.5t19 235.5q17 44 24 6q-6 -59 29 -89t96 -31.5t154 40.5t165 121q14 11 25.5 10t8.5 -13q-13 -30 -32 -57zM722 1066.5q-20 20.5 11 55.5q16 20 31 31.5t36 22.5q55 27 92.5 47.5t56.5 41.5q26 27 29 49t-3 40
q-15 37 -58.5 41t-92.5 -16q-57 -25 -70 -46.5t-1 -40.5q15 -23 62 -21.5t82 47.5q10 14 14.5 5.5t-9.5 -20.5q-15 -15 -46.5 -33.5t-66.5 -33.5q-50 -20 -94.5 -23t-49.5 35q-5 35 47.5 81t132.5 75q31 11 73.5 19.5t82.5 8.5t71.5 -12.5t39.5 -44.5q10 -36 -17.5 -68.5
t-75.5 -61.5q-41 -25 -90.5 -48l-98.5 -44q-22 -10 8 -15.5t56 -3.5q11 1 8 -4.5t-25 -14.5q-17 -7 -33.5 -20t-29.5 -20q-52 -29 -72 -8.5z" />
    <glyph glyph-name="uni1EB5" unicode="&#x1eb5;" horiz-adv-x="758" 
d="M462 346q38 9 91 96.5t68 125.5q52 133 -1 141q-44 5 -81.5 -53t-67.5 -141q-26 -75 -30 -125t21 -44zM-28 170q60 -10 150 82q35 36 57 81q51 110 157 243q93 108 185 163.5t158 48.5q105 -12 93 -199q-3 -22 74 20t57 5q-50 -77 -92.5 -168t-33.5 -165q18 -57 85 -23
q35 17 116 122q32 38 43.5 24.5t-56.5 -98.5q-99 -134 -194.5 -235t-183.5 -84q-66 15 -73.5 115.5t41.5 246.5q9 28 1 24.5t-15 -11.5q-76 -91 -135.5 -177.5t-95.5 -123.5q-60 -62 -116 -61q-100 7 -65 184q4 22 -12 6q-48 -48 -90 -81t-86 -34q-42 -2 -32 35t63 60z
M1029 1087q-96 -152 -259 -222q-178 -73 -230 -0.5t19 235.5q17 44 24 6q-6 -59 29 -89t96 -31.5t154 40.5t165 121q14 11 25.5 10t8.5 -13q-13 -30 -32 -57zM831 1113.5l-69 8t-77 22.5q-61 26 -100 45t-104 -54q-17 -23 -18 -5.5t18 32.5q48 49 92.5 76.5t92 30.5
t99 -26.5t93 -42.5t93 -6.5t55 47t-68.5 33.5q55 18 77 -11t3 -72t-83.5 -62.5t-102.5 -15z" />
    <glyph glyph-name="uni1EB7" unicode="&#x1eb7;" horiz-adv-x="758" 
d="M462 346q38 9 91 96.5t68 125.5q52 133 -1 141q-44 5 -81.5 -53t-67.5 -141q-26 -75 -30 -125t21 -44zM-28 170q60 -10 150 82q35 36 57 81q51 110 157 243q93 108 185 163.5t158 48.5q105 -12 93 -199q-3 -22 74 20t57 5q-50 -77 -92.5 -168t-33.5 -165q18 -57 85 -23
q35 17 116 122q32 38 43.5 24.5t-56.5 -98.5q-99 -134 -194.5 -235t-183.5 -84q-66 15 -73.5 115.5t41.5 246.5q9 28 1 24.5t-15 -11.5q-76 -91 -135.5 -177.5t-95.5 -123.5q-60 -62 -116 -61q-100 7 -65 184q4 22 -12 6q-48 -48 -90 -81t-86 -34q-42 -2 -32 35t63 60z
M1029 1087q-96 -152 -259 -222q-178 -73 -230 -0.5t19 235.5q17 44 24 6q-6 -59 29 -89t96 -31.5t154 40.5t165 121q14 11 25.5 10t8.5 -13q-13 -30 -32 -57zM430 -30q57 -10 51 -56t-86 -88q-99 -51 -132 -25q-26 20 37 100t130 69z" />
    <glyph glyph-name="egrave" unicode="&#xe8;" horiz-adv-x="517" 
d="M-83 116q22 45 64 54q78 -4 181 109q13 14 29 48q35 81 93.5 168.5t169.5 177.5t232 90q82 -10 82.5 -59.5t-47.5 -111.5t-127 -122t-155 -91q-13 -5 -14 -24q5 -56 29 -93.5t81.5 -33t114 54t109.5 132.5q21 29 33.5 14.5t-8.5 -42.5q-81 -149 -223.5 -276t-278.5 -113
q-57 0 -94.5 45.5t-37.5 153.5q3 22 -12 7q-51 -53 -98.5 -91t-91.5 -39q-53 -3 -31 42zM432 424q67 46 97 108q19 36 20 76t-38 34q-30 -9 -47.5 -41t-24.5 -54q-19 -58 -17 -118q0 -13 10 -5zM528 934q-8 11 -22.5 55t-18.5 94.5t5.5 66t50 -35.5t93 -101.5t110.5 -92
l97.5 -68.5t41 -41t-12 -22t-52.5 -2q-29 6 -74 22.5t-89 38.5t-80.5 45.5t-48.5 40.5z" />
    <glyph glyph-name="eacute" unicode="&#xe9;" horiz-adv-x="517" 
d="M-83 116q22 45 64 54q78 -4 181 109q13 14 29 48q35 81 93.5 168.5t169.5 177.5t232 90q82 -10 82.5 -59.5t-47.5 -111.5t-127 -122t-155 -91q-13 -5 -14 -24q5 -56 29 -93.5t81.5 -33t114 54t109.5 132.5q21 29 33.5 14.5t-8.5 -42.5q-81 -149 -223.5 -276t-278.5 -113
q-57 0 -94.5 45.5t-37.5 153.5q3 22 -12 7q-51 -53 -98.5 -91t-91.5 -39q-53 -3 -31 42zM432 424q67 46 97 108q19 36 20 76t-38 34q-30 -9 -47.5 -41t-24.5 -54q-19 -58 -17 -118q0 -13 10 -5zM833.5 865.5q-41.5 -11.5 -90 -20t-96.5 -11.5t-78 0q-39 4 -49 16t-5 25
t50.5 27.5t113 38t132.5 56.5t118.5 70t58 19.5t-14 -65t-45 -85.5t-37.5 -46q-16 -13 -57.5 -24.5z" />
    <glyph glyph-name="uni1EBB" unicode="&#x1ebb;" horiz-adv-x="517" 
d="M-83 116q22 45 64 54q78 -4 181 109q13 14 29 48q35 81 93.5 168.5t169.5 177.5t232 90q82 -10 82.5 -59.5t-47.5 -111.5t-127 -122t-155 -91q-13 -5 -14 -24q5 -56 29 -93.5t81.5 -33t114 54t109.5 132.5q21 29 33.5 14.5t-8.5 -42.5q-81 -149 -223.5 -276t-278.5 -113
q-57 0 -94.5 45.5t-37.5 153.5q3 22 -12 7q-51 -53 -98.5 -91t-91.5 -39q-53 -3 -31 42zM432 424q67 46 97 108q19 36 20 76t-38 34q-30 -9 -47.5 -41t-24.5 -54q-19 -58 -17 -118q0 -13 10 -5zM614 847.5q-20 20.5 11 55.5q16 20 31 31.5t36 22.5q55 27 92.5 47.5
t56.5 41.5q26 27 29 49t-3 40q-15 37 -58.5 41t-92.5 -16q-57 -25 -70 -46.5t-1 -40.5q15 -23 62 -21.5t82 47.5q10 14 14.5 5.5t-9.5 -20.5q-15 -15 -46.5 -33.5t-66.5 -33.5q-50 -20 -94.5 -23t-49.5 35q-5 35 47.5 81t132.5 75q31 11 73.5 19.5t82.5 8.5t71.5 -12.5
t39.5 -44.5q10 -36 -17.5 -68.5t-75.5 -61.5q-41 -25 -90.5 -48l-98.5 -44q-22 -10 8 -15.5t56 -3.5q11 1 8 -4.5t-25 -14.5q-17 -7 -33.5 -20t-29.5 -20q-52 -29 -72 -8.5z" />
    <glyph glyph-name="uni1EBD" unicode="&#x1ebd;" horiz-adv-x="517" 
d="M-83 116q22 45 64 54q78 -4 181 109q13 14 29 48q35 81 93.5 168.5t169.5 177.5t232 90q82 -10 82.5 -59.5t-47.5 -111.5t-127 -122t-155 -91q-13 -5 -14 -24q5 -56 29 -93.5t81.5 -33t114 54t109.5 132.5q21 29 33.5 14.5t-8.5 -42.5q-81 -149 -223.5 -276t-278.5 -113
q-57 0 -94.5 45.5t-37.5 153.5q3 22 -12 7q-51 -53 -98.5 -91t-91.5 -39q-53 -3 -31 42zM432 424q67 46 97 108q19 36 20 76t-38 34q-30 -9 -47.5 -41t-24.5 -54q-19 -58 -17 -118q0 -13 10 -5zM841 846.5l-69 8t-77 22.5q-61 26 -100 45t-104 -54q-17 -23 -18 -5.5t18 32.5
q48 49 92.5 76.5t92 30.5t99 -26.5t93 -42.5t93 -6.5t55 47t-68.5 33.5q55 18 77 -11t3 -72t-83.5 -62.5t-102.5 -15z" />
    <glyph glyph-name="uni1EB9" unicode="&#x1eb9;" horiz-adv-x="517" 
d="M-83 116q22 45 64 54q78 -4 181 109q13 14 29 48q35 81 93.5 168.5t169.5 177.5t232 90q82 -10 82.5 -59.5t-47.5 -111.5t-127 -122t-155 -91q-13 -5 -14 -24q5 -56 29 -93.5t81.5 -33t114 54t109.5 132.5q21 29 33.5 14.5t-8.5 -42.5q-81 -149 -223.5 -276t-278.5 -113
q-57 0 -94.5 45.5t-37.5 153.5q3 22 -12 7q-51 -53 -98.5 -91t-91.5 -39q-53 -3 -31 42zM432 424q67 46 97 108q19 36 20 76t-38 34q-30 -9 -47.5 -41t-24.5 -54q-19 -58 -17 -118q0 -13 10 -5zM430 -30q57 -10 51 -56t-86 -88q-99 -51 -132 -25q-26 20 37 100t130 69z" />
    <glyph glyph-name="ecircumflex" unicode="&#xea;" horiz-adv-x="517" 
d="M-83 116q22 45 64 54q78 -4 181 109q13 14 29 48q35 81 93.5 168.5t169.5 177.5t232 90q82 -10 82.5 -59.5t-47.5 -111.5t-127 -122t-155 -91q-13 -5 -14 -24q5 -56 29 -93.5t81.5 -33t114 54t109.5 132.5q21 29 33.5 14.5t-8.5 -42.5q-81 -149 -223.5 -276t-278.5 -113
q-57 0 -94.5 45.5t-37.5 153.5q3 22 -12 7q-51 -53 -98.5 -91t-91.5 -39q-53 -3 -31 42zM432 424q67 46 97 108q19 36 20 76t-38 34q-30 -9 -47.5 -41t-24.5 -54q-19 -58 -17 -118q0 -13 10 -5zM663 1024l17 15q49 48 79 111q2 6 10 13.5t29 -2.5q0 -11 -3.5 -17.5t2 -22
t25.5 -46.5t50.5 -64t77.5 -62l22 19l17 -8l-118 -120q-67 36 -107 89l-38 55q-57 -37 -137 -97q-84 -63 -171 -85q-25 5 -29.5 29t25.5 31q36 9 117 63q65 42 132 99z" />
    <glyph glyph-name="uni1EC1" unicode="&#x1ec1;" horiz-adv-x="517" 
d="M-83 116q22 45 64 54q78 -4 181 109q13 14 29 48q35 81 93.5 168.5t169.5 177.5t232 90q82 -10 82.5 -59.5t-47.5 -111.5t-127 -122t-155 -91q-13 -5 -14 -24q5 -56 29 -93.5t81.5 -33t114 54t109.5 132.5q21 29 33.5 14.5t-8.5 -42.5q-81 -149 -223.5 -276t-278.5 -113
q-57 0 -94.5 45.5t-37.5 153.5q3 22 -12 7q-51 -53 -98.5 -91t-91.5 -39q-53 -3 -31 42zM432 424q67 46 97 108q19 36 20 76t-38 34q-30 -9 -47.5 -41t-24.5 -54q-19 -58 -17 -118q0 -13 10 -5zM663 1024l17 15q49 48 79 111q2 6 10 13.5t29 -2.5q0 -11 -3.5 -17.5t2 -22
t25.5 -46.5t50.5 -64t77.5 -62l22 19l17 -8l-118 -120q-67 36 -107 89l-38 55q-57 -37 -137 -97q-84 -63 -171 -85q-25 5 -29.5 29t25.5 31q36 9 117 63q65 42 132 99zM665 1294q-8 11 -22.5 55t-18.5 94.5t5.5 66t50 -35.5t93 -101.5t110.5 -92l97.5 -68.5t41 -41t-12 -22
t-52.5 -2q-29 6 -74 22.5t-89 38.5t-80.5 45.5t-48.5 40.5z" />
    <glyph glyph-name="uni1EBF" unicode="&#x1ebf;" horiz-adv-x="517" 
d="M-83 116q22 45 64 54q78 -4 181 109q13 14 29 48q35 81 93.5 168.5t169.5 177.5t232 90q82 -10 82.5 -59.5t-47.5 -111.5t-127 -122t-155 -91q-13 -5 -14 -24q5 -56 29 -93.5t81.5 -33t114 54t109.5 132.5q21 29 33.5 14.5t-8.5 -42.5q-81 -149 -223.5 -276t-278.5 -113
q-57 0 -94.5 45.5t-37.5 153.5q3 22 -12 7q-51 -53 -98.5 -91t-91.5 -39q-53 -3 -31 42zM432 424q67 46 97 108q19 36 20 76t-38 34q-30 -9 -47.5 -41t-24.5 -54q-19 -58 -17 -118q0 -13 10 -5zM663 1024l17 15q49 48 79 111q2 6 10 13.5t29 -2.5q0 -11 -3.5 -17.5t2 -22
t25.5 -46.5t50.5 -64t77.5 -62l22 19l17 -8l-118 -120q-67 36 -107 89l-38 55q-57 -37 -137 -97q-84 -63 -171 -85q-25 5 -29.5 29t25.5 31q36 9 117 63q65 42 132 99zM1248.5 1077.5q-41.5 -11.5 -90 -20t-96.5 -11.5t-78 0q-39 4 -49 16t-5 25t50.5 27.5t113 38
t132.5 56.5t118.5 70t58 19.5t-14 -65t-45 -85.5t-37.5 -46q-16 -13 -57.5 -24.5z" />
    <glyph glyph-name="uni1EC3" unicode="&#x1ec3;" horiz-adv-x="517" 
d="M-83 116q22 45 64 54q78 -4 181 109q13 14 29 48q35 81 93.5 168.5t169.5 177.5t232 90q82 -10 82.5 -59.5t-47.5 -111.5t-127 -122t-155 -91q-13 -5 -14 -24q5 -56 29 -93.5t81.5 -33t114 54t109.5 132.5q21 29 33.5 14.5t-8.5 -42.5q-81 -149 -223.5 -276t-278.5 -113
q-57 0 -94.5 45.5t-37.5 153.5q3 22 -12 7q-51 -53 -98.5 -91t-91.5 -39q-53 -3 -31 42zM432 424q67 46 97 108q19 36 20 76t-38 34q-30 -9 -47.5 -41t-24.5 -54q-19 -58 -17 -118q0 -13 10 -5zM663 1024l17 15q49 48 79 111q2 6 10 13.5t29 -2.5q0 -11 -3.5 -17.5t2 -22
t25.5 -46.5t50.5 -64t77.5 -62l22 19l17 -8l-118 -120q-67 36 -107 89l-38 55q-57 -37 -137 -97q-84 -63 -171 -85q-25 5 -29.5 29t25.5 31q36 9 117 63q65 42 132 99zM892 1093.5q-20 20.5 11 55.5q16 20 31 31.5t36 22.5q55 27 92.5 47.5t56.5 41.5q26 27 29 49t-3 40
q-15 37 -58.5 41t-92.5 -16q-57 -25 -70 -46.5t-1 -40.5q15 -23 62 -21.5t82 47.5q10 14 14.5 5.5t-9.5 -20.5q-15 -15 -46.5 -33.5t-66.5 -33.5q-50 -20 -94.5 -23t-49.5 35q-5 35 47.5 81t132.5 75q31 11 73.5 19.5t82.5 8.5t71.5 -12.5t39.5 -44.5q10 -36 -17.5 -68.5
t-75.5 -61.5q-41 -25 -90.5 -48l-98.5 -44q-22 -10 8 -15.5t56 -3.5q11 1 8 -4.5t-25 -14.5q-17 -7 -33.5 -20t-29.5 -20q-52 -29 -72 -8.5z" />
    <glyph glyph-name="uni1EC5" unicode="&#x1ec5;" horiz-adv-x="517" 
d="M-83 116q22 45 64 54q78 -4 181 109q13 14 29 48q35 81 93.5 168.5t169.5 177.5t232 90q82 -10 82.5 -59.5t-47.5 -111.5t-127 -122t-155 -91q-13 -5 -14 -24q5 -56 29 -93.5t81.5 -33t114 54t109.5 132.5q21 29 33.5 14.5t-8.5 -42.5q-81 -149 -223.5 -276t-278.5 -113
q-57 0 -94.5 45.5t-37.5 153.5q3 22 -12 7q-51 -53 -98.5 -91t-91.5 -39q-53 -3 -31 42zM432 424q67 46 97 108q19 36 20 76t-38 34q-30 -9 -47.5 -41t-24.5 -54q-19 -58 -17 -118q0 -13 10 -5zM663 1024l17 15q49 48 79 111q2 6 10 13.5t29 -2.5q0 -11 -3.5 -17.5t2 -22
t25.5 -46.5t50.5 -64t77.5 -62l22 19l17 -8l-118 -120q-67 36 -107 89l-38 55q-57 -37 -137 -97q-84 -63 -171 -85q-25 5 -29.5 29t25.5 31q36 9 117 63q65 42 132 99zM994 1168.5l-69 8t-77 22.5q-61 26 -100 45t-104 -54q-17 -23 -18 -5.5t18 32.5q48 49 92.5 76.5
t92 30.5t99 -26.5t93 -42.5t93 -6.5t55 47t-68.5 33.5q55 18 77 -11t3 -72t-83.5 -62.5t-102.5 -15z" />
    <glyph glyph-name="uni1EC7" unicode="&#x1ec7;" horiz-adv-x="517" 
d="M-83 116q22 45 64 54q78 -4 181 109q13 14 29 48q35 81 93.5 168.5t169.5 177.5t232 90q82 -10 82.5 -59.5t-47.5 -111.5t-127 -122t-155 -91q-13 -5 -14 -24q5 -56 29 -93.5t81.5 -33t114 54t109.5 132.5q21 29 33.5 14.5t-8.5 -42.5q-81 -149 -223.5 -276t-278.5 -113
q-57 0 -94.5 45.5t-37.5 153.5q3 22 -12 7q-51 -53 -98.5 -91t-91.5 -39q-53 -3 -31 42zM432 424q67 46 97 108q19 36 20 76t-38 34q-30 -9 -47.5 -41t-24.5 -54q-19 -58 -17 -118q0 -13 10 -5zM663 1024l17 15q49 48 79 111q2 6 10 13.5t29 -2.5q0 -11 -3.5 -17.5t2 -22
t25.5 -46.5t50.5 -64t77.5 -62l22 19l17 -8l-118 -120q-67 36 -107 89l-38 55q-57 -37 -137 -97q-84 -63 -171 -85q-25 5 -29.5 29t25.5 31q36 9 117 63q65 42 132 99zM430 -30q57 -10 51 -56t-86 -88q-99 -51 -132 -25q-26 20 37 100t130 69z" />
    <glyph glyph-name="igrave" unicode="&#xec;" horiz-adv-x="397" 
d="M-90.5 113.5q10.5 40.5 65.5 61.5q67 -9 141 73q45 46 61 90q19 54 41 96t37 67q31 51 159.5 95.5t152.5 14.5q6 -9 -11 -19.5t-29 -22.5q-42 -42 -76 -110t-43 -130.5t3 -88.5t59 -10q39 11 146 144q20 21 26 3t-74.5 -121t-159 -180.5t-171.5 -77.5q-93 4 -101 104
q-1 52 6 99q2 20 -13 5q-106 -113 -178 -126q-52 -7 -41.5 33.5zM320 934q-8 11 -22.5 55t-18.5 94.5t5.5 66t50 -35.5t93 -101.5t110.5 -92l97.5 -68.5t41 -41t-12 -22t-52.5 -2q-29 6 -74 22.5t-89 38.5t-80.5 45.5t-48.5 40.5z" />
    <glyph glyph-name="iacute" unicode="&#xed;" horiz-adv-x="397" 
d="M-90.5 113.5q10.5 40.5 65.5 61.5q67 -9 141 73q45 46 61 90q19 54 41 96t37 67q31 51 159.5 95.5t152.5 14.5q6 -9 -11 -19.5t-29 -22.5q-42 -42 -76 -110t-43 -130.5t3 -88.5t59 -10q39 11 146 144q20 21 26 3t-74.5 -121t-159 -180.5t-171.5 -77.5q-93 4 -101 104
q-1 52 6 99q2 20 -13 5q-106 -113 -178 -126q-52 -7 -41.5 33.5zM669.5 822.5q-41.5 -11.5 -90 -20t-96.5 -11.5t-78 0q-39 4 -49 16t-5 25t50.5 27.5t113 38t132.5 56.5t118.5 70t58 19.5t-14 -65t-45 -85.5t-37.5 -46q-16 -13 -57.5 -24.5z" />
    <glyph glyph-name="uni1EC9" unicode="&#x1ec9;" horiz-adv-x="397" 
d="M-90.5 113.5q10.5 40.5 65.5 61.5q67 -9 141 73q45 46 61 90q19 54 41 96t37 67q31 51 159.5 95.5t152.5 14.5q6 -9 -11 -19.5t-29 -22.5q-42 -42 -76 -110t-43 -130.5t3 -88.5t59 -10q39 11 146 144q20 21 26 3t-74.5 -121t-159 -180.5t-171.5 -77.5q-93 4 -101 104
q-1 52 6 99q2 20 -13 5q-106 -113 -178 -126q-52 -7 -41.5 33.5zM421 738.5q-20 20.5 11 55.5q16 20 31 31.5t36 22.5q55 27 92.5 47.5t56.5 41.5q26 27 29 49t-3 40q-15 37 -58.5 41t-92.5 -16q-57 -25 -70 -46.5t-1 -40.5q15 -23 62 -21.5t82 47.5q10 14 14.5 5.5
t-9.5 -20.5q-15 -15 -46.5 -33.5t-66.5 -33.5q-50 -20 -94.5 -23t-49.5 35q-5 35 47.5 81t132.5 75q31 11 73.5 19.5t82.5 8.5t71.5 -12.5t39.5 -44.5q10 -36 -17.5 -68.5t-75.5 -61.5q-41 -25 -90.5 -48l-98.5 -44q-22 -10 8 -15.5t56 -3.5q11 1 8 -4.5t-25 -14.5
q-17 -7 -33.5 -20t-29.5 -20q-52 -29 -72 -8.5z" />
    <glyph glyph-name="itilde" unicode="&#x129;" horiz-adv-x="397" 
d="M-90.5 113.5q10.5 40.5 65.5 61.5q67 -9 141 73q45 46 61 90q19 54 41 96t37 67q31 51 159.5 95.5t152.5 14.5q6 -9 -11 -19.5t-29 -22.5q-42 -42 -76 -110t-43 -130.5t3 -88.5t59 -10q39 11 146 144q20 21 26 3t-74.5 -121t-159 -180.5t-171.5 -77.5q-93 4 -101 104
q-1 52 6 99q2 20 -13 5q-106 -113 -178 -126q-52 -7 -41.5 33.5zM622 758.5l-69 8t-77 22.5q-61 26 -100 45t-104 -54q-17 -23 -18 -5.5t18 32.5q48 49 92.5 76.5t92 30.5t99 -26.5t93 -42.5t93 -6.5t55 47t-68.5 33.5q55 18 77 -11t3 -72t-83.5 -62.5t-102.5 -15z" />
    <glyph glyph-name="uni1ECB" unicode="&#x1ecb;" horiz-adv-x="397" 
d="M419 681q-71 6 -39.5 60t103.5 111q87 69 167 96q75 24 50.5 -76.5t-126.5 -149.5q-30 -15 -74.5 -30t-80.5 -11zM-90.5 113.5q10.5 40.5 65.5 61.5q67 -9 141 73q45 46 61 90q19 54 41 96t37 67q31 51 159.5 95.5t152.5 14.5q6 -9 -11 -19.5t-29 -22.5q-42 -42 -76 -110
t-43 -130.5t3 -88.5t59 -10q39 11 146 144q20 21 26 3t-74.5 -121t-159 -180.5t-171.5 -77.5q-93 4 -101 104q-1 52 6 99q2 20 -13 5q-106 -113 -178 -126q-52 -7 -41.5 33.5zM310 -63q57 -10 51 -56t-86 -88q-99 -51 -132 -25q-26 20 37 100t130 69z" />
    <glyph glyph-name="ograve" unicode="&#xf2;" horiz-adv-x="689" 
d="M-96.5 109.5q10.5 40.5 65.5 61.5q59 -3 129 70t126 163q55 129 194 251t298 130q142 -4 147 -131.5t-42 -260.5q-61 -173 -185 -292q-138 -127 -268 -122q-92 5 -147 75t-39 194q2 20 -12 4q-60 -69 -117.5 -118t-107.5 -58q-52 -7 -41.5 33.5zM565 194q42 -5 98 78
q37 54 65.5 122.5t42.5 126.5q18 70 16.5 125t-33.5 55q-32 -2 -88 -62q-72 -73 -107 -171q-22 -63 -27 -108.5t-5 -64.5q-5 -96 38 -101zM528 999q-8 11 -22.5 55t-18.5 94.5t5.5 66t50 -35.5t93 -101.5t110.5 -92l97.5 -68.5t41 -41t-12 -22t-52.5 -2q-29 6 -74 22.5
t-89 38.5t-80.5 45.5t-48.5 40.5z" />
    <glyph glyph-name="oacute" unicode="&#xf3;" horiz-adv-x="689" 
d="M-96.5 109.5q10.5 40.5 65.5 61.5q59 -3 129 70t126 163q55 129 194 251t298 130q142 -4 147 -131.5t-42 -260.5q-61 -173 -185 -292q-138 -127 -268 -122q-92 5 -147 75t-39 194q2 20 -12 4q-60 -69 -117.5 -118t-107.5 -58q-52 -7 -41.5 33.5zM565 194q42 -5 98 78
q37 54 65.5 122.5t42.5 126.5q18 70 16.5 125t-33.5 55q-32 -2 -88 -62q-72 -73 -107 -171q-22 -63 -27 -108.5t-5 -64.5q-5 -96 38 -101zM833.5 919.5q-41.5 -11.5 -90 -20t-96.5 -11.5t-78 0q-39 4 -49 16t-5 25t50.5 27.5t113 38t132.5 56.5t118.5 70t58 19.5t-14 -65
t-45 -85.5t-37.5 -46q-16 -13 -57.5 -24.5z" />
    <glyph glyph-name="uni1ECF" unicode="&#x1ecf;" horiz-adv-x="689" 
d="M-96.5 109.5q10.5 40.5 65.5 61.5q59 -3 129 70t126 163q55 129 194 251t298 130q142 -4 147 -131.5t-42 -260.5q-61 -173 -185 -292q-138 -127 -268 -122q-92 5 -147 75t-39 194q2 20 -12 4q-60 -69 -117.5 -118t-107.5 -58q-52 -7 -41.5 33.5zM565 194q42 -5 98 78
q37 54 65.5 122.5t42.5 126.5q18 70 16.5 125t-33.5 55q-32 -2 -88 -62q-72 -73 -107 -171q-22 -63 -27 -108.5t-5 -64.5q-5 -96 38 -101zM614 858.5q-20 20.5 11 55.5q16 20 31 31.5t36 22.5q55 27 92.5 47.5t56.5 41.5q26 27 29 49t-3 40q-15 37 -58.5 41t-92.5 -16
q-57 -25 -70 -46.5t-1 -40.5q15 -23 62 -21.5t82 47.5q10 14 14.5 5.5t-9.5 -20.5q-15 -15 -46.5 -33.5t-66.5 -33.5q-50 -20 -94.5 -23t-49.5 35q-5 35 47.5 81t132.5 75q31 11 73.5 19.5t82.5 8.5t71.5 -12.5t39.5 -44.5q10 -36 -17.5 -68.5t-75.5 -61.5
q-41 -25 -90.5 -48l-98.5 -44q-22 -10 8 -15.5t56 -3.5q11 1 8 -4.5t-25 -14.5q-17 -7 -33.5 -20t-29.5 -20q-52 -29 -72 -8.5z" />
    <glyph glyph-name="otilde" unicode="&#xf5;" horiz-adv-x="689" 
d="M-96.5 109.5q10.5 40.5 65.5 61.5q59 -3 129 70t126 163q55 129 194 251t298 130q142 -4 147 -131.5t-42 -260.5q-61 -173 -185 -292q-138 -127 -268 -122q-92 5 -147 75t-39 194q2 20 -12 4q-60 -69 -117.5 -118t-107.5 -58q-52 -7 -41.5 33.5zM565 194q42 -5 98 78
q37 54 65.5 122.5t42.5 126.5q18 70 16.5 125t-33.5 55q-32 -2 -88 -62q-72 -73 -107 -171q-22 -63 -27 -108.5t-5 -64.5q-5 -96 38 -101zM852 867.5l-69 8t-77 22.5q-61 26 -100 45t-104 -54q-17 -23 -18 -5.5t18 32.5q48 49 92.5 76.5t92 30.5t99 -26.5t93 -42.5t93 -6.5
t55 47t-68.5 33.5q55 18 77 -11t3 -72t-83.5 -62.5t-102.5 -15z" />
    <glyph glyph-name="uni1ECD" unicode="&#x1ecd;" horiz-adv-x="689" 
d="M-96.5 109.5q10.5 40.5 65.5 61.5q59 -3 129 70t126 163q55 129 194 251t298 130q142 -4 147 -131.5t-42 -260.5q-61 -173 -185 -292q-138 -127 -268 -122q-92 5 -147 75t-39 194q2 20 -12 4q-60 -69 -117.5 -118t-107.5 -58q-52 -7 -41.5 33.5zM565 194q42 -5 98 78
q37 54 65.5 122.5t42.5 126.5q18 70 16.5 125t-33.5 55q-32 -2 -88 -62q-72 -73 -107 -171q-22 -63 -27 -108.5t-5 -64.5q-5 -96 38 -101zM386 -63q57 -10 51 -56t-86 -88q-99 -51 -132 -25q-26 20 37 100t130 69z" />
    <glyph glyph-name="ocircumflex" unicode="&#xf4;" horiz-adv-x="689" 
d="M-96.5 109.5q10.5 40.5 65.5 61.5q59 -3 129 70t126 163q55 129 194 251t298 130q142 -4 147 -131.5t-42 -260.5q-61 -173 -185 -292q-138 -127 -268 -122q-92 5 -147 75t-39 194q2 20 -12 4q-60 -69 -117.5 -118t-107.5 -58q-52 -7 -41.5 33.5zM565 194q42 -5 98 78
q37 54 65.5 122.5t42.5 126.5q18 70 16.5 125t-33.5 55q-32 -2 -88 -62q-72 -73 -107 -171q-22 -63 -27 -108.5t-5 -64.5q-5 -96 38 -101zM707 1024l17 15q49 48 79 111q2 6 10 13.5t29 -2.5q0 -11 -3.5 -17.5t2 -22t25.5 -46.5t50.5 -64t77.5 -62l22 19l17 -8l-118 -120
q-67 36 -107 89l-38 55q-57 -37 -137 -97q-84 -63 -171 -85q-25 5 -29.5 29t25.5 31q36 9 117 63q65 42 132 99z" />
    <glyph glyph-name="uni1ED3" unicode="&#x1ed3;" horiz-adv-x="689" 
d="M-96.5 109.5q10.5 40.5 65.5 61.5q59 -3 129 70t126 163q55 129 194 251t298 130q142 -4 147 -131.5t-42 -260.5q-61 -173 -185 -292q-138 -127 -268 -122q-92 5 -147 75t-39 194q2 20 -12 4q-60 -69 -117.5 -118t-107.5 -58q-52 -7 -41.5 33.5zM565 194q42 -5 98 78
q37 54 65.5 122.5t42.5 126.5q18 70 16.5 125t-33.5 55q-32 -2 -88 -62q-72 -73 -107 -171q-22 -63 -27 -108.5t-5 -64.5q-5 -96 38 -101zM707 1024l17 15q49 48 79 111q2 6 10 13.5t29 -2.5q0 -11 -3.5 -17.5t2 -22t25.5 -46.5t50.5 -64t77.5 -62l22 19l17 -8l-118 -120
q-67 36 -107 89l-38 55q-57 -37 -137 -97q-84 -63 -171 -85q-25 5 -29.5 29t25.5 31q36 9 117 63q65 42 132 99zM665 1294q-8 11 -22.5 55t-18.5 94.5t5.5 66t50 -35.5t93 -101.5t110.5 -92l97.5 -68.5t41 -41t-12 -22t-52.5 -2q-29 6 -74 22.5t-89 38.5t-80.5 45.5
t-48.5 40.5z" />
    <glyph glyph-name="uni1ED1" unicode="&#x1ed1;" horiz-adv-x="689" 
d="M-96.5 109.5q10.5 40.5 65.5 61.5q59 -3 129 70t126 163q55 129 194 251t298 130q142 -4 147 -131.5t-42 -260.5q-61 -173 -185 -292q-138 -127 -268 -122q-92 5 -147 75t-39 194q2 20 -12 4q-60 -69 -117.5 -118t-107.5 -58q-52 -7 -41.5 33.5zM565 194q42 -5 98 78
q37 54 65.5 122.5t42.5 126.5q18 70 16.5 125t-33.5 55q-32 -2 -88 -62q-72 -73 -107 -171q-22 -63 -27 -108.5t-5 -64.5q-5 -96 38 -101zM707 1024l17 15q49 48 79 111q2 6 10 13.5t29 -2.5q0 -11 -3.5 -17.5t2 -22t25.5 -46.5t50.5 -64t77.5 -62l22 19l17 -8l-118 -120
q-67 36 -107 89l-38 55q-57 -37 -137 -97q-84 -63 -171 -85q-25 5 -29.5 29t25.5 31q36 9 117 63q65 42 132 99zM1248.5 1077.5q-41.5 -11.5 -90 -20t-96.5 -11.5t-78 0q-39 4 -49 16t-5 25t50.5 27.5t113 38t132.5 56.5t118.5 70t58 19.5t-14 -65t-45 -85.5t-37.5 -46
q-16 -13 -57.5 -24.5z" />
    <glyph glyph-name="uni1ED5" unicode="&#x1ed5;" horiz-adv-x="689" 
d="M-96.5 109.5q10.5 40.5 65.5 61.5q59 -3 129 70t126 163q55 129 194 251t298 130q142 -4 147 -131.5t-42 -260.5q-61 -173 -185 -292q-138 -127 -268 -122q-92 5 -147 75t-39 194q2 20 -12 4q-60 -69 -117.5 -118t-107.5 -58q-52 -7 -41.5 33.5zM565 194q42 -5 98 78
q37 54 65.5 122.5t42.5 126.5q18 70 16.5 125t-33.5 55q-32 -2 -88 -62q-72 -73 -107 -171q-22 -63 -27 -108.5t-5 -64.5q-5 -96 38 -101zM707 1024l17 15q49 48 79 111q2 6 10 13.5t29 -2.5q0 -11 -3.5 -17.5t2 -22t25.5 -46.5t50.5 -64t77.5 -62l22 19l17 -8l-118 -120
q-67 36 -107 89l-38 55q-57 -37 -137 -97q-84 -63 -171 -85q-25 5 -29.5 29t25.5 31q36 9 117 63q65 42 132 99zM917 1093.5q-20 20.5 11 55.5q16 20 31 31.5t36 22.5q55 27 92.5 47.5t56.5 41.5q26 27 29 49t-3 40q-15 37 -58.5 41t-92.5 -16q-57 -25 -70 -46.5t-1 -40.5
q15 -23 62 -21.5t82 47.5q10 14 14.5 5.5t-9.5 -20.5q-15 -15 -46.5 -33.5t-66.5 -33.5q-50 -20 -94.5 -23t-49.5 35q-5 35 47.5 81t132.5 75q31 11 73.5 19.5t82.5 8.5t71.5 -12.5t39.5 -44.5q10 -36 -17.5 -68.5t-75.5 -61.5q-41 -25 -90.5 -48l-98.5 -44q-22 -10 8 -15.5
t56 -3.5q11 1 8 -4.5t-25 -14.5q-17 -7 -33.5 -20t-29.5 -20q-52 -29 -72 -8.5z" />
    <glyph glyph-name="uni1ED7" unicode="&#x1ed7;" horiz-adv-x="689" 
d="M-96.5 109.5q10.5 40.5 65.5 61.5q59 -3 129 70t126 163q55 129 194 251t298 130q142 -4 147 -131.5t-42 -260.5q-61 -173 -185 -292q-138 -127 -268 -122q-92 5 -147 75t-39 194q2 20 -12 4q-60 -69 -117.5 -118t-107.5 -58q-52 -7 -41.5 33.5zM565 194q42 -5 98 78
q37 54 65.5 122.5t42.5 126.5q18 70 16.5 125t-33.5 55q-32 -2 -88 -62q-72 -73 -107 -171q-22 -63 -27 -108.5t-5 -64.5q-5 -96 38 -101zM707 1024l17 15q49 48 79 111q2 6 10 13.5t29 -2.5q0 -11 -3.5 -17.5t2 -22t25.5 -46.5t50.5 -64t77.5 -62l22 19l17 -8l-118 -120
q-67 36 -107 89l-38 55q-57 -37 -137 -97q-84 -63 -171 -85q-25 5 -29.5 29t25.5 31q36 9 117 63q65 42 132 99zM1052 1168.5l-69 8t-77 22.5q-61 26 -100 45t-104 -54q-17 -23 -18 -5.5t18 32.5q48 49 92.5 76.5t92 30.5t99 -26.5t93 -42.5t93 -6.5t55 47t-68.5 33.5
q55 18 77 -11t3 -72t-83.5 -62.5t-102.5 -15z" />
    <glyph glyph-name="uni1ED9" unicode="&#x1ed9;" horiz-adv-x="689" 
d="M-96.5 109.5q10.5 40.5 65.5 61.5q59 -3 129 70t126 163q55 129 194 251t298 130q142 -4 147 -131.5t-42 -260.5q-61 -173 -185 -292q-138 -127 -268 -122q-92 5 -147 75t-39 194q2 20 -12 4q-60 -69 -117.5 -118t-107.5 -58q-52 -7 -41.5 33.5zM565 194q42 -5 98 78
q37 54 65.5 122.5t42.5 126.5q18 70 16.5 125t-33.5 55q-32 -2 -88 -62q-72 -73 -107 -171q-22 -63 -27 -108.5t-5 -64.5q-5 -96 38 -101zM707 1024l17 15q49 48 79 111q2 6 10 13.5t29 -2.5q0 -11 -3.5 -17.5t2 -22t25.5 -46.5t50.5 -64t77.5 -62l22 19l17 -8l-118 -120
q-67 36 -107 89l-38 55q-57 -37 -137 -97q-84 -63 -171 -85q-25 5 -29.5 29t25.5 31q36 9 117 63q65 42 132 99zM386 -63q57 -10 51 -56t-86 -88q-99 -51 -132 -25q-26 20 37 100t130 69z" />
    <glyph glyph-name="glyph216" unicode="&#xf9;" horiz-adv-x="873" 
d="M-98.5 109.5q10.5 40.5 65.5 61.5q52 -8 112.5 46.5t113.5 131.5q18 27 28.5 51.5l23.5 54.5q47 109 84 145q27 27 132.5 66.5t168.5 45.5q71 6 13 -39q-62 -48 -141.5 -217t-64.5 -216q21 -41 96.5 56.5t155.5 220.5q22 34 37.5 61.5t51.5 48.5q112 61 271 95q29 6 44 1
t-10 -25q-68 -58 -113.5 -140t-62 -195.5t39.5 -122.5q58 -7 149 157q16 28 32 18.5t-20 -67.5q-72 -124 -167.5 -231t-194.5 -115q-105 -1 -127.5 94.5t15.5 257.5q4 25 -9 6q-51 -67 -138.5 -215t-186.5 -148q-79 2 -106 70t-8 184q3 26 -12 8q-60 -72 -120 -123.5
t-111 -60.5q-52 -6 -41.5 34.5zM574 999q-8 11 -22.5 55t-18.5 94.5t5.5 66t50 -35.5t93 -101.5t110.5 -92l97.5 -68.5t41 -41t-12 -22t-52.5 -2q-29 6 -74 22.5t-89 38.5t-80.5 45.5t-48.5 40.5z" />
    <glyph glyph-name="glyph217" unicode="&#xfa;" horiz-adv-x="873" 
d="M-98.5 109.5q10.5 40.5 65.5 61.5q52 -8 112.5 46.5t113.5 131.5q18 27 28.5 51.5l23.5 54.5q47 109 84 145q27 27 132.5 66.5t168.5 45.5q71 6 13 -39q-62 -48 -141.5 -217t-64.5 -216q21 -41 96.5 56.5t155.5 220.5q22 34 37.5 61.5t51.5 48.5q112 61 271 95q29 6 44 1
t-10 -25q-68 -58 -113.5 -140t-62 -195.5t39.5 -122.5q58 -7 149 157q16 28 32 18.5t-20 -67.5q-72 -124 -167.5 -231t-194.5 -115q-105 -1 -127.5 94.5t15.5 257.5q4 25 -9 6q-51 -67 -138.5 -215t-186.5 -148q-79 2 -106 70t-8 184q3 26 -12 8q-60 -72 -120 -123.5
t-111 -60.5q-52 -6 -41.5 34.5zM909.5 919.5q-41.5 -11.5 -90 -20t-96.5 -11.5t-78 0q-39 4 -49 16t-5 25t50.5 27.5t113 38t132.5 56.5t118.5 70t58 19.5t-14 -65t-45 -85.5t-37.5 -46q-16 -13 -57.5 -24.5z" />
    <glyph glyph-name="uni1EE7" unicode="&#x1ee7;" horiz-adv-x="873" 
d="M-98.5 109.5q10.5 40.5 65.5 61.5q52 -8 112.5 46.5t113.5 131.5q18 27 28.5 51.5l23.5 54.5q47 109 84 145q27 27 132.5 66.5t168.5 45.5q71 6 13 -39q-62 -48 -141.5 -217t-64.5 -216q21 -41 96.5 56.5t155.5 220.5q22 34 37.5 61.5t51.5 48.5q112 61 271 95q29 6 44 1
t-10 -25q-68 -58 -113.5 -140t-62 -195.5t39.5 -122.5q58 -7 149 157q16 28 32 18.5t-20 -67.5q-72 -124 -167.5 -231t-194.5 -115q-105 -1 -127.5 94.5t15.5 257.5q4 25 -9 6q-51 -67 -138.5 -215t-186.5 -148q-79 2 -106 70t-8 184q3 26 -12 8q-60 -72 -120 -123.5
t-111 -60.5q-52 -6 -41.5 34.5zM719 829.5q-20 20.5 11 55.5q16 20 31 31.5t36 22.5q55 27 92.5 47.5t56.5 41.5q26 27 29 49t-3 40q-15 37 -58.5 41t-92.5 -16q-57 -25 -70 -46.5t-1 -40.5q15 -23 62 -21.5t82 47.5q10 14 14.5 5.5t-9.5 -20.5q-15 -15 -46.5 -33.5
t-66.5 -33.5q-50 -20 -94.5 -23t-49.5 35q-5 35 47.5 81t132.5 75q31 11 73.5 19.5t82.5 8.5t71.5 -12.5t39.5 -44.5q10 -36 -17.5 -68.5t-75.5 -61.5q-41 -25 -90.5 -48l-98.5 -44q-22 -10 8 -15.5t56 -3.5q11 1 8 -4.5t-25 -14.5q-17 -7 -33.5 -20t-29.5 -20
q-52 -29 -72 -8.5z" />
    <glyph glyph-name="utilde" unicode="&#x169;" horiz-adv-x="873" 
d="M-98.5 109.5q10.5 40.5 65.5 61.5q52 -8 112.5 46.5t113.5 131.5q18 27 28.5 51.5l23.5 54.5q47 109 84 145q27 27 132.5 66.5t168.5 45.5q71 6 13 -39q-62 -48 -141.5 -217t-64.5 -216q21 -41 96.5 56.5t155.5 220.5q22 34 37.5 61.5t51.5 48.5q112 61 271 95q29 6 44 1
t-10 -25q-68 -58 -113.5 -140t-62 -195.5t39.5 -122.5q58 -7 149 157q16 28 32 18.5t-20 -67.5q-72 -124 -167.5 -231t-194.5 -115q-105 -1 -127.5 94.5t15.5 257.5q4 25 -9 6q-51 -67 -138.5 -215t-186.5 -148q-79 2 -106 70t-8 184q3 26 -12 8q-60 -72 -120 -123.5
t-111 -60.5q-52 -6 -41.5 34.5zM890 867.5l-69 8t-77 22.5q-61 26 -100 45t-104 -54q-17 -23 -18 -5.5t18 32.5q48 49 92.5 76.5t92 30.5t99 -26.5t93 -42.5t93 -6.5t55 47t-68.5 33.5q55 18 77 -11t3 -72t-83.5 -62.5t-102.5 -15z" />
    <glyph glyph-name="uni1EE5" unicode="&#x1ee5;" horiz-adv-x="873" 
d="M-98.5 109.5q10.5 40.5 65.5 61.5q52 -8 112.5 46.5t113.5 131.5q18 27 28.5 51.5l23.5 54.5q47 109 84 145q27 27 132.5 66.5t168.5 45.5q71 6 13 -39q-62 -48 -141.5 -217t-64.5 -216q21 -41 96.5 56.5t155.5 220.5q22 34 37.5 61.5t51.5 48.5q112 61 271 95q29 6 44 1
t-10 -25q-68 -58 -113.5 -140t-62 -195.5t39.5 -122.5q58 -7 149 157q16 28 32 18.5t-20 -67.5q-72 -124 -167.5 -231t-194.5 -115q-105 -1 -127.5 94.5t15.5 257.5q4 25 -9 6q-51 -67 -138.5 -215t-186.5 -148q-79 2 -106 70t-8 184q3 26 -12 8q-60 -72 -120 -123.5
t-111 -60.5q-52 -6 -41.5 34.5zM554 -63q57 -10 51 -56t-86 -88q-99 -51 -132 -25q-26 20 37 100t130 69z" />
    <glyph glyph-name="uhorn" unicode="&#x1b0;" horiz-adv-x="873" 
d="M-98.5 109.5q10.5 40.5 65.5 61.5q52 -8 112.5 46.5t113.5 131.5q18 27 28.5 51.5l23.5 54.5q47 109 84 145q27 27 132.5 66.5t168.5 45.5q71 6 13 -39q-62 -48 -141.5 -217t-64.5 -216q21 -41 96.5 56.5t155.5 220.5q22 34 37.5 61.5t51.5 48.5q112 61 271 95q29 6 44 1
t-10 -25q-68 -58 -113.5 -140t-62 -195.5t39.5 -122.5q58 -7 149 157q16 28 32 18.5t-20 -67.5q-72 -124 -167.5 -231t-194.5 -115q-105 -1 -127.5 94.5t15.5 257.5q4 25 -9 6q-51 -67 -138.5 -215t-186.5 -148q-79 2 -106 70t-8 184q3 26 -12 8q-60 -72 -120 -123.5
t-111 -60.5q-52 -6 -41.5 34.5zM928 630q94 34 154 92t35 91q-11 15 -33 10t-35 0q-79 31 15.5 70.5t179.5 40.5q41 1 56 -32.5t-10 -67.5q-55 -75 -152 -131.5t-180 -89.5q-24 -10 -36.5 0.5t6.5 16.5z" />
    <glyph glyph-name="uni1EEB" unicode="&#x1eeb;" horiz-adv-x="873" 
d="M574 999q-8 11 -22.5 55t-18.5 94.5t5.5 66t50 -35.5t93 -101.5t110.5 -92l97.5 -68.5t41 -41t-12 -22t-52.5 -2q-29 6 -74 22.5t-89 38.5t-80.5 45.5t-48.5 40.5zM1029 644q-33 -39 -59 -86q-46 -82 -62.5 -195.5t39.5 -122.5q58 -7 149 157q16 28 32 18.5t-20 -67.5
q-72 -124 -167.5 -231t-194.5 -115q-105 -1 -127.5 94.5t15.5 257.5q4 25 -9 6q-51 -67 -138.5 -215t-186.5 -148q-79 2 -106 70t-8 184q3 26 -12 8q-60 -72 -120 -123.5t-111 -60.5q-52 -6 -41.5 34.5t65.5 61.5q52 -8 112.5 46.5t113.5 131.5q18 27 28.5 51.5l23.5 54.5
q47 109 84 145q27 27 132.5 66.5t168.5 45.5q71 6 13 -39q-62 -48 -141.5 -217t-64.5 -216q21 -41 96.5 56.5t155.5 220.5q22 34 37.5 61.5t51.5 48.5q112 61 271 95q22 5 36 3q56 56 32 88q-11 15 -33 10t-35 0q-79 31 15.5 70.5t179.5 40.5q41 1 56 -32.5t-10 -67.5
q-55 -75 -152 -131q-57 -34 -109 -59z" />
    <glyph glyph-name="uni1EE9" unicode="&#x1ee9;" horiz-adv-x="873" 
d="M909.5 919.5q-41.5 -11.5 -90 -20t-96.5 -11.5t-78 0q-39 4 -49 16t-5 25t50.5 27.5t113 38t132.5 56.5t118.5 70t58 19.5t-14 -65t-45 -85.5t-37.5 -46q-16 -13 -57.5 -24.5zM1029 644q-33 -39 -59 -86q-46 -82 -62.5 -195.5t39.5 -122.5q58 -7 149 157q16 28 32 18.5
t-20 -67.5q-72 -124 -167.5 -231t-194.5 -115q-105 -1 -127.5 94.5t15.5 257.5q4 25 -9 6q-51 -67 -138.5 -215t-186.5 -148q-79 2 -106 70t-8 184q3 26 -12 8q-60 -72 -120 -123.5t-111 -60.5q-52 -6 -41.5 34.5t65.5 61.5q52 -8 112.5 46.5t113.5 131.5q18 27 28.5 51.5
l23.5 54.5q47 109 84 145q27 27 132.5 66.5t168.5 45.5q71 6 13 -39q-62 -48 -141.5 -217t-64.5 -216q21 -41 96.5 56.5t155.5 220.5q22 34 37.5 61.5t51.5 48.5q112 61 271 95q22 5 36 3q56 56 32 88q-11 15 -33 10t-35 0q-79 31 15.5 70.5t179.5 40.5q41 1 56 -32.5
t-10 -67.5q-55 -75 -152 -131q-57 -34 -109 -59z" />
    <glyph glyph-name="uni1EED" unicode="&#x1eed;" horiz-adv-x="873" 
d="M730 885q16 20 31 31.5t36 22.5q55 27 92.5 47.5t56.5 41.5q26 27 29 49t-3 40q-15 37 -58.5 41t-92.5 -16q-57 -25 -70 -46.5t-1 -40.5q15 -23 62 -21.5t82 47.5q10 14 14.5 5.5t-9.5 -20.5q-15 -15 -46.5 -33.5t-66.5 -33.5q-50 -20 -94.5 -23t-49.5 35q-5 35 47.5 81
t132.5 75q31 11 73.5 19.5t82.5 8.5t71.5 -12.5t39.5 -44.5q10 -36 -17.5 -68.5t-75.5 -61.5q-41 -25 -90.5 -48l-98.5 -44q-22 -10 8 -15.5t56 -3.5q11 1 8 -4.5t-25 -14.5q-17 -7 -33.5 -20t-29.5 -20q-52 -29 -72 -8.5t11 55.5zM1029 644q-33 -39 -59 -86
q-46 -82 -62.5 -195.5t39.5 -122.5q58 -7 149 157q16 28 32 18.5t-20 -67.5q-72 -124 -167.5 -231t-194.5 -115q-105 -1 -127.5 94.5t15.5 257.5q4 25 -9 6q-51 -67 -138.5 -215t-186.5 -148q-79 2 -106 70t-8 184q3 26 -12 8q-60 -72 -120 -123.5t-111 -60.5
q-52 -6 -41.5 34.5t65.5 61.5q52 -8 112.5 46.5t113.5 131.5q18 27 28.5 51.5l23.5 54.5q47 109 84 145q27 27 132.5 66.5t168.5 45.5q71 6 13 -39q-62 -48 -141.5 -217t-64.5 -216q21 -41 96.5 56.5t155.5 220.5q22 34 37.5 61.5t51.5 48.5q112 61 271 95q22 5 36 3
q56 56 32 88q-11 15 -33 10t-35 0q-79 31 15.5 70.5t179.5 40.5q41 1 56 -32.5t-10 -67.5q-55 -75 -152 -131q-57 -34 -109 -59z" />
    <glyph glyph-name="uni1EEF" unicode="&#x1eef;" horiz-adv-x="873" 
d="M890 867.5l-69 8t-77 22.5q-61 26 -100 45t-104 -54q-17 -23 -18 -5.5t18 32.5q48 49 92.5 76.5t92 30.5t99 -26.5t93 -42.5t93 -6.5t55 47t-68.5 33.5q55 18 77 -11t3 -72t-83.5 -62.5t-102.5 -15zM1029 644q-33 -39 -59 -86q-46 -82 -62.5 -195.5t39.5 -122.5
q58 -7 149 157q16 28 32 18.5t-20 -67.5q-72 -124 -167.5 -231t-194.5 -115q-105 -1 -127.5 94.5t15.5 257.5q4 25 -9 6q-51 -67 -138.5 -215t-186.5 -148q-79 2 -106 70t-8 184q3 26 -12 8q-60 -72 -120 -123.5t-111 -60.5q-52 -6 -41.5 34.5t65.5 61.5q52 -8 112.5 46.5
t113.5 131.5q18 27 28.5 51.5l23.5 54.5q47 109 84 145q27 27 132.5 66.5t168.5 45.5q71 6 13 -39q-62 -48 -141.5 -217t-64.5 -216q21 -41 96.5 56.5t155.5 220.5q22 34 37.5 61.5t51.5 48.5q112 61 271 95q22 5 36 3q56 56 32 88q-11 15 -33 10t-35 0q-79 31 15.5 70.5
t179.5 40.5q41 1 56 -32.5t-10 -67.5q-55 -75 -152 -131q-57 -34 -109 -59z" />
    <glyph glyph-name="uni1EF1" unicode="&#x1ef1;" horiz-adv-x="873" 
d="M554 -63q57 -10 51 -56t-86 -88q-99 -51 -132 -25q-26 20 37 100t130 69zM1029 644q-33 -39 -59 -86q-46 -82 -62.5 -195.5t39.5 -122.5q58 -7 149 157q16 28 32 18.5t-20 -67.5q-72 -124 -167.5 -231t-194.5 -115q-105 -1 -127.5 94.5t15.5 257.5q4 25 -9 6
q-51 -67 -138.5 -215t-186.5 -148q-79 2 -106 70t-8 184q3 26 -12 8q-60 -72 -120 -123.5t-111 -60.5q-52 -6 -41.5 34.5t65.5 61.5q52 -8 112.5 46.5t113.5 131.5q18 27 28.5 51.5l23.5 54.5q47 109 84 145q27 27 132.5 66.5t168.5 45.5q71 6 13 -39q-62 -48 -141.5 -217
t-64.5 -216q21 -41 96.5 56.5t155.5 220.5q22 34 37.5 61.5t51.5 48.5q112 61 271 95q22 5 36 3q56 56 32 88q-11 15 -33 10t-35 0q-79 31 15.5 70.5t179.5 40.5q41 1 56 -32.5t-10 -67.5q-55 -75 -152 -131q-57 -34 -109 -59z" />
    <glyph glyph-name="ohorn" unicode="&#x1a1;" horiz-adv-x="689" 
d="M-31 171q59 -3 129 70t126 163q55 129 194 251t298 130q142 -4 147 -131.5t-42 -260.5q-61 -173 -185 -292q-138 -127 -268 -122q-92 5 -147 75t-39 194q2 20 -12 4q-60 -69 -117.5 -118t-107.5 -58q-52 -7 -41.5 33.5t65.5 61.5zM565 194q42 -5 98 78q37 54 65.5 122.5
t42.5 126.5q18 70 16.5 125t-33.5 55q-32 -2 -88 -62q-72 -73 -107 -171q-22 -63 -27 -108.5t-5 -64.5q-5 -96 38 -101zM844 677q32 20 58 45q60 58 35 91q-11 15 -33 10t-35 0q-79 31 15.5 70.5t179.5 40.5q41 1 56 -32.5t-10 -67.5q-52 -70 -140 -124q-6 -3 -12 -7
l-57 -32q-27 -15 -52 -27q-2 -1 -5 -2v35z" />
    <glyph glyph-name="uni1EDD" unicode="&#x1edd;" horiz-adv-x="689" 
d="M565 194q42 -5 98 78q37 54 65.5 122.5t42.5 126.5q18 70 16.5 125t-33.5 55q-32 -2 -88 -62q-72 -73 -107 -171q-22 -63 -27 -108.5t-5 -64.5q-5 -96 38 -101zM436 999q-8 11 -22.5 55t-18.5 94.5t5.5 66t50 -35.5t93 -101.5t110.5 -92l97.5 -68.5t41 -41t-12 -22
t-52.5 -2q-29 6 -74 22.5t-89 38.5t-80.5 45.5t-48.5 40.5zM863 651q5 -126 -42 -258q-61 -173 -185 -292q-138 -127 -268 -122q-92 5 -147 75t-39 194q2 20 -12 4q-60 -69 -117.5 -118t-107.5 -58q-52 -7 -41.5 33.5t65.5 61.5q59 -3 129 70t126 163q55 129 194 251
t298 130q122 -3 143 -98q23 16 43 35q60 58 35 91q-11 15 -33 10t-35 0q-79 31 15.5 70.5t179.5 40.5q41 1 56 -32.5t-10 -67.5q-52 -70 -140 -124q-6 -3 -12 -7l-57 -32q-19 -11 -38 -20z" />
    <glyph glyph-name="uni1EDB" unicode="&#x1edb;" horiz-adv-x="689" 
d="M565 194q42 -5 98 78q37 54 65.5 122.5t42.5 126.5q18 70 16.5 125t-33.5 55q-32 -2 -88 -62q-72 -73 -107 -171q-22 -63 -27 -108.5t-5 -64.5q-5 -96 38 -101zM833.5 919.5q-41.5 -11.5 -90 -20t-96.5 -11.5t-78 0q-39 4 -49 16t-5 25t50.5 27.5t113 38t132.5 56.5
t118.5 70t58 19.5t-14 -65t-45 -85.5t-37.5 -46q-16 -13 -57.5 -24.5zM863 651q5 -126 -42 -258q-61 -173 -185 -292q-138 -127 -268 -122q-92 5 -147 75t-39 194q2 20 -12 4q-60 -69 -117.5 -118t-107.5 -58q-52 -7 -41.5 33.5t65.5 61.5q59 -3 129 70t126 163
q55 129 194 251t298 130q122 -3 143 -98q23 16 43 35q60 58 35 91q-11 15 -33 10t-35 0q-79 31 15.5 70.5t179.5 40.5q41 1 56 -32.5t-10 -67.5q-52 -70 -140 -124q-6 -3 -12 -7l-57 -32q-19 -11 -38 -20z" />
    <glyph glyph-name="uni1EDF" unicode="&#x1edf;" horiz-adv-x="689" 
d="M565 194q42 -5 98 78q37 54 65.5 122.5t42.5 126.5q18 70 16.5 125t-33.5 55q-32 -2 -88 -62q-72 -73 -107 -171q-22 -63 -27 -108.5t-5 -64.5q-5 -96 38 -101zM614 858.5q-20 20.5 11 55.5q16 20 31 31.5t36 22.5q55 27 92.5 47.5t56.5 41.5q26 27 29 49t-3 40
q-15 37 -58.5 41t-92.5 -16q-57 -25 -70 -46.5t-1 -40.5q15 -23 62 -21.5t82 47.5q10 14 14.5 5.5t-9.5 -20.5q-15 -15 -46.5 -33.5t-66.5 -33.5q-50 -20 -94.5 -23t-49.5 35q-5 35 47.5 81t132.5 75q31 11 73.5 19.5t82.5 8.5t71.5 -12.5t39.5 -44.5q10 -36 -17.5 -68.5
t-75.5 -61.5q-41 -25 -90.5 -48l-98.5 -44q-22 -10 8 -15.5t56 -3.5q11 1 8 -4.5t-25 -14.5q-17 -7 -33.5 -20t-29.5 -20q-52 -29 -72 -8.5zM863 651q5 -126 -42 -258q-61 -173 -185 -292q-138 -127 -268 -122q-92 5 -147 75t-39 194q2 20 -12 4q-60 -69 -117.5 -118
t-107.5 -58q-52 -7 -41.5 33.5t65.5 61.5q59 -3 129 70t126 163q55 129 194 251t298 130q122 -3 143 -98q23 16 43 35q60 58 35 91q-11 15 -33 10t-35 0q-79 31 15.5 70.5t179.5 40.5q41 1 56 -32.5t-10 -67.5q-52 -70 -140 -124q-6 -3 -12 -7l-57 -32q-19 -11 -38 -20z" />
    <glyph glyph-name="uni1EE1" unicode="&#x1ee1;" horiz-adv-x="689" 
d="M565 194q42 -5 98 78q37 54 65.5 122.5t42.5 126.5q18 70 16.5 125t-33.5 55q-32 -2 -88 -62q-72 -73 -107 -171q-22 -63 -27 -108.5t-5 -64.5q-5 -96 38 -101zM856 943.5l-69 8t-77 22.5q-61 26 -100 45t-104 -54q-17 -23 -18 -5.5t18 32.5q48 49 92.5 76.5t92 30.5
t99 -26.5t93 -42.5t93 -6.5t55 47t-68.5 33.5q55 18 77 -11t3 -72t-83.5 -62.5t-102.5 -15zM863 651q5 -126 -42 -258q-61 -173 -185 -292q-138 -127 -268 -122q-92 5 -147 75t-39 194q2 20 -12 4q-60 -69 -117.5 -118t-107.5 -58q-52 -7 -41.5 33.5t65.5 61.5q59 -3 129 70
t126 163q55 129 194 251t298 130q122 -3 143 -98q23 16 43 35q60 58 35 91q-11 15 -33 10t-35 0q-79 31 15.5 70.5t179.5 40.5q41 1 56 -32.5t-10 -67.5q-52 -70 -140 -124q-6 -3 -12 -7l-57 -32q-19 -11 -38 -20z" />
    <glyph glyph-name="uni1EE3" unicode="&#x1ee3;" horiz-adv-x="689" 
d="M565 194q42 -5 98 78q37 54 65.5 122.5t42.5 126.5q18 70 16.5 125t-33.5 55q-32 -2 -88 -62q-72 -73 -107 -171q-22 -63 -27 -108.5t-5 -64.5q-5 -96 38 -101zM386 -63q57 -10 51 -56t-86 -88q-99 -51 -132 -25q-26 20 37 100t130 69zM863 651q5 -126 -42 -258
q-61 -173 -185 -292q-138 -127 -268 -122q-92 5 -147 75t-39 194q2 20 -12 4q-60 -69 -117.5 -118t-107.5 -58q-52 -7 -41.5 33.5t65.5 61.5q59 -3 129 70t126 163q55 129 194 251t298 130q122 -3 143 -98q23 16 43 35q60 58 35 91q-11 15 -33 10t-35 0q-79 31 15.5 70.5
t179.5 40.5q41 1 56 -32.5t-10 -67.5q-52 -70 -140 -124q-6 -3 -12 -7l-57 -32q-19 -11 -38 -20z" />
    <glyph glyph-name="ygrave" unicode="&#x1ef3;" horiz-adv-x="836" 
d="M-89.5 109q10.5 40 65.5 61q55 -2 122.5 61.5t118.5 150.5q28 47 60.5 113.5t72.5 104.5q26 24 122.5 60.5t162.5 45.5q73 10 11 -38q-63 -50 -142.5 -193.5t-67.5 -212.5q8 -54 63.5 8.5t118.5 154.5l91 135t63 84q30 28 141.5 63t160.5 37q52 0 18 -33
q-78 -54 -147 -211t-120 -319q-73 -226 -150.5 -421.5t-322.5 -348.5q-73 -45 -174.5 -80t-186.5 -23q-87 13 -127 72.5t-28 140.5q13 81 81.5 171t198.5 164q174 97 420 130q10 2 13 13l21.5 84l21.5 86q24 101 47 169q5 16 0.5 20t-14.5 -11q-75 -104 -190 -228.5
t-198 -118.5q-65 3 -80.5 63t2.5 147q5 26 -13 6q-115 -126 -194 -141q-52 -6 -41.5 34zM521 -79q-153 10 -271 -49q-108 -47 -163.5 -139.5t-63.5 -179.5q-8 -75 20 -129t89 -57q103 2 184.5 89t127.5 200q29 61 48.5 123t35.5 128q3 13 -7 14zM574 999q-8 11 -22.5 55
t-18.5 94.5t5.5 66t50 -35.5t93 -101.5t110.5 -92l97.5 -68.5t41 -41t-12 -22t-52.5 -2q-29 6 -74 22.5t-89 38.5t-80.5 45.5t-48.5 40.5z" />
    <glyph glyph-name="glyph234" unicode="&#xfd;" horiz-adv-x="836" 
d="M-89.5 109q10.5 40 65.5 61q55 -2 122.5 61.5t118.5 150.5q28 47 60.5 113.5t72.5 104.5q26 24 122.5 60.5t162.5 45.5q73 10 11 -38q-63 -50 -142.5 -193.5t-67.5 -212.5q8 -54 63.5 8.5t118.5 154.5l91 135t63 84q30 28 141.5 63t160.5 37q52 0 18 -33
q-78 -54 -147 -211t-120 -319q-73 -226 -150.5 -421.5t-322.5 -348.5q-73 -45 -174.5 -80t-186.5 -23q-87 13 -127 72.5t-28 140.5q13 81 81.5 171t198.5 164q174 97 420 130q10 2 13 13l21.5 84l21.5 86q24 101 47 169q5 16 0.5 20t-14.5 -11q-75 -104 -190 -228.5
t-198 -118.5q-65 3 -80.5 63t2.5 147q5 26 -13 6q-115 -126 -194 -141q-52 -6 -41.5 34zM521 -79q-153 10 -271 -49q-108 -47 -163.5 -139.5t-63.5 -179.5q-8 -75 20 -129t89 -57q103 2 184.5 89t127.5 200q29 61 48.5 123t35.5 128q3 13 -7 14zM979.5 919.5
q-41.5 -11.5 -90 -20t-96.5 -11.5t-78 0q-39 4 -49 16t-5 25t50.5 27.5t113 38t132.5 56.5t118.5 70t58 19.5t-14 -65t-45 -85.5t-37.5 -46q-16 -13 -57.5 -24.5z" />
    <glyph glyph-name="uni1EF7" unicode="&#x1ef7;" horiz-adv-x="836" 
d="M-89.5 109q10.5 40 65.5 61q55 -2 122.5 61.5t118.5 150.5q28 47 60.5 113.5t72.5 104.5q26 24 122.5 60.5t162.5 45.5q73 10 11 -38q-63 -50 -142.5 -193.5t-67.5 -212.5q8 -54 63.5 8.5t118.5 154.5l91 135t63 84q30 28 141.5 63t160.5 37q52 0 18 -33
q-78 -54 -147 -211t-120 -319q-73 -226 -150.5 -421.5t-322.5 -348.5q-73 -45 -174.5 -80t-186.5 -23q-87 13 -127 72.5t-28 140.5q13 81 81.5 171t198.5 164q174 97 420 130q10 2 13 13l21.5 84l21.5 86q24 101 47 169q5 16 0.5 20t-14.5 -11q-75 -104 -190 -228.5
t-198 -118.5q-65 3 -80.5 63t2.5 147q5 26 -13 6q-115 -126 -194 -141q-52 -6 -41.5 34zM521 -79q-153 10 -271 -49q-108 -47 -163.5 -139.5t-63.5 -179.5q-8 -75 20 -129t89 -57q103 2 184.5 89t127.5 200q29 61 48.5 123t35.5 128q3 13 -7 14zM748 841.5q-20 20.5 11 55.5
q16 20 31 31.5t36 22.5q55 27 92.5 47.5t56.5 41.5q26 27 29 49t-3 40q-15 37 -58.5 41t-92.5 -16q-57 -25 -70 -46.5t-1 -40.5q15 -23 62 -21.5t82 47.5q10 14 14.5 5.5t-9.5 -20.5q-15 -15 -46.5 -33.5t-66.5 -33.5q-50 -20 -94.5 -23t-49.5 35q-5 35 47.5 81t132.5 75
q31 11 73.5 19.5t82.5 8.5t71.5 -12.5t39.5 -44.5q10 -36 -17.5 -68.5t-75.5 -61.5q-41 -25 -90.5 -48l-98.5 -44q-22 -10 8 -15.5t56 -3.5q11 1 8 -4.5t-25 -14.5q-17 -7 -33.5 -20t-29.5 -20q-52 -29 -72 -8.5z" />
    <glyph glyph-name="uni1EF9" unicode="&#x1ef9;" horiz-adv-x="836" 
d="M-89.5 109q10.5 40 65.5 61q55 -2 122.5 61.5t118.5 150.5q28 47 60.5 113.5t72.5 104.5q26 24 122.5 60.5t162.5 45.5q73 10 11 -38q-63 -50 -142.5 -193.5t-67.5 -212.5q8 -54 63.5 8.5t118.5 154.5l91 135t63 84q30 28 141.5 63t160.5 37q52 0 18 -33
q-78 -54 -147 -211t-120 -319q-73 -226 -150.5 -421.5t-322.5 -348.5q-73 -45 -174.5 -80t-186.5 -23q-87 13 -127 72.5t-28 140.5q13 81 81.5 171t198.5 164q174 97 420 130q10 2 13 13l21.5 84l21.5 86q24 101 47 169q5 16 0.5 20t-14.5 -11q-75 -104 -190 -228.5
t-198 -118.5q-65 3 -80.5 63t2.5 147q5 26 -13 6q-115 -126 -194 -141q-52 -6 -41.5 34zM521 -79q-153 10 -271 -49q-108 -47 -163.5 -139.5t-63.5 -179.5q-8 -75 20 -129t89 -57q103 2 184.5 89t127.5 200q29 61 48.5 123t35.5 128q3 13 -7 14zM868 876.5l-69 8t-77 22.5
q-61 26 -100 45t-104 -54q-17 -23 -18 -5.5t18 32.5q48 49 92.5 76.5t92 30.5t99 -26.5t93 -42.5t93 -6.5t55 47t-68.5 33.5q55 18 77 -11t3 -72t-83.5 -62.5t-102.5 -15z" />
    <glyph glyph-name="uni1EF5" unicode="&#x1ef5;" horiz-adv-x="836" 
d="M-89.5 109q10.5 40 65.5 61q55 -2 122.5 61.5t118.5 150.5q28 47 60.5 113.5t72.5 104.5q26 24 122.5 60.5t162.5 45.5q73 10 11 -38q-63 -50 -142.5 -193.5t-67.5 -212.5q8 -54 63.5 8.5t118.5 154.5l91 135t63 84q30 28 141.5 63t160.5 37q52 0 18 -33
q-78 -54 -147 -211t-120 -319q-73 -226 -150.5 -421.5t-322.5 -348.5q-73 -45 -174.5 -80t-186.5 -23q-87 13 -127 72.5t-28 140.5q13 81 81.5 171t198.5 164q174 97 420 130q10 2 13 13l21.5 84l21.5 86q24 101 47 169q5 16 0.5 20t-14.5 -11q-75 -104 -190 -228.5
t-198 -118.5q-65 3 -80.5 63t2.5 147q5 26 -13 6q-115 -126 -194 -141q-52 -6 -41.5 34zM521 -79q-153 10 -271 -49q-108 -47 -163.5 -139.5t-63.5 -179.5q-8 -75 20 -129t89 -57q103 2 184.5 89t127.5 200q29 61 48.5 123t35.5 128q3 13 -7 14zM912 -63q57 -10 51 -56
t-86 -88q-99 -51 -132 -25q-26 20 37 100t130 69z" />
    <glyph glyph-name="divide" unicode="&#xf7;" horiz-adv-x="1706" 
 />
    <glyph glyph-name="ugrave" horiz-adv-x="582" 
 />
    <glyph glyph-name="uacute" horiz-adv-x="580" 
 />
    <glyph glyph-name="yacute" horiz-adv-x="629" 
 />
    <glyph glyph-name="Ccaron" unicode="&#x10c;" horiz-adv-x="1274" 
 />
    <glyph glyph-name="ccaron" unicode="&#x10d;" horiz-adv-x="922" 
 />
    <glyph glyph-name="Dslash" unicode="&#x110;" horiz-adv-x="1788" 
d="M818 504q-43 -75 -61 -117q-38 -87 -48 -139q-7 -35 14 -12q27 27 62 52t68 -16q88 -114 202 -174t225 -64q111 -6 205 46.5t145 163.5q63 154 38 301q-13 72 -37 138q-2 -1 -3 -1q-172 -47 -377.5 -92t-411.5 -82zM1498 913l-8 11q-2 4 -6 9q-106 123 -212 184
q-24 14 -43 -6q-53 -60 -97 -116q-53 -66 -181 -271q252 77 488 166q30 11 59 23zM514 458q-6 0 -11 -1q-174 -17 -227 -4.5t-39 39t68 55t95 41.5q97 17 205 42l126 220q3 3 5 6q31 51 36 95l12 104q0 15 114 50l200 61q43 13 -4 29q-92 29 -210 47.5t-234 15.5
q-116 -4 -215 -35q-36 -21 -64 -43q-96 -75 -98 -165.5t49.5 -145.5t138.5 -51t169 116q27 35 41 8.5t-3 -47.5q-46 -58 -171 -117.5t-242.5 -78t-185.5 27.5t1 199q40 89 139 185q23 28 54 56q101 92 222 157q68 37 143 65q207 79 420 78q213 -2 410 -93t334 -288l23 -40
l88 41q205 98 290 168q11 10 32.5 27.5t27.5 9.5q9 -10 -34.5 -86t-109 -167.5t-135.5 -173.5q-40 -47 -71 -74q17 -119 -6 -231q-42 -199 -165 -345t-307 -221.5t-383 -49.5q-221 30 -362 136q-27 20 -90.5 -21.5l-182.5 -115.5q-66 -41 -20 164q35 160 127 351z" />
    </font>
</defs>
</svg>
